<?xml version="1.0" standalone="no"?>
<!DOCTYPE svg PUBLIC "-//W3C//DTD SVG 1.1//EN" "http://www.w3.org/Graphics/SVG/1.1/DTD/svg11.dtd" >
<svg xmlns="http://www.w3.org/2000/svg" xmlns:xlink="http://www.w3.org/1999/xlink" version="1.1">
<metadata>
Created by FontForge 20170731 at Tue Feb 14 13:37:05 2017
 By Aleksey,,,
Copyright (c) 2017 by Hyun-Seung Lee. All rights reserved.
</metadata>
<defs>
<font id="CarosMedium" horiz-adv-x="799" >
  <font-face 
    font-family="CarosMedium"
    font-weight="500"
    font-stretch="normal"
    units-per-em="2000"
    panose-1="2 11 6 3 3 3 2 2 2 4"
    ascent="1600"
    descent="-400"
    x-height="1036"
    cap-height="1400"
    bbox="-773 -520 2497 2018"
    underline-thickness="48"
    underline-position="-462"
    unicode-range="U+0009-FB04"
  />
<missing-glyph horiz-adv-x="1000" 
d="M880 0h-760v1500h760v-1500zM309 180h382v1139h-382v-1139z" />
    <glyph glyph-name="ff" unicode="ff" horiz-adv-x="1449" 
d="M904 1036v61q0 183 96.5 273t292.5 90q47 0 112 -9v-188q-43 5 -92 5q-96 0 -138.5 -42.5t-42.5 -131.5v-58h273v-200h-273v-836h-228v836h-465v-836h-228v836h-167v200h167v61q0 183 98 273t301 90q103 0 201 -39l-43 -176q-71 23 -146 23q-97 0 -140 -42.5t-43 -131.5
v-58h465z" />
    <glyph glyph-name="fi" unicode="fi" horiz-adv-x="1287" 
d="M211 1036v61q0 183 96.5 273t294.5 90q62 0 118 -9v-188q-47 5 -97 5q-98 0 -141 -42.5t-43 -131.5v-58h693v-1036h-228v836h-465v-836h-228v836h-177v200h177zM877 1318q0 59 40.5 99.5t100.5 40.5t101 -40.5t41 -99.5t-41 -99t-101 -40t-100.5 40t-40.5 99z" />
    <glyph glyph-name="fl" unicode="fl" horiz-adv-x="1281" 
d="M899 0v1162q-114 106 -279 106q-96 0 -138.5 -42.5t-42.5 -131.5v-58h293v-200h-293v-836h-228v836h-192v200h192v61q0 183 96.5 273t292.5 90q82 0 161.5 -29t137.5 -82v111h228v-1460h-228z" />
    <glyph glyph-name="ffi" unicode="ffi" horiz-adv-x="1980" 
d="M904 1036v61q0 183 96.5 273t294.5 90q62 0 118 -9v-188q-47 5 -97 5q-98 0 -141 -42.5t-43 -131.5v-58h693v-1036h-228v836h-465v-836h-228v836h-465v-836h-228v836h-167v200h167v61q0 183 98 273t301 90q103 0 201 -39l-43 -176q-71 23 -146 23q-97 0 -140 -42.5
t-43 -131.5v-58h465zM1570 1318q0 59 40.5 99.5t100.5 40.5t101 -40.5t41 -99.5t-41 -99t-101 -40t-100.5 40t-40.5 99z" />
    <glyph glyph-name="ffl" unicode="ffl" horiz-adv-x="1974" 
d="M1592 0v1162q-122 106 -279 106q-96 0 -138.5 -42.5t-42.5 -131.5v-58h293v-200h-293v-836h-228v836h-465v-836h-228v836h-167v200h167v61q0 183 98 273t301 90q103 0 201 -39l-43 -176q-71 23 -146 23q-97 0 -140 -42.5t-43 -131.5v-58h465v61q0 183 96.5 273t292.5 90
q82 0 161.5 -29t137.5 -82v111h228v-1460h-228z" />
    <glyph glyph-name=".notdef" horiz-adv-x="1000" 
d="M880 0h-760v1500h760v-1500zM309 180h382v1139h-382v-1139z" />
    <glyph glyph-name=".null" horiz-adv-x="0" 
 />
    <glyph glyph-name=".null" horiz-adv-x="0" 
 />
    <glyph glyph-name="nonmarkingreturn" horiz-adv-x="666" 
 />
    <glyph glyph-name="CR" unicode="&#x9;" horiz-adv-x="0" 
 />
    <glyph glyph-name="space" unicode=" " horiz-adv-x="598" 
 />
    <glyph glyph-name="exclam" unicode="!" horiz-adv-x="622" 
d="M228 406l-35 994h236l-35 -994h-166zM162 121q0 62 42.5 103.5t106.5 41.5q63 0 105.5 -41.5t42.5 -103.5t-42.5 -103.5t-105.5 -41.5q-64 0 -106.5 41.5t-42.5 103.5z" />
    <glyph glyph-name="quotedbl" unicode="&#x22;" horiz-adv-x="975" 
d="M231 914l-35 486h227l-35 -486h-157zM586 914l-35 486h227l-35 -486h-157z" />
    <glyph glyph-name="numbersign" unicode="#" horiz-adv-x="1377" 
d="M71 526h225l59 344h-210v186h242l59 344h221l-60 -344h284l59 344h221l-60 -344h195v-186h-226l-60 -344h212v-187h-243l-58 -339h-221l58 339h-283l-58 -339h-221l58 339h-193v187zM576 870l-60 -344h284l59 344h-283z" />
    <glyph glyph-name="dollar" unicode="$" horiz-adv-x="1185" 
d="M120 242l111 119q141 -153 302 -176v446q-200 46 -303 149t-103 252q0 161 112.5 268.5t293.5 121.5v182h154v-189q163 -25 269.5 -127.5t117.5 -274.5h-239q-5 72 -44.5 121t-103.5 70v-393q218 -54 318 -159.5t100 -265.5q0 -164 -112 -274t-306 -131v-185h-154v185
q-118 16 -224 83t-189 178zM866 381q0 140 -179 207v-397q82 18 130.5 68.5t48.5 121.5zM366 1049q0 -128 167 -193v358q-76 -13 -121.5 -57.5t-45.5 -107.5z" />
    <glyph glyph-name="percent" unicode="%" horiz-adv-x="1824" 
d="M474 47l713 1386l157 -85l-713 -1386zM88 1059q0 148 106.5 251.5t265.5 103.5q160 0 266.5 -103.5t106.5 -251.5q0 -149 -106.5 -252t-266.5 -103t-266 103t-106 252zM297 1059q0 -69 46 -120t117 -51t117 51t46 120t-46 119.5t-117 50.5t-117 -50.5t-46 -119.5z
M991 341q0 148 106.5 251.5t265.5 103.5q160 0 266.5 -103.5t106.5 -251.5q0 -149 -106.5 -252t-266.5 -103t-266 103t-106 252zM1200 341q0 -69 46 -120t117 -51t117 51t46 120t-46 119.5t-117 50.5t-117 -50.5t-46 -119.5z" />
    <glyph glyph-name="ampersand" unicode="&#x26;" horiz-adv-x="1476" 
d="M1028 1062h-221q-18 81 -68 129t-125 48q-72 0 -121.5 -46t-49.5 -110q0 -57 42.5 -120t148.5 -161l367 -341q49 93 72 259l211 -19q-14 -216 -118 -397l191 -178l-143 -151l-185 170q-182 -169 -429 -169q-209 0 -347.5 114t-138.5 284q0 123 63 220t190 178
q-80 86 -113 157t-33 152q0 146 115 244.5t277 98.5q168 0 278 -93.5t137 -268.5zM600 169q155 0 278 119l-370 345q-167 -107 -167 -244q0 -93 72.5 -156.5t186.5 -63.5z" />
    <glyph glyph-name="quotesingle" unicode="'" horiz-adv-x="625" 
d="M234 914l-35 486h227l-35 -486h-157z" />
    <glyph glyph-name="parenleft" unicode="(" horiz-adv-x="843" 
d="M228 609q0 267 98 511t275 421l160 -118q-143 -163 -220 -375t-77 -439q0 -226 77 -438t220 -375l-160 -118q-177 177 -275 420.5t-98 510.5z" />
    <glyph glyph-name="parenright" unicode=")" horiz-adv-x="843" 
d="M615 609q0 -266 -98.5 -510t-274.5 -421l-161 118q144 162 221 374t77 439t-77 439.5t-221 374.5l161 118q176 -177 274.5 -421.5t98.5 -510.5z" />
    <glyph glyph-name="asterisk" unicode="*" horiz-adv-x="1118" 
d="M125 804l96 167l248 -151l-7 289h194l-8 -289l249 151l95 -167l-257 -141l257 -140l-95 -168l-249 152l8 -290h-194l7 290l-248 -152l-96 168l257 140z" />
    <glyph glyph-name="plus" unicode="+" horiz-adv-x="1157" 
d="M465 207v358h-347v198h347v357h227v-357h346v-198h-346v-358h-227z" />
    <glyph glyph-name="comma" unicode="," horiz-adv-x="598" 
d="M152 133q0 52 42 93t107 41q64 0 105 -44.5t41 -120.5q0 -128 -72 -230t-214 -164l-63 80q115 79 129 136t-49 135q-26 35 -26 74z" />
    <glyph glyph-name="hyphen" unicode="-" horiz-adv-x="816" 
d="M698 557h-580v213h580v-213z" />
    <glyph glyph-name="period" unicode="." horiz-adv-x="598" 
d="M152 121q0 62 42 104t105 42t105 -42t42 -104t-42 -103.5t-105 -41.5t-105 41.5t-42 103.5z" />
    <glyph glyph-name="slash" unicode="/" horiz-adv-x="935" 
d="M906 1445l-671 -1750l-207 80l672 1750z" />
    <glyph glyph-name="zero" unicode="0" horiz-adv-x="1197" 
d="M116 700q0 155 30 286t89 229t151.5 153.5t211.5 55.5q157 0 268 -97t163 -257.5t52 -369.5t-52 -370t-163 -257.5t-268 -96.5t-267.5 96.5t-162.5 257.5t-52 370zM346 700q0 -239 62.5 -376t189.5 -137t189.5 137t62.5 376q0 238 -62.5 375t-189.5 137t-189.5 -137
t-62.5 -375z" />
    <glyph glyph-name="one" unicode="1" horiz-adv-x="1197" 
d="M574 1400h211v-1400h-233v1172l-246 -134l-94 167z" />
    <glyph glyph-name="two" unicode="2" horiz-adv-x="1197" 
d="M850 600l-363 -399h546v-201h-848v189l484 531q78 86 112 153t34 138q0 93 -61.5 152t-156.5 59q-92 0 -158 -62t-79 -165h-217q12 184 135.5 306.5t320.5 122.5q195 0 321.5 -111.5t126.5 -292.5q0 -114 -46.5 -210t-150.5 -210z" />
    <glyph glyph-name="three" unicode="3" horiz-adv-x="1197" 
d="M534 176q117 0 195.5 77.5t78.5 188.5q0 110 -78.5 187.5t-195.5 77.5q-35 0 -74 -12l-91 114l330 388h-521v203h797v-202l-304 -347q168 -22 269.5 -143t101.5 -290q0 -84 -36 -163.5t-99 -141.5t-158.5 -99.5t-205.5 -37.5q-259 0 -421 256l125 107q118 -163 287 -163z
" />
    <glyph glyph-name="four" unicode="4" horiz-adv-x="1197" 
d="M76 269v203l622 928h227v-923h157v-208h-157v-269h-231v269h-618zM314 475h380v567z" />
    <glyph glyph-name="five" unicode="5" horiz-adv-x="1197" 
d="M563 -24q-264 0 -421 254l128 107q118 -160 282 -160q117 0 195 76t78 189t-78 189t-195 76q-64 0 -117.5 -26.5t-83.5 -69.5l-165 21l86 768h734v-203h-526l-42 -350q70 48 172 48q121 0 222.5 -54.5t163.5 -158.5t62 -238q0 -206 -135.5 -337t-359.5 -131z" />
    <glyph glyph-name="six" unicode="6" horiz-adv-x="1197" 
d="M877 1400l-335 -518q30 16 73 16q93 0 178.5 -32t152.5 -89t107 -144.5t40 -190.5q0 -132 -69.5 -240t-182.5 -167t-243 -59q-132 0 -246 59t-183 167t-69 240q0 137 69 245l461 713h247zM863 443q0 113 -77.5 191t-188.5 78t-189 -78t-78 -191t77.5 -190.5t189.5 -77.5
q111 0 188.5 77.5t77.5 190.5z" />
    <glyph glyph-name="seven" unicode="7" horiz-adv-x="1197" 
d="M165 1400h875v-191l-504 -1209h-256l502 1196h-617v204z" />
    <glyph glyph-name="eight" unicode="8" horiz-adv-x="1197" 
d="M339 419q0 -103 75 -175t184 -72t184 72t75 175t-75 175t-184 72t-184 -72t-75 -175zM1017 1049q0 -90 -50.5 -167.5t-129.5 -113.5q116 -42 182.5 -138t66.5 -217q0 -122 -64 -222.5t-176 -157.5t-248 -57t-248 57t-176 157.5t-64 222.5q0 121 67 217t182 138
q-79 36 -129 113.5t-50 167.5q0 158 119 266.5t299 108.5q181 0 300 -108.5t119 -266.5zM400 1043q0 -76 57.5 -132t140.5 -56t140.5 56t57.5 132t-57.5 130.5t-140.5 54.5t-140.5 -54.5t-57.5 -130.5z" />
    <glyph glyph-name="nine" unicode="9" horiz-adv-x="1197" 
d="M320 0l335 517q-30 -16 -74 -16q-125 0 -233 54t-176.5 160t-68.5 242q0 132 69.5 240.5t182.5 167.5t243 59q132 0 246 -59t183.5 -167.5t69.5 -240.5q0 -137 -70 -244l-460 -713h-247zM333 957q0 -114 77.5 -191.5t189.5 -77.5q111 0 189 77.5t78 191.5
q0 113 -78 190.5t-189 77.5t-189 -77.5t-78 -190.5z" />
    <glyph glyph-name="colon" unicode=":" horiz-adv-x="598" 
d="M152 121q0 62 42 104t105 42t105 -42t42 -104t-42 -103.5t-105 -41.5t-105 41.5t-42 103.5zM152 914q0 62 42 104t105 42t105 -42t42 -104t-42 -103.5t-105 -41.5t-105 41.5t-42 103.5z" />
    <glyph glyph-name="semicolon" unicode=";" horiz-adv-x="598" 
d="M152 914q0 62 42 104t105 42t105 -42t42 -104t-42 -103.5t-105 -41.5t-105 41.5t-42 103.5zM153 133q0 52 42 93t107 41q64 0 105 -44.5t41 -120.5q0 -128 -72.5 -230t-213.5 -164l-64 80q115 79 129 136t-49 135q-25 33 -25 74z" />
    <glyph glyph-name="less" unicode="&#x3c;" horiz-adv-x="1157" 
d="M130 575v175l796 452l88 -154l-606 -385l606 -386l-88 -154z" />
    <glyph glyph-name="equal" unicode="=" horiz-adv-x="1157" 
d="M1038 792h-920v197h920v-197zM1038 338h-920v197h920v-197z" />
    <glyph glyph-name="greater" unicode="&#x3e;" horiz-adv-x="1157" 
d="M1029 750v-175l-797 -452l-88 154l607 386l-607 385l88 154z" />
    <glyph glyph-name="question" unicode="?" horiz-adv-x="1101" 
d="M380 121q0 62 42.5 103.5t105.5 41.5q64 0 106.5 -41.5t42.5 -103.5t-42.5 -103.5t-106.5 -41.5q-63 0 -105.5 41.5t-42.5 103.5zM642 409h-235q0 177 44.5 262t185.5 168q78 47 109.5 91.5t31.5 112.5q0 76 -61 125t-158 49q-109 0 -176.5 -63t-67.5 -170h-234
q0 104 39.5 189t107 138.5t154.5 82.5t186 29q199 0 324 -110.5t125 -277.5q0 -123 -54.5 -204t-194.5 -159q-81 -45 -103.5 -98.5t-22.5 -164.5z" />
    <glyph glyph-name="at" unicode="@" horiz-adv-x="1931" 
d="M522 537q0 179 112.5 304t280.5 125q155 0 261 -114v94h192v-548q0 -55 27.5 -88t73.5 -33q88 0 148.5 83.5t60.5 230.5q0 185 -97.5 340t-262 243.5t-356.5 88.5q-145 0 -276 -55.5t-226.5 -150.5t-151.5 -227.5t-56 -279.5q0 -148 56 -280t153 -227t234 -150.5
t292 -55.5q267 0 480 151l72 -148q-260 -164 -552 -164q-193 0 -363 67t-291 182.5t-191 278t-70 346.5q0 183 70.5 346t190 278.5t283.5 182.5t346 67q189 0 356 -64t285.5 -175t187 -265.5t68.5 -329.5q0 -217 -115.5 -349t-298.5 -132q-78 0 -145.5 37t-101.5 100
q-106 -137 -283 -137q-168 0 -280.5 124.5t-112.5 303.5zM716 537q0 -111 65.5 -184t164.5 -73q98 0 163.5 73t65.5 184t-65.5 184t-163.5 73q-99 0 -164.5 -73t-65.5 -184z" />
    <glyph glyph-name="A" unicode="A" horiz-adv-x="1372" 
d="M555 1400h262l514 -1400h-253l-117 338h-551l-117 -338h-253zM475 535h422l-211 609z" />
    <glyph glyph-name="B" unicode="B" horiz-adv-x="1243" 
d="M734 0h-574v1400h510q190 0 298 -101.5t108 -273.5q0 -104 -48.5 -176.5t-130.5 -105.5q111 -28 184 -118.5t73 -221.5q0 -180 -114.5 -291.5t-305.5 -111.5zM843 1009q0 91 -52.5 141.5t-138.5 50.5h-258v-382h258q86 0 138.5 50t52.5 140zM916 413q0 97 -57.5 155.5
t-149.5 58.5h-315v-428h315q92 0 149.5 58.5t57.5 155.5z" />
    <glyph glyph-name="C" unicode="C" horiz-adv-x="1516" 
d="M1275 460l143 -104q-211 -380 -633 -380q-147 0 -277.5 55t-224.5 150t-149 230t-55 289q0 153 55 288t149 230.5t224.5 150.5t277.5 55q250 0 423 -134.5t229 -368.5h-247q-42 141 -151.5 218.5t-250.5 77.5q-94 0 -179.5 -36.5t-150 -102.5t-102.5 -164t-38 -214
t39 -214.5t105 -164t152.5 -102t182.5 -36.5q305 0 478 277z" />
    <glyph glyph-name="D" unicode="D" horiz-adv-x="1426" 
d="M160 1400h491q318 0 507 -190t189 -510q0 -321 -189 -510.5t-507 -189.5h-491v1400zM646 1193h-250v-986h250q211 0 336.5 126.5t125.5 366.5q0 239 -125.5 366t-336.5 127z" />
    <glyph glyph-name="E" unicode="E" horiz-adv-x="1137" 
d="M160 0v1400h850v-203h-614v-393h564v-201h-564v-401h632v-202h-868z" />
    <glyph glyph-name="F" unicode="F" horiz-adv-x="1067" 
d="M160 0v1400h830v-204h-594v-398h544v-203h-544v-595h-236z" />
    <glyph glyph-name="G" unicode="G" horiz-adv-x="1543" 
d="M761 727h703v-46q0 -165 -49.5 -298.5t-138 -222t-211 -136.5t-268.5 -48q-193 0 -357.5 94.5t-262.5 261.5t-98 368q0 153 56.5 288.5t152 230.5t225.5 150t272 55q257 0 429.5 -131.5t230.5 -347.5h-254q-49 128 -154 199.5t-249 71.5q-91 0 -176 -36.5t-150.5 -101.5
t-104.5 -163.5t-39 -214.5q0 -114 40 -212t106 -164t153.5 -103.5t181.5 -37.5q160 0 276 98.5t133 252.5h-447v193z" />
    <glyph glyph-name="H" unicode="H" horiz-adv-x="1404" 
d="M160 0v1400h236v-595h611v595h236v-1400h-236v601h-611v-601h-236z" />
    <glyph glyph-name="I" unicode="I" horiz-adv-x="588" 
d="M176 1400h236v-1400h-236v1400z" />
    <glyph glyph-name="J" unicode="J" horiz-adv-x="919" 
d="M535 443v957h236v-962q0 -232 -110 -347t-314 -115q-76 0 -156 24.5t-141 69.5l60 166q98 -53 203 -53q222 0 222 260z" />
    <glyph glyph-name="K" unicode="K" horiz-adv-x="1220" 
d="M879 1399h236q0 -554 -293 -713l407 -686h-270l-366 622q-35 -4 -79 -4h-118v-618h-236v1400h236v-578h75q143 0 230.5 54.5t132.5 182t45 340.5z" />
    <glyph glyph-name="L" unicode="L" horiz-adv-x="1034" 
d="M160 0v1400h236v-1196h597v-204h-833z" />
    <glyph glyph-name="M" unicode="M" horiz-adv-x="1798" 
d="M958 190h-119l-454 792v-982h-225v1400h233l506 -892l506 892h232v-1400h-225v982z" />
    <glyph glyph-name="N" unicode="N" horiz-adv-x="1406" 
d="M160 0v1400h235l626 -1008v1008h225v-1400h-235l-626 1008v-1008h-225z" />
    <glyph glyph-name="O" unicode="O" horiz-adv-x="1645" 
d="M318 700q0 -144 67 -262.5t182.5 -186.5t254.5 -68q212 0 358.5 149.5t146.5 367.5q0 143 -67 262t-183 187t-255 68q-104 0 -197.5 -40t-160.5 -109t-106.5 -165t-39.5 -203zM79 700q0 201 97.5 367t268 261.5t377.5 95.5q155 0 293 -56t237 -152.5t156.5 -230.5
t57.5 -285t-57.5 -285t-156.5 -230.5t-237 -152.5t-293 -56q-207 0 -377.5 95.5t-268 261.5t-97.5 367z" />
    <glyph glyph-name="P" unicode="P" horiz-adv-x="1185" 
d="M631 508h-235v-508h-236v1400h471q222 0 353.5 -122t131.5 -324t-131.5 -324t-353.5 -122zM879 954q0 114 -69 180.5t-194 66.5h-220v-495h220q125 0 194 66.5t69 181.5z" />
    <glyph glyph-name="Q" unicode="Q" horiz-adv-x="1645" 
d="M79 700q0 201 97.5 367t268 261.5t377.5 95.5q155 0 293 -56t237 -152.5t156.5 -230.5t57.5 -285q0 -142 -50.5 -268.5t-142.5 -225.5l195 -211l-155 -139l-205 221q-175 -101 -386 -101q-207 0 -377.5 95.5t-268 261.5t-97.5 367zM318 700q0 -144 67 -262.5
t182.5 -186.5t254.5 -68q127 0 236 59l-217 237l155 139l221 -242q110 139 110 324q0 143 -67 262t-183 187t-255 68q-104 0 -197.5 -40t-160.5 -109t-106.5 -165t-39.5 -203z" />
    <glyph glyph-name="R" unicode="R" horiz-adv-x="1213" 
d="M160 1400h471q223 0 354 -121t131 -323q0 -162 -87 -273t-242 -149l359 -534h-259l-342 513h-150v-513h-235v1400zM617 1201h-222v-493h222q124 0 193 66.5t69 179.5q0 114 -69 180.5t-193 66.5z" />
    <glyph glyph-name="S" unicode="S" horiz-adv-x="1185" 
d="M120 242l111 119q167 -181 364 -181q120 0 195.5 55t75.5 146q0 88 -70.5 149t-237.5 96q-212 45 -321.5 148.5t-109.5 257.5q0 173 127 282.5t328 109.5q96 0 180.5 -25.5t152.5 -74.5t110 -129t49 -182h-239q-7 99 -73.5 153t-169.5 54q-99 0 -162.5 -47.5
t-63.5 -123.5q0 -84 70 -140t224 -91q232 -53 338.5 -159.5t106.5 -272.5q0 -182 -136 -296t-367 -114q-137 0 -261.5 69t-220.5 197z" />
    <glyph glyph-name="T" unicode="T" horiz-adv-x="1106" 
d="M435 0v1196h-377v204h989v-204h-376v-1196h-236z" />
    <glyph glyph-name="U" unicode="U" horiz-adv-x="1333" 
d="M1184 1400v-916q0 -149 -69 -265.5t-187 -178.5t-262 -62t-262 62t-187 178.5t-69 265.5v916h236v-932q0 -126 80.5 -204.5t201.5 -78.5t201.5 78.5t80.5 204.5v932h236z" />
    <glyph glyph-name="V" unicode="V" horiz-adv-x="1371" 
d="M290 1400l395 -1112l396 1112h250l-515 -1400h-262l-514 1400h250z" />
    <glyph glyph-name="W" unicode="W" horiz-adv-x="1952" 
d="M859 1400h234l296 -1065l276 1065h247l-395 -1400h-237l-304 1077l-305 -1077h-236l-395 1400h247l275 -1065z" />
    <glyph glyph-name="X" unicode="X" horiz-adv-x="1273" 
d="M1241 0h-258l-347 545l-347 -545h-257l461 713l-442 687h257l328 -519l328 519h258l-443 -687z" />
    <glyph glyph-name="Y" unicode="Y" horiz-adv-x="1294" 
d="M294 1400l353 -604l352 604h255l-489 -831v-569h-236v569l-489 831h254z" />
    <glyph glyph-name="Z" unicode="Z" horiz-adv-x="1210" 
d="M117 199l684 997h-654v204h936v-199l-684 -997h704v-204h-986v199z" />
    <glyph glyph-name="bracketleft" unicode="[" horiz-adv-x="843" 
d="M223 -280v1780h576v-204h-340v-1372h340v-204h-576z" />
    <glyph glyph-name="backslash" unicode="\" horiz-adv-x="935" 
d="M699 -305l-671 1750l206 80l672 -1750z" />
    <glyph glyph-name="bracketright" unicode="]" horiz-adv-x="843" 
d="M620 1500v-1780h-576v204h340v1372h-340v204h576z" />
    <glyph glyph-name="asciicircum" unicode="^" horiz-adv-x="1237" 
d="M509 1400h218l285 -392l-128 -94l-266 294l-266 -294l-128 94z" />
    <glyph glyph-name="underscore" unicode="_" horiz-adv-x="1000" 
d="M0 -363v183h1000v-183h-1000z" />
    <glyph glyph-name="grave" unicode="`" horiz-adv-x="841" 
d="M338 1511l245 -335l-106 -83l-286 300z" />
    <glyph glyph-name="a" unicode="a" horiz-adv-x="1306" 
d="M69 518q0 149 65 273t181.5 196.5t259.5 72.5q223 0 364 -165v141h227v-1036h-227v140q-67 -78 -160 -121t-204 -43q-217 0 -361.5 157t-144.5 385zM300 518q0 -142 92 -240.5t228 -98.5t227.5 98t91.5 241q0 142 -91 240.5t-228 98.5t-228.5 -98.5t-91.5 -240.5z" />
    <glyph glyph-name="b" unicode="b" horiz-adv-x="1324" 
d="M1236 518q0 -112 -38 -212t-104.5 -172.5t-161 -115t-201.5 -42.5q-112 0 -205.5 43t-159.5 121v-140h-227v1460h227v-565q66 78 159.5 121.5t205.5 43.5q143 0 259.5 -72.5t181 -196.5t64.5 -273zM1006 518q0 142 -91.5 240.5t-228.5 98.5t-228.5 -98.5t-91.5 -240.5
t92 -240.5t228 -98.5q135 0 227.5 98.5t92.5 240.5z" />
    <glyph glyph-name="c" unicode="c" horiz-adv-x="1181" 
d="M956 351l135 -92q-75 -140 -193.5 -211.5t-270.5 -71.5t-280 70.5t-203 195.5t-75 276t71 275.5t194.5 195.5t272.5 71q192 0 326 -99t178 -272h-246q-27 79 -93.5 123.5t-157.5 44.5q-127 0 -220.5 -95.5t-93.5 -243.5q0 -150 99 -244.5t240 -94.5q96 0 178.5 45
t138.5 127z" />
    <glyph glyph-name="d" unicode="d" horiz-adv-x="1306" 
d="M69 518q0 149 65 273t181.5 196.5t259.5 72.5q223 0 364 -165v565h227v-1460h-227v140q-67 -78 -160 -121t-204 -43q-217 0 -361.5 157t-144.5 385zM300 518q0 -142 92 -240.5t228 -98.5t227.5 98t91.5 241q0 142 -91 240.5t-228 98.5t-228.5 -98.5t-91.5 -240.5z" />
    <glyph glyph-name="e" unicode="e" horiz-adv-x="1230" 
d="M301 448q17 -124 111 -204t230 -80q106 0 188.5 37t160.5 115l122 -119q-92 -106 -204.5 -163.5t-263.5 -57.5q-127 0 -235 42.5t-182.5 115.5t-116.5 172.5t-42 211.5q0 149 72 273t200 196.5t284 72.5q231 0 383 -152t152 -370q0 -48 -10 -90h-849zM624 872
q-113 0 -200.5 -70t-115.5 -180h615q-22 110 -103.5 180t-195.5 70z" />
    <glyph glyph-name="f" unicode="f" horiz-adv-x="756" 
d="M712 1451v-188q-43 5 -92 5q-96 0 -138.5 -42.5t-42.5 -131.5v-58h273v-200h-273v-836h-228v836h-192v200h192v61q0 183 96.5 273t292.5 90q47 0 112 -9z" />
    <glyph glyph-name="g" unicode="g" horiz-adv-x="1306" 
d="M69 518q0 149 65 273t181.5 196.5t259.5 72.5q223 0 364 -165v141h227v-989q0 -233 -141 -372t-396 -139q-268 0 -462 223l115 125q144 -152 340 -152q145 0 231 80t86 220v108q-67 -78 -160 -121t-204 -43q-217 0 -361.5 157t-144.5 385zM300 518q0 -142 92 -240.5
t228 -98.5t227.5 98t91.5 241q0 142 -91 240.5t-228 98.5t-228.5 -98.5t-91.5 -240.5z" />
    <glyph glyph-name="h" unicode="h" horiz-adv-x="1216" 
d="M683 1060q187 0 300.5 -115t113.5 -306v-639h-228v619q0 98 -66 168t-167 70q-109 0 -188.5 -81.5t-79.5 -205.5v-570h-229v1460h229v-562q54 74 136.5 118t178.5 44z" />
    <glyph glyph-name="i" unicode="i" horiz-adv-x="537" 
d="M154 0v1036h228v-1036h-228zM127 1318q0 59 40.5 99.5t100.5 40.5t101 -40.5t41 -99.5t-41 -99t-101 -40t-100.5 40t-40.5 99z" />
    <glyph glyph-name="j" unicode="j" horiz-adv-x="537" 
d="M154 -114v1150h228v-1155q0 -178 -79.5 -261.5t-240.5 -83.5q-56 0 -98 11v189q9 -1 55 -1q69 0 102 35t33 116zM127 1318q0 59 40.5 99.5t100.5 40.5t101 -40.5t41 -99.5t-41 -99t-101 -40t-100.5 40t-40.5 99z" />
    <glyph glyph-name="k" unicode="k" horiz-adv-x="1051" 
d="M735 1036h228q0 -188 -59 -317.5t-170 -191.5l311 -527h-258l-276 475h-143v-475h-229v1460h229v-789h99q122 0 195 87.5t73 277.5z" />
    <glyph glyph-name="l" unicode="l" horiz-adv-x="537" 
d="M154 0v1460h228v-1460h-228z" />
    <glyph glyph-name="m" unicode="m" horiz-adv-x="1877" 
d="M1361 1060q172 0 284.5 -116.5t112.5 -304.5v-639h-229v619q0 105 -59.5 171.5t-155.5 66.5q-98 0 -174.5 -85.5t-76.5 -201.5v-570h-229v619q0 105 -59.5 171.5t-155.5 66.5q-97 0 -174 -82.5t-77 -204.5v-570h-229v1036h229v-135q56 74 133 116.5t165 42.5
q117 0 210 -57t142 -158q53 99 143.5 157t199.5 58z" />
    <glyph glyph-name="n" unicode="n" horiz-adv-x="1216" 
d="M683 1060q187 0 300.5 -115t113.5 -306v-639h-228v619q0 105 -65 171.5t-168 66.5q-109 0 -188.5 -81.5t-79.5 -205.5v-570h-229v1036h229v-138q54 74 136.5 118t178.5 44z" />
    <glyph glyph-name="o" unicode="o" horiz-adv-x="1274" 
d="M69 518q0 149 73.5 273t204 196.5t290.5 72.5t290.5 -72.5t203.5 -196.5t73 -273t-73 -273t-203.5 -196.5t-290.5 -72.5t-290.5 72.5t-204 196.5t-73.5 273zM300 518q0 -142 97 -240.5t240 -98.5t240 98.5t97 240.5t-97 240.5t-240 98.5t-240 -98.5t-97 -240.5z" />
    <glyph glyph-name="p" unicode="p" horiz-adv-x="1306" 
d="M1236 518q0 -112 -38 -212t-104.5 -172.5t-161 -115t-201.5 -42.5q-112 0 -205.5 43t-159.5 121v-604h-227v1500h227v-141q66 78 159.5 121.5t205.5 43.5q143 0 259.5 -72.5t181 -196.5t64.5 -273zM1006 518q0 142 -91.5 240.5t-228.5 98.5t-228.5 -98.5t-91.5 -240.5
t92 -240.5t228 -98.5q135 0 227.5 98.5t92.5 240.5z" />
    <glyph glyph-name="q" unicode="q" horiz-adv-x="1306" 
d="M69 518q0 149 65 273t181.5 196.5t259.5 72.5q223 0 364 -165v141h227v-1500h-227v604q-67 -78 -160 -121t-204 -43q-217 0 -361.5 157t-144.5 385zM300 518q0 -142 92 -240.5t228 -98.5t227.5 98t91.5 241q0 142 -91 240.5t-228 98.5t-228.5 -98.5t-91.5 -240.5z" />
    <glyph glyph-name="r" unicode="r" horiz-adv-x="808" 
d="M640 857q-111 0 -191.5 -84t-80.5 -210v-563h-229v1036h229v-143q52 76 131.5 121.5t174.5 45.5q48 0 91 -15l-17 -206q-54 18 -108 18z" />
    <glyph glyph-name="s" unicode="s" horiz-adv-x="939" 
d="M88 180l100 115q121 -131 275 -131q84 0 133 35t49 93q0 57 -47.5 93.5t-156.5 57.5q-337 67 -337 322q0 129 99 212t262 83q162 0 262.5 -82.5t122.5 -231.5h-221q-7 57 -46.5 91t-104.5 34t-106.5 -30.5t-41.5 -78.5q0 -106 189 -144q179 -36 265.5 -117t86.5 -212
q0 -137 -106.5 -225t-289.5 -88q-232 0 -387 204z" />
    <glyph glyph-name="t" unicode="t" horiz-adv-x="775" 
d="M446 836v-491q0 -88 42 -129t138 -41q54 0 96 5v-168q-64 -36 -166 -36q-165 0 -251.5 89.5t-86.5 269.5v501h-199v200h199v248l228 52v-300h264v-200h-264z" />
    <glyph glyph-name="u" unicode="u" horiz-adv-x="1216" 
d="M533 -23q-187 0 -300.5 114.5t-113.5 305.5v639h228v-619q0 -105 65 -171.5t168 -66.5q110 0 189 83t79 210v564h229v-1036h-229v137q-54 -74 -136.5 -117t-178.5 -43z" />
    <glyph glyph-name="v" unicode="v" horiz-adv-x="1060" 
d="M799 1036h238l-386 -1036h-242l-386 1036h238l269 -752z" />
    <glyph glyph-name="w" unicode="w" horiz-adv-x="1577" 
d="M672 1036h232l205 -743l209 743h236l-323 -1036h-236l-207 735l-206 -735h-236l-323 1036h235l210 -743z" />
    <glyph glyph-name="x" unicode="x" horiz-adv-x="1060" 
d="M1037 0h-251l-256 379l-257 -379h-250l360 528l-334 508h250l231 -359l230 359h251l-335 -508z" />
    <glyph glyph-name="y" unicode="y" horiz-adv-x="1062" 
d="M471 -464h-239l183 466l-392 1034h238l269 -745l271 745h238z" />
    <glyph glyph-name="z" unicode="z" horiz-adv-x="1019" 
d="M93 0v191l532 646h-506v199h782v-192l-531 -645h551v-199h-828z" />
    <glyph glyph-name="braceleft" unicode="{" horiz-adv-x="843" 
d="M140 508v203q90 0 142 48t52 134v285q0 137 99 229.5t249 92.5h119v-204h-87q-63 0 -103.5 -41t-40.5 -104v-300q0 -193 -182 -241q182 -49 182 -241v-301q0 -63 40.5 -103.5t103.5 -40.5h87v-204h-119q-150 0 -249 92.5t-99 228.5v286q0 85 -52 133t-142 48z" />
    <glyph glyph-name="bar" unicode="|" horiz-adv-x="654" 
d="M218 -280v1780h218v-1780h-218z" />
    <glyph glyph-name="braceright" unicode="}" horiz-adv-x="843" 
d="M703 711v-203q-91 0 -143 -48t-52 -133v-286q0 -136 -98.5 -228.5t-248.5 -92.5h-119v204h86q63 0 103.5 40.5t40.5 103.5v301q0 191 183 241q-183 48 -183 241v300q0 63 -40.5 104t-103.5 41h-86v204h119q150 0 248.5 -92.5t98.5 -229.5v-285q0 -86 52 -134t143 -48z
" />
    <glyph glyph-name="asciitilde" unicode="~" horiz-adv-x="1157" 
d="M551 552q-35 33 -55 50t-50 33.5t-55 16.5q-88 0 -115 -162l-216 50q25 153 101 235.5t198 82.5q136 0 246 -101q37 -34 56 -50t49 -33t55 -17q88 0 115 162l216 -50q-25 -153 -101 -235.5t-198 -82.5q-140 0 -246 101z" />
    <glyph glyph-name="uni00A0" unicode="&#xa0;" horiz-adv-x="598" 
 />
    <glyph glyph-name="exclamdown" unicode="&#xa1;" horiz-adv-x="622" 
d="M193 -364l35 993h166l35 -993h-236zM162 915q0 62 42.5 103.5t106.5 41.5q63 0 105.5 -41.5t42.5 -103.5t-42.5 -103.5t-105.5 -41.5q-64 0 -106.5 41.5t-42.5 103.5z" />
    <glyph glyph-name="cent" unicode="&#xa2;" horiz-adv-x="1181" 
d="M956 351l135 -92q-132 -246 -389 -278v-165h-155v166q-205 27 -341.5 177.5t-136.5 358.5q0 213 135.5 364.5t342.5 173.5v164h155v-167q156 -23 263.5 -118.5t145.5 -245.5h-246q-19 58 -61.5 97.5t-101.5 55.5v-658q76 13 141.5 56t112.5 111zM300 518
q0 -124 69 -211.5t178 -116.5v659q-106 -25 -176.5 -114.5t-70.5 -216.5z" />
    <glyph glyph-name="sterling" unicode="&#xa3;" horiz-adv-x="1156" 
d="M307 551h-170v174h126q-27 67 -39.5 100t-26.5 90.5t-14 106.5q0 169 125.5 285.5t308.5 116.5q177 0 298.5 -109.5t140.5 -296.5h-230q-14 95 -71 147t-138 52q-84 0 -139.5 -57t-55.5 -142q0 -32 9 -72t18.5 -67.5t29.5 -79t28 -74.5h353v-174h-314q1 -11 1 -32
q0 -196 -134 -312h636v-207h-906v200q81 53 123 133.5t42 178.5q0 26 -1 39z" />
    <glyph glyph-name="currency" unicode="&#xa4;" horiz-adv-x="1262" 
d="M169 652q0 135 77 242l-179 179l141 139l187 -185q106 60 236 60t236 -60l187 185l140 -139l-178 -179q77 -109 77 -242t-77 -242l178 -180l-140 -139l-187 185q-109 -60 -236 -60t-236 60l-187 -185l-141 139l179 180q-77 107 -77 242zM388 652q0 -102 70.5 -173
t172.5 -71t172.5 71t70.5 173t-70.5 173t-172.5 71t-172.5 -71t-70.5 -173z" />
    <glyph glyph-name="yen" unicode="&#xa5;" horiz-adv-x="1294" 
d="M167 490h362v79l-14 23h-348v134h270l-397 674h254l353 -604l352 604h255l-397 -674h269v-134h-348l-13 -23v-79h361v-134h-361v-356h-236v356h-362v134z" />
    <glyph glyph-name="brokenbar" unicode="&#xa6;" horiz-adv-x="654" 
d="M218 700v800h218v-800h-218zM218 -280v800h218v-800h-218z" />
    <glyph glyph-name="section" unicode="&#xa7;" horiz-adv-x="1015" 
d="M519 1246q-68 0 -108.5 -34t-40.5 -85q0 -50 55 -87.5t182 -74.5q166 -49 239 -126t73 -194q0 -89 -50.5 -157t-136.5 -106q88 -37 139 -105t51 -157q0 -144 -104 -232t-300 -88q-228 0 -402 213l112 98q133 -133 278 -133q86 0 129.5 36.5t43.5 93.5q0 58 -43.5 95
t-163.5 68q-174 44 -258 123.5t-84 204.5q0 94 49 161.5t138 106.5q-190 82 -190 262q0 132 105 213.5t282 81.5q169 0 271.5 -85.5t128.5 -241.5h-229q-13 65 -55.5 107t-110.5 42zM528 455q72 16 116 61.5t44 108.5q0 132 -168 170q-72 -16 -116 -61.5t-44 -108.5
q0 -132 168 -170z" />
    <glyph glyph-name="dieresis" unicode="&#xa8;" horiz-adv-x="841" 
d="M104 1292q0 54 37.5 91.5t92.5 37.5t92.5 -37.5t37.5 -91.5q0 -55 -37.5 -92.5t-92.5 -37.5t-92.5 37.5t-37.5 92.5zM476 1292q0 54 37.5 91.5t92.5 37.5t92.5 -37.5t37.5 -91.5q0 -55 -37.5 -92.5t-92.5 -37.5t-92.5 37.5t-37.5 92.5z" />
    <glyph glyph-name="copyright" unicode="&#xa9;" horiz-adv-x="1605" 
d="M78 700q0 149 56.5 283t153.5 231t231 153.5t283 56.5t283 -56.5t231 -153.5t153.5 -231t56.5 -283t-56.5 -283t-153.5 -231t-231 -153.5t-283 -56.5t-283 56.5t-231 153.5t-153.5 231t-56.5 283zM199 700q0 -168 80 -308.5t219 -221.5t304 -81t304 81t219 221.5
t80 308.5t-80 308t-219 221t-304 81t-304 -81t-219 -221t-80 -308zM407 698q0 171 110.5 283t278.5 112q155 0 252.5 -80.5t121.5 -206.5h-179q-17 60 -65.5 94t-116.5 34q-90 0 -156 -64.5t-66 -171.5q0 -109 70 -173.5t172 -64.5q66 0 124.5 29t99.5 83l109 -66
q-54 -98 -142.5 -151.5t-203.5 -53.5q-175 0 -292 113t-117 284z" />
    <glyph glyph-name="ordfeminine" unicode="&#xaa;" horiz-adv-x="918" 
d="M61 1036q0 160 102.5 270t252.5 110q137 0 219 -101v85h192v-728h-192v84q-82 -100 -219 -100q-150 0 -252.5 110t-102.5 270zM255 1036q0 -88 53.5 -147t136.5 -59t136 59t53 147t-53.5 147t-135.5 59q-83 0 -136.5 -59t-53.5 -147z" />
    <glyph glyph-name="guillemotleft" unicode="&#xab;" horiz-adv-x="1280" 
d="M99 544v157l510 332l69 -116l-364 -295l364 -294l-69 -117zM598 544v157l510 332l69 -116l-364 -295l364 -294l-69 -117z" />
    <glyph glyph-name="logicalnot" unicode="&#xac;" horiz-adv-x="1157" 
d="M811 230v335h-693v198h920v-533h-227z" />
    <glyph glyph-name="uni00AD" unicode="&#xad;" horiz-adv-x="816" 
d="M698 557h-580v213h580v-213z" />
    <glyph glyph-name="registered" unicode="&#xae;" horiz-adv-x="1605" 
d="M78 700q0 149 56.5 283t153.5 231t231 153.5t283 56.5t283 -56.5t231 -153.5t153.5 -231t56.5 -283t-56.5 -283t-153.5 -231t-231 -153.5t-283 -56.5t-283 56.5t-231 153.5t-153.5 231t-56.5 283zM199 700q0 -168 80 -308.5t219 -221.5t304 -81t304 81t219 221.5
t80 308.5t-80 308t-219 221t-304 81t-304 -81t-219 -221t-80 -308zM552 1082h285q118 0 194.5 -70.5t76.5 -178.5q0 -80 -44 -140.5t-119 -87.5l181 -290h-181l-166 269h-62v-269h-165v767zM821 933h-104v-214h104q55 0 88.5 30t33.5 77t-33.5 77t-88.5 30z" />
    <glyph glyph-name="macron" unicode="&#xaf;" horiz-adv-x="841" 
d="M120 1201v174h600v-174h-600z" />
    <glyph glyph-name="degree" unicode="&#xb0;" horiz-adv-x="798" 
d="M277 1150q0 -52 34.5 -87t87.5 -35q52 0 87 35.5t35 86.5q0 52 -35 87t-87 35q-53 0 -87.5 -35t-34.5 -87zM116 1150q0 115 81.5 193.5t201.5 78.5q119 0 200.5 -78.5t81.5 -193.5t-81.5 -193.5t-200.5 -78.5q-120 0 -201.5 78.5t-81.5 193.5z" />
    <glyph glyph-name="plusminus" unicode="&#xb1;" horiz-adv-x="1157" 
d="M465 310v345h-347v197h347v346h227v-346h346v-197h-346v-345h-227zM1038 0h-920v197h920v-197z" />
    <glyph glyph-name="twosuperior" unicode="&#xb2;" 
d="M570 854l-222 -241h347v-161h-603v143l326 357q50 54 71 96.5t21 88.5q0 55 -35 90t-90 35q-57 0 -96.5 -43t-47.5 -116h-180q10 150 99 235.5t226 85.5q139 0 229 -78t90 -204q0 -77 -32 -143.5t-103 -144.5z" />
    <glyph glyph-name="threesuperior" unicode="&#xb3;" 
d="M522 751q0 68 -46 114.5t-115 46.5q-28 0 -58 -11l-75 92l209 245h-333v162h569v-149l-192 -219q107 -24 172 -105.5t65 -191.5q0 -130 -97 -218.5t-253 -88.5q-94 0 -171.5 48.5t-132.5 134.5l100 88q47 -56 93.5 -83.5t103.5 -27.5q69 0 115 47t46 116z" />
    <glyph glyph-name="acute" unicode="&#xb4;" horiz-adv-x="841" 
d="M245 1176l245 335l147 -118l-286 -300z" />
    <glyph glyph-name="mu" unicode="&#xb5;" horiz-adv-x="1236" 
d="M139 -464v1500h228v-626q0 -94 67.5 -162.5t165.5 -68.5q109 0 188.5 81.5t79.5 205.5v570h229v-1036h-229v137q-54 -74 -136.5 -117t-178.5 -43q-103 0 -186 39v-480h-228z" />
    <glyph glyph-name="paragraph" unicode="&#xb6;" horiz-adv-x="1168" 
d="M574 536h-53q-188 0 -316 124.5t-128 307.5t128 307.5t316 124.5h480v-1662h-160v1508h-107v-1508h-160v798z" />
    <glyph glyph-name="periodcentered" unicode="&#xb7;" horiz-adv-x="598" 
d="M152 651q0 62 42 104t105 42t105 -42t42 -104t-42 -103.5t-105 -41.5t-105 41.5t-42 103.5z" />
    <glyph glyph-name="cedilla" unicode="&#xb8;" horiz-adv-x="841" 
d="M512 -302q0 37 -29.5 63.5t-70.5 26.5q-27 0 -49 -7l-40 36v183h154v-106q97 -6 151 -62.5t54 -136.5q0 -93 -74 -154t-187 -61q-104 0 -182 58t-93 155h157q10 -39 39 -61.5t68 -22.5q47 0 74.5 24.5t27.5 64.5z" />
    <glyph glyph-name="onesuperior" unicode="&#xb9;" 
d="M385 1400h166v-948h-196v754l-154 -84l-74 140z" />
    <glyph glyph-name="ordmasculine" unicode="&#xba;" horiz-adv-x="918" 
d="M61 1036q0 159 115.5 269.5t282.5 110.5q166 0 281.5 -110.5t115.5 -269.5t-115.5 -269.5t-281.5 -110.5q-167 0 -282.5 110.5t-115.5 269.5zM255 1036q0 -89 58 -147.5t146 -58.5q87 0 145 59t58 147t-58 147t-145 59q-88 0 -146 -59t-58 -147z" />
    <glyph glyph-name="guillemotright" unicode="&#xbb;" horiz-adv-x="1280" 
d="M1181 701v-157l-511 -333l-68 117l364 294l-364 295l68 116zM682 701v-157l-511 -333l-68 117l364 294l-364 295l68 116z" />
    <glyph glyph-name="onequarter" unicode="&#xbc;" horiz-adv-x="1925" 
d="M547 42l679 1392l152 -79l-680 -1392zM385 1400h166v-948h-196v754l-154 -84l-74 140zM1163 177v149l422 622h182v-607h104v-164h-104v-177h-192v177h-412zM1364 339h211v319z" />
    <glyph glyph-name="onehalf" unicode="&#xbd;" horiz-adv-x="1925" 
d="M547 42l679 1392l152 -79l-680 -1392zM385 1400h166v-948h-196v754l-154 -84l-74 140zM1697 402l-222 -241h347v-161h-603v143l326 357q50 54 71 96.5t21 88.5q0 55 -35 90t-90 35q-57 0 -96.5 -43t-47.5 -116h-180q10 150 99 235.5t226 85.5q139 0 229 -78t90 -204
q0 -77 -32 -143.5t-103 -144.5z" />
    <glyph glyph-name="threequarters" unicode="&#xbe;" horiz-adv-x="1925" 
d="M547 42l679 1392l152 -79l-680 -1392zM1163 177v149l422 622h182v-607h104v-164h-104v-177h-192v177h-412zM1364 339h211v319zM522 751q0 68 -46 114.5t-115 46.5q-28 0 -58 -11l-75 92l209 245h-333v162h569v-149l-192 -219q107 -24 172 -105.5t65 -191.5
q0 -130 -97 -218.5t-253 -88.5q-94 0 -171.5 48.5t-132.5 134.5l100 88q47 -56 93.5 -83.5t103.5 -27.5q69 0 115 47t46 116z" />
    <glyph glyph-name="questiondown" unicode="&#xbf;" horiz-adv-x="1101" 
d="M720 915q0 -62 -42.5 -103.5t-106.5 -41.5q-63 0 -105.5 41.5t-42.5 103.5t42.5 103.5t105.5 41.5q64 0 106.5 -41.5t42.5 -103.5zM458 627h235q0 -177 -44.5 -262t-185.5 -168q-78 -46 -109.5 -91t-31.5 -113q0 -76 60.5 -125.5t157.5 -49.5q109 0 176.5 63t67.5 170
h234q0 -138 -68 -239.5t-177 -150.5t-242 -49q-198 0 -323.5 111t-125.5 277q0 117 56 201.5t193 161.5q82 46 104.5 99.5t22.5 164.5z" />
    <glyph glyph-name="Agrave" unicode="&#xc0;" horiz-adv-x="1372" 
d="M555 1400h262l514 -1400h-253l-117 338h-551l-117 -338h-253zM475 535h422l-211 609zM572 1899l245 -335l-106 -83l-286 300z" />
    <glyph glyph-name="Aacute" unicode="&#xc1;" horiz-adv-x="1372" 
d="M555 1400h262l514 -1400h-253l-117 338h-551l-117 -338h-253zM475 535h422l-211 609zM557 1564l245 335l147 -118l-286 -300z" />
    <glyph glyph-name="Acircumflex" unicode="&#xc2;" horiz-adv-x="1372" 
d="M555 1400h262l514 -1400h-253l-117 338h-551l-117 -338h-253zM475 535h422l-211 609zM578 1849h215l223 -304l-106 -83l-224 235l-225 -235l-106 83z" />
    <glyph glyph-name="Atilde" unicode="&#xc3;" horiz-adv-x="1372" 
d="M555 1400h262l514 -1400h-253l-117 338h-551l-117 -338h-253zM475 535h422l-211 609zM689 1570q-73 49 -105 49q-45 0 -64 -88l-187 37q44 220 198 220q71 0 151 -51q2 -1 15 -10t16.5 -11t14.5 -8.5t16 -8.5t13.5 -6t15.5 -5t13 -1q46 0 65 88l186 -37
q-44 -220 -197 -220q-74 0 -151 52z" />
    <glyph glyph-name="Adieresis" unicode="&#xc4;" horiz-adv-x="1372" 
d="M555 1400h262l514 -1400h-253l-117 338h-551l-117 -338h-253zM475 535h422l-211 609zM369 1664q0 54 37.5 91.5t92.5 37.5t92.5 -37.5t37.5 -91.5q0 -55 -37.5 -92.5t-92.5 -37.5t-92.5 37.5t-37.5 92.5zM741 1664q0 54 37.5 91.5t92.5 37.5t92.5 -37.5t37.5 -91.5
q0 -55 -37.5 -92.5t-92.5 -37.5t-92.5 37.5t-37.5 92.5z" />
    <glyph glyph-name="Aring" unicode="&#xc5;" horiz-adv-x="1372" 
d="M555 1400h262l514 -1400h-253l-117 338h-551l-117 -338h-253zM475 535h422l-211 609zM606 1685q0 -33 22.5 -55t56.5 -22t56.5 22t22.5 55t-22.5 55.5t-56.5 22.5t-56.5 -22.5t-22.5 -55.5zM467 1685q0 86 62.5 143.5t155.5 57.5q94 0 156 -57.5t62 -143.5t-62 -143.5
t-156 -57.5q-93 0 -155.5 57.5t-62.5 143.5z" />
    <glyph glyph-name="AE" unicode="&#xc6;" horiz-adv-x="1855" 
d="M272 0h-262l789 1400h929v-203h-597v-393h548v-201h-548v-401h615v-202h-850v338h-439zM896 1140l-333 -605h333v605z" />
    <glyph glyph-name="Ccedilla" unicode="&#xc7;" horiz-adv-x="1516" 
d="M895 -302q0 37 -29.5 63.5t-70.5 26.5q-27 0 -49 -7l-40 36v163q-178 18 -320.5 115t-224.5 255.5t-82 349.5q0 153 55 288t149 230.5t224.5 150.5t277.5 55q250 0 423 -134.5t229 -368.5h-247q-42 141 -151.5 218.5t-250.5 77.5q-94 0 -179.5 -36.5t-150 -102.5
t-102.5 -164t-38 -214t39 -214.5t105 -164t152.5 -102t182.5 -36.5q305 0 478 277l143 -104q-193 -346 -558 -376v-86q97 -6 151 -62.5t54 -136.5q0 -93 -74 -154t-187 -61q-104 0 -182 58t-93 155h157q10 -39 39 -61.5t68 -22.5q47 0 74.5 24.5t27.5 64.5z" />
    <glyph glyph-name="Egrave" unicode="&#xc8;" horiz-adv-x="1137" 
d="M160 0v1400h850v-203h-614v-393h564v-201h-564v-401h632v-202h-868zM451 1899l245 -335l-106 -83l-286 300z" />
    <glyph glyph-name="Eacute" unicode="&#xc9;" horiz-adv-x="1137" 
d="M160 0v1400h850v-203h-614v-393h564v-201h-564v-401h632v-202h-868zM478 1564l245 335l147 -118l-286 -300z" />
    <glyph glyph-name="Ecircumflex" unicode="&#xca;" horiz-adv-x="1137" 
d="M160 0v1400h850v-203h-614v-393h564v-201h-564v-401h632v-202h-868zM478 1849h215l223 -304l-106 -83l-224 235l-225 -235l-106 83z" />
    <glyph glyph-name="Edieresis" unicode="&#xcb;" horiz-adv-x="1137" 
d="M160 0v1400h850v-203h-614v-393h564v-201h-564v-401h632v-202h-868zM260 1664q0 54 37.5 91.5t92.5 37.5t92.5 -37.5t37.5 -91.5q0 -55 -37.5 -92.5t-92.5 -37.5t-92.5 37.5t-37.5 92.5zM632 1664q0 54 37.5 91.5t92.5 37.5t92.5 -37.5t37.5 -91.5q0 -55 -37.5 -92.5
t-92.5 -37.5t-92.5 37.5t-37.5 92.5z" />
    <glyph glyph-name="Igrave" unicode="&#xcc;" horiz-adv-x="588" 
d="M176 1400h236v-1400h-236v1400zM199 1899l245 -335l-106 -83l-286 300z" />
    <glyph glyph-name="Iacute" unicode="&#xcd;" horiz-adv-x="588" 
d="M176 1400h236v-1400h-236v1400zM130 1564l245 335l147 -118l-286 -300z" />
    <glyph glyph-name="Icircumflex" unicode="&#xce;" horiz-adv-x="588" 
d="M176 1400h236v-1400h-236v1400zM186 1849h215l223 -304l-106 -83l-224 235l-225 -235l-106 83z" />
    <glyph glyph-name="Idieresis" unicode="&#xcf;" horiz-adv-x="588" 
d="M176 1400h236v-1400h-236v1400zM-23 1664q0 54 37.5 91.5t92.5 37.5t92.5 -37.5t37.5 -91.5q0 -55 -37.5 -92.5t-92.5 -37.5t-92.5 37.5t-37.5 92.5zM349 1664q0 54 37.5 91.5t92.5 37.5t92.5 -37.5t37.5 -91.5q0 -55 -37.5 -92.5t-92.5 -37.5t-92.5 37.5t-37.5 92.5z
" />
    <glyph glyph-name="Eth" unicode="&#xd0;" horiz-adv-x="1462" 
d="M197 1400h491q318 0 506.5 -190t188.5 -510q0 -321 -188.5 -510.5t-506.5 -189.5h-491v617h-179v165h179v618zM714 617h-281v-410h250q211 0 336 126.5t125 366.5t-125 366.5t-336 126.5h-250v-411h281v-165z" />
    <glyph glyph-name="Ntilde" unicode="&#xd1;" horiz-adv-x="1406" 
d="M160 0v1400h235l626 -1008v1008h225v-1400h-235l-626 1008v-1008h-225zM706 1570q-73 49 -105 49q-45 0 -64 -88l-187 37q44 220 198 220q71 0 151 -51q2 -1 15 -10t16.5 -11t14.5 -8.5t16 -8.5t13.5 -6t15.5 -5t13 -1q46 0 65 88l186 -37q-44 -220 -197 -220
q-74 0 -151 52z" />
    <glyph glyph-name="Ograve" unicode="&#xd2;" horiz-adv-x="1645" 
d="M318 700q0 -144 67 -262.5t182.5 -186.5t254.5 -68q212 0 358.5 149.5t146.5 367.5q0 143 -67 262t-183 187t-255 68q-104 0 -197.5 -40t-160.5 -109t-106.5 -165t-39.5 -203zM79 700q0 201 97.5 367t268 261.5t377.5 95.5q155 0 293 -56t237 -152.5t156.5 -230.5
t57.5 -285t-57.5 -285t-156.5 -230.5t-237 -152.5t-293 -56q-207 0 -377.5 95.5t-268 261.5t-97.5 367zM723 1899l245 -335l-106 -83l-286 300z" />
    <glyph glyph-name="Oacute" unicode="&#xd3;" horiz-adv-x="1645" 
d="M318 700q0 -144 67 -262.5t182.5 -186.5t254.5 -68q212 0 358.5 149.5t146.5 367.5q0 143 -67 262t-183 187t-255 68q-104 0 -197.5 -40t-160.5 -109t-106.5 -165t-39.5 -203zM79 700q0 201 97.5 367t268 261.5t377.5 95.5q155 0 293 -56t237 -152.5t156.5 -230.5
t57.5 -285t-57.5 -285t-156.5 -230.5t-237 -152.5t-293 -56q-207 0 -377.5 95.5t-268 261.5t-97.5 367zM663 1564l245 335l147 -118l-286 -300z" />
    <glyph glyph-name="Ocircumflex" unicode="&#xd4;" horiz-adv-x="1645" 
d="M318 700q0 -144 67 -262.5t182.5 -186.5t254.5 -68q212 0 358.5 149.5t146.5 367.5q0 143 -67 262t-183 187t-255 68q-104 0 -197.5 -40t-160.5 -109t-106.5 -165t-39.5 -203zM79 700q0 201 97.5 367t268 261.5t377.5 95.5q155 0 293 -56t237 -152.5t156.5 -230.5
t57.5 -285t-57.5 -285t-156.5 -230.5t-237 -152.5t-293 -56q-207 0 -377.5 95.5t-268 261.5t-97.5 367zM715 1849h215l223 -304l-106 -83l-224 235l-225 -235l-106 83z" />
    <glyph glyph-name="Otilde" unicode="&#xd5;" horiz-adv-x="1645" 
d="M318 700q0 -144 67 -262.5t182.5 -186.5t254.5 -68q212 0 358.5 149.5t146.5 367.5q0 143 -67 262t-183 187t-255 68q-104 0 -197.5 -40t-160.5 -109t-106.5 -165t-39.5 -203zM79 700q0 201 97.5 367t268 261.5t377.5 95.5q155 0 293 -56t237 -152.5t156.5 -230.5
t57.5 -285t-57.5 -285t-156.5 -230.5t-237 -152.5t-293 -56q-207 0 -377.5 95.5t-268 261.5t-97.5 367zM826 1570q-73 49 -105 49q-45 0 -64 -88l-187 37q44 220 198 220q71 0 151 -51q2 -1 15 -10t16.5 -11t14.5 -8.5t16 -8.5t13.5 -6t15.5 -5t13 -1q46 0 65 88l186 -37
q-44 -220 -197 -220q-74 0 -151 52z" />
    <glyph glyph-name="Odieresis" unicode="&#xd6;" horiz-adv-x="1645" 
d="M318 700q0 -144 67 -262.5t182.5 -186.5t254.5 -68q212 0 358.5 149.5t146.5 367.5q0 143 -67 262t-183 187t-255 68q-104 0 -197.5 -40t-160.5 -109t-106.5 -165t-39.5 -203zM79 700q0 201 97.5 367t268 261.5t377.5 95.5q155 0 293 -56t237 -152.5t156.5 -230.5
t57.5 -285t-57.5 -285t-156.5 -230.5t-237 -152.5t-293 -56q-207 0 -377.5 95.5t-268 261.5t-97.5 367zM506 1664q0 54 37.5 91.5t92.5 37.5t92.5 -37.5t37.5 -91.5q0 -55 -37.5 -92.5t-92.5 -37.5t-92.5 37.5t-37.5 92.5zM878 1664q0 54 37.5 91.5t92.5 37.5t92.5 -37.5
t37.5 -91.5q0 -55 -37.5 -92.5t-92.5 -37.5t-92.5 37.5t-37.5 92.5z" />
    <glyph glyph-name="multiply" unicode="&#xd7;" horiz-adv-x="1157" 
d="M869 1103l151 -151l-291 -293l291 -292l-151 -151l-291 291l-290 -291l-152 151l291 292l-291 293l152 151l290 -292z" />
    <glyph glyph-name="Oslash" unicode="&#xd8;" horiz-adv-x="1645" 
d="M79 700q0 201 97.5 367t268 261.5t377.5 95.5q203 0 378 -97l142 181l128 -94l-141 -179q112 -100 174.5 -238.5t62.5 -296.5q0 -151 -57.5 -285t-156.5 -230.5t-237 -152.5t-293 -56q-219 0 -396 107l-148 -188l-128 93l150 190q-105 100 -163 234t-58 288zM1327 700
q0 209 -137 356l-629 -801q119 -72 261 -72q212 0 358.5 149.5t146.5 367.5zM318 700q0 -198 123 -342l624 796q-113 63 -243 63q-104 0 -197.5 -40t-160.5 -109t-106.5 -165t-39.5 -203z" />
    <glyph glyph-name="Ugrave" unicode="&#xd9;" horiz-adv-x="1333" 
d="M1184 1400v-916q0 -149 -69 -265.5t-187 -178.5t-262 -62t-262 62t-187 178.5t-69 265.5v916h236v-932q0 -126 80.5 -204.5t201.5 -78.5t201.5 78.5t80.5 204.5v932h236zM563 1899l245 -335l-106 -83l-286 300z" />
    <glyph glyph-name="Uacute" unicode="&#xda;" horiz-adv-x="1333" 
d="M1184 1400v-916q0 -149 -69 -265.5t-187 -178.5t-262 -62t-262 62t-187 178.5t-69 265.5v916h236v-932q0 -126 80.5 -204.5t201.5 -78.5t201.5 78.5t80.5 204.5v932h236zM513 1564l245 335l147 -118l-286 -300z" />
    <glyph glyph-name="Ucircumflex" unicode="&#xdb;" horiz-adv-x="1333" 
d="M1184 1400v-916q0 -149 -69 -265.5t-187 -178.5t-262 -62t-262 62t-187 178.5t-69 265.5v916h236v-932q0 -126 80.5 -204.5t201.5 -78.5t201.5 78.5t80.5 204.5v932h236zM559 1849h215l223 -304l-106 -83l-224 235l-225 -235l-106 83z" />
    <glyph glyph-name="Udieresis" unicode="&#xdc;" horiz-adv-x="1333" 
d="M1184 1400v-916q0 -149 -69 -265.5t-187 -178.5t-262 -62t-262 62t-187 178.5t-69 265.5v916h236v-932q0 -126 80.5 -204.5t201.5 -78.5t201.5 78.5t80.5 204.5v932h236zM350 1664q0 54 37.5 91.5t92.5 37.5t92.5 -37.5t37.5 -91.5q0 -55 -37.5 -92.5t-92.5 -37.5
t-92.5 37.5t-37.5 92.5zM722 1664q0 54 37.5 91.5t92.5 37.5t92.5 -37.5t37.5 -91.5q0 -55 -37.5 -92.5t-92.5 -37.5t-92.5 37.5t-37.5 92.5z" />
    <glyph glyph-name="Yacute" unicode="&#xdd;" horiz-adv-x="1294" 
d="M294 1400l353 -604l352 604h255l-489 -831v-569h-236v569l-489 831h254zM494 1564l245 335l147 -118l-286 -300z" />
    <glyph glyph-name="Thorn" unicode="&#xde;" horiz-adv-x="1185" 
d="M631 254h-235v-254h-236v1400h236v-254h235q222 0 353.5 -122t131.5 -324t-131.5 -324t-353.5 -122zM879 700q0 114 -69 180.5t-194 66.5h-220v-495h220q125 0 194 66.5t69 181.5z" />
    <glyph glyph-name="germandbls" unicode="&#xdf;" horiz-adv-x="1224" 
d="M449 70l51 153q93 -50 189 -50q102 0 160.5 74t58.5 195q0 110 -78.5 187.5t-195.5 77.5q-35 0 -74 -12l-71 114l200 388h-309v-1197h-232v1400h782v-202l-189 -347q176 -9 288.5 -133t112.5 -300q0 -194 -115 -318t-317 -124q-144 0 -261 94z" />
    <glyph glyph-name="agrave" unicode="&#xe0;" horiz-adv-x="1306" 
d="M69 518q0 149 65 273t181.5 196.5t259.5 72.5q223 0 364 -165v141h227v-1036h-227v140q-67 -78 -160 -121t-204 -43q-217 0 -361.5 157t-144.5 385zM300 518q0 -142 92 -240.5t228 -98.5t227.5 98t91.5 241q0 142 -91 240.5t-228 98.5t-228.5 -98.5t-91.5 -240.5z
M548 1575l245 -335l-106 -83l-286 300z" />
    <glyph glyph-name="aacute" unicode="&#xe1;" horiz-adv-x="1306" 
d="M69 518q0 149 65 273t181.5 196.5t259.5 72.5q223 0 364 -165v141h227v-1036h-227v140q-67 -78 -160 -121t-204 -43q-217 0 -361.5 157t-144.5 385zM300 518q0 -142 92 -240.5t228 -98.5t227.5 98t91.5 241q0 142 -91 240.5t-228 98.5t-228.5 -98.5t-91.5 -240.5z
M494 1240l245 335l147 -118l-286 -300z" />
    <glyph glyph-name="acircumflex" unicode="&#xe2;" horiz-adv-x="1306" 
d="M69 518q0 149 65 273t181.5 196.5t259.5 72.5q223 0 364 -165v141h227v-1036h-227v140q-67 -78 -160 -121t-204 -43q-217 0 -361.5 157t-144.5 385zM300 518q0 -142 92 -240.5t228 -98.5t227.5 98t91.5 241q0 142 -91 240.5t-228 98.5t-228.5 -98.5t-91.5 -240.5z
M532 1525h215l223 -304l-106 -83l-224 235l-225 -235l-106 83z" />
    <glyph glyph-name="atilde" unicode="&#xe3;" horiz-adv-x="1306" 
d="M69 518q0 149 65 273t181.5 196.5t259.5 72.5q223 0 364 -165v141h227v-1036h-227v140q-67 -78 -160 -121t-204 -43q-217 0 -361.5 157t-144.5 385zM300 518q0 -142 92 -240.5t228 -98.5t227.5 98t91.5 241q0 142 -91 240.5t-228 98.5t-228.5 -98.5t-91.5 -240.5z
M643 1245q-73 49 -105 49q-45 0 -64 -88l-187 37q44 220 198 220q71 0 151 -51q2 -1 15 -10t16.5 -11t14.5 -8.5t16 -8.5t13.5 -6t15.5 -5t13 -1q46 0 65 88l186 -37q-44 -220 -197 -220q-74 0 -151 52z" />
    <glyph glyph-name="adieresis" unicode="&#xe4;" horiz-adv-x="1306" 
d="M69 518q0 149 65 273t181.5 196.5t259.5 72.5q223 0 364 -165v141h227v-1036h-227v140q-67 -78 -160 -121t-204 -43q-217 0 -361.5 157t-144.5 385zM300 518q0 -142 92 -240.5t228 -98.5t227.5 98t91.5 241q0 142 -91 240.5t-228 98.5t-228.5 -98.5t-91.5 -240.5z
M305 1340q0 54 37.5 91.5t92.5 37.5t92.5 -37.5t37.5 -91.5q0 -55 -37.5 -92.5t-92.5 -37.5t-92.5 37.5t-37.5 92.5zM677 1340q0 54 37.5 91.5t92.5 37.5t92.5 -37.5t37.5 -91.5q0 -55 -37.5 -92.5t-92.5 -37.5t-92.5 37.5t-37.5 92.5z" />
    <glyph glyph-name="aring" unicode="&#xe5;" horiz-adv-x="1306" 
d="M69 518q0 149 65 273t181.5 196.5t259.5 72.5q223 0 364 -165v141h227v-1036h-227v140q-67 -78 -160 -121t-204 -43q-217 0 -361.5 157t-144.5 385zM300 518q0 -142 92 -240.5t228 -98.5t227.5 98t91.5 241q0 142 -91 240.5t-228 98.5t-228.5 -98.5t-91.5 -240.5z
M559 1361q0 -33 22.5 -55t56.5 -22t56.5 22t22.5 55t-22.5 55.5t-56.5 22.5t-56.5 -22.5t-22.5 -55.5zM420 1361q0 86 62.5 143.5t155.5 57.5q94 0 156 -57.5t62 -143.5t-62 -143.5t-156 -57.5q-93 0 -155.5 57.5t-62.5 143.5z" />
    <glyph glyph-name="ae" unicode="&#xe6;" horiz-adv-x="2100" 
d="M1172 448q17 -124 111 -204t230 -80q192 0 334 144l121 -118q-177 -214 -452 -214q-106 0 -198 41.5t-152 122.5v-140h-227v140q-67 -78 -160 -121t-204 -43q-217 0 -361.5 157t-144.5 385q0 149 65 273t181.5 196.5t259.5 72.5q223 0 364 -165v141h227v-140
q115 164 334 164q153 0 275.5 -70.5t189 -189.5t66.5 -262q0 -44 -11 -90h-848zM300 518q0 -142 92 -240.5t228 -98.5t227.5 98t91.5 241q0 142 -91 240.5t-228 98.5t-228.5 -98.5t-91.5 -240.5zM1494 872q-112 0 -200 -70t-115 -180h615q-22 111 -104 180.5t-196 69.5z" />
    <glyph glyph-name="ccedilla" unicode="&#xe7;" horiz-adv-x="1181" 
d="M737 -302q0 37 -29.5 63.5t-70.5 26.5q-28 0 -49 -7l-40 36v165q-205 27 -342 177t-137 359q0 151 71 275.5t194.5 195.5t272.5 71q192 0 326 -99t178 -272h-246q-27 79 -93.5 123.5t-157.5 44.5q-127 0 -220.5 -95.5t-93.5 -243.5q0 -150 99 -244.5t240 -94.5
q96 0 178.5 45t138.5 127l135 -92q-134 -247 -390 -278v-87q98 -6 151.5 -62.5t53.5 -136.5q0 -93 -73.5 -154t-187.5 -61q-104 0 -181.5 58t-93.5 155h157q10 -39 39.5 -61.5t68.5 -22.5q47 0 74.5 24.5t27.5 64.5z" />
    <glyph glyph-name="egrave" unicode="&#xe8;" horiz-adv-x="1230" 
d="M301 448q17 -124 111 -204t230 -80q106 0 188.5 37t160.5 115l122 -119q-92 -106 -204.5 -163.5t-263.5 -57.5q-127 0 -235 42.5t-182.5 115.5t-116.5 172.5t-42 211.5q0 149 72 273t200 196.5t284 72.5q231 0 383 -152t152 -370q0 -48 -10 -90h-849zM624 872
q-113 0 -200.5 -70t-115.5 -180h615q-22 110 -103.5 180t-195.5 70zM522 1575l245 -335l-106 -83l-286 300z" />
    <glyph glyph-name="eacute" unicode="&#xe9;" horiz-adv-x="1230" 
d="M301 448q17 -124 111 -204t230 -80q106 0 188.5 37t160.5 115l122 -119q-92 -106 -204.5 -163.5t-263.5 -57.5q-127 0 -235 42.5t-182.5 115.5t-116.5 172.5t-42 211.5q0 149 72 273t200 196.5t284 72.5q231 0 383 -152t152 -370q0 -48 -10 -90h-849zM624 872
q-113 0 -200.5 -70t-115.5 -180h615q-22 110 -103.5 180t-195.5 70zM487 1240l245 335l147 -118l-286 -300z" />
    <glyph glyph-name="ecircumflex" unicode="&#xea;" horiz-adv-x="1230" 
d="M301 448q17 -124 111 -204t230 -80q106 0 188.5 37t160.5 115l122 -119q-92 -106 -204.5 -163.5t-263.5 -57.5q-127 0 -235 42.5t-182.5 115.5t-116.5 172.5t-42 211.5q0 149 72 273t200 196.5t284 72.5q231 0 383 -152t152 -370q0 -48 -10 -90h-849zM624 872
q-113 0 -200.5 -70t-115.5 -180h615q-22 110 -103.5 180t-195.5 70zM507 1525h215l223 -304l-106 -83l-224 235l-225 -235l-106 83z" />
    <glyph glyph-name="edieresis" unicode="&#xeb;" horiz-adv-x="1230" 
d="M301 448q17 -124 111 -204t230 -80q106 0 188.5 37t160.5 115l122 -119q-92 -106 -204.5 -163.5t-263.5 -57.5q-127 0 -235 42.5t-182.5 115.5t-116.5 172.5t-42 211.5q0 149 72 273t200 196.5t284 72.5q231 0 383 -152t152 -370q0 -48 -10 -90h-849zM624 872
q-113 0 -200.5 -70t-115.5 -180h615q-22 110 -103.5 180t-195.5 70zM298 1340q0 54 37.5 91.5t92.5 37.5t92.5 -37.5t37.5 -91.5q0 -55 -37.5 -92.5t-92.5 -37.5t-92.5 37.5t-37.5 92.5zM670 1340q0 54 37.5 91.5t92.5 37.5t92.5 -37.5t37.5 -91.5q0 -55 -37.5 -92.5
t-92.5 -37.5t-92.5 37.5t-37.5 92.5z" />
    <glyph glyph-name="igrave" unicode="&#xec;" horiz-adv-x="537" 
d="M168 1575l245 -335l-106 -83l-286 300zM154 0v1036h228v-1036h-228z" />
    <glyph glyph-name="iacute" unicode="&#xed;" horiz-adv-x="537" 
d="M110 1240l245 335l147 -118l-286 -300zM154 0v1036h228v-1036h-228z" />
    <glyph glyph-name="icircumflex" unicode="&#xee;" horiz-adv-x="537" 
d="M154 0v1036h228v-1036h-228zM160 1525h215l223 -304l-106 -83l-224 235l-225 -235l-106 83z" />
    <glyph glyph-name="idieresis" unicode="&#xef;" horiz-adv-x="537" 
d="M-48 1340q0 54 37.5 91.5t92.5 37.5t92.5 -37.5t37.5 -91.5q0 -55 -37.5 -92.5t-92.5 -37.5t-92.5 37.5t-37.5 92.5zM324 1340q0 54 37.5 91.5t92.5 37.5t92.5 -37.5t37.5 -91.5q0 -55 -37.5 -92.5t-92.5 -37.5t-92.5 37.5t-37.5 92.5zM154 0v1036h228v-1036h-228z" />
    <glyph glyph-name="eth" unicode="&#xf0;" horiz-adv-x="1238" 
d="M314 1025l-61 124l219 103q-88 54 -192 99l99 150q64 -26 153 -73.5t138 -82.5l216 102l60 -125l-153 -72q171 -152 268 -350t97 -410q0 -142 -71.5 -260t-196.5 -186t-276 -68t-276 67t-197 184t-72 258q0 138 72.5 254.5t190.5 182t251 65.5q144 0 247 -92
q-84 152 -227 265zM299 489q0 -131 91.5 -220.5t225.5 -89.5q133 0 224.5 90t91.5 220q0 131 -91.5 221t-224.5 90q-134 0 -225.5 -90t-91.5 -221z" />
    <glyph glyph-name="ntilde" unicode="&#xf1;" horiz-adv-x="1216" 
d="M683 1060q187 0 300.5 -115t113.5 -306v-639h-228v619q0 105 -65 171.5t-168 66.5q-109 0 -188.5 -81.5t-79.5 -205.5v-570h-229v1036h229v-138q54 74 136.5 118t178.5 44zM621 1245q-73 49 -105 49q-45 0 -64 -88l-187 37q44 220 198 220q71 0 151 -51q2 -1 15 -10
t16.5 -11t14.5 -8.5t16 -8.5t13.5 -6t15.5 -5t13 -1q46 0 65 88l186 -37q-44 -220 -197 -220q-74 0 -151 52z" />
    <glyph glyph-name="ograve" unicode="&#xf2;" horiz-adv-x="1274" 
d="M69 518q0 149 73.5 273t204 196.5t290.5 72.5t290.5 -72.5t203.5 -196.5t73 -273t-73 -273t-203.5 -196.5t-290.5 -72.5t-290.5 72.5t-204 196.5t-73.5 273zM300 518q0 -142 97 -240.5t240 -98.5t240 98.5t97 240.5t-97 240.5t-240 98.5t-240 -98.5t-97 -240.5zM537 1575
l245 -335l-106 -83l-286 300z" />
    <glyph glyph-name="oacute" unicode="&#xf3;" horiz-adv-x="1274" 
d="M69 518q0 149 73.5 273t204 196.5t290.5 72.5t290.5 -72.5t203.5 -196.5t73 -273t-73 -273t-203.5 -196.5t-290.5 -72.5t-290.5 72.5t-204 196.5t-73.5 273zM300 518q0 -142 97 -240.5t240 -98.5t240 98.5t97 240.5t-97 240.5t-240 98.5t-240 -98.5t-97 -240.5zM481 1240
l245 335l147 -118l-286 -300z" />
    <glyph glyph-name="ocircumflex" unicode="&#xf4;" horiz-adv-x="1274" 
d="M69 518q0 149 73.5 273t204 196.5t290.5 72.5t290.5 -72.5t203.5 -196.5t73 -273t-73 -273t-203.5 -196.5t-290.5 -72.5t-290.5 72.5t-204 196.5t-73.5 273zM300 518q0 -142 97 -240.5t240 -98.5t240 98.5t97 240.5t-97 240.5t-240 98.5t-240 -98.5t-97 -240.5zM529 1525
h215l223 -304l-106 -83l-224 235l-225 -235l-106 83z" />
    <glyph glyph-name="otilde" unicode="&#xf5;" horiz-adv-x="1274" 
d="M69 518q0 149 73.5 273t204 196.5t290.5 72.5t290.5 -72.5t203.5 -196.5t73 -273t-73 -273t-203.5 -196.5t-290.5 -72.5t-290.5 72.5t-204 196.5t-73.5 273zM300 518q0 -142 97 -240.5t240 -98.5t240 98.5t97 240.5t-97 240.5t-240 98.5t-240 -98.5t-97 -240.5zM640 1245
q-73 49 -105 49q-45 0 -64 -88l-187 37q44 220 198 220q71 0 151 -51q2 -1 15 -10t16.5 -11t14.5 -8.5t16 -8.5t13.5 -6t15.5 -5t13 -1q46 0 65 88l186 -37q-44 -220 -197 -220q-74 0 -151 52z" />
    <glyph glyph-name="odieresis" unicode="&#xf6;" horiz-adv-x="1274" 
d="M69 518q0 149 73.5 273t204 196.5t290.5 72.5t290.5 -72.5t203.5 -196.5t73 -273t-73 -273t-203.5 -196.5t-290.5 -72.5t-290.5 72.5t-204 196.5t-73.5 273zM300 518q0 -142 97 -240.5t240 -98.5t240 98.5t97 240.5t-97 240.5t-240 98.5t-240 -98.5t-97 -240.5zM320 1340
q0 54 37.5 91.5t92.5 37.5t92.5 -37.5t37.5 -91.5q0 -55 -37.5 -92.5t-92.5 -37.5t-92.5 37.5t-37.5 92.5zM692 1340q0 54 37.5 91.5t92.5 37.5t92.5 -37.5t37.5 -91.5q0 -55 -37.5 -92.5t-92.5 -37.5t-92.5 37.5t-37.5 92.5z" />
    <glyph glyph-name="divide" unicode="&#xf7;" horiz-adv-x="1157" 
d="M1038 565h-920v197h920v-197zM434 1048q0 61 41.5 102.5t102.5 41.5t103 -41.5t42 -102.5t-41.5 -102.5t-103.5 -41.5t-103 41t-41 103zM434 280q0 61 41.5 102.5t102.5 41.5t103 -41.5t42 -102.5t-41.5 -102.5t-103.5 -41.5t-103 41t-41 103z" />
    <glyph glyph-name="oslash" unicode="&#xf8;" horiz-adv-x="1274" 
d="M69 518q0 149 73.5 273t204 196.5t290.5 72.5q151 0 279 -68l118 150l119 -91l-115 -146q79 -74 122.5 -174t43.5 -213q0 -149 -73 -273t-203.5 -196.5t-290.5 -72.5q-154 0 -280 67l-116 -148l-119 91l113 143q-79 75 -122.5 175.5t-43.5 213.5zM974 518q0 122 -73 212
l-411 -519q67 -32 147 -32q143 0 240 98.5t97 240.5zM300 518q0 -122 73 -214l410 519q-71 34 -146 34q-143 0 -240 -98.5t-97 -240.5z" />
    <glyph glyph-name="ugrave" unicode="&#xf9;" horiz-adv-x="1216" 
d="M533 -23q-187 0 -300.5 114.5t-113.5 305.5v639h228v-619q0 -105 65 -171.5t168 -66.5q110 0 189 83t79 210v564h229v-1036h-229v137q-54 -74 -136.5 -117t-178.5 -43zM458 1575l245 -335l-106 -83l-286 300z" />
    <glyph glyph-name="uacute" unicode="&#xfa;" horiz-adv-x="1216" 
d="M533 -23q-187 0 -300.5 114.5t-113.5 305.5v639h228v-619q0 -105 65 -171.5t168 -66.5q110 0 189 83t79 210v564h229v-1036h-229v137q-54 -74 -136.5 -117t-178.5 -43zM449 1240l245 335l147 -118l-286 -300z" />
    <glyph glyph-name="ucircumflex" unicode="&#xfb;" horiz-adv-x="1216" 
d="M533 -23q-187 0 -300.5 114.5t-113.5 305.5v639h228v-619q0 -105 65 -171.5t168 -66.5q110 0 189 83t79 210v564h229v-1036h-229v137q-54 -74 -136.5 -117t-178.5 -43zM490 1525h215l223 -304l-106 -83l-224 235l-225 -235l-106 83z" />
    <glyph glyph-name="udieresis" unicode="&#xfc;" horiz-adv-x="1216" 
d="M533 -23q-187 0 -300.5 114.5t-113.5 305.5v639h228v-619q0 -105 65 -171.5t168 -66.5q110 0 189 83t79 210v564h229v-1036h-229v137q-54 -74 -136.5 -117t-178.5 -43zM281 1340q0 54 37.5 91.5t92.5 37.5t92.5 -37.5t37.5 -91.5q0 -55 -37.5 -92.5t-92.5 -37.5
t-92.5 37.5t-37.5 92.5zM653 1340q0 54 37.5 91.5t92.5 37.5t92.5 -37.5t37.5 -91.5q0 -55 -37.5 -92.5t-92.5 -37.5t-92.5 37.5t-37.5 92.5z" />
    <glyph glyph-name="yacute" unicode="&#xfd;" horiz-adv-x="1062" 
d="M471 -464h-239l183 466l-392 1034h238l269 -745l271 745h238zM374 1240l245 335l147 -118l-286 -300z" />
    <glyph glyph-name="thorn" unicode="&#xfe;" horiz-adv-x="1306" 
d="M1236 518q0 -112 -38 -212t-104.5 -172.5t-161 -115t-201.5 -42.5q-112 0 -205.5 43t-159.5 121v-604h-227v1924h227v-565q66 78 159.5 121.5t205.5 43.5q143 0 259.5 -72.5t181 -196.5t64.5 -273zM1006 518q0 142 -91.5 240.5t-228.5 98.5t-228.5 -98.5t-91.5 -240.5
t92 -240.5t228 -98.5q135 0 227.5 98.5t92.5 240.5z" />
    <glyph glyph-name="ydieresis" unicode="&#xff;" horiz-adv-x="1062" 
d="M471 -464h-239l183 466l-392 1034h238l269 -745l271 745h238zM214 1340q0 54 37.5 91.5t92.5 37.5t92.5 -37.5t37.5 -91.5q0 -55 -37.5 -92.5t-92.5 -37.5t-92.5 37.5t-37.5 92.5zM586 1340q0 54 37.5 91.5t92.5 37.5t92.5 -37.5t37.5 -91.5q0 -55 -37.5 -92.5
t-92.5 -37.5t-92.5 37.5t-37.5 92.5z" />
    <glyph glyph-name="Amacron" unicode="&#x100;" horiz-adv-x="1372" 
d="M555 1400h262l514 -1400h-253l-117 338h-551l-117 -338h-253zM475 535h422l-211 609zM385 1571v174h600v-174h-600z" />
    <glyph glyph-name="amacron" unicode="&#x101;" horiz-adv-x="1306" 
d="M69 518q0 149 65 273t181.5 196.5t259.5 72.5q223 0 364 -165v141h227v-1036h-227v140q-67 -78 -160 -121t-204 -43q-217 0 -361.5 157t-144.5 385zM300 518q0 -142 92 -240.5t228 -98.5t227.5 98t91.5 241q0 142 -91 240.5t-228 98.5t-228.5 -98.5t-91.5 -240.5z
M341 1247v174h600v-174h-600z" />
    <glyph glyph-name="Abreve" unicode="&#x102;" horiz-adv-x="1372" 
d="M555 1400h262l514 -1400h-253l-117 338h-551l-117 -338h-253zM475 535h422l-211 609zM685 1489q-136 0 -234 88t-105 223h195q2 -65 42.5 -108t101.5 -43t101.5 43t42.5 108h196q-7 -135 -105 -223t-235 -88z" />
    <glyph glyph-name="abreve" unicode="&#x103;" horiz-adv-x="1306" 
d="M69 518q0 149 65 273t181.5 196.5t259.5 72.5q223 0 364 -165v141h227v-1036h-227v140q-67 -78 -160 -121t-204 -43q-217 0 -361.5 157t-144.5 385zM300 518q0 -142 92 -240.5t228 -98.5t227.5 98t91.5 241q0 142 -91 240.5t-228 98.5t-228.5 -98.5t-91.5 -240.5z
M630 1165q-136 0 -234 88t-105 223h195q2 -65 42.5 -108t101.5 -43t101.5 43t42.5 108h196q-7 -135 -105 -223t-235 -88z" />
    <glyph glyph-name="Aogonek" unicode="&#x104;" horiz-adv-x="1372" 
d="M1169 0h-91l-117 338h-551l-117 -338h-253l515 1400h262l514 -1400q-112 -78 -165.5 -142t-53.5 -132q0 -50 26 -76.5t68 -26.5q43 0 69.5 28t32.5 77h170q-14 -114 -87.5 -181t-189.5 -67q-109 0 -184.5 64t-75.5 165q0 84 59.5 160t168.5 131zM475 535h422l-211 609z
" />
    <glyph glyph-name="aogonek" unicode="&#x105;" horiz-adv-x="1306" 
d="M69 518q0 149 65 273t181.5 196.5t259.5 72.5q223 0 364 -165v141h227v-1036q-112 -78 -165.5 -142t-53.5 -133q0 -50 26 -76.5t68 -26.5q43 0 69.5 28t32.5 78h170q-14 -114 -87.5 -181t-189.5 -67q-109 0 -184.5 63.5t-75.5 165.5q0 84 59.5 160t168.5 131h-65v140
q-67 -78 -160 -121t-204 -43q-217 0 -361.5 157t-144.5 385zM300 518q0 -142 92 -240.5t228 -98.5t227.5 98t91.5 241q0 142 -91 240.5t-228 98.5t-228.5 -98.5t-91.5 -240.5z" />
    <glyph glyph-name="Cacute" unicode="&#x106;" horiz-adv-x="1516" 
d="M1275 460l143 -104q-211 -380 -633 -380q-147 0 -277.5 55t-224.5 150t-149 230t-55 289q0 153 55 288t149 230.5t224.5 150.5t277.5 55q250 0 423 -134.5t229 -368.5h-247q-42 141 -151.5 218.5t-250.5 77.5q-94 0 -179.5 -36.5t-150 -102.5t-102.5 -164t-38 -214
t39 -214.5t105 -164t152.5 -102t182.5 -36.5q305 0 478 277zM604 1564l245 335l147 -118l-286 -300z" />
    <glyph glyph-name="cacute" unicode="&#x107;" horiz-adv-x="1181" 
d="M956 351l135 -92q-75 -140 -193.5 -211.5t-270.5 -71.5t-280 70.5t-203 195.5t-75 276t71 275.5t194.5 195.5t272.5 71q192 0 326 -99t178 -272h-246q-27 79 -93.5 123.5t-157.5 44.5q-127 0 -220.5 -95.5t-93.5 -243.5q0 -150 99 -244.5t240 -94.5q96 0 178.5 45
t138.5 127zM468 1240l245 335l147 -118l-286 -300z" />
    <glyph glyph-name="Ccircumflex" unicode="&#x108;" horiz-adv-x="1516" 
d="M1275 460l143 -104q-211 -380 -633 -380q-147 0 -277.5 55t-224.5 150t-149 230t-55 289q0 153 55 288t149 230.5t224.5 150.5t277.5 55q250 0 423 -134.5t229 -368.5h-247q-42 141 -151.5 218.5t-250.5 77.5q-94 0 -179.5 -36.5t-150 -102.5t-102.5 -164t-38 -214
t39 -214.5t105 -164t152.5 -102t182.5 -36.5q305 0 478 277zM659 1849h215l223 -304l-106 -83l-224 235l-225 -235l-106 83z" />
    <glyph glyph-name="ccircumflex" unicode="&#x109;" horiz-adv-x="1181" 
d="M956 351l135 -92q-75 -140 -193.5 -211.5t-270.5 -71.5t-280 70.5t-203 195.5t-75 276t71 275.5t194.5 195.5t272.5 71q192 0 326 -99t178 -272h-246q-27 79 -93.5 123.5t-157.5 44.5q-127 0 -220.5 -95.5t-93.5 -243.5q0 -150 99 -244.5t240 -94.5q96 0 178.5 45
t138.5 127zM475 1525h215l223 -304l-106 -83l-224 235l-225 -235l-106 83z" />
    <glyph glyph-name="Cdotaccent" unicode="&#x10a;" horiz-adv-x="1516" 
d="M1275 460l143 -104q-211 -380 -633 -380q-147 0 -277.5 55t-224.5 150t-149 230t-55 289q0 153 55 288t149 230.5t224.5 150.5t277.5 55q250 0 423 -134.5t229 -368.5h-247q-42 141 -151.5 218.5t-250.5 77.5q-94 0 -179.5 -36.5t-150 -102.5t-102.5 -164t-38 -214
t39 -214.5t105 -164t152.5 -102t182.5 -36.5q305 0 478 277zM634 1663q0 55 38 93t93 38t93.5 -38t38.5 -93t-38.5 -93t-93.5 -38t-93 38t-38 93z" />
    <glyph glyph-name="cdotaccent" unicode="&#x10b;" horiz-adv-x="1181" 
d="M956 351l135 -92q-75 -140 -193.5 -211.5t-270.5 -71.5t-280 70.5t-203 195.5t-75 276t71 275.5t194.5 195.5t272.5 71q192 0 326 -99t178 -272h-246q-27 79 -93.5 123.5t-157.5 44.5q-127 0 -220.5 -95.5t-93.5 -243.5q0 -150 99 -244.5t240 -94.5q96 0 178.5 45
t138.5 127zM471 1339q0 55 38 93t93 38t93.5 -38t38.5 -93t-38.5 -93t-93.5 -38t-93 38t-38 93z" />
    <glyph glyph-name="Ccaron" unicode="&#x10c;" horiz-adv-x="1516" 
d="M1275 460l143 -104q-211 -380 -633 -380q-147 0 -277.5 55t-224.5 150t-149 230t-55 289q0 153 55 288t149 230.5t224.5 150.5t277.5 55q250 0 423 -134.5t229 -368.5h-247q-42 141 -151.5 218.5t-250.5 77.5q-94 0 -179.5 -36.5t-150 -102.5t-102.5 -164t-38 -214
t39 -214.5t105 -164t152.5 -102t182.5 -36.5q305 0 478 277zM874 1509h-215l-223 304l106 83l224 -235l225 235l106 -83z" />
    <glyph glyph-name="ccaron" unicode="&#x10d;" horiz-adv-x="1181" 
d="M956 351l135 -92q-75 -140 -193.5 -211.5t-270.5 -71.5t-280 70.5t-203 195.5t-75 276t71 275.5t194.5 195.5t272.5 71q192 0 326 -99t178 -272h-246q-27 79 -93.5 123.5t-157.5 44.5q-127 0 -220.5 -95.5t-93.5 -243.5q0 -150 99 -244.5t240 -94.5q96 0 178.5 45
t138.5 127zM692 1165h-215l-223 304l106 83l224 -235l225 235l106 -83z" />
    <glyph glyph-name="Dcaron" unicode="&#x10e;" horiz-adv-x="1426" 
d="M160 1400h491q318 0 507 -190t189 -510q0 -321 -189 -510.5t-507 -189.5h-491v1400zM646 1193h-250v-986h250q211 0 336.5 126.5t125.5 366.5q0 239 -125.5 366t-336.5 127zM793 1509h-215l-223 304l106 83l224 -235l225 235l106 -83z" />
    <glyph glyph-name="dcaron" unicode="&#x10f;" horiz-adv-x="1628" 
d="M69 518q0 149 65 273t181.5 196.5t259.5 72.5q223 0 364 -165v565h227v-1460h-227v140q-67 -78 -160 -121t-204 -43q-217 0 -361.5 157t-144.5 385zM300 518q0 -142 92 -240.5t228 -98.5t227.5 98t91.5 241q0 142 -91 240.5t-228 98.5t-228.5 -98.5t-91.5 -240.5z
M1320 1362q0 49 36.5 85t93.5 36q56 0 92 -38.5t36 -105.5q0 -107 -63.5 -199t-184.5 -141l-58 67q66 48 90.5 87t17.5 70t-38 74q-22 30 -22 65z" />
    <glyph glyph-name="Dcroat" unicode="&#x110;" horiz-adv-x="1462" 
d="M197 1400h491q318 0 506.5 -190t188.5 -510q0 -321 -188.5 -510.5t-506.5 -189.5h-491v617h-179v165h179v618zM714 617h-281v-410h250q211 0 336 126.5t125 366.5t-125 366.5t-336 126.5h-250v-411h281v-165z" />
    <glyph glyph-name="dcroat" unicode="&#x111;" horiz-adv-x="1333" 
d="M617 1162v147h322v151h227v-151h144v-147h-144v-1162h-227v140q-67 -78 -160 -121t-204 -43q-217 0 -361.5 157t-144.5 385q0 149 65 273t181.5 196.5t259.5 72.5q223 0 364 -165v267h-322zM300 518q0 -142 92 -240.5t228 -98.5t227.5 98t91.5 241q0 142 -91 240.5
t-228 98.5t-228.5 -98.5t-91.5 -240.5z" />
    <glyph glyph-name="Emacron" unicode="&#x112;" horiz-adv-x="1137" 
d="M160 0v1400h850v-203h-614v-393h564v-201h-564v-401h632v-202h-868zM283 1571v174h600v-174h-600z" />
    <glyph glyph-name="emacron" unicode="&#x113;" horiz-adv-x="1230" 
d="M301 448q17 -124 111 -204t230 -80q106 0 188.5 37t160.5 115l122 -119q-92 -106 -204.5 -163.5t-263.5 -57.5q-127 0 -235 42.5t-182.5 115.5t-116.5 172.5t-42 211.5q0 149 72 273t200 196.5t284 72.5q231 0 383 -152t152 -370q0 -48 -10 -90h-849zM624 872
q-113 0 -200.5 -70t-115.5 -180h615q-22 110 -103.5 180t-195.5 70zM314 1247v174h600v-174h-600z" />
    <glyph glyph-name="Ebreve" unicode="&#x114;" horiz-adv-x="1137" 
d="M160 0v1400h850v-203h-614v-393h564v-201h-564v-401h632v-202h-868zM582 1489q-136 0 -234 88t-105 223h195q2 -65 42.5 -108t101.5 -43t101.5 43t42.5 108h196q-7 -135 -105 -223t-235 -88z" />
    <glyph glyph-name="ebreve" unicode="&#x115;" horiz-adv-x="1230" 
d="M301 448q17 -124 111 -204t230 -80q106 0 188.5 37t160.5 115l122 -119q-92 -106 -204.5 -163.5t-263.5 -57.5q-127 0 -235 42.5t-182.5 115.5t-116.5 172.5t-42 211.5q0 149 72 273t200 196.5t284 72.5q231 0 383 -152t152 -370q0 -48 -10 -90h-849zM624 872
q-113 0 -200.5 -70t-115.5 -180h615q-22 110 -103.5 180t-195.5 70zM614 1165q-136 0 -234 88t-105 223h195q2 -65 42.5 -108t101.5 -43t101.5 43t42.5 108h196q-7 -135 -105 -223t-235 -88z" />
    <glyph glyph-name="Edotaccent" unicode="&#x116;" horiz-adv-x="1137" 
d="M160 0v1400h850v-203h-614v-393h564v-201h-564v-401h632v-202h-868zM460 1663q0 55 38 93t93 38t93.5 -38t38.5 -93t-38.5 -93t-93.5 -38t-93 38t-38 93z" />
    <glyph glyph-name="edotaccent" unicode="&#x117;" horiz-adv-x="1230" 
d="M301 448q17 -124 111 -204t230 -80q106 0 188.5 37t160.5 115l122 -119q-92 -106 -204.5 -163.5t-263.5 -57.5q-127 0 -235 42.5t-182.5 115.5t-116.5 172.5t-42 211.5q0 149 72 273t200 196.5t284 72.5q231 0 383 -152t152 -370q0 -48 -10 -90h-849zM624 872
q-113 0 -200.5 -70t-115.5 -180h615q-22 110 -103.5 180t-195.5 70zM483 1339q0 55 38 93t93 38t93.5 -38t38.5 -93t-38.5 -93t-93.5 -38t-93 38t-38 93z" />
    <glyph glyph-name="Eogonek" unicode="&#x118;" horiz-adv-x="1137" 
d="M160 0v1400h850v-203h-614v-393h564v-201h-564v-401h632v-202h-161q-112 -78 -165.5 -142t-53.5 -133q0 -50 26 -76.5t68 -26.5q43 0 69.5 28t32.5 78h170q-14 -114 -87.5 -181t-189.5 -67q-109 0 -184.5 63.5t-75.5 165.5q0 84 59.5 160t168.5 131h-545z" />
    <glyph glyph-name="eogonek" unicode="&#x119;" horiz-adv-x="1230" 
d="M301 448q17 -124 111 -204t230 -80q192 0 334 144l122 -118q-146 -175 -355 -207q-100 -71 -148 -132t-48 -126q0 -50 26 -76.5t68 -26.5q43 0 69.5 28t32.5 78h170q-14 -114 -87 -181t-189 -67q-109 0 -184.5 63.5t-75.5 165.5q0 77 49 147t141 124q-223 24 -360.5 175
t-137.5 363q0 149 72 273t200 196.5t284 72.5q231 0 383 -152t152 -370q0 -48 -10 -90h-849zM624 872q-113 0 -200.5 -70t-115.5 -180h615q-22 110 -103.5 180t-195.5 70z" />
    <glyph glyph-name="Ecaron" unicode="&#x11a;" horiz-adv-x="1137" 
d="M160 0v1400h850v-203h-614v-393h564v-201h-564v-401h632v-202h-868zM692 1509h-215l-223 304l106 83l224 -235l225 235l106 -83z" />
    <glyph glyph-name="ecaron" unicode="&#x11b;" horiz-adv-x="1230" 
d="M301 448q17 -124 111 -204t230 -80q106 0 188.5 37t160.5 115l122 -119q-92 -106 -204.5 -163.5t-263.5 -57.5q-127 0 -235 42.5t-182.5 115.5t-116.5 172.5t-42 211.5q0 149 72 273t200 196.5t284 72.5q231 0 383 -152t152 -370q0 -48 -10 -90h-849zM624 872
q-113 0 -200.5 -70t-115.5 -180h615q-22 110 -103.5 180t-195.5 70zM722 1165h-215l-223 304l106 83l224 -235l225 235l106 -83z" />
    <glyph glyph-name="Gcircumflex" unicode="&#x11c;" horiz-adv-x="1543" 
d="M761 727h703v-46q0 -165 -49.5 -298.5t-138 -222t-211 -136.5t-268.5 -48q-193 0 -357.5 94.5t-262.5 261.5t-98 368q0 153 56.5 288.5t152 230.5t225.5 150t272 55q257 0 429.5 -131.5t230.5 -347.5h-254q-49 128 -154 199.5t-249 71.5q-91 0 -176 -36.5t-150.5 -101.5
t-104.5 -163.5t-39 -214.5q0 -114 40 -212t106 -164t153.5 -103.5t181.5 -37.5q160 0 276 98.5t133 252.5h-447v193zM662 1849h215l223 -304l-106 -83l-224 235l-225 -235l-106 83z" />
    <glyph glyph-name="gcircumflex" unicode="&#x11d;" horiz-adv-x="1306" 
d="M69 518q0 149 65 273t181.5 196.5t259.5 72.5q223 0 364 -165v141h227v-989q0 -233 -141 -372t-396 -139q-268 0 -462 223l115 125q144 -152 340 -152q145 0 231 80t86 220v108q-67 -78 -160 -121t-204 -43q-217 0 -361.5 157t-144.5 385zM300 518q0 -142 92 -240.5
t228 -98.5t227.5 98t91.5 241q0 142 -91 240.5t-228 98.5t-228.5 -98.5t-91.5 -240.5zM533 1525h215l223 -304l-106 -83l-224 235l-225 -235l-106 83z" />
    <glyph glyph-name="Gbreve" unicode="&#x11e;" horiz-adv-x="1543" 
d="M761 727h703v-46q0 -165 -49.5 -298.5t-138 -222t-211 -136.5t-268.5 -48q-193 0 -357.5 94.5t-262.5 261.5t-98 368q0 153 56.5 288.5t152 230.5t225.5 150t272 55q257 0 429.5 -131.5t230.5 -347.5h-254q-49 128 -154 199.5t-249 71.5q-91 0 -176 -36.5t-150.5 -101.5
t-104.5 -163.5t-39 -214.5q0 -114 40 -212t106 -164t153.5 -103.5t181.5 -37.5q160 0 276 98.5t133 252.5h-447v193zM769 1489q-136 0 -234 88t-105 223h195q2 -65 42.5 -108t101.5 -43t101.5 43t42.5 108h196q-7 -135 -105 -223t-235 -88z" />
    <glyph glyph-name="gbreve" unicode="&#x11f;" horiz-adv-x="1306" 
d="M69 518q0 149 65 273t181.5 196.5t259.5 72.5q223 0 364 -165v141h227v-989q0 -233 -141 -372t-396 -139q-268 0 -462 223l115 125q144 -152 340 -152q145 0 231 80t86 220v108q-67 -78 -160 -121t-204 -43q-217 0 -361.5 157t-144.5 385zM300 518q0 -142 92 -240.5
t228 -98.5t227.5 98t91.5 241q0 142 -91 240.5t-228 98.5t-228.5 -98.5t-91.5 -240.5zM629 1165q-136 0 -234 88t-105 223h195q2 -65 42.5 -108t101.5 -43t101.5 43t42.5 108h196q-7 -135 -105 -223t-235 -88z" />
    <glyph glyph-name="Gdotaccent" unicode="&#x120;" horiz-adv-x="1543" 
d="M761 727h703v-46q0 -165 -49.5 -298.5t-138 -222t-211 -136.5t-268.5 -48q-193 0 -357.5 94.5t-262.5 261.5t-98 368q0 153 56.5 288.5t152 230.5t225.5 150t272 55q257 0 429.5 -131.5t230.5 -347.5h-254q-49 128 -154 199.5t-249 71.5q-91 0 -176 -36.5t-150.5 -101.5
t-104.5 -163.5t-39 -214.5q0 -114 40 -212t106 -164t153.5 -103.5t181.5 -37.5q160 0 276 98.5t133 252.5h-447v193zM638 1663q0 55 38 93t93 38t93.5 -38t38.5 -93t-38.5 -93t-93.5 -38t-93 38t-38 93z" />
    <glyph glyph-name="gdotaccent" unicode="&#x121;" horiz-adv-x="1306" 
d="M69 518q0 149 65 273t181.5 196.5t259.5 72.5q223 0 364 -165v141h227v-989q0 -233 -141 -372t-396 -139q-268 0 -462 223l115 125q144 -152 340 -152q145 0 231 80t86 220v108q-67 -78 -160 -121t-204 -43q-217 0 -361.5 157t-144.5 385zM300 518q0 -142 92 -240.5
t228 -98.5t227.5 98t91.5 241q0 142 -91 240.5t-228 98.5t-228.5 -98.5t-91.5 -240.5zM491 1339q0 55 38 93t93 38t93.5 -38t38.5 -93t-38.5 -93t-93.5 -38t-93 38t-38 93z" />
    <glyph glyph-name="Gcommaaccent" unicode="&#x122;" horiz-adv-x="1543" 
d="M761 727h703v-46q0 -165 -49.5 -298.5t-138 -222t-211 -136.5t-268.5 -48q-193 0 -357.5 94.5t-262.5 261.5t-98 368q0 153 56.5 288.5t152 230.5t225.5 150t272 55q257 0 429.5 -131.5t230.5 -347.5h-254q-49 128 -154 199.5t-249 71.5q-91 0 -176 -36.5t-150.5 -101.5
t-104.5 -163.5t-39 -214.5q0 -114 40 -212t106 -164t153.5 -103.5t181.5 -37.5q160 0 276 98.5t133 252.5h-447v193zM567 -424l245 335l147 -118l-286 -300z" />
    <glyph glyph-name="gcommaaccent" unicode="&#x123;" horiz-adv-x="1306" 
d="M69 518q0 149 65 273t181.5 196.5t259.5 72.5q223 0 364 -165v141h227v-989q0 -233 -141 -372t-396 -139q-268 0 -462 223l115 125q144 -152 340 -152q145 0 231 80t86 220v108q-67 -78 -160 -121t-204 -43q-217 0 -361.5 157t-144.5 385zM300 518q0 -142 92 -240.5
t228 -98.5t227.5 98t91.5 241q0 142 -91 240.5t-228 98.5t-228.5 -98.5t-91.5 -240.5zM865 1468l-245 -335l-147 118l286 300z" />
    <glyph glyph-name="Hcircumflex" unicode="&#x124;" horiz-adv-x="1404" 
d="M160 0v1400h236v-595h611v595h236v-1400h-236v601h-611v-601h-236zM594 1849h215l223 -304l-106 -83l-224 235l-225 -235l-106 83z" />
    <glyph glyph-name="hcircumflex" unicode="&#x125;" horiz-adv-x="1216" 
d="M683 1060q187 0 300.5 -115t113.5 -306v-639h-228v619q0 98 -66 168t-167 70q-109 0 -188.5 -81.5t-79.5 -205.5v-570h-229v1460h229v-562q54 74 136.5 118t178.5 44zM146 1909h215l223 -304l-106 -83l-224 235l-225 -235l-106 83z" />
    <glyph glyph-name="Hbar" unicode="&#x126;" horiz-adv-x="1424" 
d="M170 0v1037h-122v162h122v201h236v-201h611v201h236v-201h123v-162h-123v-1037h-236v603h-611v-603h-236zM406 804h611v233h-611v-233z" />
    <glyph glyph-name="hbar" unicode="&#x127;" horiz-adv-x="1243" 
d="M393 1460v-151h323v-147h-323v-264q54 74 136.5 118t179.5 44q187 0 300.5 -115t113.5 -306v-639h-229v619q0 105 -64.5 171.5t-167.5 66.5q-110 0 -189.5 -83.5t-79.5 -209.5v-564h-228v1162h-142v147h142v151h228z" />
    <glyph glyph-name="Itilde" unicode="&#x128;" horiz-adv-x="588" 
d="M176 1400h236v-1400h-236v1400zM297 1570q-73 49 -105 49q-45 0 -64 -88l-187 37q44 220 198 220q71 0 151 -51q2 -1 15 -10t16.5 -11t14.5 -8.5t16 -8.5t13.5 -6t15.5 -5t13 -1q46 0 65 88l186 -37q-44 -220 -197 -220q-74 0 -151 52z" />
    <glyph glyph-name="itilde" unicode="&#x129;" horiz-adv-x="537" 
d="M272 1245q-73 49 -105 49q-45 0 -64 -88l-187 37q44 220 198 220q71 0 151 -51q2 -1 15 -10t16.5 -11t14.5 -8.5t16 -8.5t13.5 -6t15.5 -5t13 -1q46 0 65 88l186 -37q-44 -220 -197 -220q-74 0 -151 52zM154 0v1036h228v-1036h-228z" />
    <glyph glyph-name="Imacron" unicode="&#x12a;" horiz-adv-x="588" 
d="M176 1400h236v-1400h-236v1400zM-7 1571v174h600v-174h-600z" />
    <glyph glyph-name="imacron" unicode="&#x12b;" horiz-adv-x="537" 
d="M-32 1247v174h600v-174h-600zM154 0v1036h228v-1036h-228z" />
    <glyph glyph-name="Ibreve" unicode="&#x12c;" horiz-adv-x="588" 
d="M176 1400h236v-1400h-236v1400zM293 1489q-136 0 -234 88t-105 223h195q2 -65 42.5 -108t101.5 -43t101.5 43t42.5 108h196q-7 -135 -105 -223t-235 -88z" />
    <glyph glyph-name="ibreve" unicode="&#x12d;" horiz-adv-x="537" 
d="M268 1165q-136 0 -234 88t-105 223h195q2 -65 42.5 -108t101.5 -43t101.5 43t42.5 108h196q-7 -135 -105 -223t-235 -88zM154 0v1036h228v-1036h-228z" />
    <glyph glyph-name="Iogonek" unicode="&#x12e;" horiz-adv-x="588" 
d="M250 0h-74v1400h236v-1400q-195 -136 -195 -275q0 -50 26 -76.5t68 -26.5q43 0 69.5 28t32.5 78h170q-14 -114 -87 -181t-189 -67q-109 0 -184.5 63.5t-75.5 165.5q0 84 52.5 159.5t150.5 131.5z" />
    <glyph glyph-name="iogonek" unicode="&#x12f;" horiz-adv-x="537" 
d="M154 0v1036h228v-1036q-194 -136 -194 -275q0 -50 26 -76.5t68 -26.5q43 0 69.5 28t32.5 78h170q-14 -114 -87.5 -181t-189.5 -67q-109 0 -184.5 63.5t-75.5 165.5q0 84 52.5 159.5t150.5 131.5h-66zM127 1318q0 59 40.5 99.5t100.5 40.5t101 -40.5t41 -99.5t-41 -99
t-101 -40t-100.5 40t-40.5 99z" />
    <glyph glyph-name="Idotaccent" unicode="&#x130;" horiz-adv-x="588" 
d="M176 1400h236v-1400h-236v1400zM162 1663q0 55 38 93t93 38t93.5 -38t38.5 -93t-38.5 -93t-93.5 -38t-93 38t-38 93z" />
    <glyph glyph-name="dotlessi" unicode="&#x131;" horiz-adv-x="537" 
d="M154 0v1036h228v-1036h-228z" />
    <glyph glyph-name="IJ" unicode="&#x132;" horiz-adv-x="1472" 
d="M176 1400h236v-1400h-236v1400zM1088 443v957h236v-962q0 -232 -110 -347t-314 -115q-76 0 -156 24.5t-141 69.5l60 166q98 -53 203 -53q222 0 222 260z" />
    <glyph glyph-name="ij" unicode="&#x133;" horiz-adv-x="1074" 
d="M154 0v1036h228v-1036h-228zM127 1318q0 59 40.5 99.5t100.5 40.5t101 -40.5t41 -99.5t-41 -99t-101 -40t-100.5 40t-40.5 99zM691 -114v1150h228v-1155q0 -178 -79.5 -261.5t-240.5 -83.5q-56 0 -98 11v189q9 -1 55 -1q69 0 102 35t33 116zM664 1318q0 59 40.5 99.5
t100.5 40.5t101 -40.5t41 -99.5t-41 -99t-101 -40t-100.5 40t-40.5 99z" />
    <glyph glyph-name="Jcircumflex" unicode="&#x134;" horiz-adv-x="919" 
d="M535 443v957h236v-962q0 -232 -110 -347t-314 -115q-76 0 -156 24.5t-141 69.5l60 166q98 -53 203 -53q222 0 222 260zM545 1849h215l223 -304l-106 -83l-224 235l-225 -235l-106 83z" />
    <glyph glyph-name="jcircumflex" unicode="&#x135;" horiz-adv-x="537" 
d="M154 -114v1150h228v-1155q0 -179 -81 -262t-249 -83q-51 0 -88 5v195q9 -1 55 -1q69 0 102 35t33 116zM161 1525h215l223 -304l-106 -83l-224 235l-225 -235l-106 83z" />
    <glyph glyph-name="Kcommaaccent" unicode="&#x136;" horiz-adv-x="1220" 
d="M879 1399h236q0 -554 -293 -713l407 -686h-270l-366 622q-35 -4 -79 -4h-118v-618h-236v1400h236v-578h75q143 0 230.5 54.5t132.5 182t45 340.5zM404 -424l245 335l147 -118l-286 -300z" />
    <glyph glyph-name="kcommaaccent" unicode="&#x137;" horiz-adv-x="1051" 
d="M735 1036h228q0 -188 -59 -317.5t-170 -191.5l311 -527h-258l-276 475h-143v-475h-229v1460h229v-789h99q122 0 195 87.5t73 277.5zM291 -424l245 335l147 -118l-286 -300z" />
    <glyph glyph-name="kgreenlandic" unicode="&#x138;" horiz-adv-x="1051" 
d="M735 1036h228q0 -188 -59 -317.5t-170 -191.5l311 -527h-258l-276 475h-143v-475h-229v1036h229v-365h99q122 0 195 87.5t73 277.5z" />
    <glyph glyph-name="Lacute" unicode="&#x139;" horiz-adv-x="1034" 
d="M160 0v1400h236v-1196h597v-204h-833zM208 1564l245 335l147 -118l-286 -300z" />
    <glyph glyph-name="lacute" unicode="&#x13a;" horiz-adv-x="537" 
d="M154 0v1460h228v-1460h-228zM147 1624l245 335l147 -118l-286 -300z" />
    <glyph glyph-name="Lcommaaccent" unicode="&#x13b;" horiz-adv-x="1034" 
d="M160 0v1400h236v-1196h597v-204h-833zM343 -424l245 335l147 -118l-286 -300z" />
    <glyph glyph-name="lcommaaccent" unicode="&#x13c;" horiz-adv-x="537" 
d="M154 0v1460h228v-1460h-228zM26 -424l245 335l147 -118l-286 -300z" />
    <glyph glyph-name="Lcaron" unicode="&#x13d;" horiz-adv-x="1034" 
d="M160 0v1400h236v-1196h597v-204h-833zM644 1302q0 49 36.5 85t93.5 36q56 0 92 -38.5t36 -105.5q0 -107 -63.5 -199t-184.5 -141l-58 67q66 48 90.5 87t17.5 70t-38 74q-22 30 -22 65z" />
    <glyph glyph-name="lcaron" unicode="&#x13e;" horiz-adv-x="844" 
d="M154 0v1460h228v-1460h-228zM537 1362q0 49 36.5 85t93.5 36q56 0 92 -38.5t36 -105.5q0 -107 -63.5 -199t-184.5 -141l-58 67q66 48 90.5 87t17.5 70t-38 74q-22 30 -22 65z" />
    <glyph glyph-name="Ldot" unicode="&#x13f;" horiz-adv-x="1034" 
d="M160 0v1400h236v-1196h597v-204h-833zM612 756q0 55 38 93t93 38t93.5 -38t38.5 -93t-38.5 -93t-93.5 -38t-93 38t-38 93z" />
    <glyph glyph-name="ldot" unicode="&#x140;" horiz-adv-x="835" 
d="M154 0v1460h228v-1460h-228zM527 751q0 55 38 93t93 38t93.5 -38t38.5 -93t-38.5 -93t-93.5 -38t-93 38t-38 93z" />
    <glyph glyph-name="Lslash" unicode="&#x141;" horiz-adv-x="1063" 
d="M190 0v531l-104 -53l-68 145l172 87v690h236v-568l301 154l70 -143l-371 -191v-448h596v-204h-832z" />
    <glyph glyph-name="lslash" unicode="&#x142;" horiz-adv-x="603" 
d="M561 972l68 -139l-213 -106v-727h-229v613l-143 -71l-66 141l209 104v673h229v-560z" />
    <glyph glyph-name="Nacute" unicode="&#x143;" horiz-adv-x="1406" 
d="M160 0v1400h235l626 -1008v1008h225v-1400h-235l-626 1008v-1008h-225zM544 1564l245 335l147 -118l-286 -300z" />
    <glyph glyph-name="nacute" unicode="&#x144;" horiz-adv-x="1216" 
d="M683 1060q187 0 300.5 -115t113.5 -306v-639h-228v619q0 105 -65 171.5t-168 66.5q-109 0 -188.5 -81.5t-79.5 -205.5v-570h-229v1036h229v-138q54 74 136.5 118t178.5 44zM498 1240l245 335l147 -118l-286 -300z" />
    <glyph glyph-name="Ncommaaccent" unicode="&#x145;" horiz-adv-x="1407" 
d="M160 0v1400h235l626 -1008v1008h225v-1400h-235l-626 1008v-1008h-225zM477 -424l245 335l147 -118l-286 -300z" />
    <glyph glyph-name="ncommaaccent" unicode="&#x146;" horiz-adv-x="1216" 
d="M683 1060q187 0 300.5 -115t113.5 -306v-639h-228v619q0 105 -65 171.5t-168 66.5q-109 0 -188.5 -81.5t-79.5 -205.5v-570h-229v1036h229v-138q54 74 136.5 118t178.5 44zM385 -424l245 335l147 -118l-286 -300z" />
    <glyph glyph-name="Ncaron" unicode="&#x147;" horiz-adv-x="1407" 
d="M160 0v1400h235l626 -1008v1008h225v-1400h-235l-626 1008v-1008h-225zM810 1509h-215l-223 304l106 83l224 -235l225 235l106 -83z" />
    <glyph glyph-name="ncaron" unicode="&#x148;" horiz-adv-x="1216" 
d="M683 1060q187 0 300.5 -115t113.5 -306v-639h-228v619q0 105 -65 171.5t-168 66.5q-109 0 -188.5 -81.5t-79.5 -205.5v-570h-229v1036h229v-138q54 74 136.5 118t178.5 44zM712 1165h-215l-223 304l106 83l224 -235l225 235l106 -83z" />
    <glyph glyph-name="napostrophe" unicode="&#x149;" horiz-adv-x="1428" 
d="M895 1060q187 0 300.5 -115t113.5 -306v-639h-228v619q0 105 -65 171.5t-168 66.5q-109 0 -188.5 -81.5t-79.5 -205.5v-570h-229v1036h229v-138q54 74 136.5 118t178.5 44zM75 1362q0 49 36.5 85t93.5 36q56 0 92 -38.5t36 -105.5q0 -107 -63.5 -199t-184.5 -141l-58 67
q66 48 90.5 87t17.5 70t-38 74q-22 30 -22 65z" />
    <glyph glyph-name="Eng" unicode="&#x14a;" horiz-adv-x="1406" 
d="M1021 -98v101l-636 1007v-1010h-225v1400h227l634 -1005v1005h225v-1501q0 -363 -391 -363q-61 0 -108 9v188q45 -5 93 -5q96 0 138.5 42.5t42.5 131.5z" />
    <glyph glyph-name="eng" unicode="&#x14b;" horiz-adv-x="1216" 
d="M683 1060q187 0 300.5 -115t113.5 -306v-740q0 -183 -96.5 -273t-292.5 -90q-50 0 -113 9v188q43 -5 92 -5q182 0 182 174v717q0 105 -65 171.5t-168 66.5q-109 0 -188.5 -81.5t-79.5 -205.5v-570h-229v1036h229v-138q54 74 136.5 118t178.5 44z" />
    <glyph glyph-name="Omacron" unicode="&#x14c;" horiz-adv-x="1645" 
d="M318 700q0 -144 67 -262.5t182.5 -186.5t254.5 -68q212 0 358.5 149.5t146.5 367.5q0 143 -67 262t-183 187t-255 68q-104 0 -197.5 -40t-160.5 -109t-106.5 -165t-39.5 -203zM79 700q0 201 97.5 367t268 261.5t377.5 95.5q155 0 293 -56t237 -152.5t156.5 -230.5
t57.5 -285t-57.5 -285t-156.5 -230.5t-237 -152.5t-293 -56q-207 0 -377.5 95.5t-268 261.5t-97.5 367zM522 1571v174h600v-174h-600z" />
    <glyph glyph-name="omacron" unicode="&#x14d;" horiz-adv-x="1274" 
d="M69 518q0 149 73.5 273t204 196.5t290.5 72.5t290.5 -72.5t203.5 -196.5t73 -273t-73 -273t-203.5 -196.5t-290.5 -72.5t-290.5 72.5t-204 196.5t-73.5 273zM300 518q0 -142 97 -240.5t240 -98.5t240 98.5t97 240.5t-97 240.5t-240 98.5t-240 -98.5t-97 -240.5zM336 1247
v174h600v-174h-600z" />
    <glyph glyph-name="Obreve" unicode="&#x14e;" horiz-adv-x="1645" 
d="M318 700q0 -144 67 -262.5t182.5 -186.5t254.5 -68q212 0 358.5 149.5t146.5 367.5q0 143 -67 262t-183 187t-255 68q-104 0 -197.5 -40t-160.5 -109t-106.5 -165t-39.5 -203zM79 700q0 201 97.5 367t268 261.5t377.5 95.5q155 0 293 -56t237 -152.5t156.5 -230.5
t57.5 -285t-57.5 -285t-156.5 -230.5t-237 -152.5t-293 -56q-207 0 -377.5 95.5t-268 261.5t-97.5 367zM822 1489q-136 0 -234 88t-105 223h195q2 -65 42.5 -108t101.5 -43t101.5 43t42.5 108h196q-7 -135 -105 -223t-235 -88z" />
    <glyph glyph-name="obreve" unicode="&#x14f;" horiz-adv-x="1274" 
d="M69 518q0 149 73.5 273t204 196.5t290.5 72.5t290.5 -72.5t203.5 -196.5t73 -273t-73 -273t-203.5 -196.5t-290.5 -72.5t-290.5 72.5t-204 196.5t-73.5 273zM300 518q0 -142 97 -240.5t240 -98.5t240 98.5t97 240.5t-97 240.5t-240 98.5t-240 -98.5t-97 -240.5zM636 1165
q-136 0 -234 88t-105 223h195q2 -65 42.5 -108t101.5 -43t101.5 43t42.5 108h196q-7 -135 -105 -223t-235 -88z" />
    <glyph glyph-name="Ohungarumlaut" unicode="&#x150;" horiz-adv-x="1645" 
d="M318 700q0 -144 67 -262.5t182.5 -186.5t254.5 -68q212 0 358.5 149.5t146.5 367.5q0 143 -67 262t-183 187t-255 68q-104 0 -197.5 -40t-160.5 -109t-106.5 -165t-39.5 -203zM79 700q0 201 97.5 367t268 261.5t377.5 95.5q155 0 293 -56t237 -152.5t156.5 -230.5
t57.5 -285t-57.5 -285t-156.5 -230.5t-237 -152.5t-293 -56q-207 0 -377.5 95.5t-268 261.5t-97.5 367zM509 1564l245 335l147 -118l-286 -300zM837 1564l245 335l147 -118l-286 -300z" />
    <glyph glyph-name="ohungarumlaut" unicode="&#x151;" horiz-adv-x="1274" 
d="M69 518q0 149 73.5 273t204 196.5t290.5 72.5t290.5 -72.5t203.5 -196.5t73 -273t-73 -273t-203.5 -196.5t-290.5 -72.5t-290.5 72.5t-204 196.5t-73.5 273zM300 518q0 -142 97 -240.5t240 -98.5t240 98.5t97 240.5t-97 240.5t-240 98.5t-240 -98.5t-97 -240.5zM314 1240
l245 335l147 -118l-286 -300zM642 1240l245 335l147 -118l-286 -300z" />
    <glyph glyph-name="OE" unicode="&#x152;" horiz-adv-x="1807" 
d="M832 206h15v987h-15q-217 0 -366 -142t-149 -351q0 -210 149 -352t366 -142zM1697 0h-865q-155 0 -294.5 54t-240 147t-159.5 223t-59 276q0 194 100 355t273 253t380 92h847v-203h-597v-393h548v-201h-548v-401h615v-202z" />
    <glyph glyph-name="oe" unicode="&#x153;" horiz-adv-x="2142" 
d="M69 518q0 149 73 273.5t202.5 196.5t288.5 72q143 0 265 -68t193 -182q67 111 187.5 180.5t261.5 69.5q153 0 275.5 -70.5t190 -189.5t67.5 -262q0 -48 -10 -90h-845q17 -124 110.5 -204t224.5 -80q203 0 336 144l121 -116q-179 -216 -455 -216q-151 0 -274.5 68
t-191.5 179q-70 -113 -191.5 -180t-264.5 -67q-159 0 -288.5 72t-202.5 196t-73 274zM300 518q0 -143 96 -241t237 -98t237 98t96 241t-96 241t-237 98t-237 -98t-96 -241zM1539 872q-112 0 -199.5 -70.5t-113.5 -179.5h610q-23 110 -103.5 180t-193.5 70z" />
    <glyph glyph-name="Racute" unicode="&#x154;" horiz-adv-x="1213" 
d="M160 1400h471q223 0 354 -121t131 -323q0 -162 -87 -273t-242 -149l359 -534h-259l-342 513h-150v-513h-235v1400zM617 1201h-222v-493h222q124 0 193 66.5t69 179.5q0 114 -69 180.5t-193 66.5zM472 1564l245 335l147 -118l-286 -300z" />
    <glyph glyph-name="racute" unicode="&#x155;" horiz-adv-x="808" 
d="M640 857q-111 0 -191.5 -84t-80.5 -210v-563h-229v1036h229v-143q52 76 131.5 121.5t174.5 45.5q48 0 91 -15l-17 -206q-54 18 -108 18zM274 1240l245 335l147 -118l-286 -300z" />
    <glyph glyph-name="Rcommaaccent" unicode="&#x156;" horiz-adv-x="1213" 
d="M160 1400h471q223 0 354 -121t131 -323q0 -162 -87 -273t-242 -149l359 -534h-259l-342 513h-150v-513h-235v1400zM617 1201h-222v-493h222q124 0 193 66.5t69 179.5q0 114 -69 180.5t-193 66.5zM365 -424l245 335l147 -118l-286 -300z" />
    <glyph glyph-name="rcommaaccent" unicode="&#x157;" horiz-adv-x="808" 
d="M640 857q-111 0 -191.5 -84t-80.5 -210v-563h-229v1036h229v-143q52 76 131.5 121.5t174.5 45.5q48 0 91 -15l-17 -206q-54 18 -108 18zM77 -424l245 335l147 -118l-286 -300z" />
    <glyph glyph-name="Rcaron" unicode="&#x158;" horiz-adv-x="1213" 
d="M160 1400h471q223 0 354 -121t131 -323q0 -162 -87 -273t-242 -149l359 -534h-259l-342 513h-150v-513h-235v1400zM617 1201h-222v-493h222q124 0 193 66.5t69 179.5q0 114 -69 180.5t-193 66.5zM705 1509h-215l-223 304l106 83l224 -235l225 235l106 -83z" />
    <glyph glyph-name="rcaron" unicode="&#x159;" horiz-adv-x="808" 
d="M640 857q-111 0 -191.5 -84t-80.5 -210v-563h-229v1036h229v-143q52 76 131.5 121.5t174.5 45.5q48 0 91 -15l-17 -206q-54 18 -108 18zM510 1165h-215l-223 304l106 83l224 -235l225 235l106 -83z" />
    <glyph glyph-name="Sacute" unicode="&#x15a;" horiz-adv-x="1185" 
d="M120 242l111 119q167 -181 364 -181q120 0 195.5 55t75.5 146q0 88 -70.5 149t-237.5 96q-212 45 -321.5 148.5t-109.5 257.5q0 173 127 282.5t328 109.5q96 0 180.5 -25.5t152.5 -74.5t110 -129t49 -182h-239q-7 99 -73.5 153t-169.5 54q-99 0 -162.5 -47.5
t-63.5 -123.5q0 -84 70 -140t224 -91q232 -53 338.5 -159.5t106.5 -272.5q0 -182 -136 -296t-367 -114q-137 0 -261.5 69t-220.5 197zM431 1564l245 335l147 -118l-286 -300z" />
    <glyph glyph-name="sacute" unicode="&#x15b;" horiz-adv-x="939" 
d="M88 180l100 115q121 -131 275 -131q84 0 133 35t49 93q0 57 -47.5 93.5t-156.5 57.5q-337 67 -337 322q0 129 99 212t262 83q162 0 262.5 -82.5t122.5 -231.5h-221q-7 57 -46.5 91t-104.5 34t-106.5 -30.5t-41.5 -78.5q0 -106 189 -144q179 -36 265.5 -117t86.5 -212
q0 -137 -106.5 -225t-289.5 -88q-232 0 -387 204zM339 1240l245 335l147 -118l-286 -300z" />
    <glyph glyph-name="Scircumflex" unicode="&#x15c;" horiz-adv-x="1185" 
d="M120 242l111 119q167 -181 364 -181q120 0 195.5 55t75.5 146q0 88 -70.5 149t-237.5 96q-212 45 -321.5 148.5t-109.5 257.5q0 173 127 282.5t328 109.5q96 0 180.5 -25.5t152.5 -74.5t110 -129t49 -182h-239q-7 99 -73.5 153t-169.5 54q-99 0 -162.5 -47.5
t-63.5 -123.5q0 -84 70 -140t224 -91q232 -53 338.5 -159.5t106.5 -272.5q0 -182 -136 -296t-367 -114q-137 0 -261.5 69t-220.5 197zM474 1849h215l223 -304l-106 -83l-224 235l-225 -235l-106 83z" />
    <glyph glyph-name="scircumflex" unicode="&#x15d;" horiz-adv-x="939" 
d="M88 180l100 115q121 -131 275 -131q84 0 133 35t49 93q0 57 -47.5 93.5t-156.5 57.5q-337 67 -337 322q0 129 99 212t262 83q162 0 262.5 -82.5t122.5 -231.5h-221q-7 57 -46.5 91t-104.5 34t-106.5 -30.5t-41.5 -78.5q0 -106 189 -144q179 -36 265.5 -117t86.5 -212
q0 -137 -106.5 -225t-289.5 -88q-232 0 -387 204zM351 1525h215l223 -304l-106 -83l-224 235l-225 -235l-106 83z" />
    <glyph glyph-name="Scedilla" unicode="&#x15e;" horiz-adv-x="1185" 
d="M717 -302q0 37 -29.5 63.5t-70.5 26.5q-27 0 -49 -7l-40 36v165q-239 34 -408 260l111 119q167 -181 364 -181q120 0 195.5 55t75.5 146q0 87 -70.5 148t-237.5 97q-212 45 -321.5 148.5t-109.5 257.5q0 173 127 282.5t328 109.5q96 0 180.5 -25.5t152.5 -74.5t110 -129
t49 -182h-239q-7 99 -73.5 153t-169.5 54q-99 0 -162.5 -47.5t-63.5 -123.5q0 -84 70 -140t224 -91q232 -53 338.5 -159.5t106.5 -272.5q0 -165 -113.5 -276t-309.5 -130v-86q97 -6 151 -62.5t54 -136.5q0 -93 -74 -154t-187 -61q-104 0 -182 58t-93 155h157
q10 -39 39 -61.5t68 -22.5q47 0 74.5 24.5t27.5 64.5z" />
    <glyph glyph-name="scedilla" unicode="&#x15f;" horiz-adv-x="939" 
d="M580 -302q0 37 -29.5 63.5t-70.5 26.5q-28 0 -49 -7l-40 36v166q-177 30 -303 197l100 115q121 -131 275 -131q84 0 133 35t49 93q0 56 -48 93t-156 58q-168 33 -252.5 114.5t-84.5 207.5q0 129 99 212t262 83q162 0 262.5 -82.5t122.5 -231.5h-221q-7 57 -46.5 91
t-104.5 34q-61 0 -104.5 -31t-43.5 -78q0 -106 189 -144q179 -36 265.5 -117t86.5 -212q0 -124 -87 -208.5t-240 -99.5v-87q98 -6 151.5 -62.5t53.5 -136.5q0 -93 -73.5 -154t-187.5 -61q-104 0 -181.5 58t-93.5 155h157q10 -39 39.5 -61.5t68.5 -22.5q47 0 74.5 24.5
t27.5 64.5z" />
    <glyph glyph-name="Scaron" unicode="&#x160;" horiz-adv-x="1185" 
d="M120 242l111 119q167 -181 364 -181q120 0 195.5 55t75.5 146q0 88 -70.5 149t-237.5 96q-212 45 -321.5 148.5t-109.5 257.5q0 173 127 282.5t328 109.5q96 0 180.5 -25.5t152.5 -74.5t110 -129t49 -182h-239q-7 99 -73.5 153t-169.5 54q-99 0 -162.5 -47.5
t-63.5 -123.5q0 -84 70 -140t224 -91q232 -53 338.5 -159.5t106.5 -272.5q0 -182 -136 -296t-367 -114q-137 0 -261.5 69t-220.5 197zM693 1509h-215l-223 304l106 83l224 -235l225 235l106 -83z" />
    <glyph glyph-name="scaron" unicode="&#x161;" horiz-adv-x="939" 
d="M88 180l100 115q121 -131 275 -131q84 0 133 35t49 93q0 57 -47.5 93.5t-156.5 57.5q-337 67 -337 322q0 129 99 212t262 83q162 0 262.5 -82.5t122.5 -231.5h-221q-7 57 -46.5 91t-104.5 34t-106.5 -30.5t-41.5 -78.5q0 -106 189 -144q179 -36 265.5 -117t86.5 -212
q0 -137 -106.5 -225t-289.5 -88q-232 0 -387 204zM567 1165h-215l-223 304l106 83l224 -235l225 235l106 -83z" />
    <glyph glyph-name="Tcommaaccent" unicode="&#x162;" horiz-adv-x="1106" 
d="M435 0v1196h-377v204h989v-204h-376v-1196h-39v-107q98 -5 151.5 -61.5t53.5 -137.5q0 -93 -73.5 -153.5t-187.5 -60.5q-104 0 -181.5 58t-93.5 155h157q10 -39 39.5 -61.5t68.5 -22.5q47 0 74.5 24.5t27.5 64.5q0 37 -29.5 63t-70.5 26q-32 0 -49 -7l-40 37v183h-44z
" />
    <glyph glyph-name="tcommaaccent" unicode="&#x163;" horiz-adv-x="775" 
d="M517 -302q0 37 -29.5 63.5t-70.5 26.5q-27 0 -49 -7l-40 36v226q-110 90 -110 292v501h-189v200h189v263l228 37v-300h264v-200h-264v-491q0 -88 42 -129t138 -41q54 0 96 5v-168q-64 -36 -166 -36q-40 0 -74 6v-88q97 -6 151 -62.5t54 -136.5q0 -93 -74 -154t-187 -61
q-104 0 -182 58t-93 155h157q10 -39 39 -61.5t68 -22.5q42 0 72 25t30 64z" />
    <glyph glyph-name="Tcaron" unicode="&#x164;" horiz-adv-x="1106" 
d="M435 0v1196h-377v204h989v-204h-376v-1196h-236zM660 1509h-215l-223 304l106 83l224 -235l225 235l106 -83z" />
    <glyph glyph-name="tcaron" unicode="&#x165;" horiz-adv-x="1050" 
d="M446 836v-491q0 -88 42 -129t138 -41q54 0 96 5v-168q-64 -36 -166 -36q-165 0 -251.5 89.5t-86.5 269.5v501h-199v200h199v248l228 52v-300h264v-200h-264zM753 1362q0 49 36.5 85t93.5 36q56 0 92 -38.5t36 -105.5q0 -107 -63.5 -199t-184.5 -141l-58 67q66 48 90.5 87
t17.5 70t-38 74q-22 30 -22 65z" />
    <glyph glyph-name="Tbar" unicode="&#x166;" horiz-adv-x="1106" 
d="M435 0v612h-251v166h251v418h-377v204h989v-204h-376v-418h251v-166h-251v-612h-236z" />
    <glyph glyph-name="tbar" unicode="&#x167;" horiz-adv-x="775" 
d="M446 836v-231h222v-146h-222v-114q0 -88 42 -129t138 -41q54 0 96 5v-168q-64 -36 -166 -36q-165 0 -251.5 89.5t-86.5 269.5v124h-150v146h150v231h-199v200h199v263l228 37v-300h264v-200h-264z" />
    <glyph glyph-name="Utilde" unicode="&#x168;" horiz-adv-x="1333" 
d="M1184 1400v-916q0 -149 -69 -265.5t-187 -178.5t-262 -62t-262 62t-187 178.5t-69 265.5v916h236v-932q0 -126 80.5 -204.5t201.5 -78.5t201.5 78.5t80.5 204.5v932h236zM670 1570q-73 49 -105 49q-45 0 -64 -88l-187 37q44 220 198 220q71 0 151 -51q2 -1 15 -10
t16.5 -11t14.5 -8.5t16 -8.5t13.5 -6t15.5 -5t13 -1q46 0 65 88l186 -37q-44 -220 -197 -220q-74 0 -151 52z" />
    <glyph glyph-name="utilde" unicode="&#x169;" horiz-adv-x="1216" 
d="M533 -23q-187 0 -300.5 114.5t-113.5 305.5v639h228v-619q0 -105 65 -171.5t168 -66.5q110 0 189 83t79 210v564h229v-1036h-229v137q-54 -74 -136.5 -117t-178.5 -43zM601 1245q-73 49 -105 49q-45 0 -64 -88l-187 37q44 220 198 220q71 0 151 -51q2 -1 15 -10t16.5 -11
t14.5 -8.5t16 -8.5t13.5 -6t15.5 -5t13 -1q46 0 65 88l186 -37q-44 -220 -197 -220q-74 0 -151 52z" />
    <glyph glyph-name="Umacron" unicode="&#x16a;" horiz-adv-x="1333" 
d="M1184 1400v-916q0 -149 -69 -265.5t-187 -178.5t-262 -62t-262 62t-187 178.5t-69 265.5v916h236v-932q0 -126 80.5 -204.5t201.5 -78.5t201.5 78.5t80.5 204.5v932h236zM366 1571v174h600v-174h-600z" />
    <glyph glyph-name="umacron" unicode="&#x16b;" horiz-adv-x="1216" 
d="M533 -23q-187 0 -300.5 114.5t-113.5 305.5v639h228v-619q0 -105 65 -171.5t168 -66.5q110 0 189 83t79 210v564h229v-1036h-229v137q-54 -74 -136.5 -117t-178.5 -43zM297 1247v174h600v-174h-600z" />
    <glyph glyph-name="Ubreve" unicode="&#x16c;" horiz-adv-x="1333" 
d="M1184 1400v-916q0 -149 -69 -265.5t-187 -178.5t-262 -62t-262 62t-187 178.5t-69 265.5v916h236v-932q0 -126 80.5 -204.5t201.5 -78.5t201.5 78.5t80.5 204.5v932h236zM666 1489q-136 0 -234 88t-105 223h195q2 -65 42.5 -108t101.5 -43t101.5 43t42.5 108h196
q-7 -135 -105 -223t-235 -88z" />
    <glyph glyph-name="ubreve" unicode="&#x16d;" horiz-adv-x="1216" 
d="M533 -23q-187 0 -300.5 114.5t-113.5 305.5v639h228v-619q0 -105 65 -171.5t168 -66.5q110 0 189 83t79 210v564h229v-1036h-229v137q-54 -74 -136.5 -117t-178.5 -43zM597 1165q-136 0 -234 88t-105 223h195q2 -65 42.5 -108t101.5 -43t101.5 43t42.5 108h196
q-7 -135 -105 -223t-235 -88z" />
    <glyph glyph-name="Uring" unicode="&#x16e;" horiz-adv-x="1333" 
d="M1184 1400v-916q0 -149 -69 -265.5t-187 -178.5t-262 -62t-262 62t-187 178.5t-69 265.5v916h236v-932q0 -126 80.5 -204.5t201.5 -78.5t201.5 78.5t80.5 204.5v932h236zM587 1685q0 -33 22.5 -55t56.5 -22t56.5 22t22.5 55t-22.5 55.5t-56.5 22.5t-56.5 -22.5
t-22.5 -55.5zM448 1685q0 86 62.5 143.5t155.5 57.5q94 0 156 -57.5t62 -143.5t-62 -143.5t-156 -57.5q-93 0 -155.5 57.5t-62.5 143.5z" />
    <glyph glyph-name="uring" unicode="&#x16f;" horiz-adv-x="1216" 
d="M533 -23q-187 0 -300.5 114.5t-113.5 305.5v639h228v-619q0 -105 65 -171.5t168 -66.5q110 0 189 83t79 210v564h229v-1036h-229v137q-54 -74 -136.5 -117t-178.5 -43zM515 1361q0 -33 22.5 -55t56.5 -22t56.5 22t22.5 55t-22.5 55.5t-56.5 22.5t-56.5 -22.5t-22.5 -55.5
zM376 1361q0 86 62.5 143.5t155.5 57.5q94 0 156 -57.5t62 -143.5t-62 -143.5t-156 -57.5q-93 0 -155.5 57.5t-62.5 143.5z" />
    <glyph glyph-name="Uhungarumlaut" unicode="&#x170;" horiz-adv-x="1333" 
d="M1184 1400v-916q0 -149 -69 -265.5t-187 -178.5t-262 -62t-262 62t-187 178.5t-69 265.5v916h236v-932q0 -126 80.5 -204.5t201.5 -78.5t201.5 78.5t80.5 204.5v932h236zM361 1574l245 335l147 -118l-286 -300zM689 1574l245 335l147 -118l-286 -300z" />
    <glyph glyph-name="uhungarumlaut" unicode="&#x171;" horiz-adv-x="1216" 
d="M533 -23q-187 0 -300.5 114.5t-113.5 305.5v639h228v-619q0 -105 65 -171.5t168 -66.5q110 0 189 83t79 210v564h229v-1036h-229v137q-54 -74 -136.5 -117t-178.5 -43zM293 1245l245 335l147 -118l-286 -300zM621 1245l245 335l147 -118l-286 -300z" />
    <glyph glyph-name="Uogonek" unicode="&#x172;" horiz-adv-x="1333" 
d="M1184 1400v-916q0 -195 -113 -328t-293 -167q-179 -130 -179 -264q0 -50 26 -76.5t68 -26.5q43 0 69.5 28t32.5 78h170q-14 -114 -87 -181t-189 -67q-109 0 -184.5 63.5t-75.5 165.5q0 77 44.5 147.5t128.5 125.5q-198 21 -326 158t-128 344v916h236v-932
q0 -126 80.5 -204.5t201.5 -78.5t201.5 78.5t80.5 204.5v932h236z" />
    <glyph glyph-name="uogonek" unicode="&#x173;" horiz-adv-x="1216" 
d="M533 -24q-187 0 -300.5 114.5t-113.5 306.5v639h228v-620q0 -105 65 -171t168 -66q110 0 189 83t79 209v565h229v-1036q-195 -135 -195 -274q0 -50 26 -76.5t68 -26.5q43 0 69.5 28t32.5 77h170q-14 -114 -87 -181t-189 -67q-109 0 -184.5 64t-75.5 165q0 84 52.5 159.5
t150.5 131.5h-67v137q-54 -74 -136.5 -117.5t-178.5 -43.5z" />
    <glyph glyph-name="Wcircumflex" unicode="&#x174;" horiz-adv-x="1952" 
d="M859 1400h234l296 -1065l276 1065h247l-395 -1400h-237l-304 1077l-305 -1077h-236l-395 1400h247l275 -1065zM868 1849h215l223 -304l-106 -83l-224 235l-225 -235l-106 83z" />
    <glyph glyph-name="wcircumflex" unicode="&#x175;" horiz-adv-x="1577" 
d="M672 1036h232l205 -743l209 743h236l-323 -1036h-236l-207 735l-206 -735h-236l-323 1036h235l210 -743zM681 1525h215l223 -304l-106 -83l-224 235l-225 -235l-106 83z" />
    <glyph glyph-name="Ycircumflex" unicode="&#x176;" horiz-adv-x="1294" 
d="M294 1400l353 -604l352 604h255l-489 -831v-569h-236v569l-489 831h254zM539 1849h215l223 -304l-106 -83l-224 235l-225 -235l-106 83z" />
    <glyph glyph-name="ycircumflex" unicode="&#x177;" horiz-adv-x="1062" 
d="M471 -464h-239l183 466l-392 1034h238l269 -745l271 745h238zM422 1525h215l223 -304l-106 -83l-224 235l-225 -235l-106 83z" />
    <glyph glyph-name="Ydieresis" unicode="&#x178;" horiz-adv-x="1294" 
d="M294 1400l353 -604l352 604h255l-489 -831v-569h-236v569l-489 831h254zM330 1664q0 54 37.5 91.5t92.5 37.5t92.5 -37.5t37.5 -91.5q0 -55 -37.5 -92.5t-92.5 -37.5t-92.5 37.5t-37.5 92.5zM702 1664q0 54 37.5 91.5t92.5 37.5t92.5 -37.5t37.5 -91.5q0 -55 -37.5 -92.5
t-92.5 -37.5t-92.5 37.5t-37.5 92.5z" />
    <glyph glyph-name="Zacute" unicode="&#x179;" horiz-adv-x="1210" 
d="M117 199l684 997h-654v204h936v-199l-684 -997h704v-204h-986v199zM467 1564l245 335l147 -118l-286 -300z" />
    <glyph glyph-name="zacute" unicode="&#x17a;" horiz-adv-x="1019" 
d="M93 0v191l532 646h-506v199h782v-192l-531 -645h551v-199h-828zM338 1240l245 335l147 -118l-286 -300z" />
    <glyph glyph-name="Zdotaccent" unicode="&#x17b;" horiz-adv-x="1210" 
d="M117 199l684 997h-654v204h936v-199l-684 -997h704v-204h-986v199zM477 1663q0 55 38 93t93 38t93.5 -38t38.5 -93t-38.5 -93t-93.5 -38t-93 38t-38 93z" />
    <glyph glyph-name="zdotaccent" unicode="&#x17c;" horiz-adv-x="1019" 
d="M93 0v191l532 646h-506v199h782v-192l-531 -645h551v-199h-828zM379 1339q0 55 38 93t93 38t93.5 -38t38.5 -93t-38.5 -93t-93.5 -38t-93 38t-38 93z" />
    <glyph glyph-name="Zcaron" unicode="&#x17d;" horiz-adv-x="1210" 
d="M117 199l684 997h-654v204h936v-199l-684 -997h704v-204h-986v199zM714 1509h-215l-223 304l106 83l224 -235l225 235l106 -83z" />
    <glyph glyph-name="zcaron" unicode="&#x17e;" horiz-adv-x="1019" 
d="M93 0v191l532 646h-506v199h782v-192l-531 -645h551v-199h-828zM612 1165h-215l-223 304l106 83l224 -235l225 235l106 -83z" />
    <glyph glyph-name="longs" unicode="&#x17f;" horiz-adv-x="755" 
d="M712 1451v-188q-43 5 -92 5q-96 0 -138.5 -42.5t-42.5 -131.5v-1094h-228v836h-167v200h167v61q0 183 96.5 273t292.5 90q47 0 112 -9z" />
    <glyph glyph-name="uni0191" unicode="&#x191;" horiz-adv-x="1067" 
d="M396 595v-694q0 -181 -96.5 -273t-286.5 -92q-57 0 -113 9v197q45 -5 87 -5q91 0 132 43t41 131v1489h830v-204h-594v-398h544v-203h-544z" />
    <glyph glyph-name="florin" unicode="&#x192;" horiz-adv-x="756" 
d="M211 -99v935h-167v200h167v61q0 183 96.5 273t292.5 90q47 0 112 -9v-188q-43 5 -92 5q-96 0 -138.5 -42.5t-42.5 -131.5v-58h273v-200h-273v-937q0 -184 -96 -273.5t-293 -89.5q-60 0 -112 9v188q43 -5 92 -5q96 0 138.5 42.5t42.5 130.5z" />
    <glyph glyph-name="Aringacute" unicode="&#x1fa;" horiz-adv-x="1372" 
d="M470 1471q0 83 62 140t154 57t153.5 -56.5t61.5 -140.5t-63 -139l493 -1332h-253l-117 338h-551l-117 -338h-253l494 1332q-64 54 -64 139zM475 535h422l-211 609zM609 1471q0 -32 21.5 -53t55.5 -21t55.5 21t21.5 53t-21.5 52.5t-55.5 20.5t-55.5 -20.5t-21.5 -52.5z
M535 1775l239 243l131 -130l-276 -207z" />
    <glyph glyph-name="aringacute" unicode="&#x1fb;" horiz-adv-x="1306" 
d="M69 518q0 149 65 273t181.5 196.5t259.5 72.5q223 0 364 -165v141h227v-1036h-227v140q-67 -78 -160 -121t-204 -43q-217 0 -361.5 157t-144.5 385zM300 518q0 -142 92 -240.5t228 -98.5t227.5 98t91.5 241q0 142 -91 240.5t-228 98.5t-228.5 -98.5t-91.5 -240.5z
M416 1328q0 84 62 141.5t153 57.5q92 0 154 -57.5t62 -141.5t-62 -142t-154 -58q-91 0 -153 58t-62 142zM501 1635l239 243l131 -130l-276 -207zM552 1328q0 -34 22.5 -56.5t56.5 -22.5t57 22.5t23 56.5q0 33 -23 55.5t-57 22.5t-56.5 -22.5t-22.5 -55.5z" />
    <glyph glyph-name="AEacute" unicode="&#x1fc;" horiz-adv-x="1855" 
d="M272 0h-262l789 1400h929v-203h-597v-393h548v-201h-548v-401h615v-202h-850v338h-439zM896 1140l-333 -605h333v605zM811 1564l245 335l147 -118l-286 -300z" />
    <glyph glyph-name="aeacute" unicode="&#x1fd;" horiz-adv-x="2031" 
d="M1190 448q17 -124 111 -204t230 -80q192 0 334 144l121 -118q-177 -214 -452 -214q-106 0 -198 41.5t-152 122.5v-140h-227v140q-67 -78 -160 -121t-204 -43q-217 0 -361.5 157t-144.5 385q0 149 65 273t181.5 196.5t259.5 72.5q223 0 364 -165v141h227v-140
q115 164 334 164q153 0 275.5 -70.5t189 -189.5t66.5 -262q0 -44 -11 -90h-848zM318 518q0 -142 92 -240.5t228 -98.5t227.5 98t91.5 241q0 142 -91 240.5t-228 98.5t-228.5 -98.5t-91.5 -240.5zM1512 872q-112 0 -200 -70t-115 -180h615q-22 111 -104 180.5t-196 69.5z
M881 1240l245 335l147 -118l-286 -300z" />
    <glyph glyph-name="Oslashacute" unicode="&#x1fe;" horiz-adv-x="1645" 
d="M706 1564l245 335l147 -118l-286 -300zM79 700q0 201 97.5 367t268 261.5t377.5 95.5q203 0 378 -97l142 181l128 -94l-141 -179q112 -100 174.5 -238.5t62.5 -296.5q0 -151 -57.5 -285t-156.5 -230.5t-237 -152.5t-293 -56q-219 0 -396 107l-148 -188l-128 93l150 190
q-105 100 -163 234t-58 288zM1327 700q0 209 -137 356l-629 -801q119 -72 261 -72q212 0 358.5 149.5t146.5 367.5zM318 700q0 -198 123 -342l624 796q-113 63 -243 63q-104 0 -197.5 -40t-160.5 -109t-106.5 -165t-39.5 -203z" />
    <glyph glyph-name="oslashacute" unicode="&#x1ff;" horiz-adv-x="1274" 
d="M523 1240l245 335l147 -118l-286 -300zM69 518q0 149 73.5 273t204 196.5t290.5 72.5q151 0 279 -68l118 150l119 -91l-115 -146q79 -74 122.5 -174t43.5 -213q0 -149 -73 -273t-203.5 -196.5t-290.5 -72.5q-154 0 -280 67l-116 -148l-119 91l113 143
q-79 75 -122.5 175.5t-43.5 213.5zM974 518q0 122 -73 212l-411 -519q67 -32 147 -32q143 0 240 98.5t97 240.5zM300 518q0 -122 73 -214l410 519q-71 34 -146 34q-143 0 -240 -98.5t-97 -240.5z" />
    <glyph glyph-name="Scommaaccent" unicode="&#x218;" horiz-adv-x="1185" 
d="M120 242l111 119q167 -181 364 -181q120 0 195.5 55t75.5 146q0 88 -70.5 149t-237.5 96q-212 45 -321.5 148.5t-109.5 257.5q0 173 127 282.5t328 109.5q96 0 180.5 -25.5t152.5 -74.5t110 -129t49 -182h-239q-7 99 -73.5 153t-169.5 54q-99 0 -162.5 -47.5
t-63.5 -123.5q0 -84 70 -140t224 -91q232 -53 338.5 -159.5t106.5 -272.5q0 -182 -136 -296t-367 -114q-137 0 -261.5 69t-220.5 197zM383 -424l245 335l147 -118l-286 -300z" />
    <glyph glyph-name="scommaaccent" unicode="&#x219;" horiz-adv-x="939" 
d="M88 180l100 115q121 -131 275 -131q84 0 133 35t49 93q0 57 -47.5 93.5t-156.5 57.5q-337 67 -337 322q0 129 99 212t262 83q162 0 262.5 -82.5t122.5 -231.5h-221q-7 57 -46.5 91t-104.5 34t-106.5 -30.5t-41.5 -78.5q0 -106 189 -144q179 -36 265.5 -117t86.5 -212
q0 -137 -106.5 -225t-289.5 -88q-232 0 -387 204zM247 -424l245 335l147 -118l-286 -300z" />
    <glyph glyph-name="uni021A" unicode="&#x21a;" horiz-adv-x="1106" 
d="M435 0v1196h-377v204h989v-204h-376v-1196h-236zM323 -424l245 335l147 -118l-286 -300z" />
    <glyph glyph-name="uni021B" unicode="&#x21b;" horiz-adv-x="775" 
d="M446 836v-491q0 -88 42 -129t138 -41q54 0 96 5v-168q-64 -36 -166 -36q-165 0 -251.5 89.5t-86.5 269.5v501h-199v200h199v248l228 52v-300h264v-200h-264zM198 -424l245 335l147 -118l-286 -300z" />
    <glyph glyph-name="dotlessj" unicode="&#x237;" horiz-adv-x="537" 
d="M154 -114v1150h228v-1155q0 -179 -81 -262t-249 -83q-51 0 -88 5v195q9 -1 55 -1q69 0 102 35t33 116z" />
    <glyph glyph-name="apostrophe" unicode="&#x2bc;" horiz-adv-x="841" 
d="M299 1355q0 49 36.5 85t93.5 36q56 0 92 -38.5t36 -105.5q0 -107 -63.5 -199t-184.5 -141l-58 67q66 48 90.5 87t17.5 70t-38 74q-22 30 -22 65z" />
    <glyph glyph-name="circumflex" unicode="&#x2c6;" horiz-adv-x="841" 
d="M313 1459h215l223 -304l-106 -83l-224 235l-225 -235l-106 83z" />
    <glyph glyph-name="caron" unicode="&#x2c7;" horiz-adv-x="841" 
d="M528 1119h-215l-223 304l106 83l224 -235l225 235l106 -83z" />
    <glyph glyph-name="uni02C9" unicode="&#x2c9;" horiz-adv-x="841" 
d="M120 1201v174h600v-174h-600z" />
    <glyph glyph-name="breve" unicode="&#x2d8;" horiz-adv-x="841" 
d="M420 1127q-136 0 -234 88t-105 223h195q2 -65 42.5 -108t101.5 -43t101.5 43t42.5 108h196q-7 -135 -105 -223t-235 -88z" />
    <glyph glyph-name="dotaccent" unicode="&#x2d9;" horiz-adv-x="841" 
d="M289 1291q0 55 38 93t93 38t93.5 -38t38.5 -93t-38.5 -93t-93.5 -38t-93 38t-38 93z" />
    <glyph glyph-name="ring" unicode="&#x2da;" horiz-adv-x="841" 
d="M341 1285q0 -33 22.5 -55t56.5 -22t56.5 22t22.5 55t-22.5 55.5t-56.5 22.5t-56.5 -22.5t-22.5 -55.5zM202 1285q0 86 62.5 143.5t155.5 57.5q94 0 156 -57.5t62 -143.5t-62 -143.5t-156 -57.5q-93 0 -155.5 57.5t-62.5 143.5z" />
    <glyph glyph-name="ogonek" unicode="&#x2db;" horiz-adv-x="841" 
d="M379 0h162q-195 -136 -195 -275q0 -50 26 -76.5t68 -26.5q43 0 69.5 28t32.5 78h170q-14 -114 -87 -181t-189 -67q-109 0 -184.5 63.5t-75.5 165.5q0 84 52.5 159.5t150.5 131.5z" />
    <glyph glyph-name="tilde" unicode="&#x2dc;" horiz-adv-x="841" 
d="M424 1199q-73 49 -105 49q-45 0 -64 -88l-187 37q44 220 198 220q71 0 151 -51q2 -1 15 -10t16.5 -11t14.5 -8.5t16 -8.5t13.5 -6t15.5 -5t13 -1q46 0 65 88l186 -37q-44 -220 -197 -220q-74 0 -151 52z" />
    <glyph glyph-name="hungarumlaut" unicode="&#x2dd;" horiz-adv-x="841" 
d="M108 1176l245 335l147 -118l-286 -300zM436 1176l245 335l147 -118l-286 -300z" />
    <glyph glyph-name="gravecomb" unicode="&#x300;" horiz-adv-x="0" 
d="M-514 1511l245 -335l-106 -83l-286 300z" />
    <glyph glyph-name="acutecomb" unicode="&#x301;" horiz-adv-x="0" 
d="M-567 1176l245 335l147 -118l-286 -300z" />
    <glyph glyph-name="uni0302" unicode="&#x302;" horiz-adv-x="0" 
d="M-528 1459h215l223 -304l-106 -83l-224 235l-225 -235l-106 83z" />
    <glyph glyph-name="tildecomb" unicode="&#x303;" horiz-adv-x="0" 
d="M-417 1199q-73 49 -105 49q-45 0 -64 -88l-187 37q44 220 198 220q71 0 151 -51q2 -1 15 -10t16.5 -11t14.5 -8.5t16 -8.5t13.5 -6t15.5 -5t13 -1q46 0 65 88l186 -37q-44 -220 -197 -220q-74 0 -151 52z" />
    <glyph glyph-name="uni0304" unicode="&#x304;" horiz-adv-x="0" 
d="M-721 1202v174h600v-174h-600z" />
    <glyph glyph-name="uni0306" unicode="&#x306;" horiz-adv-x="0" 
d="M-421 1127q-136 0 -234 88t-105 223h195q2 -65 42.5 -108t101.5 -43t101.5 43t42.5 108h196q-7 -135 -105 -223t-235 -88z" />
    <glyph glyph-name="uni0307" unicode="&#x307;" horiz-adv-x="0" 
d="M-552 1291q0 55 38 93t93 38t93.5 -38t38.5 -93t-38.5 -93t-93.5 -38t-93 38t-38 93z" />
    <glyph glyph-name="uni0308" unicode="&#x308;" horiz-adv-x="0" 
d="M-737 1292q0 54 37.5 91.5t92.5 37.5t92.5 -37.5t37.5 -91.5q0 -55 -37.5 -92.5t-92.5 -37.5t-92.5 37.5t-37.5 92.5zM-365 1292q0 54 37.5 91.5t92.5 37.5t92.5 -37.5t37.5 -91.5q0 -55 -37.5 -92.5t-92.5 -37.5t-92.5 37.5t-37.5 92.5z" />
    <glyph glyph-name="uni030A" unicode="&#x30a;" horiz-adv-x="0" 
d="M-500 1285q0 -33 22.5 -55t56.5 -22t56.5 22t22.5 55t-22.5 55.5t-56.5 22.5t-56.5 -22.5t-22.5 -55.5zM-639 1285q0 86 62.5 143.5t155.5 57.5q94 0 156 -57.5t62 -143.5t-62 -143.5t-156 -57.5q-93 0 -155.5 57.5t-62.5 143.5z" />
    <glyph glyph-name="uni030C" unicode="&#x30c;" horiz-adv-x="0" 
d="M-313 1119h-215l-223 304l106 83l224 -235l225 235l106 -83z" />
    <glyph glyph-name="uni0327" unicode="&#x327;" horiz-adv-x="0" 
d="M-320 -302q0 37 -29.5 63.5t-70.5 26.5q-27 0 -49 -7l-40 36v183h154v-106q97 -6 151 -62.5t54 -136.5q0 -93 -74 -154t-187 -61q-104 0 -182 58t-93 155h157q10 -39 39 -61.5t68 -22.5q47 0 74.5 24.5t27.5 64.5z" />
    <glyph glyph-name="tonos" unicode="&#x384;" horiz-adv-x="841" 
d="M242 1176l245 335l147 -118l-286 -300z" />
    <glyph glyph-name="dieresistonos" unicode="&#x385;" horiz-adv-x="841" 
d="M105 1140q0 55 38 92.5t95 37.5t95 -37.5t38 -92.5t-38 -92t-95 -37t-95 37t-38 92zM470 1140q0 55 38 92.5t95 37.5t95 -37.5t38 -92.5t-38 -92t-95 -37t-95 37t-38 92zM304 1331l222 295l147 -119l-263 -259z" />
    <glyph glyph-name="Alphatonos" unicode="&#x386;" horiz-adv-x="1414" 
d="M597 1400h262l514 -1400h-253l-117 338h-551l-117 -338h-253zM517 535h422l-211 609zM34 1116l245 335l147 -118l-286 -300z" />
    <glyph glyph-name="anoteleia" unicode="&#x387;" horiz-adv-x="598" 
d="M152 638q0 62 42 104t105 42t105 -42t42 -104t-42 -103.5t-105 -41.5t-105 41.5t-42 103.5z" />
    <glyph glyph-name="Epsilontonos" unicode="&#x388;" horiz-adv-x="1484" 
d="M506 0v1400h850v-203h-614v-393h564v-201h-564v-401h632v-202h-868zM34 1116l245 335l147 -118l-286 -300z" />
    <glyph glyph-name="Etatonos" unicode="&#x389;" horiz-adv-x="1750" 
d="M506 0v1400h236v-595h611v595h236v-1400h-236v601h-611v-601h-236zM34 1116l245 335l147 -118l-286 -300z" />
    <glyph glyph-name="Iotatonos" unicode="&#x38a;" horiz-adv-x="919" 
d="M507 1400h236v-1400h-236v1400zM34 1116l245 335l147 -118l-286 -300z" />
    <glyph glyph-name="Omicrontonos" unicode="&#x38c;" horiz-adv-x="1866" 
d="M539 700q0 -144 67 -262.5t182.5 -186.5t254.5 -68q212 0 358.5 149.5t146.5 367.5q0 143 -67 262t-183 187t-255 68q-104 0 -197.5 -40t-160.5 -109t-106.5 -165t-39.5 -203zM300 700q0 201 97.5 367t268 261.5t377.5 95.5q155 0 293 -56t237 -152.5t156.5 -230.5
t57.5 -285t-57.5 -285t-156.5 -230.5t-237 -152.5t-293 -56q-207 0 -377.5 95.5t-268 261.5t-97.5 367zM34 1116l245 335l147 -118l-286 -300z" />
    <glyph glyph-name="Upsilontonos" unicode="&#x38e;" horiz-adv-x="1722" 
d="M722 1400l353 -604l352 604h255l-489 -831v-569h-236v569l-489 831h254zM34 1116l245 335l147 -118l-286 -300z" />
    <glyph glyph-name="Omegatonos" unicode="&#x38f;" horiz-adv-x="1830" 
d="M34 1116l245 335l147 -118l-286 -300zM1502 733q0 133 -62.5 244.5t-171 175.5t-238.5 64q-198 0 -335 -140.5t-137 -343.5q0 -167 95 -308.5t268 -227.5v-197h-585v207h307q-159 99 -241.5 239t-82.5 308q0 184 94 338t257.5 243t359.5 89t359.5 -89t257.5 -243t94 -338
q0 -168 -82.5 -307.5t-241.5 -239.5h306v-207h-585v197q174 85 269 227t95 309z" />
    <glyph glyph-name="iotadieresistonos" unicode="&#x390;" horiz-adv-x="568" 
d="M154 246v790h228v-732q0 -104 103 -104h39v-197q-35 -3 -84 -3q-286 0 -286 246zM-47 1274q0 55 38 92.5t95 37.5t95 -37.5t38 -92.5t-38 -92t-95 -37t-95 37t-38 92zM318 1274q0 55 38 92.5t95 37.5t95 -37.5t38 -92.5t-38 -92t-95 -37t-95 37t-38 92zM152 1465l222 295
l147 -119l-263 -259z" />
    <glyph glyph-name="Alpha" unicode="&#x391;" horiz-adv-x="1372" 
d="M555 1400h262l514 -1400h-253l-117 338h-551l-117 -338h-253zM475 535h422l-211 609z" />
    <glyph glyph-name="Beta" unicode="&#x392;" horiz-adv-x="1243" 
d="M734 0h-574v1400h510q190 0 298 -101.5t108 -273.5q0 -104 -48.5 -176.5t-130.5 -105.5q111 -28 184 -118.5t73 -221.5q0 -180 -114.5 -291.5t-305.5 -111.5zM843 1009q0 91 -52.5 141.5t-138.5 50.5h-258v-382h258q86 0 138.5 50t52.5 140zM916 413q0 97 -57.5 155.5
t-149.5 58.5h-315v-428h315q92 0 149.5 58.5t57.5 155.5z" />
    <glyph glyph-name="Gamma" unicode="&#x393;" horiz-adv-x="1034" 
d="M160 0v1400h833v-204h-597v-1196h-236z" />
    <glyph glyph-name="uni0394" unicode="&#x394;" horiz-adv-x="1372" 
d="M817 1400l514 -1400h-1291l515 1400h262zM686 1144l-330 -943h660z" />
    <glyph glyph-name="Epsilon" unicode="&#x395;" horiz-adv-x="1137" 
d="M160 0v1400h850v-203h-614v-393h564v-201h-564v-401h632v-202h-868z" />
    <glyph glyph-name="Zeta" unicode="&#x396;" horiz-adv-x="1210" 
d="M117 199l684 997h-654v204h936v-199l-684 -997h704v-204h-986v199z" />
    <glyph glyph-name="Eta" unicode="&#x397;" horiz-adv-x="1404" 
d="M160 0v1400h236v-595h611v595h236v-1400h-236v601h-611v-601h-236z" />
    <glyph glyph-name="Theta" unicode="&#x398;" horiz-adv-x="1645" 
d="M537 601v197h571v-197h-571zM79 700q0 201 97.5 367t268 261.5t377.5 95.5q155 0 293 -56t237 -152.5t156.5 -230.5t57.5 -285t-57.5 -285t-156.5 -230.5t-237 -152.5t-293 -56q-207 0 -377.5 95.5t-268 261.5t-97.5 367zM315 700q0 -144 67.5 -263.5t183.5 -188
t256 -68.5t256 68.5t183.5 188t67.5 263.5t-67.5 263t-184 187.5t-255.5 68.5t-255.5 -68.5t-184 -187.5t-67.5 -263z" />
    <glyph glyph-name="Iota" unicode="&#x399;" horiz-adv-x="588" 
d="M176 1400h236v-1400h-236v1400z" />
    <glyph glyph-name="Kappa" unicode="&#x39a;" horiz-adv-x="1220" 
d="M879 1399h236q0 -554 -293 -713l407 -686h-270l-366 622q-35 -4 -79 -4h-118v-618h-236v1400h236v-578h75q143 0 230.5 54.5t132.5 182t45 340.5z" />
    <glyph glyph-name="Lambda" unicode="&#x39b;" horiz-adv-x="1372" 
d="M1331 0h-253l-392 1128l-393 -1128h-253l515 1400h262z" />
    <glyph glyph-name="Mu" unicode="&#x39c;" horiz-adv-x="1708" 
d="M958 190h-119l-454 792v-982h-225v1400h233l506 -892l506 892h232v-1400h-225v982z" />
    <glyph glyph-name="Nu" unicode="&#x39d;" horiz-adv-x="1406" 
d="M160 0v1400h235l626 -1008v1008h225v-1400h-235l-626 1008v-1008h-225z" />
    <glyph glyph-name="Xi" unicode="&#x39e;" horiz-adv-x="1168" 
d="M128 1197v203h912v-203h-912zM109 0v202h949v-202h-949zM980 603h-793v201h793v-201z" />
    <glyph glyph-name="Omicron" unicode="&#x39f;" horiz-adv-x="1645" 
d="M318 700q0 -144 67 -262.5t182.5 -186.5t254.5 -68q212 0 358.5 149.5t146.5 367.5q0 143 -67 262t-183 187t-255 68q-104 0 -197.5 -40t-160.5 -109t-106.5 -165t-39.5 -203zM79 700q0 201 97.5 367t268 261.5t377.5 95.5q155 0 293 -56t237 -152.5t156.5 -230.5
t57.5 -285t-57.5 -285t-156.5 -230.5t-237 -152.5t-293 -56q-207 0 -377.5 95.5t-268 261.5t-97.5 367z" />
    <glyph glyph-name="Pi" unicode="&#x3a0;" horiz-adv-x="1355" 
d="M1195 1400v-1400h-236v1196h-563v-1196h-236v1400h1035z" />
    <glyph glyph-name="Rho" unicode="&#x3a1;" horiz-adv-x="1185" 
d="M631 508h-235v-508h-236v1400h471q222 0 353.5 -122t131.5 -324t-131.5 -324t-353.5 -122zM879 954q0 114 -69 180.5t-194 66.5h-220v-495h220q125 0 194 66.5t69 181.5z" />
    <glyph glyph-name="Sigma" unicode="&#x3a3;" horiz-adv-x="1167" 
d="M117 207l389 495l-389 490v208h933v-204h-653l357 -443v-105l-359 -445h655v-203h-933v207z" />
    <glyph glyph-name="Tau" unicode="&#x3a4;" horiz-adv-x="1106" 
d="M435 0v1196h-377v204h989v-204h-376v-1196h-236z" />
    <glyph glyph-name="Upsilon" unicode="&#x3a5;" horiz-adv-x="1294" 
d="M294 1400l353 -604l352 604h255l-489 -831v-569h-236v569l-489 831h254z" />
    <glyph glyph-name="Phi" unicode="&#x3a6;" horiz-adv-x="1531" 
d="M650 0v192q-160 0 -293.5 66.5t-211 182.5t-77.5 257q0 140 77.5 256.5t211 183t293.5 66.5v196h231v-196q159 0 293 -66.5t211.5 -183t77.5 -256.5t-77.5 -256.5t-211.5 -183t-293 -66.5v-192h-231zM1229 698q0 126 -101 215t-247 89v-609q146 0 247 89t101 216z
M302 698q0 -127 101 -216t247 -89v609q-146 0 -247 -89t-101 -215z" />
    <glyph glyph-name="Chi" unicode="&#x3a7;" horiz-adv-x="1273" 
d="M1241 0h-258l-347 545l-347 -545h-257l461 713l-442 687h257l328 -519l328 519h258l-443 -687z" />
    <glyph glyph-name="Psi" unicode="&#x3a8;" horiz-adv-x="1392" 
d="M809 1400v-864q103 32 166 120t63 207v537h227v-548q0 -200 -128 -348t-328 -183v-321h-227v321q-200 36 -328 183.5t-128 347.5v548h227v-537q0 -119 63 -207t166 -120v864h227z" />
    <glyph glyph-name="uni03A9" unicode="&#x3a9;" horiz-adv-x="1600" 
d="M1272 733q0 133 -62.5 244.5t-171 175.5t-238.5 64q-198 0 -335 -140.5t-137 -343.5q0 -167 95 -308.5t268 -227.5v-197h-585v207h307q-159 99 -241.5 239t-82.5 308q0 184 94 338t257.5 243t359.5 89t359.5 -89t257.5 -243t94 -338q0 -168 -82.5 -307.5t-241.5 -239.5
h306v-207h-585v197q174 85 269 227t95 309z" />
    <glyph glyph-name="Iotadieresis" unicode="&#x3aa;" horiz-adv-x="588" 
d="M176 1400h236v-1400h-236v1400zM-23 1664q0 54 37.5 91.5t92.5 37.5t92.5 -37.5t37.5 -91.5q0 -55 -37.5 -92.5t-92.5 -37.5t-92.5 37.5t-37.5 92.5zM349 1664q0 54 37.5 91.5t92.5 37.5t92.5 -37.5t37.5 -91.5q0 -55 -37.5 -92.5t-92.5 -37.5t-92.5 37.5t-37.5 92.5z
" />
    <glyph glyph-name="Upsilondieresis" unicode="&#x3ab;" horiz-adv-x="1294" 
d="M294 1400l353 -604l352 604h255l-489 -831v-569h-236v569l-489 831h254zM330 1664q0 54 37.5 91.5t92.5 37.5t92.5 -37.5t37.5 -91.5q0 -55 -37.5 -92.5t-92.5 -37.5t-92.5 37.5t-37.5 92.5zM702 1664q0 54 37.5 91.5t92.5 37.5t92.5 -37.5t37.5 -91.5q0 -55 -37.5 -92.5
t-92.5 -37.5t-92.5 37.5t-37.5 92.5z" />
    <glyph glyph-name="alphatonos" unicode="&#x3ac;" horiz-adv-x="1382" 
d="M494 1240l245 335l147 -118l-286 -300zM69 518q0 149 65 273t181.5 196.5t259.5 72.5q111 0 204 -43t160 -121v140h228v-732q0 -104 103 -104h44v-197q-34 -3 -89 -3q-217 0 -271 160q-66 -87 -163.5 -135.5t-215.5 -48.5q-217 0 -361.5 157t-144.5 385zM300 518
q0 -142 92 -240.5t228 -98.5t227.5 98t91.5 241q0 142 -91 240.5t-228 98.5t-228.5 -98.5t-91.5 -240.5z" />
    <glyph glyph-name="epsilontonos" unicode="&#x3ad;" horiz-adv-x="955" 
d="M331 1240l245 335l147 -118l-286 -300zM294 312q0 -63 57 -106.5t141 -43.5q151 0 257 119l127 -108q-72 -97 -165 -147t-222 -50q-180 0 -301 92t-121 229q0 90 60.5 157.5t150.5 93.5q-79 27 -126.5 90.5t-47.5 138.5q0 120 109 201.5t270 81.5q159 0 262.5 -87
t123.5 -228h-214q-18 63 -63.5 95t-111.5 32t-109 -32t-43 -80q0 -52 47 -88t114 -36h156v-182h-150q-86 0 -143.5 -39.5t-57.5 -102.5z" />
    <glyph glyph-name="etatonos" unicode="&#x3ae;" horiz-adv-x="1216" 
d="M683 1060q187 0 300.5 -115t113.5 -306v-1103h-228v1083q0 98 -66 168t-167 70q-109 0 -188.5 -81.5t-79.5 -205.5v-570h-229v1036h229v-138q54 74 136.5 118t178.5 44zM498 1240l245 335l147 -118l-286 -300z" />
    <glyph glyph-name="iotatonos" unicode="&#x3af;" horiz-adv-x="568" 
d="M154 246v790h228v-732q0 -104 103 -104h39v-197q-35 -3 -84 -3q-286 0 -286 246zM156 1240l245 335l147 -118l-286 -300z" />
    <glyph glyph-name="upsilondieresistonos" unicode="&#x3b0;" horiz-adv-x="1150" 
d="M575 -24q-193 0 -324.5 124.5t-131.5 305.5v630h229v-618q0 -102 65 -170.5t162 -68.5q96 0 161.5 68.5t65.5 170.5v618h228v-630q0 -181 -131.5 -305.5t-323.5 -124.5zM259 1274q0 55 38 92.5t95 37.5t95 -37.5t38 -92.5t-38 -92t-95 -37t-95 37t-38 92zM624 1274
q0 55 38 92.5t95 37.5t95 -37.5t38 -92.5t-38 -92t-95 -37t-95 37t-38 92zM458 1465l222 295l147 -119l-263 -259z" />
    <glyph glyph-name="alpha" unicode="&#x3b1;" horiz-adv-x="1382" 
d="M69 518q0 149 65 273t181.5 196.5t259.5 72.5q111 0 204 -43t160 -121v140h228v-732q0 -104 103 -104h44v-197q-34 -3 -89 -3q-217 0 -271 160q-66 -87 -163.5 -135.5t-215.5 -48.5q-217 0 -361.5 157t-144.5 385zM300 518q0 -142 92 -240.5t228 -98.5t227.5 98t91.5 241
q0 142 -91 240.5t-228 98.5t-228.5 -98.5t-91.5 -240.5z" />
    <glyph glyph-name="beta" unicode="&#x3b2;" horiz-adv-x="1207" 
d="M449 70l51 153q93 -50 189 -50q102 0 160.5 74t58.5 195q0 110 -78.5 187.5t-195.5 77.5q-35 0 -74 -12l-71 114l200 388h-309v-1661h-232v1864h782v-202l-189 -347q176 -9 288.5 -133t112.5 -300q0 -194 -115 -318t-317 -124q-144 0 -261 94z" />
    <glyph glyph-name="gamma" unicode="&#x3b3;" horiz-adv-x="1062" 
d="M417 -464v463l-394 1037h238l270 -747l270 747h238l-394 -1037v-463h-228z" />
    <glyph glyph-name="delta" unicode="&#x3b4;" horiz-adv-x="1132" 
d="M298 444q0 -114 78 -192t190 -78t190 78t78 192q0 113 -78 191t-190 78t-190 -78t-78 -191zM521 901l-314 314v185h728v-203h-439l442 -443q60 -60 93 -142t33 -168q0 -100 -41 -188t-109.5 -149t-160 -96t-190.5 -35q-97 0 -187 35t-158 96t-109 149t-41 188
q0 188 131.5 315.5t321.5 141.5z" />
    <glyph glyph-name="epsilon" unicode="&#x3b5;" horiz-adv-x="955" 
d="M294 312q0 -63 57 -106.5t141 -43.5q151 0 257 119l127 -108q-72 -97 -165 -147t-222 -50q-180 0 -301 92t-121 229q0 90 60.5 157.5t150.5 93.5q-79 27 -126.5 90.5t-47.5 138.5q0 120 109 201.5t270 81.5q159 0 262.5 -87t123.5 -228h-214q-18 63 -63.5 95t-111.5 32
t-109 -32t-43 -80q0 -52 47 -88t114 -36h156v-182h-150q-86 0 -143.5 -39.5t-57.5 -102.5z" />
    <glyph glyph-name="zeta" unicode="&#x3b6;" horiz-adv-x="942" 
d="M68 368q0 95 47.5 185t132.5 194l370 450h-450v203h715v-190l-456 -564q-131 -162 -131 -275q0 -138 167 -216l237 -110q89 -41 135.5 -108.5t46.5 -154.5q0 -123 -88 -246h-227q86 112 86 215q0 47 -29.5 85t-77.5 60l-212 95q-128 57 -197 155t-69 222z" />
    <glyph glyph-name="eta" unicode="&#x3b7;" horiz-adv-x="1216" 
d="M683 1060q187 0 300.5 -115t113.5 -306v-1103h-228v1083q0 98 -66 168t-167 70q-109 0 -188.5 -81.5t-79.5 -205.5v-570h-229v1036h229v-138q54 74 136.5 118t178.5 44z" />
    <glyph glyph-name="theta" unicode="&#x3b8;" horiz-adv-x="1280" 
d="M68 700q0 147 42 279.5t115.5 231t181.5 156t233 57.5t232.5 -57.5t181 -156t115.5 -231t42 -279.5t-42 -279.5t-115.5 -231t-181 -156t-232.5 -57.5t-233 57.5t-181.5 156t-115.5 231t-42 279.5zM640 176q133 0 224.5 122t110.5 306h-670q19 -184 110 -306t225 -122z
M640 1223q-134 0 -225 -122t-110 -306h670q-19 184 -110.5 306t-224.5 122z" />
    <glyph glyph-name="iota" unicode="&#x3b9;" horiz-adv-x="568" 
d="M154 246v790h228v-732q0 -104 103 -104h39v-197q-35 -3 -84 -3q-286 0 -286 246z" />
    <glyph glyph-name="kappa" unicode="&#x3ba;" horiz-adv-x="1051" 
d="M735 1036h228q0 -188 -59 -317.5t-170 -191.5l311 -527h-258l-276 475h-143v-475h-229v1036h229v-365h99q122 0 195 87.5t73 277.5z" />
    <glyph glyph-name="lambda" unicode="&#x3bb;" horiz-adv-x="1062" 
d="M416 1017l-175 443h238l560 -1460h-238l-273 724l-267 -724h-238z" />
    <glyph glyph-name="uni03BC" unicode="&#x3bc;" horiz-adv-x="1236" 
d="M139 -464v1500h228v-626q0 -94 67.5 -162.5t165.5 -68.5q109 0 188.5 81.5t79.5 205.5v570h229v-1036h-229v137q-54 -74 -136.5 -117t-178.5 -43q-103 0 -186 39v-480h-228z" />
    <glyph glyph-name="nu" unicode="&#x3bd;" horiz-adv-x="1060" 
d="M799 1036h238l-386 -1036h-242l-386 1036h238l269 -752z" />
    <glyph glyph-name="xi" unicode="&#x3be;" horiz-adv-x="952" 
d="M305 375q0 -176 197 -250l176 -67q102 -39 158.5 -109t56.5 -163q0 -125 -91 -250h-226q89 110 89 214q0 99 -111 141l-165 60q-145 53 -228.5 166.5t-83.5 247.5q0 132 80.5 239.5t206.5 154.5q-107 41 -166 125t-59 189q0 148 115 249.5t284 101.5q172 0 276.5 -93.5
t111.5 -253.5h-210q-6 69 -56 113.5t-118 44.5q-76 0 -127 -54t-51 -135q0 -82 52 -137t130 -55h218v-188h-178q-119 0 -200 -83.5t-81 -207.5z" />
    <glyph glyph-name="omicron" unicode="&#x3bf;" horiz-adv-x="1274" 
d="M69 518q0 149 73.5 273t204 196.5t290.5 72.5t290.5 -72.5t203.5 -196.5t73 -273t-73 -273t-203.5 -196.5t-290.5 -72.5t-290.5 72.5t-204 196.5t-73.5 273zM300 518q0 -142 97 -240.5t240 -98.5t240 98.5t97 240.5t-97 240.5t-240 98.5t-240 -98.5t-97 -240.5z" />
    <glyph glyph-name="pi" unicode="&#x3c0;" horiz-adv-x="1152" 
d="M418 833v-833h-227v833h-144v203h1057v-203h-144v-833h-227v833h-315z" />
    <glyph glyph-name="rho" unicode="&#x3c1;" horiz-adv-x="1288" 
d="M119 -464v982q0 150 70 273.5t197 196t284 72.5q156 0 282.5 -72.5t196.5 -196t70 -273.5q0 -147 -69 -271.5t-191.5 -197.5t-269.5 -73q-211 0 -343 149v-589h-227zM346 518v-136q38 -93 122 -148t187 -55q140 0 236.5 98t96.5 241q0 144 -91 241.5t-229 97.5
q-139 0 -230.5 -97.5t-91.5 -241.5z" />
    <glyph glyph-name="sigma1" unicode="&#x3c2;" horiz-adv-x="1079" 
d="M301 518q0 -114 59.5 -203t172.5 -139q25 -11 119 -52t144 -64q194 -88 194 -273q0 -126 -90 -251h-225q88 114 88 215q0 98 -108 145q-41 18 -123 53t-123 53q-158 68 -249 203.5t-91 312.5q0 149 73.5 273t204 196.5t290.5 72.5q220 0 384 -138l-116 -174
q-128 109 -267 109q-143 0 -240 -98.5t-97 -240.5z" />
    <glyph glyph-name="sigma" unicode="&#x3c3;" horiz-adv-x="1321" 
d="M69 506q0 146 73.5 267.5t201.5 192t281 70.5h648v-203h-257q76 -63 120 -153.5t44 -193.5q0 -137 -73 -254t-201 -186.5t-281 -69.5t-281 70t-201.5 192t-73.5 268zM299 506q0 -138 94.5 -232.5t231.5 -94.5t231 94t94 233q0 138 -94 232.5t-231 94.5t-231.5 -94.5
t-94.5 -232.5z" />
    <glyph glyph-name="tau" unicode="&#x3c4;" horiz-adv-x="984" 
d="M367 332v501h-321v203h892v-203h-343v-487q0 -80 32.5 -114.5t101.5 -34.5h53v-197q-33 -3 -85 -3q-173 0 -251.5 78.5t-78.5 256.5z" />
    <glyph glyph-name="upsilon" unicode="&#x3c5;" horiz-adv-x="1150" 
d="M575 -24q-193 0 -324.5 124.5t-131.5 305.5v630h229v-618q0 -102 65 -170.5t162 -68.5q96 0 161.5 68.5t65.5 170.5v618h228v-630q0 -181 -131.5 -305.5t-323.5 -124.5z" />
    <glyph glyph-name="phi" unicode="&#x3c6;" horiz-adv-x="1396" 
d="M267 943l153 -143q-128 -120 -128 -282q0 -131 84.5 -226t213.5 -111v879h166q161 0 292 -72t205 -196.5t74 -273.5q0 -142 -67 -261.5t-186 -193t-266 -84.5v-443h-218v443q-225 16 -373 169.5t-148 369.5q0 129 54.5 238.5t143.5 186.5zM1105 518q0 130 -84.5 224.5
t-212.5 111.5v-673q128 17 212.5 111.5t84.5 225.5z" />
    <glyph glyph-name="chi" unicode="&#x3c7;" horiz-adv-x="1044" 
d="M1016 1036l-361 -731l381 -769h-244l-270 551l-270 -551h-244l381 769l-361 731h244l250 -514l250 514h244z" />
    <glyph glyph-name="psi" unicode="&#x3c8;" horiz-adv-x="1376" 
d="M798 1036v-840q105 28 170.5 111.5t65.5 194.5v534h222v-547q0 -191 -129 -331t-329 -172v-450h-221v450q-200 33 -329 173t-129 330v547h222v-534q0 -111 65.5 -194.5t170.5 -111.5v840h221z" />
    <glyph glyph-name="omega" unicode="&#x3c9;" horiz-adv-x="1599" 
d="M913 818v-317q0 -135 55 -228.5t136 -93.5q83 0 139 94.5t56 234.5q0 236 -175 528h228q78 -126 128 -254t50 -274q0 -242 -116 -387t-293 -145q-106 0 -191 62t-131 159q-44 -97 -129.5 -159t-191.5 -62q-177 0 -293 145t-116 387q0 146 50 274t128 254h228
q-175 -292 -175 -528q0 -140 56 -234.5t139 -94.5q81 0 136 93.5t55 228.5v317h227z" />
    <glyph glyph-name="iotadieresis" unicode="&#x3ca;" horiz-adv-x="568" 
d="M154 246v790h228v-732q0 -104 103 -104h39v-197q-35 -3 -84 -3q-286 0 -286 246zM-48 1340q0 54 37.5 91.5t92.5 37.5t92.5 -37.5t37.5 -91.5q0 -55 -37.5 -92.5t-92.5 -37.5t-92.5 37.5t-37.5 92.5zM324 1340q0 54 37.5 91.5t92.5 37.5t92.5 -37.5t37.5 -91.5
q0 -55 -37.5 -92.5t-92.5 -37.5t-92.5 37.5t-37.5 92.5z" />
    <glyph glyph-name="upsilondieresis" unicode="&#x3cb;" horiz-adv-x="1150" 
d="M575 -24q-193 0 -324.5 124.5t-131.5 305.5v630h229v-618q0 -102 65 -170.5t162 -68.5q96 0 161.5 68.5t65.5 170.5v618h228v-630q0 -181 -131.5 -305.5t-323.5 -124.5zM258 1340q0 54 37.5 91.5t92.5 37.5t92.5 -37.5t37.5 -91.5q0 -55 -37.5 -92.5t-92.5 -37.5
t-92.5 37.5t-37.5 92.5zM630 1340q0 54 37.5 91.5t92.5 37.5t92.5 -37.5t37.5 -91.5q0 -55 -37.5 -92.5t-92.5 -37.5t-92.5 37.5t-37.5 92.5z" />
    <glyph glyph-name="omicrontonos" unicode="&#x3cc;" horiz-adv-x="1274" 
d="M69 518q0 149 73.5 273t204 196.5t290.5 72.5t290.5 -72.5t203.5 -196.5t73 -273t-73 -273t-203.5 -196.5t-290.5 -72.5t-290.5 72.5t-204 196.5t-73.5 273zM300 518q0 -142 97 -240.5t240 -98.5t240 98.5t97 240.5t-97 240.5t-240 98.5t-240 -98.5t-97 -240.5zM523 1240
l245 335l147 -118l-286 -300z" />
    <glyph glyph-name="upsilontonos" unicode="&#x3cd;" horiz-adv-x="1150" 
d="M450 1240l245 335l147 -118l-286 -300zM575 -24q-193 0 -324.5 124.5t-131.5 305.5v630h229v-618q0 -102 65 -170.5t162 -68.5q96 0 161.5 68.5t65.5 170.5v618h228v-630q0 -181 -131.5 -305.5t-323.5 -124.5z" />
    <glyph glyph-name="omegatonos" unicode="&#x3ce;" horiz-adv-x="1599" 
d="M694 1240l245 335l147 -118l-286 -300zM913 818v-317q0 -135 55 -228.5t136 -93.5q83 0 139 94.5t56 234.5q0 236 -175 528h228q78 -126 128 -254t50 -274q0 -242 -116 -387t-293 -145q-106 0 -191 62t-131 159q-44 -97 -129.5 -159t-191.5 -62q-177 0 -293 145t-116 387
q0 146 50 274t128 254h228q-175 -292 -175 -528q0 -140 56 -234.5t139 -94.5q81 0 136 93.5t55 228.5v317h227z" />
    <glyph glyph-name="uni0400" unicode="&#x400;" horiz-adv-x="1137" 
d="M160 0v1400h850v-203h-614v-393h564v-201h-564v-401h632v-202h-868zM451 1899l245 -335l-106 -83l-286 300z" />
    <glyph glyph-name="afii10023" unicode="&#x401;" horiz-adv-x="1137" 
d="M160 0v1400h850v-203h-614v-393h564v-201h-564v-401h632v-202h-868zM270 1664q0 54 37.5 91.5t92.5 37.5t92.5 -37.5t37.5 -91.5q0 -55 -37.5 -92.5t-92.5 -37.5t-92.5 37.5t-37.5 92.5zM642 1664q0 54 37.5 91.5t92.5 37.5t92.5 -37.5t37.5 -91.5q0 -55 -37.5 -92.5
t-92.5 -37.5t-92.5 37.5t-37.5 92.5z" />
    <glyph glyph-name="afii10051" unicode="&#x402;" horiz-adv-x="1435" 
d="M968 900q180 0 288.5 -115t108.5 -306v-90q0 -166 -117 -279.5t-289 -113.5q-43 0 -87 4v196q17 -1 54 -1q86 0 144.5 59t58.5 146v59q0 107 -55 172.5t-153 65.5q-106 0 -178.5 -81t-72.5 -206v-410h-236v1197h-376v203h988v-203h-376v-456q52 74 130 116.5t168 42.5z
" />
    <glyph glyph-name="afii10052" unicode="&#x403;" horiz-adv-x="1034" 
d="M160 0v1400h833v-204h-597v-1196h-236zM460 1604l245 335l147 -118l-286 -300z" />
    <glyph glyph-name="afii10053" unicode="&#x404;" horiz-adv-x="1516" 
d="M1275 460l143 -104q-211 -380 -633 -380q-147 0 -277.5 55t-224.5 150t-149 230t-55 289q0 153 55 288t149 230.5t224.5 150.5t277.5 55q250 0 423 -134.5t229 -368.5h-247q-42 141 -151.5 218.5t-250.5 77.5q-172 0 -302.5 -114t-159.5 -305h684v-197h-684
q30 -192 163 -305t308 -113q305 0 478 277z" />
    <glyph glyph-name="afii10054" unicode="&#x405;" horiz-adv-x="1185" 
d="M120 242l111 119q167 -181 364 -181q120 0 195.5 55t75.5 146q0 88 -70.5 149t-237.5 96q-212 45 -321.5 148.5t-109.5 257.5q0 173 127 282.5t328 109.5q96 0 180.5 -25.5t152.5 -74.5t110 -129t49 -182h-239q-7 99 -73.5 153t-169.5 54q-99 0 -162.5 -47.5
t-63.5 -123.5q0 -84 70 -140t224 -91q232 -53 338.5 -159.5t106.5 -272.5q0 -182 -136 -296t-367 -114q-137 0 -261.5 69t-220.5 197z" />
    <glyph glyph-name="afii10055" unicode="&#x406;" horiz-adv-x="588" 
d="M176 1400h236v-1400h-236v1400z" />
    <glyph glyph-name="afii10056" unicode="&#x407;" horiz-adv-x="588" 
d="M176 1400h236v-1400h-236v1400zM-23 1664q0 54 37.5 91.5t92.5 37.5t92.5 -37.5t37.5 -91.5q0 -55 -37.5 -92.5t-92.5 -37.5t-92.5 37.5t-37.5 92.5zM349 1664q0 54 37.5 91.5t92.5 37.5t92.5 -37.5t37.5 -91.5q0 -55 -37.5 -92.5t-92.5 -37.5t-92.5 37.5t-37.5 92.5z
" />
    <glyph glyph-name="afii10057" unicode="&#x408;" horiz-adv-x="919" 
d="M535 443v957h236v-962q0 -232 -110 -347t-314 -115q-76 0 -156 24.5t-141 69.5l60 166q98 -53 203 -53q222 0 222 260z" />
    <glyph glyph-name="afii10058" unicode="&#x409;" horiz-adv-x="2013" 
d="M1219 1400v-506h235q223 0 356.5 -123t133.5 -324t-133.5 -324t-356.5 -123h-471v1196h-506v-849q0 -181 -88 -266t-266 -85q-36 0 -82 4v200h58q72 0 107 37t35 124v1039h978zM1706 447q0 114 -71.5 180.5t-196.5 66.5h-219v-494h219q126 0 197 66.5t71 180.5z" />
    <glyph glyph-name="afii10059" unicode="&#x40a;" horiz-adv-x="2021" 
d="M1227 1400v-506h235q223 0 356.5 -123t133.5 -324t-133.5 -324t-356.5 -123h-471v601h-595v-601h-236v1400h236v-595h595v595h236zM1714 447q0 114 -71.5 180.5t-197.5 66.5h-218v-494h218q127 0 198 66.5t71 180.5z" />
    <glyph glyph-name="afii10060" unicode="&#x40b;" horiz-adv-x="1485" 
d="M968 900q180 0 288.5 -115t108.5 -306v-479h-236v459q0 107 -55 172.5t-153 65.5q-107 0 -179 -82.5t-72 -210.5v-404h-236v1197h-376v203h988v-203h-376v-456q52 74 130 116.5t168 42.5z" />
    <glyph glyph-name="afii10061" unicode="&#x40c;" horiz-adv-x="1220" 
d="M879 1399h236q0 -554 -293 -713l407 -686h-270l-366 622q-35 -4 -79 -4h-118v-618h-236v1400h236v-578h75q143 0 230.5 54.5t132.5 182t45 340.5zM467 1564l245 335l147 -118l-286 -300z" />
    <glyph glyph-name="uni040D" unicode="&#x40d;" horiz-adv-x="1406" 
d="M579 1899l245 -335l-106 -83l-286 300zM1246 1400v-1400h-225v1008l-626 -1008h-235v1400h225v-1008l626 1008h235z" />
    <glyph glyph-name="afii10062" unicode="&#x40e;" horiz-adv-x="1294" 
d="M651 1489q-136 0 -234 88t-105 223h195q2 -65 42.5 -108t101.5 -43t101.5 43t42.5 108h196q-7 -135 -105 -223t-235 -88zM1005 1400h249l-583 -1198q-99 -202 -306 -202h-165v204h106q46 0 74 13.5t63 59.5t84 142l-487 981h249l362 -748z" />
    <glyph glyph-name="afii10145" unicode="&#x40f;" horiz-adv-x="1356" 
d="M959 204v1196h236v-1400h-399v-280h-236v280h-400v1400h236v-1196h563z" />
    <glyph glyph-name="afii10017" unicode="&#x410;" horiz-adv-x="1372" 
d="M555 1400h262l514 -1400h-253l-117 338h-551l-117 -338h-253zM475 535h422l-211 609z" />
    <glyph glyph-name="afii10018" unicode="&#x411;" horiz-adv-x="1204" 
d="M396 894h237q223 0 357 -123t134 -324t-134 -324t-357 -123h-473v1400h849v-201h-613v-305zM885 447q0 114 -71.5 180.5t-196.5 66.5h-221v-494h221q126 0 197 66.5t71 180.5z" />
    <glyph glyph-name="afii10019" unicode="&#x412;" horiz-adv-x="1243" 
d="M734 0h-574v1400h510q190 0 298 -101.5t108 -273.5q0 -104 -48.5 -176.5t-130.5 -105.5q111 -28 184 -118.5t73 -221.5q0 -180 -114.5 -291.5t-305.5 -111.5zM843 1009q0 91 -52.5 141.5t-138.5 50.5h-258v-382h258q86 0 138.5 50t52.5 140zM916 413q0 97 -57.5 155.5
t-149.5 58.5h-315v-428h315q92 0 149.5 58.5t57.5 155.5z" />
    <glyph glyph-name="afii10020" unicode="&#x413;" horiz-adv-x="1034" 
d="M160 0v1400h833v-204h-597v-1196h-236z" />
    <glyph glyph-name="afii10021" unicode="&#x414;" horiz-adv-x="1332" 
d="M1273 199v-479h-234v280h-747v-280h-233v479h105q172 398 172 1037v164h813v-1201h124zM412 199h503v1002h-348q0 -266 -39 -532t-116 -470z" />
    <glyph glyph-name="afii10022" unicode="&#x415;" horiz-adv-x="1137" 
d="M160 0v1400h850v-203h-614v-393h564v-201h-564v-401h632v-202h-868z" />
    <glyph glyph-name="afii10024" unicode="&#x416;" horiz-adv-x="1808" 
d="M1469 1399h236q0 -554 -292 -713l406 -686h-270l-366 622q-33 -4 -78 -4h-83v-618h-236v618h-61q-69 0 -101 4l-365 -622h-270l406 686q-292 159 -292 713h236q0 -213 44.5 -340.5t132 -182t230.5 -54.5h40v578h236v-578h40q143 0 230.5 54.5t132 182t44.5 340.5z" />
    <glyph glyph-name="afii10025" unicode="&#x417;" horiz-adv-x="1065" 
d="M270 1054h-203q17 171 129.5 270.5t302.5 99.5q182 0 299 -106.5t117 -263.5q0 -95 -56 -178t-145 -120q122 -44 197.5 -138.5t75.5 -215.5q0 -183 -140.5 -304.5t-349.5 -121.5q-129 0 -242.5 62t-189.5 182l123 118q124 -166 306 -166q111 0 185.5 68t74.5 171
q0 109 -80.5 176t-213.5 67h-145v191h148q100 0 165 59t65 141q0 79 -61 131t-152 52q-88 0 -143 -43.5t-67 -130.5z" />
    <glyph glyph-name="afii10026" unicode="&#x418;" horiz-adv-x="1406" 
d="M1246 1400v-1400h-225v1008l-626 -1008h-235v1400h225v-1008l626 1008h235z" />
    <glyph glyph-name="afii10027" unicode="&#x419;" horiz-adv-x="1406" 
d="M702 1489q-136 0 -234 88t-105 223h195q2 -65 42.5 -108t101.5 -43t101.5 43t42.5 108h196q-7 -135 -105 -223t-235 -88zM1246 1400v-1400h-225v1008l-626 -1008h-235v1400h225v-1008l626 1008h235z" />
    <glyph glyph-name="afii10028" unicode="&#x41a;" horiz-adv-x="1220" 
d="M879 1399h236q0 -554 -293 -713l407 -686h-270l-366 622q-35 -4 -79 -4h-118v-618h-236v1400h236v-578h75q143 0 230.5 54.5t132.5 182t45 340.5z" />
    <glyph glyph-name="afii10029" unicode="&#x41b;" horiz-adv-x="1416" 
d="M477 1196v-849q0 -181 -88 -266t-266 -85q-36 0 -82 4v201q21 -1 58 -1q72 0 107 37t35 124v1039h1014v-1400h-236v1196h-542z" />
    <glyph glyph-name="afii10030" unicode="&#x41c;" horiz-adv-x="1708" 
d="M958 190h-119l-454 792v-982h-225v1400h233l506 -892l506 892h232v-1400h-225v982z" />
    <glyph glyph-name="afii10031" unicode="&#x41d;" horiz-adv-x="1404" 
d="M160 0v1400h236v-595h611v595h236v-1400h-236v601h-611v-601h-236z" />
    <glyph glyph-name="afii10032" unicode="&#x41e;" horiz-adv-x="1645" 
d="M318 700q0 -144 67 -262.5t182.5 -186.5t254.5 -68q212 0 358.5 149.5t146.5 367.5q0 143 -67 262t-183 187t-255 68q-104 0 -197.5 -40t-160.5 -109t-106.5 -165t-39.5 -203zM79 700q0 201 97.5 367t268 261.5t377.5 95.5q155 0 293 -56t237 -152.5t156.5 -230.5
t57.5 -285t-57.5 -285t-156.5 -230.5t-237 -152.5t-293 -56q-207 0 -377.5 95.5t-268 261.5t-97.5 367z" />
    <glyph glyph-name="afii10033" unicode="&#x41f;" horiz-adv-x="1355" 
d="M1195 1400v-1400h-236v1196h-563v-1196h-236v1400h1035z" />
    <glyph glyph-name="afii10034" unicode="&#x420;" horiz-adv-x="1185" 
d="M631 508h-235v-508h-236v1400h471q222 0 353.5 -122t131.5 -324t-131.5 -324t-353.5 -122zM879 954q0 114 -69 180.5t-194 66.5h-220v-495h220q125 0 194 66.5t69 181.5z" />
    <glyph glyph-name="afii10035" unicode="&#x421;" horiz-adv-x="1516" 
d="M1275 460l143 -104q-211 -380 -633 -380q-147 0 -277.5 55t-224.5 150t-149 230t-55 289q0 153 55 288t149 230.5t224.5 150.5t277.5 55q250 0 423 -134.5t229 -368.5h-247q-42 141 -151.5 218.5t-250.5 77.5q-94 0 -179.5 -36.5t-150 -102.5t-102.5 -164t-38 -214
t39 -214.5t105 -164t152.5 -102t182.5 -36.5q305 0 478 277z" />
    <glyph glyph-name="afii10036" unicode="&#x422;" horiz-adv-x="1106" 
d="M435 0v1196h-377v204h989v-204h-376v-1196h-236z" />
    <glyph glyph-name="afii10037" unicode="&#x423;" horiz-adv-x="1294" 
d="M1005 1400h249l-583 -1198q-99 -202 -306 -202h-165v204h106q46 0 74 13.5t63 59.5t84 142l-487 981h249l362 -748z" />
    <glyph glyph-name="afii10038" unicode="&#x424;" horiz-adv-x="1531" 
d="M650 0v192q-160 0 -293.5 66.5t-211 182.5t-77.5 257q0 140 77.5 256.5t211 183t293.5 66.5v196h231v-196q159 0 293 -66.5t211.5 -183t77.5 -256.5t-77.5 -256.5t-211.5 -183t-293 -66.5v-192h-231zM1229 698q0 126 -101 215t-247 89v-609q146 0 247 89t101 216z
M302 698q0 -127 101 -216t247 -89v609q-146 0 -247 -89t-101 -215z" />
    <glyph glyph-name="afii10039" unicode="&#x425;" horiz-adv-x="1273" 
d="M1241 0h-258l-347 545l-347 -545h-257l461 713l-442 687h257l328 -519l328 519h258l-443 -687z" />
    <glyph glyph-name="afii10040" unicode="&#x426;" horiz-adv-x="1377" 
d="M1089 0h-929v1400h236v-1196h563v1196h236v-1196h123v-484h-229v280z" />
    <glyph glyph-name="afii10041" unicode="&#x427;" horiz-adv-x="1251" 
d="M1090 0h-233v653q-52 -72 -138 -115t-183 -43q-187 0 -301.5 115t-114.5 306v484h233v-465q0 -98 65 -167.5t165 -69.5q111 0 192.5 83t81.5 209v410h233v-1400z" />
    <glyph glyph-name="afii10042" unicode="&#x428;" horiz-adv-x="1945" 
d="M1548 204v1196h236v-1400h-1624v1400h236v-1196h458v1196h236v-1196h458z" />
    <glyph glyph-name="afii10043" unicode="&#x429;" horiz-adv-x="1966" 
d="M1677 0h-1517v1400h236v-1196h458v1196h236v-1196h458v1196h236v-1196h123v-484h-230v280z" />
    <glyph glyph-name="afii10044" unicode="&#x42a;" horiz-adv-x="1431" 
d="M635 894h237q223 0 356.5 -123t133.5 -324t-133.5 -324t-356.5 -123h-473v1199h-341v201h577v-506zM1124 447q0 114 -71 180.5t-197 66.5h-221v-494h221q126 0 197 66.5t71 180.5z" />
    <glyph glyph-name="afii10045" unicode="&#x42b;" horiz-adv-x="1674" 
d="M160 1400h236v-506h237q223 0 357 -123t134 -324t-134 -324t-357 -123h-473v1400zM885 447q0 114 -71 180.5t-197 66.5h-221v-494h221q126 0 197 66.5t71 180.5zM1278 1400h236v-1400h-236v1400z" />
    <glyph glyph-name="afii10046" unicode="&#x42c;" horiz-adv-x="1192" 
d="M160 1400h236v-506h237q223 0 357 -123t134 -324t-134 -324t-357 -123h-473v1400zM885 447q0 114 -71 180.5t-197 66.5h-221v-494h221q126 0 197 66.5t71 180.5z" />
    <glyph glyph-name="afii10047" unicode="&#x42d;" horiz-adv-x="1516" 
d="M97 356l144 104q82 -133 203 -205t274 -72q175 0 308.5 113t163.5 305h-685v197h685q-29 191 -159.5 305t-302.5 114q-142 0 -251.5 -77.5t-151.5 -218.5h-246q55 234 228 368.5t424 134.5q196 0 357.5 -93.5t255 -260t93.5 -370.5q0 -154 -55 -289t-149 -230
t-224.5 -150t-277.5 -55q-422 0 -634 380z" />
    <glyph glyph-name="afii10048" unicode="&#x42e;" horiz-adv-x="2137" 
d="M396 601v-601h-236v1400h236v-595h186q25 176 126 317t260.5 221.5t347.5 80.5q206 0 376.5 -95.5t268 -261.5t97.5 -367t-97.5 -367t-268 -261.5t-376.5 -95.5q-190 0 -350 81t-261 223.5t-124 320.5h-185zM812 700q0 -218 146.5 -367.5t357.5 -149.5t357 149.5
t146 367.5q0 143 -66.5 262t-182.5 187t-254 68q-139 0 -254.5 -68t-182.5 -187t-67 -262z" />
    <glyph glyph-name="afii10049" unicode="&#x42f;" horiz-adv-x="1213" 
d="M582 1400h471v-1400h-235v513h-150l-342 -513h-259l359 534q-155 38 -242 149t-87 273q0 202 131 323t354 121zM818 1201h-222q-124 0 -193 -66.5t-69 -180.5q0 -113 69 -179.5t193 -66.5h222v493z" />
    <glyph glyph-name="afii10065" unicode="&#x430;" horiz-adv-x="1306" 
d="M69 518q0 149 65 273t181.5 196.5t259.5 72.5q223 0 364 -165v141h227v-1036h-227v140q-67 -78 -160 -121t-204 -43q-217 0 -361.5 157t-144.5 385zM300 518q0 -142 92 -240.5t228 -98.5t227.5 98t91.5 241q0 142 -91 240.5t-228 98.5t-228.5 -98.5t-91.5 -240.5z" />
    <glyph glyph-name="afii10066" unicode="&#x431;" horiz-adv-x="1225" 
d="M339 811q61 64 147 102t182 38q205 0 346 -141t141 -346q0 -210 -150.5 -349t-381.5 -139q-114 0 -211 39t-169 112.5t-113 187t-41 255.5q0 236 40.5 395t136.5 265t244 159t373 71l33 -203q-132 -12 -224.5 -34t-157.5 -55t-104 -85t-60 -116t-31 -156zM319 565
q1 -183 84 -284.5t220 -101.5q130 0 216 81.5t86 202.5t-84.5 203t-207.5 82q-96 0 -176.5 -49.5t-137.5 -133.5z" />
    <glyph glyph-name="afii10067" unicode="&#x432;" horiz-adv-x="1038" 
d="M592 0h-453v1036h422q145 0 242.5 -80t97.5 -198q0 -70 -40.5 -128t-106.5 -84q84 -20 139.5 -91t55.5 -157q0 -126 -103 -212t-254 -86zM574 445h-215v-260h215q66 0 109.5 37t43.5 92q0 56 -43.5 93.5t-109.5 37.5zM359 620h184q51 0 95 32t44 83q0 50 -39.5 82.5
t-99.5 32.5h-184v-230z" />
    <glyph glyph-name="afii10068" unicode="&#x433;" horiz-adv-x="830" 
d="M786 833h-418v-833h-229v1036h647v-203z" />
    <glyph glyph-name="afii10069" unicode="&#x434;" horiz-adv-x="1114" 
d="M1068 188v-400h-221v212h-581v-212h-220v400h106q144 307 144 848h645v-848h127zM387 188h336v659h-217q0 -165 -31.5 -343.5t-87.5 -315.5z" />
    <glyph glyph-name="afii10070" unicode="&#x435;" horiz-adv-x="1230" 
d="M301 448q17 -124 111 -204t230 -80q106 0 188.5 37t160.5 115l122 -119q-92 -106 -204.5 -163.5t-263.5 -57.5q-127 0 -235 42.5t-182.5 115.5t-116.5 172.5t-42 211.5q0 149 72 273t200 196.5t284 72.5q231 0 383 -152t152 -370q0 -48 -10 -90h-849zM624 872
q-113 0 -200.5 -70t-115.5 -180h615q-22 110 -103.5 180t-195.5 70z" />
    <glyph glyph-name="afii10072" unicode="&#x436;" horiz-adv-x="1584" 
d="M82 1036h229q0 -190 72.5 -277.5t194.5 -87.5h100v365h228v-365h100q122 0 194.5 87.5t72.5 277.5h229q0 -188 -59 -317.5t-170 -191.5l310 -527h-257l-276 475h-144v-475h-228v475h-144l-276 -475h-257l310 527q-111 62 -170 191.5t-59 317.5z" />
    <glyph glyph-name="afii10073" unicode="&#x437;" horiz-adv-x="955" 
d="M658 312q0 63 -58 102.5t-144 39.5h-149v182h155q67 0 114 36t47 88q0 48 -42.5 80t-108.5 32q-140 0 -175 -127h-214q20 141 123 228t262 87q161 0 270 -81.5t109 -201.5q0 -75 -47 -138.5t-126 -90.5q90 -26 150 -93.5t60 -157.5q0 -137 -120.5 -229t-301.5 -92
q-129 0 -221.5 50t-165.5 147l128 108q106 -119 256 -119q84 0 141.5 43.5t57.5 106.5z" />
    <glyph glyph-name="afii10074" unicode="&#x438;" horiz-adv-x="1236" 
d="M1097 1036v-1036h-221v714l-526 -714h-211v1036h221v-714l526 714h211z" />
    <glyph glyph-name="afii10075" unicode="&#x439;" horiz-adv-x="1236" 
d="M617 1165q-136 0 -234 88t-105 223h195q2 -65 42.5 -108t101.5 -43t101.5 43t42.5 108h196q-7 -135 -105 -223t-235 -88zM1097 1036v-1036h-221v714l-526 -714h-211v1036h221v-714l526 714h211z" />
    <glyph glyph-name="afii10076" unicode="&#x43a;" horiz-adv-x="1051" 
d="M735 1036h228q0 -188 -59 -317.5t-170 -191.5l311 -527h-258l-276 475h-143v-475h-229v1036h229v-365h99q122 0 195 87.5t73 277.5z" />
    <glyph glyph-name="afii10077" unicode="&#x43b;" horiz-adv-x="1237" 
d="M1097 1036v-1036h-228v834h-417v-535q0 -132 -88 -219t-223 -87q-58 0 -97 7v200q16 -1 52 -1q56 0 92 35.5t36 94.5v707h873z" />
    <glyph glyph-name="afii10078" unicode="&#x43c;" horiz-adv-x="1362" 
d="M356 1036l325 -520l325 520h216v-1036h-218v702l-256 -398h-135l-256 398v-702h-218v1036h217z" />
    <glyph glyph-name="afii10079" unicode="&#x43d;" horiz-adv-x="1236" 
d="M1097 1036v-1036h-229v434h-500v-434h-229v1036h229v-400h500v400h229z" />
    <glyph glyph-name="afii10080" unicode="&#x43e;" horiz-adv-x="1274" 
d="M69 518q0 149 73.5 273t204 196.5t290.5 72.5t290.5 -72.5t203.5 -196.5t73 -273t-73 -273t-203.5 -196.5t-290.5 -72.5t-290.5 72.5t-204 196.5t-73.5 273zM300 518q0 -142 97 -240.5t240 -98.5t240 98.5t97 240.5t-97 240.5t-240 98.5t-240 -98.5t-97 -240.5z" />
    <glyph glyph-name="afii10081" unicode="&#x43f;" horiz-adv-x="1236" 
d="M1097 1036v-1036h-229v834h-500v-834h-229v1036h958z" />
    <glyph glyph-name="afii10082" unicode="&#x440;" horiz-adv-x="1306" 
d="M1236 518q0 -112 -38 -212t-104.5 -172.5t-161 -115t-201.5 -42.5q-112 0 -205.5 43t-159.5 121v-604h-227v1500h227v-141q66 78 159.5 121.5t205.5 43.5q143 0 259.5 -72.5t181 -196.5t64.5 -273zM1006 518q0 142 -91.5 240.5t-228.5 98.5t-228.5 -98.5t-91.5 -240.5
t92 -240.5t228 -98.5q135 0 227.5 98.5t92.5 240.5z" />
    <glyph glyph-name="afii10083" unicode="&#x441;" horiz-adv-x="1181" 
d="M956 351l135 -92q-75 -140 -193.5 -211.5t-270.5 -71.5t-280 70.5t-203 195.5t-75 276t71 275.5t194.5 195.5t272.5 71q192 0 326 -99t178 -272h-246q-27 79 -93.5 123.5t-157.5 44.5q-127 0 -220.5 -95.5t-93.5 -243.5q0 -150 99 -244.5t240 -94.5q96 0 178.5 45
t138.5 127z" />
    <glyph glyph-name="afii10084" unicode="&#x442;" horiz-adv-x="953" 
d="M362 833h-318v203h865v-203h-319v-833h-228v833z" />
    <glyph glyph-name="afii10085" unicode="&#x443;" horiz-adv-x="1062" 
d="M471 -464h-239l183 466l-392 1034h238l269 -745l271 745h238z" />
    <glyph glyph-name="afii10086" unicode="&#x444;" horiz-adv-x="2106" 
d="M2036 518q0 -112 -38 -212t-104.5 -172.5t-161 -115t-201.5 -42.5q-112 0 -205.5 43t-159.5 121v-604h-227v604q-67 -78 -160 -121t-204 -43q-217 0 -361.5 157t-144.5 385q0 149 65 273t181.5 196.5t259.5 72.5q223 0 364 -165v565h227v-565q66 78 159.5 121.5
t205.5 43.5q143 0 259.5 -72.5t181 -196.5t64.5 -273zM1806 518q0 142 -91.5 240.5t-228.5 98.5t-228.5 -98.5t-91.5 -240.5t92 -240.5t228 -98.5q135 0 227.5 98.5t92.5 240.5zM299 518q0 -142 92.5 -240.5t227.5 -98.5q136 0 228 98.5t92 240.5t-91.5 240.5t-228.5 98.5
t-228.5 -98.5t-91.5 -240.5z" />
    <glyph glyph-name="afii10087" unicode="&#x445;" horiz-adv-x="1060" 
d="M1037 0h-251l-256 379l-257 -379h-250l360 528l-334 508h250l231 -359l230 359h251l-335 -508z" />
    <glyph glyph-name="afii10088" unicode="&#x446;" horiz-adv-x="1265" 
d="M1097 1036v-835h122v-481h-223v280h-857v1036h229v-835h500v835h229z" />
    <glyph glyph-name="afii10089" unicode="&#x447;" horiz-adv-x="1108" 
d="M968 0h-228v434q-47 -70 -119.5 -109.5t-162.5 -39.5q-175 0 -272.5 110t-97.5 306v336h228v-316q0 -111 48 -172t141 -61q109 0 172 78.5t63 209.5v261h228v-1037z" />
    <glyph glyph-name="afii10090" unicode="&#x448;" horiz-adv-x="1585" 
d="M1446 1036v-1036h-1307v1036h225v-835h316v835h225v-835h316v835h225z" />
    <glyph glyph-name="afii10091" unicode="&#x449;" horiz-adv-x="1614" 
d="M1345 0h-1206v1036h225v-835h316v835h225v-835h316v835h225v-835h122v-481h-223v280z" />
    <glyph glyph-name="afii10092" unicode="&#x44a;" horiz-adv-x="1204" 
d="M920 354q0 72 -52.5 121t-128.5 49h-190v-339h190q76 0 128.5 48.5t52.5 120.5zM1145 354q0 -149 -110 -251.5t-271 -102.5h-440v844h-280v192h505v-327h215q161 0 271 -103t110 -252z" />
    <glyph glyph-name="afii10093" unicode="&#x44b;" horiz-adv-x="1456" 
d="M735 354q0 72 -52.5 121t-128.5 49h-190v-339h190q76 0 128.5 48.5t52.5 120.5zM960 354q0 -149 -110 -251.5t-271 -102.5h-440v1036h225v-327h215q161 0 271 -103t110 -252zM1088 0v1036h228v-1036h-228z" />
    <glyph glyph-name="afii10094" unicode="&#x44c;" horiz-adv-x="1020" 
d="M735 354q0 72 -52.5 121t-128.5 49h-190v-339h190q76 0 128.5 48.5t52.5 120.5zM960 354q0 -149 -110 -251.5t-271 -102.5h-440v1036h225v-327h215q161 0 271 -103t110 -252z" />
    <glyph glyph-name="afii10095" unicode="&#x44d;" horiz-adv-x="1181" 
d="M90 259l134 92q57 -82 139.5 -127t177.5 -45q118 0 209.5 67.5t118.5 181.5h-461v176h462q-26 114 -112 183.5t-191 69.5q-92 0 -158.5 -44.5t-93.5 -123.5h-246q44 173 178 272t326 99q228 0 383 -156t155 -386q0 -151 -75 -276t-203 -195.5t-280 -70.5q-310 0 -463 283
z" />
    <glyph glyph-name="afii10096" unicode="&#x44e;" horiz-adv-x="1703" 
d="M1066 1060q160 0 290.5 -72.5t204 -196.5t73.5 -273t-73.5 -273t-204 -196.5t-290.5 -72.5q-214 0 -368 125t-189 317h-143v-418h-227v1036h227v-415h144q36 191 189.5 315t366.5 124zM1066 179q143 0 240.5 98.5t97.5 240.5t-97.5 240.5t-240.5 98.5
q-142 0 -239.5 -98.5t-97.5 -240.5t97.5 -240.5t239.5 -98.5z" />
    <glyph glyph-name="afii10097" unicode="&#x44f;" horiz-adv-x="1103" 
d="M91 698q0 143 112 240.5t276 97.5h484v-1036h-222v358h-154l-277 -358h-247l295 376q-120 33 -193.5 120.5t-73.5 201.5zM741 850h-245q-82 0 -131 -43.5t-49 -108.5q0 -66 51.5 -109t128.5 -43h245v304z" />
    <glyph glyph-name="uni0450" unicode="&#x450;" horiz-adv-x="1230" 
d="M301 448q17 -124 111 -204t230 -80q106 0 188.5 37t160.5 115l122 -119q-92 -106 -204.5 -163.5t-263.5 -57.5q-127 0 -235 42.5t-182.5 115.5t-116.5 172.5t-42 211.5q0 149 72 273t200 196.5t284 72.5q231 0 383 -152t152 -370q0 -48 -10 -90h-849zM624 872
q-113 0 -200.5 -70t-115.5 -180h615q-22 110 -103.5 180t-195.5 70zM506 1575l245 -335l-106 -83l-286 300z" />
    <glyph glyph-name="afii10071" unicode="&#x451;" horiz-adv-x="1230" 
d="M301 448q17 -124 111 -204t230 -80q106 0 188.5 37t160.5 115l122 -119q-92 -106 -204.5 -163.5t-263.5 -57.5q-127 0 -235 42.5t-182.5 115.5t-116.5 172.5t-42 211.5q0 149 72 273t200 196.5t284 72.5q231 0 383 -152t152 -370q0 -48 -10 -90h-849zM624 872
q-113 0 -200.5 -70t-115.5 -180h615q-22 110 -103.5 180t-195.5 70zM298 1340q0 54 37.5 91.5t92.5 37.5t92.5 -37.5t37.5 -91.5q0 -55 -37.5 -92.5t-92.5 -37.5t-92.5 37.5t-37.5 92.5zM670 1340q0 54 37.5 91.5t92.5 37.5t92.5 -37.5t37.5 -91.5q0 -55 -37.5 -92.5
t-92.5 -37.5t-92.5 37.5t-37.5 92.5z" />
    <glyph glyph-name="afii10099" unicode="&#x452;" horiz-adv-x="1243" 
d="M393 1460v-151h323v-147h-323v-264q54 74 136.5 118t179.5 44q187 0 300.5 -115t113.5 -306v-740q0 -184 -97 -273.5t-294 -89.5q-59 0 -111 9v188q45 -5 92 -5q98 0 139.5 45t41.5 141v705q0 105 -64.5 171.5t-167.5 66.5q-110 0 -189.5 -83.5t-79.5 -209.5v-564h-228
v1162h-142v147h142v151h228z" />
    <glyph glyph-name="afii10100" unicode="&#x453;" horiz-adv-x="830" 
d="M274 1240l245 335l147 -118l-286 -300zM786 833h-418v-833h-229v1036h647v-203z" />
    <glyph glyph-name="afii10101" unicode="&#x454;" horiz-adv-x="1181" 
d="M956 351l135 -92q-75 -140 -193.5 -211.5t-270.5 -71.5t-280 70.5t-203 195.5t-75 276t71 275.5t194.5 195.5t272.5 71q192 0 326 -99t178 -272h-246q-27 79 -93.5 123.5t-157.5 44.5q-106 0 -192 -69.5t-112 -183.5h463v-176h-462q28 -114 119.5 -181.5t208.5 -67.5
q96 0 178.5 45t138.5 127z" />
    <glyph glyph-name="afii10102" unicode="&#x455;" horiz-adv-x="939" 
d="M88 180l100 115q121 -131 275 -131q84 0 133 35t49 93q0 57 -47.5 93.5t-156.5 57.5q-337 67 -337 322q0 129 99 212t262 83q162 0 262.5 -82.5t122.5 -231.5h-221q-7 57 -46.5 91t-104.5 34t-106.5 -30.5t-41.5 -78.5q0 -106 189 -144q179 -36 265.5 -117t86.5 -212
q0 -137 -106.5 -225t-289.5 -88q-232 0 -387 204z" />
    <glyph glyph-name="afii10103" unicode="&#x456;" horiz-adv-x="537" 
d="M154 0v1036h228v-1036h-228zM127 1318q0 59 40.5 99.5t100.5 40.5t101 -40.5t41 -99.5t-41 -99t-101 -40t-100.5 40t-40.5 99z" />
    <glyph glyph-name="afii10104" unicode="&#x457;" horiz-adv-x="537" 
d="M-48 1340q0 54 37.5 91.5t92.5 37.5t92.5 -37.5t37.5 -91.5q0 -55 -37.5 -92.5t-92.5 -37.5t-92.5 37.5t-37.5 92.5zM324 1340q0 54 37.5 91.5t92.5 37.5t92.5 -37.5t37.5 -91.5q0 -55 -37.5 -92.5t-92.5 -37.5t-92.5 37.5t-37.5 92.5zM154 0v1036h228v-1036h-228z" />
    <glyph glyph-name="afii10105" unicode="&#x458;" horiz-adv-x="537" 
d="M154 -114v1150h228v-1155q0 -178 -79.5 -261.5t-240.5 -83.5q-56 0 -98 11v189q9 -1 55 -1q69 0 102 35t33 116zM127 1318q0 59 40.5 99.5t100.5 40.5t101 -40.5t41 -99.5t-41 -99t-101 -40t-100.5 40t-40.5 99z" />
    <glyph glyph-name="afii10106" unicode="&#x459;" horiz-adv-x="1711" 
d="M1271 0h-438v835h-381v-536q0 -132 -88 -219t-223 -87q-58 0 -97 7v200q16 -1 52 -1q56 0 92 35.5t36 94.5v707h834v-327h213q161 0 271 -103t110 -252t-110 -251.5t-271 -102.5zM1427 354q0 72 -52.5 121t-128.5 49h-188v-339h188q76 0 128.5 48.5t52.5 120.5z" />
    <glyph glyph-name="afii10107" unicode="&#x45a;" horiz-adv-x="1711" 
d="M1651 354q0 -149 -110 -251.5t-271 -102.5h-437v434h-465v-434h-229v1036h229v-400h465v400h225v-327h212q161 0 271 -103t110 -252zM1426 354q0 73 -52 121.5t-129 48.5h-187v-339h187q77 0 129 48.5t52 120.5z" />
    <glyph glyph-name="afii10108" unicode="&#x45b;" horiz-adv-x="1243" 
d="M393 1460v-151h323v-147h-323v-264q54 74 136.5 118t179.5 44q187 0 300.5 -115t113.5 -306v-639h-229v619q0 105 -64.5 171.5t-167.5 66.5q-110 0 -189.5 -83.5t-79.5 -209.5v-564h-228v1162h-142v147h142v151h228z" />
    <glyph glyph-name="afii10109" unicode="&#x45c;" horiz-adv-x="1051" 
d="M375 1240l245 335l147 -118l-286 -300zM735 1036h228q0 -188 -59 -317.5t-170 -191.5l311 -527h-258l-276 475h-143v-475h-229v1036h229v-365h99q122 0 195 87.5t73 277.5z" />
    <glyph glyph-name="uni045D" unicode="&#x45d;" horiz-adv-x="1236" 
d="M500 1575l245 -335l-106 -83l-286 300zM1097 1036v-1036h-221v714l-526 -714h-211v1036h221v-714l526 714h211z" />
    <glyph glyph-name="afii10110" unicode="&#x45e;" horiz-adv-x="1062" 
d="M471 -464h-239l183 466l-392 1034h238l269 -745l271 745h238zM529 1165q-136 0 -234 88t-105 223h195q2 -65 42.5 -108t101.5 -43t101.5 43t42.5 108h196q-7 -135 -105 -223t-235 -88z" />
    <glyph glyph-name="afii10193" unicode="&#x45f;" horiz-adv-x="1237" 
d="M733 0v-280h-229v280h-365v1036h229v-835h501v835h229v-1036h-365z" />
    <glyph glyph-name="afii10050" unicode="&#x490;" horiz-adv-x="1034" 
d="M764 1400v280h229v-484h-597v-1196h-236v1400h604z" />
    <glyph glyph-name="afii10098" unicode="&#x491;" horiz-adv-x="830" 
d="M563 1036v280h223v-483h-418v-833h-229v1036h424z" />
    <glyph glyph-name="Wgrave" unicode="&#x1e80;" horiz-adv-x="1952" 
d="M859 1400h234l296 -1065l276 1065h247l-395 -1400h-237l-304 1077l-305 -1077h-236l-395 1400h247l275 -1065zM853 1899l245 -335l-106 -83l-286 300z" />
    <glyph glyph-name="wgrave" unicode="&#x1e81;" horiz-adv-x="1577" 
d="M672 1036h232l205 -743l209 743h236l-323 -1036h-236l-207 735l-206 -735h-236l-323 1036h235l210 -743zM651 1575l245 -335l-106 -83l-286 300z" />
    <glyph glyph-name="Wacute" unicode="&#x1e82;" horiz-adv-x="1952" 
d="M859 1400h234l296 -1065l276 1065h247l-395 -1400h-237l-304 1077l-305 -1077h-236l-395 1400h247l275 -1065zM863 1564l245 335l147 -118l-286 -300z" />
    <glyph glyph-name="wacute" unicode="&#x1e83;" horiz-adv-x="1577" 
d="M672 1036h232l205 -743l209 743h236l-323 -1036h-236l-207 735l-206 -735h-236l-323 1036h235l210 -743zM680 1240l245 335l147 -118l-286 -300z" />
    <glyph glyph-name="Wdieresis" unicode="&#x1e84;" horiz-adv-x="1952" 
d="M859 1400h234l296 -1065l276 1065h247l-395 -1400h-237l-304 1077l-305 -1077h-236l-395 1400h247l275 -1065zM659 1664q0 54 37.5 91.5t92.5 37.5t92.5 -37.5t37.5 -91.5q0 -55 -37.5 -92.5t-92.5 -37.5t-92.5 37.5t-37.5 92.5zM1031 1664q0 54 37.5 91.5t92.5 37.5
t92.5 -37.5t37.5 -91.5q0 -55 -37.5 -92.5t-92.5 -37.5t-92.5 37.5t-37.5 92.5z" />
    <glyph glyph-name="wdieresis" unicode="&#x1e85;" horiz-adv-x="1577" 
d="M672 1036h232l205 -743l209 743h236l-323 -1036h-236l-207 735l-206 -735h-236l-323 1036h235l210 -743zM472 1340q0 54 37.5 91.5t92.5 37.5t92.5 -37.5t37.5 -91.5q0 -55 -37.5 -92.5t-92.5 -37.5t-92.5 37.5t-37.5 92.5zM844 1340q0 54 37.5 91.5t92.5 37.5
t92.5 -37.5t37.5 -91.5q0 -55 -37.5 -92.5t-92.5 -37.5t-92.5 37.5t-37.5 92.5z" />
    <glyph glyph-name="Ygrave" unicode="&#x1ef2;" horiz-adv-x="1294" 
d="M294 1400l353 -604l352 604h255l-489 -831v-569h-236v569l-489 831h254zM517 1899l245 -335l-106 -83l-286 300z" />
    <glyph glyph-name="ygrave" unicode="&#x1ef3;" horiz-adv-x="1062" 
d="M471 -464h-239l183 466l-392 1034h238l269 -745l271 745h238zM390 1575l245 -335l-106 -83l-286 300z" />
    <glyph glyph-name="thinspace" unicode="&#x2009;" horiz-adv-x="400" 
 />
    <glyph glyph-name="uni2010" unicode="&#x2010;" horiz-adv-x="816" 
d="M698 557h-580v213h580v-213z" />
    <glyph glyph-name="figuredash" unicode="&#x2012;" horiz-adv-x="1200" 
d="M1100 557h-1000v213h1000v-213z" />
    <glyph glyph-name="endash" unicode="&#x2013;" horiz-adv-x="1000" 
d="M1000 557h-1000v213h1000v-213z" />
    <glyph glyph-name="emdash" unicode="&#x2014;" horiz-adv-x="2000" 
d="M2000 557h-2000v213h2000v-213z" />
    <glyph glyph-name="afii00208" unicode="&#x2015;" horiz-adv-x="2000" 
d="M1800 557h-1600v213h1600v-213z" />
    <glyph glyph-name="uni2016" unicode="&#x2016;" horiz-adv-x="927" 
d="M177 -280v1780h208v-1780h-208zM542 -280v1780h208v-1780h-208z" />
    <glyph glyph-name="underscoredbl" unicode="&#x2017;" horiz-adv-x="1200" 
d="M100 -466v173h1000v-173h-1000zM100 -185v173h1000v-173h-1000z" />
    <glyph glyph-name="quoteleft" unicode="&#x2018;" horiz-adv-x="598" 
d="M446 1168q0 -52 -42 -93t-107 -41q-64 0 -105 44.5t-41 120.5q0 128 72 230t214 164l63 -80q-115 -79 -129 -136t49 -135q26 -35 26 -74z" />
    <glyph glyph-name="quoteright" unicode="&#x2019;" horiz-adv-x="598" 
d="M152 1414q0 52 42 93t107 41q64 0 105 -44.5t41 -120.5q0 -128 -72 -230t-214 -164l-63 80q115 79 129 136t-49 135q-26 35 -26 74z" />
    <glyph glyph-name="quotesinglbase" unicode="&#x201a;" horiz-adv-x="598" 
d="M152 133q0 52 42 93t107 41q64 0 105 -44.5t41 -120.5q0 -128 -72 -230t-214 -164l-63 80q115 79 129 136t-49 135q-26 35 -26 74z" />
    <glyph glyph-name="quotereversed" unicode="&#x201b;" horiz-adv-x="598" 
d="M447 1416q0 -39 -26 -74q-63 -78 -49 -135t129 -136l-63 -80q-142 62 -214 164t-72 230q0 76 41 120.5t105 44.5q65 0 107 -41t42 -93z" />
    <glyph glyph-name="quotedblleft" unicode="&#x201c;" horiz-adv-x="957" 
d="M446 1168q0 -52 -42 -93t-107 -41q-64 0 -105 44.5t-41 120.5q0 128 72 230t214 164l63 -80q-115 -79 -129 -136t49 -135q26 -35 26 -74zM805 1168q0 -52 -42 -93t-107 -41q-64 0 -105 44.5t-41 120.5q0 128 72 230t214 164l63 -80q-115 -79 -129 -136t49 -135
q26 -35 26 -74z" />
    <glyph glyph-name="quotedblright" unicode="&#x201d;" horiz-adv-x="957" 
d="M152 1414q0 52 42 93t107 41q64 0 105 -44.5t41 -120.5q0 -128 -72 -230t-214 -164l-63 80q115 79 129 136t-49 135q-26 35 -26 74zM510 1414q0 52 42 93t107 41q64 0 105 -44.5t41 -120.5q0 -128 -72 -230t-214 -164l-63 80q115 79 129 136t-49 135q-26 35 -26 74z" />
    <glyph glyph-name="quotedblbase" unicode="&#x201e;" horiz-adv-x="957" 
d="M510 133q0 52 42 93t107 41q64 0 105 -44.5t41 -120.5q0 -128 -72 -230t-214 -164l-63 80q115 79 129 136t-49 135q-26 35 -26 74zM152 133q0 52 42 93t107 41q64 0 105 -44.5t41 -120.5q0 -128 -72 -230t-214 -164l-63 80q115 79 129 136t-49 135q-26 35 -26 74z" />
    <glyph glyph-name="uni201F" unicode="&#x201f;" horiz-adv-x="957" 
d="M805 1416q0 -39 -26 -74q-63 -78 -49 -135t129 -136l-63 -80q-142 62 -214 164t-72 230q0 76 41 120.5t105 44.5q65 0 107 -41t42 -93zM447 1416q0 -39 -26 -74q-63 -78 -49 -135t129 -136l-63 -80q-142 62 -214 164t-72 230q0 76 41 120.5t105 44.5q65 0 107 -41t42 -93
z" />
    <glyph glyph-name="dagger" unicode="&#x2020;" horiz-adv-x="1122" 
d="M444 -262v1213h-319v202h319v343h234v-343h319v-202h-319v-1213h-234z" />
    <glyph glyph-name="daggerdbl" unicode="&#x2021;" horiz-adv-x="1122" 
d="M125 80v202h319v669h-319v202h319v343h234v-343h319v-202h-319v-669h319v-202h-319v-342h-234v342h-319z" />
    <glyph glyph-name="bullet" unicode="&#x2022;" horiz-adv-x="800" 
d="M136 664q0 108 77.5 185t186.5 77t186.5 -77t77.5 -185q0 -109 -77.5 -185.5t-186.5 -76.5q-110 0 -187 76.5t-77 185.5z" />
    <glyph glyph-name="onedotenleader" unicode="&#x2024;" horiz-adv-x="598" 
d="M152 121q0 62 42 104t105 42t105 -42t42 -104t-42 -103.5t-105 -41.5t-105 41.5t-42 103.5z" />
    <glyph glyph-name="twodotenleader" unicode="&#x2025;" horiz-adv-x="1197" 
d="M750 121q0 62 42 104t105 42t105 -42t42 -104t-42 -103.5t-105 -41.5t-105 41.5t-42 103.5zM152 121q0 62 42 104t105 42t105 -42t42 -104t-42 -103.5t-105 -41.5t-105 41.5t-42 103.5z" />
    <glyph glyph-name="ellipsis" unicode="&#x2026;" horiz-adv-x="1795" 
d="M1349 121q0 62 42 104t105 42t105 -42t42 -104t-42 -103.5t-105 -41.5t-105 41.5t-42 103.5zM750 121q0 62 42 104t105 42t105 -42t42 -104t-42 -103.5t-105 -41.5t-105 41.5t-42 103.5zM152 121q0 62 42 104t105 42t105 -42t42 -104t-42 -103.5t-105 -41.5t-105 41.5
t-42 103.5z" />
    <glyph glyph-name="perthousand" unicode="&#x2030;" horiz-adv-x="2585" 
d="M463 54l700 1365l158 -76l-700 -1365zM296 1059q0 -71 44.5 -120.5t110.5 -49.5t110.5 49.5t44.5 120.5t-44.5 120.5t-110.5 49.5t-110.5 -49.5t-44.5 -120.5zM88 1059q0 149 105 252t258 103q154 0 259 -103t105 -252t-105 -252t-259 -103q-153 0 -258 103t-105 252z
M1179 340q0 -71 44.5 -120.5t110.5 -49.5t110.5 49.5t44.5 120.5q0 72 -44.5 121.5t-110.5 49.5t-110.5 -49.5t-44.5 -121.5zM970 340q0 150 105 252.5t259 102.5q153 0 258 -102.5t105 -252.5q0 -149 -105 -251.5t-258 -102.5q-154 0 -259 102.5t-105 251.5zM1979 340
q0 -71 44.5 -120.5t110.5 -49.5t110.5 49.5t44.5 120.5q0 72 -44.5 121.5t-110.5 49.5t-110.5 -49.5t-44.5 -121.5zM1770 340q0 150 105 252.5t259 102.5q153 0 258 -102.5t105 -252.5q0 -149 -105 -251.5t-258 -102.5q-154 0 -259 102.5t-105 251.5z" />
    <glyph glyph-name="minute" unicode="&#x2032;" horiz-adv-x="573" 
d="M124 1135l245 335l147 -119l-286 -299z" />
    <glyph glyph-name="second" unicode="&#x2033;" horiz-adv-x="926" 
d="M477 1135l245 335l147 -119l-286 -299zM124 1135l245 335l147 -119l-286 -299z" />
    <glyph glyph-name="guilsinglleft" unicode="&#x2039;" horiz-adv-x="782" 
d="M99 544v157l510 332l69 -116l-364 -295l364 -294l-69 -117z" />
    <glyph glyph-name="guilsinglright" unicode="&#x203a;" horiz-adv-x="782" 
d="M682 701v-157l-510 -333l-69 117l364 294l-364 295l69 116z" />
    <glyph glyph-name="exclamdbl" unicode="&#x203c;" horiz-adv-x="1068" 
d="M674 406l-35 994h236l-35 -994h-166zM608 121q0 62 42.5 103.5t106.5 41.5q63 0 105.5 -41.5t42.5 -103.5t-42.5 -103.5t-105.5 -41.5q-64 0 -106.5 41.5t-42.5 103.5zM228 406l-35 994h236l-35 -994h-166zM162 121q0 62 42.5 103.5t106.5 41.5q63 0 105.5 -41.5
t42.5 -103.5t-42.5 -103.5t-105.5 -41.5q-64 0 -106.5 41.5t-42.5 103.5z" />
    <glyph glyph-name="uni203E" unicode="&#x203e;" horiz-adv-x="841" 
d="M120 1201v174h600v-174h-600z" />
    <glyph glyph-name="fraction" unicode="&#x2044;" horiz-adv-x="330" 
d="M-251 42l679 1392l152 -79l-680 -1392z" />
    <glyph glyph-name="zerosuperior" unicode="&#x2070;" 
d="M56 926q0 220 89 359t254 139t254 -139t89 -359t-89 -359t-254 -139t-254 139t-89 359zM249 926q0 -152 37.5 -241.5t112.5 -89.5t112.5 89t37.5 242t-37.5 241.5t-112.5 88.5t-112.5 -89t-37.5 -241z" />
    <glyph glyph-name="uni2071" unicode="&#x2071;" 
d="M304 452v670h189v-670h-189zM285 1296q0 45 33 77t81 32t80.5 -32t32.5 -77t-32.5 -76t-80.5 -31t-81 31.5t-33 75.5z" />
    <glyph glyph-name="foursuperior" unicode="&#x2074;" 
d="M36 629v149l422 622h182v-607h104v-164h-104v-177h-192v177h-412zM237 791h211v319z" />
    <glyph glyph-name="fivesuperior" unicode="&#x2075;" 
d="M374 428q-196 0 -315 184l109 97q44 -60 90.5 -90t108.5 -30q68 0 114.5 46.5t46.5 115.5t-45.5 115.5t-114.5 46.5q-36 0 -69.5 -18.5t-52.5 -47.5l-143 18l59 535h528v-162h-351l-24 -191q39 18 88 18q133 0 227 -86.5t94 -226.5q0 -143 -96 -233.5t-254 -90.5z" />
    <glyph glyph-name="sixsuperior" unicode="&#x2076;" 
d="M615 1400l-216 -335h13q133 0 235 -88t102 -225q0 -139 -104 -231.5t-244 -92.5q-144 0 -248 92t-104 232q0 94 48 168l312 480h206zM556 752q0 69 -46 116t-112 47q-65 0 -111 -47t-46 -116t46 -116.5t111 -47.5q66 0 112 47.5t46 116.5z" />
    <glyph glyph-name="sevensuperior" unicode="&#x2077;" 
d="M90 1400h622v-142l-336 -806h-216l333 785h-403v163z" />
    <glyph glyph-name="eightsuperior" unicode="&#x2078;" 
d="M248 737q0 -63 43.5 -107t107.5 -44t108 44t44 107t-44 107t-108 44t-107.5 -44t-43.5 -107zM697 1158q0 -57 -28.5 -106t-76.5 -80q70 -34 111 -98.5t41 -139.5q0 -131 -99.5 -218.5t-245.5 -87.5t-245 87.5t-99 218.5q0 75 41 139.5t110 98.5q-48 31 -76.5 80.5
t-28.5 105.5q0 112 84.5 189t213.5 77t213.5 -77t84.5 -189zM287 1156q0 -47 32 -80t80 -33t80 33t32 80t-32 78.5t-80 31.5t-80 -31.5t-32 -78.5z" />
    <glyph glyph-name="ninesuperior" unicode="&#x2079;" 
d="M183 452l217 334q-6 -1 -17 -1q-134 0 -233.5 88t-99.5 227t104 231.5t244 92.5q144 0 248 -92.5t104 -231.5q0 -94 -49 -169l-311 -479h-207zM243 1099q0 -68 46 -115t112 -47q65 0 110.5 47t45.5 115q0 70 -45.5 117t-110.5 47q-66 0 -112 -47t-46 -117z" />
    <glyph glyph-name="uni207A" unicode="&#x207a;" 
d="M496 842v-234h-192v234h-232v167h232v234h192v-234h230v-167h-230z" />
    <glyph glyph-name="uni207B" unicode="&#x207b;" 
d="M726 842h-654v167h654v-167z" />
    <glyph glyph-name="uni207C" unicode="&#x207c;" 
d="M726 1002h-654v166h654v-166zM726 684h-654v166h654v-166z" />
    <glyph glyph-name="uni207D" unicode="&#x207d;" 
d="M282 925q0 165 62.5 318.5t175.5 272.5l135 -91q-178 -215 -178 -500q0 -286 178 -499l-135 -92q-113 119 -175.5 272.5t-62.5 318.5z" />
    <glyph glyph-name="uni207E" unicode="&#x207e;" 
d="M516 925q0 -165 -62.5 -318.5t-174.5 -272.5l-135 92q177 214 177 499t-177 500l135 91q112 -119 174.5 -272.5t62.5 -318.5z" />
    <glyph glyph-name="uni207F" unicode="&#x207f;" 
d="M286 818v-366h-188v670h188v-81q21 42 67.5 68.5t100.5 26.5q105 0 178 -78.5t73 -199.5v-406h-188v397q0 54 -30.5 88.5t-79.5 34.5t-85 -41t-36 -113z" />
    <glyph glyph-name="zeroinferior" unicode="&#x2080;" 
d="M56 212q0 220 89 359t254 139t254 -139t89 -359t-89 -359t-254 -139t-254 139t-89 359zM249 212q0 -152 37.5 -241.5t112.5 -89.5t112.5 89t37.5 242t-37.5 241.5t-112.5 88.5t-112.5 -89t-37.5 -241z" />
    <glyph glyph-name="oneinferior" unicode="&#x2081;" 
d="M385 686h166v-948h-196v754l-154 -84l-74 140z" />
    <glyph glyph-name="twoinferior" unicode="&#x2082;" 
d="M570 140l-222 -241h347v-161h-603v143l326 357q50 54 71 96.5t21 88.5q0 55 -35 90t-90 35q-57 0 -96.5 -43t-47.5 -116h-180q10 150 99 235.5t226 85.5q139 0 229 -78t90 -204q0 -77 -32 -143.5t-103 -144.5z" />
    <glyph glyph-name="threeinferior" unicode="&#x2083;" 
d="M522 37q0 68 -46 114.5t-115 46.5q-28 0 -58 -11l-75 92l209 245h-333v162h569v-149l-192 -219q107 -24 172 -105.5t65 -191.5q0 -130 -97 -218.5t-253 -88.5q-94 0 -171.5 48.5t-132.5 134.5l100 88q47 -56 93.5 -83.5t103.5 -27.5q69 0 115 47t46 116z" />
    <glyph glyph-name="fourinferior" unicode="&#x2084;" 
d="M36 -85v149l422 622h182v-607h104v-164h-104v-177h-192v177h-412zM237 77h211v319z" />
    <glyph glyph-name="fiveinferior" unicode="&#x2085;" 
d="M374 -286q-196 0 -315 184l109 97q44 -60 90.5 -90t108.5 -30q68 0 114.5 46.5t46.5 115.5t-45.5 115.5t-114.5 46.5q-36 0 -69.5 -18.5t-52.5 -47.5l-143 18l59 535h528v-162h-351l-24 -191q39 18 88 18q133 0 227 -86.5t94 -226.5q0 -143 -96 -233.5t-254 -90.5z" />
    <glyph glyph-name="sixinferior" unicode="&#x2086;" 
d="M615 686l-216 -335h13q133 0 235 -88t102 -225q0 -139 -104 -231.5t-244 -92.5q-144 0 -248 92t-104 232q0 94 48 168l312 480h206zM556 38q0 69 -46 116t-112 47q-65 0 -111 -47t-46 -116t46 -116.5t111 -47.5q66 0 112 47.5t46 116.5z" />
    <glyph glyph-name="seveninferior" unicode="&#x2087;" 
d="M90 686h622v-142l-336 -806h-216l333 785h-403v163z" />
    <glyph glyph-name="eightinferior" unicode="&#x2088;" 
d="M248 23q0 -63 43.5 -107t107.5 -44t108 44t44 107t-44 107t-108 44t-107.5 -44t-43.5 -107zM697 444q0 -57 -28.5 -106t-76.5 -80q70 -34 111 -98.5t41 -139.5q0 -131 -99.5 -218.5t-245.5 -87.5t-245 87.5t-99 218.5q0 75 41 139.5t110 98.5q-48 31 -76.5 80.5
t-28.5 105.5q0 112 84.5 189t213.5 77t213.5 -77t84.5 -189zM287 442q0 -47 32 -80t80 -33t80 33t32 80t-32 78.5t-80 31.5t-80 -31.5t-32 -78.5z" />
    <glyph glyph-name="nineinferior" unicode="&#x2089;" 
d="M183 -262l217 334q-6 -1 -17 -1q-134 0 -233.5 88t-99.5 227t104 231.5t244 92.5q144 0 248 -92.5t104 -231.5q0 -94 -49 -169l-311 -479h-207zM243 385q0 -68 46 -115t112 -47q65 0 110.5 47t45.5 115q0 70 -45.5 117t-110.5 47q-66 0 -112 -47t-46 -117z" />
    <glyph glyph-name="uni208A" unicode="&#x208a;" 
d="M496 128v-234h-192v234h-232v167h232v234h192v-234h230v-167h-230z" />
    <glyph glyph-name="uni208B" unicode="&#x208b;" 
d="M726 128h-654v167h654v-167z" />
    <glyph glyph-name="uni208C" unicode="&#x208c;" 
d="M726 288h-654v166h654v-166zM726 -30h-654v166h654v-166z" />
    <glyph glyph-name="uni208D" unicode="&#x208d;" 
d="M282 211q0 165 62.5 318.5t175.5 272.5l135 -91q-178 -215 -178 -500q0 -286 178 -499l-135 -92q-113 119 -175.5 272.5t-62.5 318.5z" />
    <glyph glyph-name="uni208E" unicode="&#x208e;" 
d="M516 211q0 -165 -62.5 -318.5t-174.5 -272.5l-135 92q177 214 177 499t-177 500l135 91q112 -119 174.5 -272.5t62.5 -318.5z" />
    <glyph glyph-name="uni2090" unicode="&#x2090;" 
d="M536 64q0 79 -44.5 133t-110.5 54q-67 0 -111 -54t-44 -133t44 -133t111 -54q66 0 110.5 54t44.5 133zM38 64q0 148 90 247.5t219 99.5q118 0 189 -79v68h188v-672h-188v68q-71 -79 -189 -79q-129 0 -219 99.5t-90 247.5z" />
    <glyph glyph-name="uni2091" unicode="&#x2091;" 
d="M245 5q14 -62 60 -101t109 -39q112 0 203 89l91 -89q-115 -151 -294 -151q-158 0 -258 101t-100 249t101 249t249 101q146 0 242 -97.5t96 -240.5q0 -40 -7 -71h-492zM405 262q-55 0 -96.5 -32.5t-58.5 -85.5h302q-14 54 -53 86t-94 32z" />
    <glyph glyph-name="uni2092" unicode="&#x2092;" 
d="M44 64q0 148 101.5 249t253.5 101t253.5 -101t101.5 -249t-101.5 -249t-253.5 -101t-253.5 101t-101.5 249zM232 64q0 -78 48.5 -132.5t118.5 -54.5q71 0 119 54.5t48 132.5t-48 132.5t-119 54.5q-70 0 -118.5 -54.5t-48.5 -132.5z" />
    <glyph glyph-name="uni2093" unicode="&#x2093;" 
d="M284 400l114 -186l115 186h209l-211 -327l226 -345h-207l-131 209l-130 -209h-209l227 346l-211 326h208z" />
    <glyph glyph-name="uni2094" unicode="&#x2094;" 
d="M62 122h493q-14 62 -60.5 101.5t-108.5 39.5q-112 0 -203 -89l-91 89q115 151 293 151q158 0 258.5 -101t100.5 -249t-101 -249t-250 -101q-146 0 -241.5 97.5t-95.5 239.5q0 39 6 71zM394 -135q55 0 97 32.5t59 85.5h-303q14 -54 53.5 -86t93.5 -32z" />
    <glyph glyph-name="uni20A0" unicode="&#x20a0;" horiz-adv-x="1569" 
d="M584 422q-219 0 -368.5 144.5t-149.5 355.5t149.5 356.5t368.5 145.5q163 0 290 -90.5t176 -258.5h-216q-31 76 -97.5 117t-151.5 41q-126 0 -212.5 -89.5t-86.5 -221.5q0 -131 86.5 -220.5t212.5 -89.5q121 0 224 71v287h622v-183h-407v-209h375v-181h-375v-214h419
v-183h-634v473q-105 -51 -225 -51z" />
    <glyph glyph-name="colonmonetary" unicode="&#x20a1;" horiz-adv-x="1516" 
d="M653 -204l33 187q-55 7 -110 23l-37 -210h-144l47 266q-167 91 -265 259.5t-98 378.5q0 186 78.5 342t215.5 253.5t309 120.5l33 188h144l-32 -182q51 -1 111 -13l35 195h143l-42 -236q138 -59 231.5 -173.5t131.5 -273.5h-247q-43 142 -157 218l-169 -953
q257 29 411 274q24 -17 71.5 -52t71.5 -52q-200 -360 -590 -378l-32 -182h-143zM318 700q0 -126 44 -228t122 -170l158 890q-144 -48 -234 -178t-90 -314zM790 1217l-176 -998q54 -22 108 -31l180 1015q-32 8 -84 12z" />
    <glyph glyph-name="uni20A2" unicode="&#x20a2;" horiz-adv-x="1453" 
d="M1275 460l143 -104q-211 -380 -633 -380q-147 0 -277.5 55t-224.5 150t-149 230t-55 289q0 153 55 288t149 230.5t224.5 150.5t277.5 55q250 0 423 -134.5t229 -368.5h-247q-42 141 -151.5 218.5t-250.5 77.5q-94 0 -179.5 -36.5t-150 -102.5t-102.5 -164t-38 -214
q0 -193 99.5 -326t255.5 -174v632h203v-90q28 49 74 76.5t98 27.5q50 0 98 -23l-17 -169q-55 23 -91 23q-77 0 -119.5 -56t-42.5 -167v-266q249 32 399 272z" />
    <glyph glyph-name="franc" unicode="&#x20a3;" horiz-adv-x="1106" 
d="M795 461h-328v-461h-236v461h-183v127h183v98h-183v127h183v587h830v-204h-594v-383h328v-127h-328v-98h328v-127z" />
    <glyph glyph-name="lira" unicode="&#x20a4;" horiz-adv-x="1157" 
d="M307 457h-228v125h225q-9 48 -24 96h-201v125h152q-48 126 -48 219q0 169 125.5 285.5t308.5 116.5q175 0 292 -105t140 -283h-225q-16 85 -73.5 133t-133.5 48q-84 0 -140 -57t-56 -142q0 -79 55 -215h346v-125h-302q16 -48 23 -96h279v-125h-278q-12 -150 -130 -253
h635v-204h-906v198q69 45 112.5 112.5t51.5 146.5z" />
    <glyph glyph-name="uni20A6" unicode="&#x20a6;" horiz-adv-x="1464" 
d="M189 0v531h-141v120h141v98h-141v120h141v531h230l320 -531h318v531h218v-531h141v-120h-141v-98h141v-120h-141v-531h-230l-321 531h-317v-531h-218zM1057 749h-247l59 -98h188v98zM407 749v-98h246l-60 98h-186zM941 531l116 -187v187h-116zM407 1055v-186h115z" />
    <glyph glyph-name="peseta" unicode="&#x20a7;" horiz-adv-x="1185" 
d="M48 1016h112v384h471q204 0 332.5 -104t148.5 -280h73v-127h-73q-21 -175 -149.5 -278t-331.5 -103h-235v-508h-236v889h-112v127zM396 1201v-185h476q-18 87 -84 136t-172 49h-220zM616 706q105 0 171.5 48.5t84.5 134.5h-476v-183h220z" />
    <glyph glyph-name="uni20A9" unicode="&#x20a9;" horiz-adv-x="1996" 
d="M880 1400h235l145 -529h295l135 529h244l-148 -529h172v-120h-205l-29 -100h234v-120h-267l-149 -531h-239l-147 531h-316l-147 -531h-239l-150 531h-267v120h234l-28 100h-206v120h172l-148 529h245l135 -529h294zM1095 751h-195l-28 -100h251zM471 751l26 -100h178
l27 100h-231zM1293 751l27 -100h178l26 100h-231zM998 1100l-65 -229h129zM643 531h-115l56 -213zM1468 531h-115l59 -213z" />
    <glyph glyph-name="afii57636" unicode="&#x20aa;" horiz-adv-x="1745" 
d="M160 0v1400h526q212 0 355.5 -136.5t143.5 -335.5v-404h-224v395q0 121 -78.5 201.5t-199.5 80.5h-298v-1201h-225zM1585 1400v-1400h-525q-213 0 -356.5 136t-143.5 336v404h224v-396q0 -121 78.5 -201.5t199.5 -80.5h298v1202h225z" />
    <glyph glyph-name="dong" unicode="&#x20ab;" horiz-adv-x="1333" 
d="M617 1162v147h322v151h227v-151h144v-147h-144v-1162h-227v140q-67 -78 -160 -121t-204 -43q-217 0 -361.5 157t-144.5 385q0 149 65 273t181.5 196.5t259.5 72.5q223 0 364 -165v267h-322zM300 518q0 -142 92 -240.5t228 -98.5t227.5 98t91.5 241q0 142 -91 240.5
t-228 98.5t-228.5 -98.5t-91.5 -240.5zM332 -341v174h768v-174h-768z" />
    <glyph glyph-name="Euro" unicode="&#x20ac;" horiz-adv-x="1547" 
d="M10 636h103q-3 31 -3 64q0 32 3 64h-103v131h124q60 236 247.5 382.5t434.5 146.5q251 0 424 -134.5t228 -368.5h-246q-42 141 -151.5 218.5t-251.5 77.5q-148 0 -268 -86t-170 -236h600l-45 -131h-584q-3 -32 -3 -64q0 -34 3 -64h549l-45 -131h-474q51 -150 173.5 -236
t273.5 -86q153 0 274 72t203 205q24 -17 72 -52t72 -52q-212 -380 -634 -380q-248 0 -435 146t-247 383h-124v131z" />
    <glyph glyph-name="ruble" unicode="&#x20bd;" horiz-adv-x="1185" 
d="M48 706h112v694h471q222 0 353.5 -122t131.5 -324t-131.5 -324t-353.5 -122h-235v-101h389v-142h-389v-265h-236v265h-112v142h112v101h-112v198zM879 954q0 114 -69 180.5t-194 66.5h-220v-495h220q125 0 194 66.5t69 181.5z" />
    <glyph glyph-name="afii61248" unicode="&#x2105;" horiz-adv-x="2091" 
d="M1572 156q100 0 169 70.5t69 172.5t-69 172t-169 70t-169 -70t-69 -172t69 -172.5t169 -70.5zM1572 823q191 0 320 -123t129 -301t-129 -300.5t-320 -122.5t-319.5 122.5t-128.5 300.5t128.5 301t319.5 123zM741 -40l-143 77l683 1400l143 -78zM69 1001q0 182 121.5 303
t295.5 121q165 0 270 -85.5t131 -221.5h-201q-38 124 -186 124q-90 0 -155 -63.5t-65 -177.5q0 -115 68 -178.5t173 -63.5q141 0 230 110l122 -74q-58 -105 -151 -162t-215 -57q-185 0 -311.5 121.5t-126.5 303.5z" />
    <glyph glyph-name="uni2109" unicode="&#x2109;" horiz-adv-x="1615" 
d="M707 0v1400h830v-204h-594v-398h544v-203h-544v-595h-236zM202 1150q0 -52 34.5 -87t87.5 -35q52 0 87 35.5t35 86.5q0 52 -35 87t-87 35q-53 0 -87.5 -35t-34.5 -87zM41 1150q0 115 81.5 193.5t201.5 78.5q119 0 200.5 -78.5t81.5 -193.5t-81.5 -193.5t-200.5 -78.5
q-120 0 -201.5 78.5t-81.5 193.5z" />
    <glyph glyph-name="afii61289" unicode="&#x2113;" horiz-adv-x="1130" 
d="M131 258l-63 187q94 36 219 87v538q0 150 110 252t269 102q160 0 270 -102t110 -252v-51q0 -172 -134 -320t-397 -280v-78q0 -65 44.5 -115t107.5 -50q64 0 116.5 39.5t84.5 110.5l182 -108q-52 -112 -153 -177t-229 -65q-161 0 -267 97t-112 245q-66 -26 -158 -60z
M515 1055v-409q155 88 228.5 180t73.5 206v22q0 75 -43 123.5t-108 48.5t-108 -48t-43 -123z" />
    <glyph glyph-name="afii61352" unicode="&#x2116;" horiz-adv-x="2211" 
d="M160 0v1400h219l524 -968v968h222v-1400h-218l-525 968v-968h-222zM2066 0h-780v189h780v-189zM1266 711q0 161 118.5 272t291.5 111q172 0 291 -111t119 -272t-119 -272.5t-291 -111.5q-173 0 -291.5 111.5t-118.5 272.5zM1481 711q0 -83 55.5 -139t139.5 -56
q83 0 139 56t56 139t-56 138.5t-139 55.5q-84 0 -139.5 -55.5t-55.5 -138.5z" />
    <glyph glyph-name="uni2117" unicode="&#x2117;" horiz-adv-x="1605" 
d="M858 575h-130v-260h-168v767h298q121 0 201.5 -72t80.5 -181q0 -110 -80.5 -182t-201.5 -72zM971 829q0 45 -34 74t-87 29h-122v-207h122q53 0 87 29t34 75zM78 700q0 149 56.5 283t153.5 231t231 153.5t283 56.5t283 -56.5t231 -153.5t153.5 -231t56.5 -283t-56.5 -283
t-153.5 -231t-231 -153.5t-283 -56.5t-283 56.5t-231 153.5t-153.5 231t-56.5 283zM199 700q0 -168 80 -308.5t219 -221.5t304 -81t304 81t219 221.5t80 308.5t-80 308t-219 221t-304 81t-304 -81t-219 -221t-80 -308z" />
    <glyph glyph-name="uni2120" unicode="&#x2120;" horiz-adv-x="1576" 
d="M79 807l81 79q43 -48 94.5 -75t98.5 -27q49 0 80.5 23.5t31.5 61.5q0 36 -31 60.5t-104 40.5q-242 52 -242 229q0 94 72.5 153.5t187.5 59.5q113 0 185.5 -61.5t89.5 -169.5h-156q-10 45 -40.5 69.5t-74.5 24.5q-39 0 -65.5 -19.5t-26.5 -49.5q0 -39 31 -64.5t96 -40.5
q132 -31 190.5 -87t58.5 -145q0 -99 -75.5 -160t-205.5 -61q-161 0 -276 159zM1125 766h-86l-167 311v-417h-166v740h158l218 -437l219 437h158v-740h-167v417z" />
    <glyph glyph-name="uni2121" unicode="&#x2121;" horiz-adv-x="2195" 
d="M1020 448q12 -124 82.5 -204t168.5 -80q82 0 146.5 36t128.5 110l123 -109q-156 -225 -395 -225q-139 0 -249 72.5t-169.5 196t-59.5 273.5q0 149 60 273t167 196.5t238 72.5q129 0 232.5 -70.5t160 -189.5t56.5 -262q0 -51 -9 -90h-681zM1260 872q-84 0 -149.5 -70.5
t-84.5 -179.5h456q-16 111 -76.5 180.5t-145.5 69.5zM417 0v1196h-359v204h944v-204h-358v-1196h-227zM1816 0v1460h218v-1460h-218z" />
    <glyph glyph-name="trademark" unicode="&#x2122;" horiz-adv-x="1552" 
d="M247 660v600h-190v140h553v-140h-190v-600h-173zM1090 756h-66l-177 336v-432h-166v740h163l213 -423l214 423h163v-740h-167v432z" />
    <glyph glyph-name="Omega" unicode="&#x2126;" horiz-adv-x="1600" 
d="M1272 733q0 133 -62.5 244.5t-171 175.5t-238.5 64q-198 0 -335 -140.5t-137 -343.5q0 -167 95 -308.5t268 -227.5v-197h-585v207h307q-159 99 -241.5 239t-82.5 308q0 184 94 338t257.5 243t359.5 89t359.5 -89t257.5 -243t94 -338q0 -168 -82.5 -307.5t-241.5 -239.5
h306v-207h-585v197q174 85 269 227t95 309z" />
    <glyph glyph-name="estimated" unicode="&#x212e;" horiz-adv-x="1608" 
d="M1528 638h-1133v-373q80 -78 185 -121.5t224 -43.5q147 0 273.5 67t209.5 185l108 -74q-102 -143 -258 -222.5t-333 -79.5q-149 0 -283 56.5t-231 153.5t-153.5 231t-56.5 283t56.5 283t153.5 231t231 153.5t283 56.5t283 -56.5t231 -153.5t153.5 -231t56.5 -283v-62z
M804 1299q-119 0 -224 -44t-185 -122v-373h818v373q-81 78 -186 122t-223 44z" />
    <glyph glyph-name="onethird" unicode="&#x2153;" horiz-adv-x="1925" 
d="M547 42l679 1392l152 -79l-680 -1392zM385 1400h166v-948h-196v754l-154 -84l-74 140zM1649 299q0 68 -46 114.5t-115 46.5q-28 0 -58 -11l-75 92l209 245h-333v162h569v-149l-192 -219q107 -24 172 -105.5t65 -191.5q0 -130 -97 -218.5t-253 -88.5q-94 0 -171.5 48.5
t-132.5 134.5l100 88q47 -56 93.5 -83.5t103.5 -27.5q69 0 115 47t46 116z" />
    <glyph glyph-name="twothirds" unicode="&#x2154;" horiz-adv-x="1925" 
d="M547 42l679 1392l152 -79l-680 -1392zM570 854l-222 -241h347v-161h-603v143l326 357q50 54 71 96.5t21 88.5q0 55 -35 90t-90 35q-57 0 -96.5 -43t-47.5 -116h-180q10 150 99 235.5t226 85.5q139 0 229 -78t90 -204q0 -77 -32 -143.5t-103 -144.5zM1649 299
q0 68 -46 114.5t-115 46.5q-28 0 -58 -11l-75 92l209 245h-333v162h569v-149l-192 -219q107 -24 172 -105.5t65 -191.5q0 -130 -97 -218.5t-253 -88.5q-94 0 -171.5 48.5t-132.5 134.5l100 88q47 -56 93.5 -83.5t103.5 -27.5q69 0 115 47t46 116z" />
    <glyph glyph-name="onefifth" unicode="&#x2155;" horiz-adv-x="1925" 
d="M547 42l679 1392l152 -79l-680 -1392zM385 1400h166v-948h-196v754l-154 -84l-74 140zM1501 -26q-196 0 -315 184l109 97q44 -60 90.5 -90t108.5 -30q68 0 114.5 46.5t46.5 115.5t-45.5 115.5t-114.5 46.5q-36 0 -69.5 -18.5t-52.5 -47.5l-143 18l59 535h528v-162h-351
l-24 -191q39 18 88 18q133 0 227 -86.5t94 -226.5q0 -143 -96 -233.5t-254 -90.5z" />
    <glyph glyph-name="twofifths" unicode="&#x2156;" horiz-adv-x="1925" 
d="M547 42l679 1392l152 -79l-680 -1392zM570 854l-222 -241h347v-161h-603v143l326 357q50 54 71 96.5t21 88.5q0 55 -35 90t-90 35q-57 0 -96.5 -43t-47.5 -116h-180q10 150 99 235.5t226 85.5q139 0 229 -78t90 -204q0 -77 -32 -143.5t-103 -144.5zM1501 -26
q-196 0 -315 184l109 97q44 -60 90.5 -90t108.5 -30q68 0 114.5 46.5t46.5 115.5t-45.5 115.5t-114.5 46.5q-36 0 -69.5 -18.5t-52.5 -47.5l-143 18l59 535h528v-162h-351l-24 -191q39 18 88 18q133 0 227 -86.5t94 -226.5q0 -143 -96 -233.5t-254 -90.5z" />
    <glyph glyph-name="threefifths" unicode="&#x2157;" horiz-adv-x="1925" 
d="M547 42l679 1392l152 -79l-680 -1392zM1501 -26q-196 0 -315 184l109 97q44 -60 90.5 -90t108.5 -30q68 0 114.5 46.5t46.5 115.5t-45.5 115.5t-114.5 46.5q-36 0 -69.5 -18.5t-52.5 -47.5l-143 18l59 535h528v-162h-351l-24 -191q39 18 88 18q133 0 227 -86.5t94 -226.5
q0 -143 -96 -233.5t-254 -90.5zM522 751q0 68 -46 114.5t-115 46.5q-28 0 -58 -11l-75 92l209 245h-333v162h569v-149l-192 -219q107 -24 172 -105.5t65 -191.5q0 -130 -97 -218.5t-253 -88.5q-94 0 -171.5 48.5t-132.5 134.5l100 88q47 -56 93.5 -83.5t103.5 -27.5
q69 0 115 47t46 116z" />
    <glyph glyph-name="fourfifths" unicode="&#x2158;" horiz-adv-x="1925" 
d="M547 42l679 1392l152 -79l-680 -1392zM1501 -26q-196 0 -315 184l109 97q44 -60 90.5 -90t108.5 -30q68 0 114.5 46.5t46.5 115.5t-45.5 115.5t-114.5 46.5q-36 0 -69.5 -18.5t-52.5 -47.5l-143 18l59 535h528v-162h-351l-24 -191q39 18 88 18q133 0 227 -86.5t94 -226.5
q0 -143 -96 -233.5t-254 -90.5zM36 629v149l422 622h182v-607h104v-164h-104v-177h-192v177h-412zM237 791h211v319z" />
    <glyph glyph-name="onesixth" unicode="&#x2159;" horiz-adv-x="1925" 
d="M547 42l679 1392l152 -79l-680 -1392zM385 1400h166v-948h-196v754l-154 -84l-74 140zM1741 948l-216 -335h13q133 0 235 -88t102 -225q0 -139 -104 -231.5t-244 -92.5q-144 0 -248 92t-104 232q0 94 48 168l312 480h206zM1682 300q0 69 -46 116t-112 47q-65 0 -111 -47
t-46 -116t46 -116.5t111 -47.5q66 0 112 47.5t46 116.5z" />
    <glyph glyph-name="fivesixths" unicode="&#x215a;" horiz-adv-x="1925" 
d="M547 42l679 1392l152 -79l-680 -1392zM1741 948l-216 -335h13q133 0 235 -88t102 -225q0 -139 -104 -231.5t-244 -92.5q-144 0 -248 92t-104 232q0 94 48 168l312 480h206zM1682 300q0 69 -46 116t-112 47q-65 0 -111 -47t-46 -116t46 -116.5t111 -47.5q66 0 112 47.5
t46 116.5zM374 428q-196 0 -315 184l109 97q44 -60 90.5 -90t108.5 -30q68 0 114.5 46.5t46.5 115.5t-45.5 115.5t-114.5 46.5q-36 0 -69.5 -18.5t-52.5 -47.5l-143 18l59 535h528v-162h-351l-24 -191q39 18 88 18q133 0 227 -86.5t94 -226.5q0 -143 -96 -233.5t-254 -90.5z
" />
    <glyph glyph-name="oneeighth" unicode="&#x215b;" horiz-adv-x="1925" 
d="M547 42l679 1392l152 -79l-680 -1392zM385 1400h166v-948h-196v754l-154 -84l-74 140zM1375 283q0 -63 43.5 -107t107.5 -44t108 44t44 107t-44 107t-108 44t-107.5 -44t-43.5 -107zM1824 704q0 -57 -28.5 -106t-76.5 -80q70 -34 111 -98.5t41 -139.5
q0 -131 -99.5 -218.5t-245.5 -87.5t-245 87.5t-99 218.5q0 75 41 139.5t110 98.5q-48 31 -76.5 80.5t-28.5 105.5q0 112 84.5 189t213.5 77t213.5 -77t84.5 -189zM1414 702q0 -47 32 -80t80 -33t80 33t32 80t-32 78.5t-80 31.5t-80 -31.5t-32 -78.5z" />
    <glyph glyph-name="threeeighths" unicode="&#x215c;" horiz-adv-x="1925" 
d="M547 42l679 1392l152 -79l-680 -1392zM1375 283q0 -63 43.5 -107t107.5 -44t108 44t44 107t-44 107t-108 44t-107.5 -44t-43.5 -107zM1824 704q0 -57 -28.5 -106t-76.5 -80q70 -34 111 -98.5t41 -139.5q0 -131 -99.5 -218.5t-245.5 -87.5t-245 87.5t-99 218.5
q0 75 41 139.5t110 98.5q-48 31 -76.5 80.5t-28.5 105.5q0 112 84.5 189t213.5 77t213.5 -77t84.5 -189zM1414 702q0 -47 32 -80t80 -33t80 33t32 80t-32 78.5t-80 31.5t-80 -31.5t-32 -78.5zM522 751q0 68 -46 114.5t-115 46.5q-28 0 -58 -11l-75 92l209 245h-333v162h569
v-149l-192 -219q107 -24 172 -105.5t65 -191.5q0 -130 -97 -218.5t-253 -88.5q-94 0 -171.5 48.5t-132.5 134.5l100 88q47 -56 93.5 -83.5t103.5 -27.5q69 0 115 47t46 116z" />
    <glyph glyph-name="fiveeighths" unicode="&#x215d;" horiz-adv-x="1925" 
d="M547 42l679 1392l152 -79l-680 -1392zM374 428q-196 0 -315 184l109 97q44 -60 90.5 -90t108.5 -30q68 0 114.5 46.5t46.5 115.5t-45.5 115.5t-114.5 46.5q-36 0 -69.5 -18.5t-52.5 -47.5l-143 18l59 535h528v-162h-351l-24 -191q39 18 88 18q133 0 227 -86.5t94 -226.5
q0 -143 -96 -233.5t-254 -90.5zM1375 283q0 -63 43.5 -107t107.5 -44t108 44t44 107t-44 107t-108 44t-107.5 -44t-43.5 -107zM1824 704q0 -57 -28.5 -106t-76.5 -80q70 -34 111 -98.5t41 -139.5q0 -131 -99.5 -218.5t-245.5 -87.5t-245 87.5t-99 218.5q0 75 41 139.5
t110 98.5q-48 31 -76.5 80.5t-28.5 105.5q0 112 84.5 189t213.5 77t213.5 -77t84.5 -189zM1414 702q0 -47 32 -80t80 -33t80 33t32 80t-32 78.5t-80 31.5t-80 -31.5t-32 -78.5z" />
    <glyph glyph-name="seveneighths" unicode="&#x215e;" horiz-adv-x="1925" 
d="M547 42l679 1392l152 -79l-680 -1392zM1375 283q0 -63 43.5 -107t107.5 -44t108 44t44 107t-44 107t-108 44t-107.5 -44t-43.5 -107zM1824 704q0 -57 -28.5 -106t-76.5 -80q70 -34 111 -98.5t41 -139.5q0 -131 -99.5 -218.5t-245.5 -87.5t-245 87.5t-99 218.5
q0 75 41 139.5t110 98.5q-48 31 -76.5 80.5t-28.5 105.5q0 112 84.5 189t213.5 77t213.5 -77t84.5 -189zM1414 702q0 -47 32 -80t80 -33t80 33t32 80t-32 78.5t-80 31.5t-80 -31.5t-32 -78.5zM90 1400h622v-142l-336 -806h-216l333 785h-403v163z" />
    <glyph glyph-name="uni215F" unicode="&#x215f;" horiz-adv-x="1925" 
d="M547 42l679 1392l152 -79l-680 -1392zM385 1400h166v-948h-196v754l-154 -84l-74 140z" />
    <glyph glyph-name="arrowleft" unicode="&#x2190;" horiz-adv-x="1720" 
d="M608 233l-502 429l502 430l85 -107l-314 -255h1263v-132h-1266l317 -257z" />
    <glyph glyph-name="arrowup" unicode="&#x2191;" horiz-adv-x="1720" 
d="M424 959l429 502l430 -502l-107 -85l-255 314v-1263h-131v1266l-258 -317z" />
    <glyph glyph-name="arrowright" unicode="&#x2192;" horiz-adv-x="1720" 
d="M1607 662l-502 -429l-86 108l318 257h-1267v132h1264l-315 255l86 107z" />
    <glyph glyph-name="arrowdown" unicode="&#x2193;" horiz-adv-x="1720" 
d="M1283 462l-429 -502l-430 502l108 86l255 -315v1264h131v-1267l258 318z" />
    <glyph glyph-name="arrowboth" unicode="&#x2194;" horiz-adv-x="1720" 
d="M1607 662l-502 -429l-86 108l318 257h-961l317 -257l-85 -108l-502 429l502 430l85 -107l-314 -255h955l-315 255l86 107z" />
    <glyph glyph-name="arrowupdn" unicode="&#x2195;" horiz-adv-x="1720" 
d="M852 -39l-429 502l108 86l258 -318v961l-258 -317l-108 85l429 502l430 -502l-107 -85l-255 314v-955l255 315l107 -86z" />
    <glyph glyph-name="arrowupdnbse" unicode="&#x21a8;" horiz-adv-x="1720" 
d="M522 -26h319l-418 489l108 86l258 -318v961l-258 -317l-108 85l429 502l430 -502l-107 -85l-255 314v-955l255 315l107 -86l-419 -489h323v-150h-664v150z" />
    <glyph glyph-name="partialdiff" unicode="&#x2202;" horiz-adv-x="1228" 
d="M568 917q99 0 186.5 -41t148.5 -106q-13 214 -98.5 332.5t-239.5 118.5q-158 0 -287 -127l-95 179q152 151 383 151q270 0 421.5 -199t151.5 -529q0 -171 -42.5 -308.5t-117.5 -227t-176 -137t-219 -47.5q-216 0 -365.5 136.5t-149.5 333.5q0 129 69 238t183.5 171
t246.5 62zM584 179q124 0 208 92.5t106 285.5q-62 74 -143 115.5t-171 41.5q-119 0 -200.5 -77t-81.5 -191q0 -113 81.5 -190t200.5 -77z" />
    <glyph glyph-name="Delta" unicode="&#x2206;" horiz-adv-x="1372" 
d="M817 1400l514 -1400h-1291l515 1400h262zM686 1144l-330 -943h660z" />
    <glyph glyph-name="product" unicode="&#x220f;" horiz-adv-x="1355" 
d="M1195 1480v-1702h-236v1498h-563v-1498h-236v1702h1035z" />
    <glyph glyph-name="summation" unicode="&#x2211;" horiz-adv-x="1308" 
d="M119 -15l512 655l-512 632v208h1070v-204h-791l465 -577v-118l-464 -600h790v-203h-1070v207z" />
    <glyph glyph-name="minus" unicode="&#x2212;" horiz-adv-x="1157" 
d="M1038 565h-920v198h920v-198z" />
    <glyph glyph-name="uni2215" unicode="&#x2215;" horiz-adv-x="330" 
d="M-251 42l679 1392l152 -79l-680 -1392z" />
    <glyph glyph-name="uni2219" unicode="&#x2219;" horiz-adv-x="598" 
d="M152 651q0 62 42 104t105 42t105 -42t42 -104t-42 -103.5t-105 -41.5t-105 41.5t-42 103.5z" />
    <glyph glyph-name="radical" unicode="&#x221a;" horiz-adv-x="1126" 
d="M629 0h-256l-335 750h249l197 -469l362 1259h241z" />
    <glyph glyph-name="infinity" unicode="&#x221e;" horiz-adv-x="1528" 
d="M267 663q0 -60 41.5 -98.5t104.5 -38.5q61 0 113.5 30t120.5 107q-68 77 -120.5 107t-113.5 30q-63 0 -104.5 -38t-41.5 -99zM764 546q-175 -187 -362 -187q-137 0 -232 86.5t-95 217.5t95 217.5t232 86.5q188 0 362 -187q174 187 361 187q138 0 232.5 -86.5t94.5 -217.5
t-94.5 -217.5t-232.5 -86.5q-186 0 -361 187zM1261 663q0 61 -41.5 99t-105.5 38q-61 0 -113 -29.5t-121 -107.5q69 -77 121 -107t113 -30q64 0 105.5 38.5t41.5 98.5z" />
    <glyph glyph-name="orthogonal" unicode="&#x221f;" horiz-adv-x="1225" 
d="M1184 204v-204h-1025v1150h236v-946h789z" />
    <glyph glyph-name="intersection" unicode="&#x2229;" horiz-adv-x="1285" 
d="M642 1030q-114 0 -191 -88t-77 -219v-723h-236v739q0 207 146 351t358 144q140 0 256 -66t182 -179.5t66 -249.5v-739h-236v723q0 131 -77 219t-191 88z" />
    <glyph glyph-name="integral" unicode="&#x222b;" horiz-adv-x="859" 
d="M544 1174v-1275q0 -183 -96.5 -273t-292.5 -90q-59 0 -113 9v188q43 -5 92 -5q96 0 138.5 42.5t42.5 130.5v1276q0 183 96.5 273t292.5 90q46 0 113 -9v-188q-43 5 -92 5q-96 0 -138.5 -42.5t-42.5 -131.5z" />
    <glyph glyph-name="approxequal" unicode="&#x2248;" horiz-adv-x="1157" 
d="M551 778q-35 33 -55 50t-50 33.5t-55 16.5q-88 0 -115 -162l-216 50q25 153 101 235.5t198 82.5q136 0 246 -101q37 -34 56 -50t49 -33t55 -17q88 0 115 162l216 -50q-25 -153 -101 -235.5t-198 -82.5q-140 0 -246 101zM551 326q-35 33 -55 50t-50 33.5t-55 16.5
q-88 0 -115 -162l-216 50q25 153 101 235.5t198 82.5q136 0 246 -101q37 -34 56 -50t49 -33t55 -17q88 0 115 162l216 -50q-25 -153 -101 -235.5t-198 -82.5q-140 0 -246 101z" />
    <glyph glyph-name="notequal" unicode="&#x2260;" horiz-adv-x="1157" 
d="M1038 337h-536l-157 -302l-136 71l120 231h-211v196h313l136 260h-449v196h551l145 278l136 -71l-108 -207h196v-196h-298l-136 -260h434v-196z" />
    <glyph glyph-name="equivalence" unicode="&#x2261;" horiz-adv-x="1157" 
d="M1038 566h-920v196h920v-196zM1038 902h-920v196h920v-196zM1038 230h-920v196h920v-196z" />
    <glyph glyph-name="lessequal" unicode="&#x2264;" horiz-adv-x="1157" 
d="M1038 0h-920v196h920v-196zM130 689v185l830 347l67 -155l-621 -284l621 -285l-67 -155z" />
    <glyph glyph-name="greaterequal" unicode="&#x2265;" horiz-adv-x="1157" 
d="M1038 0h-920v196h920v-196zM1024 874v-185l-830 -347l-67 155l621 285l-621 284l67 155z" />
    <glyph glyph-name="house" unicode="&#x2302;" horiz-adv-x="1284" 
d="M366 198h552v425l-276 318l-276 -318v-425zM1149 0h-1014v696l507 576l507 -576v-696z" />
    <glyph glyph-name="revlogicalnot" unicode="&#x2310;" horiz-adv-x="1157" 
d="M345 565v-335h-227v533h920v-198h-693z" />
    <glyph glyph-name="uni2318" unicode="&#x2318;" horiz-adv-x="1618" 
d="M692 529h233v233h-233v-233zM395 915h124v123q0 54 -35 89t-89 35q-53 0 -88 -35t-35 -89t35 -88.5t88 -34.5zM1098 915h124q54 0 89 34.5t35 88.5t-35 89t-89 35q-53 0 -88.5 -35t-35.5 -89v-123zM519 377h-124q-53 0 -88 -35t-35 -89t35 -89t88 -35q54 0 89 35t35 89
v124zM519 530v231h-124q-126 0 -211.5 80t-85.5 197q0 118 85.5 198t211.5 80q127 0 212.5 -80t85.5 -198v-123h231v123q0 118 86 198t212 80t212 -80t86 -198q0 -117 -86 -197t-212 -80h-124v-231h124q126 0 212 -79.5t86 -197.5t-86 -197.5t-212 -79.5t-212 79.5
t-86 197.5v124h-231v-124q0 -118 -85.5 -197.5t-212.5 -79.5q-126 0 -211.5 79.5t-85.5 197.5t85.5 197.5t211.5 79.5h124zM1222 377h-124v-124q0 -54 35.5 -89t88.5 -35q54 0 89 35t35 89t-35 89t-89 35z" />
    <glyph glyph-name="lozenge" unicode="&#x25ca;" horiz-adv-x="1152" 
d="M1064 604l-488 -918l-488 918l488 918zM832 604l-256 495l-256 -495l256 -496z" />
    <glyph glyph-name="H18533" unicode="&#x25cf;" horiz-adv-x="2000" 
d="M324 652q0 137 53.5 262t144.5 216t216 144.5t262 53.5t262 -53.5t216 -144.5t144.5 -216t53.5 -262t-53.5 -262t-144.5 -216t-216 -144.5t-262 -53.5t-262 53.5t-216 144.5t-144.5 216t-53.5 262z" />
    <glyph glyph-name="commaaccent" horiz-adv-x="841" 
d="M219 -412l245 335l147 -118l-286 -300z" />
    <glyph glyph-name="zero.tnum" horiz-adv-x="1120" 
d="M77 700q0 155 30 286t89 229t151.5 153.5t211.5 55.5q157 0 268 -97t163 -257.5t52 -369.5t-52 -370t-163 -257.5t-268 -96.5t-267.5 96.5t-162.5 257.5t-52 370zM307 700q0 -239 62.5 -376t189.5 -137t189.5 137t62.5 376q0 238 -62.5 375t-189.5 137t-189.5 -137
t-62.5 -375z" />
    <glyph glyph-name="one.tnum" horiz-adv-x="950" 
d="M443 1400h211v-1400h-233v1172l-246 -134l-94 167z" />
    <glyph glyph-name="two.tnum" horiz-adv-x="1041" 
d="M762 600l-363 -399h546v-201h-848v189l484 531q78 86 112 153t34 138q0 93 -61.5 152t-156.5 59q-92 0 -158 -62t-79 -165h-217q12 184 135.5 306.5t320.5 122.5q195 0 321.5 -111.5t126.5 -292.5q0 -114 -46.5 -210t-150.5 -210z" />
    <glyph glyph-name="three.tnum" horiz-adv-x="1096" 
d="M498 176q117 0 195.5 77.5t78.5 188.5q0 110 -78.5 187.5t-195.5 77.5q-35 0 -74 -12l-91 114l330 388h-521v203h797v-202l-304 -347q168 -22 269.5 -143t101.5 -290q0 -84 -36 -163.5t-99 -141.5t-158.5 -99.5t-205.5 -37.5q-259 0 -421 256l125 107q118 -163 287 -163z
" />
    <glyph glyph-name="four.tnum" horiz-adv-x="1161" 
d="M68 269v203l622 928h227v-923h157v-208h-157v-269h-231v269h-618zM306 475h380v567z" />
    <glyph glyph-name="five.tnum" horiz-adv-x="1107" 
d="M522 -24q-264 0 -421 254l128 107q118 -160 282 -160q117 0 195 76t78 189t-78 189t-195 76q-64 0 -117.5 -26.5t-83.5 -69.5l-165 21l86 768h734v-203h-526l-42 -350q70 48 172 48q121 0 222.5 -54.5t163.5 -158.5t62 -238q0 -206 -135.5 -337t-359.5 -131z" />
    <glyph glyph-name="six.tnum" horiz-adv-x="1173" 
d="M866 1400l-335 -518q30 16 73 16q93 0 178.5 -32t152.5 -89t107 -144.5t40 -190.5q0 -132 -69.5 -240t-182.5 -167t-243 -59q-132 0 -246 59t-183 167t-69 240q0 137 69 245l461 713h247zM852 443q0 113 -77.5 191t-188.5 78q-112 0 -189.5 -78t-77.5 -191t77.5 -190.5
t189.5 -77.5q111 0 188.5 77.5t77.5 190.5z" />
    <glyph glyph-name="seven.tnum" horiz-adv-x="982" 
d="M58 1400h875v-191l-504 -1209h-256l502 1196h-617v204z" />
    <glyph glyph-name="eight.tnum" horiz-adv-x="1154" 
d="M317 419q0 -103 75 -175t184 -72t184 72t75 175t-75 175t-184 72t-184 -72t-75 -175zM995 1049q0 -90 -50.5 -167.5t-129.5 -113.5q116 -42 182.5 -138t66.5 -217q0 -122 -64 -222.5t-176 -157.5t-248 -57t-248 57t-176 157.5t-64 222.5q0 121 67 217t182 138
q-79 36 -129 113.5t-50 167.5q0 158 119 266.5t299 108.5q181 0 300 -108.5t119 -266.5zM378 1043q0 -76 57.5 -132t140.5 -56t140.5 56t57.5 132t-57.5 130.5t-140.5 54.5t-140.5 -54.5t-57.5 -130.5z" />
    <glyph glyph-name="nine.tnum" horiz-adv-x="1173" 
d="M307 0l335 517q-30 -16 -74 -16q-125 0 -233 54t-176.5 160t-68.5 242q0 132 69.5 240.5t182.5 167.5t243 59q132 0 246 -59t183.5 -167.5t69.5 -240.5q0 -137 -70 -244l-460 -713h-247zM320 957q0 -114 77.5 -191.5t189.5 -77.5q111 0 189 77.5t78 191.5
q0 113 -78 190.5t-189 77.5t-189 -77.5t-78 -190.5z" />
    <glyph glyph-name="parenleft.case" horiz-adv-x="843" 
d="M228 699q0 267 98 511t275 421l160 -118q-143 -163 -220 -375t-77 -439q0 -226 77 -438t220 -375l-160 -118q-177 177 -275 420.5t-98 510.5z" />
    <glyph glyph-name="parenright.case" horiz-adv-x="843" 
d="M615 699q0 -266 -98.5 -510t-274.5 -421l-161 118q144 162 221 374t77 439t-77 439.5t-221 374.5l161 118q176 -177 274.5 -421.5t98.5 -510.5z" />
    <glyph glyph-name="hyphen.case" horiz-adv-x="816" 
d="M698 605h-580v213h580v-213z" />
    <glyph glyph-name="at.case" horiz-adv-x="1931" 
d="M522 713q0 179 112.5 304t280.5 125q155 0 261 -114v94h192v-548q0 -55 27.5 -88t73.5 -33q88 0 148.5 83.5t60.5 230.5q0 185 -97.5 340t-262 243.5t-356.5 88.5q-145 0 -276 -55.5t-226.5 -150.5t-151.5 -227.5t-56 -279.5q0 -148 56 -280t153 -227t234 -150.5
t292 -55.5q267 0 480 151l72 -148q-260 -164 -552 -164q-193 0 -363 67t-291 182.5t-191 278t-70 346.5q0 183 70.5 346t190 278.5t283.5 182.5t346 67q189 0 356 -64t285.5 -175t187 -265.5t68.5 -329.5q0 -217 -115.5 -349t-298.5 -132q-78 0 -145.5 37t-101.5 100
q-106 -137 -283 -137q-168 0 -280.5 124.5t-112.5 303.5zM716 713q0 -111 65.5 -184t164.5 -73q98 0 163.5 73t65.5 184t-65.5 184t-163.5 73q-99 0 -164.5 -73t-65.5 -184z" />
    <glyph glyph-name="bracketleft.case" horiz-adv-x="843" 
d="M223 -190v1780h576v-204h-340v-1372h340v-204h-576z" />
    <glyph glyph-name="bracketright.case" horiz-adv-x="843" 
d="M620 1590v-1780h-576v204h340v1372h-340v204h576z" />
    <glyph glyph-name="braceleft.case" horiz-adv-x="843" 
d="M140 598v203q90 0 142 48t52 134v285q0 137 99 229.5t249 92.5h119v-204h-87q-63 0 -103.5 -41t-40.5 -104v-300q0 -193 -182 -241q182 -49 182 -241v-301q0 -63 40.5 -103.5t103.5 -40.5h87v-204h-119q-150 0 -249 92.5t-99 228.5v286q0 85 -52 133t-142 48z" />
    <glyph glyph-name="braceright.case" horiz-adv-x="843" 
d="M703 801v-203q-91 0 -143 -48t-52 -133v-286q0 -136 -98.5 -228.5t-248.5 -92.5h-119v204h86q63 0 103.5 40.5t40.5 103.5v301q0 191 183 241q-183 48 -183 241v300q0 63 -40.5 104t-103.5 41h-86v204h119q150 0 248.5 -92.5t98.5 -229.5v-285q0 -86 52 -134t143 -48z
" />
    <glyph glyph-name="exclamdown.case" horiz-adv-x="622" 
d="M193 0l35 994h166l35 -994h-236zM162 1279q0 62 42.5 103.5t106.5 41.5q63 0 105.5 -41.5t42.5 -103.5t-42.5 -103.5t-105.5 -41.5q-64 0 -106.5 41.5t-42.5 103.5z" />
    <glyph glyph-name="guillemotleft.case" horiz-adv-x="1280" 
d="M99 592v157l510 332l69 -116l-364 -295l364 -294l-69 -117zM598 592v157l510 332l69 -116l-364 -295l364 -294l-69 -117z" />
    <glyph glyph-name="periodcentered.case" horiz-adv-x="598" 
d="M152 700q0 62 42 104t105 42t105 -42t42 -104t-42 -103.5t-105 -41.5t-105 41.5t-42 103.5z" />
    <glyph glyph-name="guillemotright.case" horiz-adv-x="1280" 
d="M1181 749v-157l-511 -333l-68 117l364 294l-364 295l68 116zM682 749v-157l-511 -333l-68 117l364 294l-364 295l68 116z" />
    <glyph glyph-name="questiondown.case" horiz-adv-x="1101" 
d="M720 1279q0 -62 -42.5 -103.5t-106.5 -41.5q-63 0 -105.5 41.5t-42.5 103.5t42.5 103.5t105.5 41.5q64 0 106.5 -41.5t42.5 -103.5zM458 991h235q0 -177 -44.5 -262t-185.5 -168q-78 -46 -109.5 -91t-31.5 -113q0 -76 60.5 -125.5t157.5 -49.5q109 0 176.5 63t67.5 170
h234q0 -138 -68 -239.5t-177 -150.5t-242 -49q-198 0 -323.5 111t-125.5 277q0 117 56 201.5t193 161.5q82 46 104.5 99.5t22.5 164.5z" />
    <glyph glyph-name="endash.case" horiz-adv-x="1000" 
d="M1000 605h-1000v213h1000v-213z" />
    <glyph glyph-name="emdash.case" horiz-adv-x="2000" 
d="M2000 605h-2000v213h2000v-213z" />
    <glyph glyph-name="bullet.case" horiz-adv-x="800" 
d="M136 712q0 108 77.5 185t186.5 77t186.5 -77t77.5 -185q0 -109 -77.5 -185.5t-186.5 -76.5q-110 0 -187 76.5t-77 185.5z" />
    <glyph glyph-name="guilsinglleft.case" horiz-adv-x="782" 
d="M99 592v157l510 332l69 -116l-364 -295l364 -294l-69 -117z" />
    <glyph glyph-name="guilsinglright.case" horiz-adv-x="782" 
d="M682 749v-157l-510 -333l-69 117l364 294l-364 295l69 116z" />
    <glyph glyph-name="zero.numerator" 
d="M56 926q0 220 89 359t254 139t254 -139t89 -359t-89 -359t-254 -139t-254 139t-89 359zM249 926q0 -152 37.5 -241.5t112.5 -89.5t112.5 89t37.5 242t-37.5 241.5t-112.5 88.5t-112.5 -89t-37.5 -241z" />
    <glyph glyph-name="one.numerator" 
d="M385 1400h166v-948h-196v754l-154 -84l-74 140z" />
    <glyph glyph-name="two.numerator" 
d="M570 854l-222 -241h347v-161h-603v143l326 357q50 54 71 96.5t21 88.5q0 55 -35 90t-90 35q-57 0 -96.5 -43t-47.5 -116h-180q10 150 99 235.5t226 85.5q139 0 229 -78t90 -204q0 -77 -32 -143.5t-103 -144.5z" />
    <glyph glyph-name="three.numerator" 
d="M522 751q0 68 -46 114.5t-115 46.5q-28 0 -58 -11l-75 92l209 245h-333v162h569v-149l-192 -219q107 -24 172 -105.5t65 -191.5q0 -130 -97 -218.5t-253 -88.5q-94 0 -171.5 48.5t-132.5 134.5l100 88q47 -56 93.5 -83.5t103.5 -27.5q69 0 115 47t46 116z" />
    <glyph glyph-name="four.numerator" 
d="M36 629v149l422 622h182v-607h104v-164h-104v-177h-192v177h-412zM237 791h211v319z" />
    <glyph glyph-name="five.numerator" 
d="M374 428q-196 0 -315 184l109 97q44 -60 90.5 -90t108.5 -30q68 0 114.5 46.5t46.5 115.5t-45.5 115.5t-114.5 46.5q-36 0 -69.5 -18.5t-52.5 -47.5l-143 18l59 535h528v-162h-351l-24 -191q39 18 88 18q133 0 227 -86.5t94 -226.5q0 -143 -96 -233.5t-254 -90.5z" />
    <glyph glyph-name="six.numerator" 
d="M615 1400l-216 -335h13q133 0 235 -88t102 -225q0 -139 -104 -231.5t-244 -92.5q-144 0 -248 92t-104 232q0 94 48 168l312 480h206zM556 752q0 69 -46 116t-112 47q-65 0 -111 -47t-46 -116t46 -116.5t111 -47.5q66 0 112 47.5t46 116.5z" />
    <glyph glyph-name="seven.numerator" 
d="M90 1400h622v-142l-336 -806h-216l333 785h-403v163z" />
    <glyph glyph-name="eight.numerator" 
d="M248 737q0 -63 43.5 -107t107.5 -44t108 44t44 107t-44 107t-108 44t-107.5 -44t-43.5 -107zM697 1158q0 -57 -28.5 -106t-76.5 -80q70 -34 111 -98.5t41 -139.5q0 -131 -99.5 -218.5t-245.5 -87.5t-245 87.5t-99 218.5q0 75 41 139.5t110 98.5q-48 31 -76.5 80.5
t-28.5 105.5q0 112 84.5 189t213.5 77t213.5 -77t84.5 -189zM287 1156q0 -47 32 -80t80 -33t80 33t32 80t-32 78.5t-80 31.5t-80 -31.5t-32 -78.5z" />
    <glyph glyph-name="nine.numerator" 
d="M183 452l217 334q-6 -1 -17 -1q-134 0 -233.5 88t-99.5 227t104 231.5t244 92.5q144 0 248 -92.5t104 -231.5q0 -94 -49 -169l-311 -479h-207zM243 1099q0 -68 46 -115t112 -47q65 0 110.5 47t45.5 115q0 70 -45.5 117t-110.5 47q-66 0 -112 -47t-46 -117z" />
    <glyph glyph-name="zero.denominator" 
d="M56 474q0 220 89 359t254 139t254 -139t89 -359t-89 -359t-254 -139t-254 139t-89 359zM249 474q0 -152 37.5 -241.5t112.5 -89.5t112.5 89t37.5 242t-37.5 241.5t-112.5 88.5t-112.5 -89t-37.5 -241z" />
    <glyph glyph-name="one.denominator" 
d="M385 948h166v-948h-196v754l-154 -84l-74 140z" />
    <glyph glyph-name="two.denominator" 
d="M570 402l-222 -241h347v-161h-603v143l326 357q50 54 71 96.5t21 88.5q0 55 -35 90t-90 35q-57 0 -96.5 -43t-47.5 -116h-180q10 150 99 235.5t226 85.5q139 0 229 -78t90 -204q0 -77 -32 -143.5t-103 -144.5z" />
    <glyph glyph-name="three.denominator" 
d="M522 299q0 68 -46 114.5t-115 46.5q-28 0 -58 -11l-75 92l209 245h-333v162h569v-149l-192 -219q107 -24 172 -105.5t65 -191.5q0 -130 -97 -218.5t-253 -88.5q-94 0 -171.5 48.5t-132.5 134.5l100 88q47 -56 93.5 -83.5t103.5 -27.5q69 0 115 47t46 116z" />
    <glyph glyph-name="four.denominator" 
d="M36 177v149l422 622h182v-607h104v-164h-104v-177h-192v177h-412zM237 339h211v319z" />
    <glyph glyph-name="five.denominator" 
d="M374 -24q-196 0 -315 184l109 97q44 -60 90.5 -90t108.5 -30q68 0 114.5 46.5t46.5 115.5t-45.5 115.5t-114.5 46.5q-36 0 -69.5 -18.5t-52.5 -47.5l-143 18l59 535h528v-162h-351l-24 -191q39 18 88 18q133 0 227 -86.5t94 -226.5q0 -143 -96 -233.5t-254 -90.5z" />
    <glyph glyph-name="six.denominator" 
d="M615 948l-216 -335h13q133 0 235 -88t102 -225q0 -139 -104 -231.5t-244 -92.5q-144 0 -248 92t-104 232q0 94 48 168l312 480h206zM556 300q0 69 -46 116t-112 47q-65 0 -111 -47t-46 -116t46 -116.5t111 -47.5q66 0 112 47.5t46 116.5z" />
    <glyph glyph-name="seven.denominator" 
d="M90 948h622v-142l-336 -806h-216l333 785h-403v163z" />
    <glyph glyph-name="eight.denominator" 
d="M248 285q0 -63 43.5 -107t107.5 -44t108 44t44 107t-44 107t-108 44t-107.5 -44t-43.5 -107zM697 706q0 -57 -28.5 -106t-76.5 -80q70 -34 111 -98.5t41 -139.5q0 -131 -99.5 -218.5t-245.5 -87.5t-245 87.5t-99 218.5q0 75 41 139.5t110 98.5q-48 31 -76.5 80.5
t-28.5 105.5q0 112 84.5 189t213.5 77t213.5 -77t84.5 -189zM287 704q0 -47 32 -80t80 -33t80 33t32 80t-32 78.5t-80 31.5t-80 -31.5t-32 -78.5z" />
    <glyph glyph-name="nine.denominator" 
d="M183 0l217 334q-6 -1 -17 -1q-134 0 -233.5 88t-99.5 227t104 231.5t244 92.5q144 0 248 -92.5t104 -231.5q0 -94 -49 -169l-311 -479h-207zM243 647q0 -68 46 -115t112 -47q65 0 110.5 47t45.5 115q0 70 -45.5 117t-110.5 47q-66 0 -112 -47t-46 -117z" />
    <glyph glyph-name="dollar_osf" horiz-adv-x="1046" 
d="M98 207l110 123q127 -137 259 -158v339q-176 40 -265 130.5t-89 222.5q0 133 96 223.5t258 103.5v157h144v-161q141 -23 229.5 -112.5t109.5 -232.5h-223q-5 47 -36 87t-80 59v-301q186 -43 276.5 -131t90.5 -228q0 -138 -98.5 -233t-268.5 -113v-162h-144v161
q-217 25 -369 226zM751 331q0 92 -140 142v-294q65 16 102.5 56t37.5 96zM340 860q0 -84 127 -133v266q-58 -13 -92.5 -48.5t-34.5 -84.5z" />
    <glyph glyph-name="zero_osf" horiz-adv-x="995" 
d="M61 537q0 254 115 407.5t321 153.5t321.5 -154t115.5 -407q0 -254 -115.5 -407.5t-321.5 -153.5t-321 153.5t-115 407.5zM288 537q0 -171 55 -267.5t154 -96.5q100 0 154.5 96.5t54.5 267.5t-54.5 267t-154.5 96q-99 0 -154 -96.5t-55 -266.5z" />
    <glyph glyph-name="one_osf" horiz-adv-x="851" 
d="M399 1074h201v-1074h-231v846l-223 -110l-85 173z" />
    </font>
</defs>
</svg>
