<?xml version="1.0" standalone="no"?>
<!DOCTYPE svg PUBLIC "-//W3C//DTD SVG 1.1//EN" "http://www.w3.org/Graphics/SVG/1.1/DTD/svg11.dtd" >
<svg xmlns="http://www.w3.org/2000/svg" xmlns:xlink="http://www.w3.org/1999/xlink" version="1.1">
<metadata>
Created by FontForge 20170731 at Mon Nov  7 11:45:12 2022
 By Aleksey,,,
Copyright (c) 2017 by Hyun-Seung Lee. All rights reserved.
</metadata>
<defs>
<font id="CarosMedium" horiz-adv-x="818" >
  <font-face 
    font-family="Caros Medium"
    font-weight="500"
    font-stretch="normal"
    units-per-em="2048"
    panose-1="2 11 6 3 3 3 2 2 2 4"
    ascent="1638"
    descent="-410"
    x-height="1061"
    cap-height="1434"
    bbox="-792 -532 2557 2066"
    underline-thickness="49"
    underline-position="-472"
    unicode-range="U+0009-FB04"
  />
<missing-glyph horiz-adv-x="1024" 
d="M901 0h-778v1536h778v-1536zM316 184h392v1167h-392v-1167z" />
    <glyph glyph-name="ff" unicode="ff" horiz-adv-x="1483" 
d="M926 1061v62q0 188 98.5 280t299.5 92q48 0 115 -9v-193q-45 5 -94 5q-99 0 -142.5 -43.5t-43.5 -134.5v-59h280v-205h-280v-856h-233v856h-476v-856h-234v856h-171v205h171v62q0 188 100.5 280t308.5 92q107 0 205 -40l-44 -180q-72 23 -149 23q-99 0 -143 -43.5
t-44 -134.5v-59h476z" />
    <glyph glyph-name="fi" unicode="fi" horiz-adv-x="1317" 
d="M216 1061v62q0 188 99 280t301 92q63 0 121 -9v-193q-48 5 -99 5q-100 0 -144 -43.5t-44 -134.5v-59h709v-1061h-233v856h-476v-856h-234v856h-181v205h181zM898 1350q0 61 41.5 102t102.5 41q62 0 104 -41t42 -102q0 -60 -42.5 -101.5t-103.5 -41.5t-102.5 41.5
t-41.5 101.5z" />
    <glyph glyph-name="fl" unicode="fl" horiz-adv-x="1311" 
d="M921 0v1190q-116 108 -286 108q-99 0 -142 -43.5t-43 -134.5v-59h300v-205h-300v-856h-234v856h-197v205h197v62q0 188 98.5 280t299.5 92q85 0 166 -29.5t141 -84.5v114h233v-1495h-233z" />
    <glyph glyph-name="ffi" unicode="ffi" horiz-adv-x="2027" 
d="M926 1061v62q0 188 99 280t301 92q63 0 121 -9v-193q-48 5 -99 5q-100 0 -144.5 -43.5t-44.5 -134.5v-59h710v-1061h-234v856h-476v-856h-233v856h-476v-856h-234v856h-171v205h171v62q0 188 100.5 280t308.5 92q107 0 205 -40l-44 -180q-72 23 -149 23q-99 0 -143 -43.5
t-44 -134.5v-59h476zM1608 1350q0 61 41.5 102t102.5 41q62 0 103.5 -41t41.5 -102q0 -60 -42 -101.5t-103 -41.5t-102.5 41.5t-41.5 101.5z" />
    <glyph glyph-name="ffl" unicode="ffl" horiz-adv-x="2021" 
d="M1630 0v1190q-123 108 -285 108q-99 0 -142.5 -43.5t-43.5 -134.5v-59h300v-205h-300v-856h-233v856h-476v-856h-234v856h-171v205h171v62q0 188 100.5 280t308.5 92q107 0 205 -40l-44 -180q-72 23 -149 23q-99 0 -143 -43.5t-44 -134.5v-59h476v62q0 188 98.5 280
t299.5 92q84 0 165 -29.5t141 -84.5v114h234v-1495h-234z" />
    <glyph glyph-name=".notdef" horiz-adv-x="1024" 
d="M901 0h-778v1536h778v-1536zM316 184h392v1167h-392v-1167z" />
    <glyph glyph-name=".null" horiz-adv-x="0" 
 />
    <glyph glyph-name=".null" horiz-adv-x="0" 
 />
    <glyph glyph-name="nonmarkingreturn" horiz-adv-x="682" 
 />
    <glyph glyph-name="CR" unicode="&#x9;" horiz-adv-x="0" 
 />
    <glyph glyph-name="space" unicode=" " horiz-adv-x="612" 
 />
    <glyph glyph-name="exclam" unicode="!" horiz-adv-x="636" 
d="M233 416l-35 1018h241l-36 -1018h-170zM166 124q0 63 43.5 105.5t108.5 42.5t108.5 -42.5t43.5 -105.5q0 -64 -43.5 -106.5t-108.5 -42.5t-108.5 42.5t-43.5 106.5z" />
    <glyph glyph-name="quotedbl" unicode="&#x22;" horiz-adv-x="998" 
d="M237 936l-36 498h232l-36 -498h-160zM600 936l-36 498h233l-36 -498h-161z" />
    <glyph glyph-name="numbersign" unicode="#" horiz-adv-x="1410" 
d="M73 539h230l61 352h-216v190h248l61 353h226l-61 -353h290l61 353h226l-61 -353h199v-190h-231l-62 -352h218v-192h-249l-60 -347h-226l59 347h-289l-60 -347h-226l59 347h-197v192zM590 891l-62 -352h291l61 352h-290z" />
    <glyph glyph-name="dollar" unicode="$" horiz-adv-x="1213" 
d="M123 248l114 122q146 -158 309 -181v457q-204 47 -310 152.5t-106 258.5q0 165 115 275t301 124v186h157v-193q167 -26 276.5 -131t120.5 -281h-245q-5 74 -45.5 124t-106.5 72v-403q223 -56 326 -163.5t103 -271.5q0 -167 -115 -279.5t-314 -134.5v-190h-157v190
q-248 34 -423 267zM887 390q0 143 -184 212v-406q85 19 134.5 70.5t49.5 123.5zM375 1074q0 -130 171 -197v366q-77 -13 -124 -58.5t-47 -110.5z" />
    <glyph glyph-name="percent" unicode="%" horiz-adv-x="1867" 
d="M485 48l730 1419l161 -87l-730 -1419zM90 1084q0 152 109 258t272 106t272.5 -106t109.5 -258t-109 -257.5t-273 -105.5q-163 0 -272 105.5t-109 257.5zM304 1084q0 -71 47 -123t120 -52t120 52t47 123t-47 122.5t-120 51.5t-120 -51.5t-47 -122.5zM1015 349
q0 152 109 258t272 106t272.5 -106t109.5 -258t-109 -257.5t-273 -105.5q-163 0 -272 105.5t-109 257.5zM1229 349q0 -71 47 -123t120 -52t120 52t47 123t-47 122.5t-120 51.5t-120 -51.5t-47 -122.5z" />
    <glyph glyph-name="ampersand" unicode="&#x26;" horiz-adv-x="1511" 
d="M1053 1087h-227q-19 83 -70 132.5t-127 49.5q-73 0 -124 -47.5t-51 -112.5q0 -58 43.5 -123t151.5 -165l376 -349q51 97 74 265l216 -19q-14 -221 -121 -407l196 -182l-147 -155l-189 174q-186 -173 -440 -173q-214 0 -355.5 117t-141.5 291q0 126 64.5 225.5
t194.5 182.5q-83 89 -116.5 161t-33.5 155q0 150 118 250.5t284 100.5q171 0 284.5 -95.5t140.5 -275.5zM614 173q159 0 285 122l-379 353q-171 -109 -171 -250q0 -95 74 -160t191 -65z" />
    <glyph glyph-name="quotesingle" unicode="'" horiz-adv-x="640" 
d="M240 936l-36 498h232l-36 -498h-160z" />
    <glyph glyph-name="parenleft" unicode="(" horiz-adv-x="863" 
d="M233 624q0 274 100.5 523.5t281.5 430.5l164 -121q-147 -166 -225.5 -383t-78.5 -450q0 -232 78.5 -449.5t225.5 -383.5l-164 -121q-181 181 -281.5 430.5t-100.5 523.5z" />
    <glyph glyph-name="parenright" unicode=")" horiz-adv-x="863" 
d="M630 624q0 -273 -100.5 -522.5t-281.5 -431.5l-165 121q147 166 226 383.5t79 449.5q0 233 -79 450t-226 383l165 121q181 -182 281.5 -431.5t100.5 -522.5z" />
    <glyph glyph-name="asterisk" unicode="*" horiz-adv-x="1144" 
d="M128 823l98 171l254 -154l-7 296h199l-8 -296l255 154l97 -171l-263 -144l263 -143l-97 -172l-255 155l8 -297h-199l7 297l-254 -155l-98 172l263 143z" />
    <glyph glyph-name="plus" unicode="+" horiz-adv-x="1184" 
d="M476 212v367h-355v202h355v366h233v-366h354v-202h-354v-367h-233z" />
    <glyph glyph-name="comma" unicode="," horiz-adv-x="612" 
d="M156 136q0 54 43 95.5t109 41.5q65 0 107.5 -45.5t42.5 -123.5q0 -131 -73.5 -235.5t-219.5 -167.5l-65 82q118 81 132.5 139t-50.5 138q-26 35 -26 76z" />
    <glyph glyph-name="hyphen" unicode="-" horiz-adv-x="835" 
d="M715 570h-594v218h594v-218z" />
    <glyph glyph-name="period" unicode="." horiz-adv-x="612" 
d="M156 124q0 64 43 106.5t107 42.5q65 0 108 -42.5t43 -106.5q0 -63 -43.5 -106t-107.5 -43t-107 43t-43 106z" />
    <glyph glyph-name="slash" unicode="/" horiz-adv-x="957" 
d="M928 1480l-687 -1792l-212 82l688 1792z" />
    <glyph glyph-name="zero" unicode="0" horiz-adv-x="1225" 
d="M119 717q0 214 53 378.5t166 263.5t274 99t274.5 -99t167 -263.5t53.5 -378.5t-53.5 -379t-167 -264t-274.5 -99t-274 99t-166 263.5t-53 379.5zM354 717q0 -245 64 -385.5t194 -140.5t194 140.5t64 385.5q0 244 -64 384t-194 140t-194 -140t-64 -384z" />
    <glyph glyph-name="one" unicode="1" horiz-adv-x="1225" 
d="M588 1434h216v-1434h-239v1200l-252 -137l-96 171z" />
    <glyph glyph-name="two" unicode="2" horiz-adv-x="1225" 
d="M870 614l-371 -408h559v-206h-869v194l496 543q80 89 115 157.5t35 140.5q0 95 -63 155.5t-161 60.5q-94 0 -161.5 -63.5t-80.5 -168.5h-223q8 123 65.5 222t162.5 158t239 59q199 0 329 -114.5t130 -299.5q0 -116 -47.5 -214.5t-154.5 -215.5z" />
    <glyph glyph-name="three" unicode="3" horiz-adv-x="1225" 
d="M547 180q120 0 200 79.5t80 193.5q0 112 -80.5 191.5t-199.5 79.5q-35 0 -76 -12l-93 116l338 398h-534v208h816v-207l-311 -356q172 -23 276 -146.5t104 -296.5q0 -86 -36.5 -167.5t-101.5 -145t-162.5 -102t-210.5 -38.5q-265 0 -431 263l128 109q121 -167 294 -167z
" />
    <glyph glyph-name="four" unicode="4" horiz-adv-x="1225" 
d="M78 275v208l637 951h232v-946h161v-213h-161v-275h-236v275h-633zM322 486h389v581z" />
    <glyph glyph-name="five" unicode="5" horiz-adv-x="1225" 
d="M577 -25q-136 0 -246 68.5t-186 192.5l131 109q122 -164 289 -164q120 0 200 78t80 194t-80 193.5t-200 77.5q-65 0 -120 -27t-86 -71l-169 21l89 787h751v-208h-538l-43 -359q71 49 176 49q124 0 228 -55.5t167 -162t63 -243.5q0 -212 -138.5 -346t-367.5 -134z" />
    <glyph glyph-name="six" unicode="6" horiz-adv-x="1225" 
d="M898 1434l-343 -531q32 17 75 17q128 0 238.5 -55t180.5 -163.5t70 -248.5q0 -136 -71 -246.5t-187 -171t-249 -60.5q-135 0 -251.5 60.5t-187.5 171t-71 246.5q0 138 71 250l472 731h253zM884 454q0 116 -79.5 195.5t-193.5 79.5q-115 0 -194 -79.5t-79 -195.5
t79 -195.5t194 -79.5q114 0 193.5 79.5t79.5 195.5z" />
    <glyph glyph-name="seven" unicode="7" horiz-adv-x="1225" 
d="M169 1434h896v-196l-516 -1238h-262l514 1225h-632v209z" />
    <glyph glyph-name="eight" unicode="8" horiz-adv-x="1225" 
d="M347 429q0 -105 76.5 -179t188.5 -74t189 74t77 179t-77 179t-189 74t-188.5 -74t-76.5 -179zM1041 1074q0 -92 -52 -172t-132 -116q119 -42 187 -140.5t68 -222.5q0 -190 -144 -319t-356 -129t-355.5 129t-143.5 319q0 124 68.5 222.5t186.5 140.5q-80 36 -132 116
t-52 172q0 162 121.5 273t306.5 111t307 -111t122 -273zM410 1068q0 -78 58.5 -135t143.5 -57t144 57t59 135t-59 133.5t-144 55.5t-143.5 -55.5t-58.5 -133.5z" />
    <glyph glyph-name="nine" unicode="9" horiz-adv-x="1225" 
d="M328 0l343 529q-30 -16 -76 -16q-95 0 -183 32.5t-156.5 91.5t-109.5 148.5t-41 194.5q0 136 71 246.5t187 171t249 60.5q135 0 252 -60.5t188 -171t71 -246.5q0 -140 -71 -250l-471 -730h-253zM341 980q0 -117 79 -196t194 -79q114 0 194 79t80 196q0 116 -79.5 195
t-194.5 79q-114 0 -193.5 -79t-79.5 -195z" />
    <glyph glyph-name="colon" unicode=":" horiz-adv-x="612" 
d="M156 124q0 64 43 106.5t107 42.5q65 0 108 -42.5t43 -106.5q0 -63 -43.5 -106t-107.5 -43t-107 43t-43 106zM156 936q0 64 43 106.5t107 42.5q65 0 108 -42.5t43 -106.5q0 -63 -43.5 -106t-107.5 -43t-107 43t-43 106z" />
    <glyph glyph-name="semicolon" unicode=";" horiz-adv-x="612" 
d="M156 936q0 64 43 106.5t107 42.5q65 0 108 -42.5t43 -106.5q0 -63 -43.5 -106t-107.5 -43t-107 43t-43 106zM157 136q0 54 42.5 95.5t109.5 41.5q65 0 107.5 -45.5t42.5 -123.5q0 -131 -74 -235.5t-219 -167.5l-66 82q118 81 132.5 139t-50.5 138q-25 33 -25 76z" />
    <glyph glyph-name="less" unicode="&#x3c;" horiz-adv-x="1184" 
d="M133 589v179l815 463l90 -158l-620 -394l620 -395l-90 -158z" />
    <glyph glyph-name="equal" unicode="=" horiz-adv-x="1184" 
d="M1063 811h-942v202h942v-202zM1063 346h-942v202h942v-202z" />
    <glyph glyph-name="greater" unicode="&#x3e;" horiz-adv-x="1184" 
d="M1054 768v-179l-816 -463l-91 158l622 395l-622 394l91 158z" />
    <glyph glyph-name="question" unicode="?" horiz-adv-x="1127" 
d="M389 124q0 63 43.5 105.5t108.5 42.5t108.5 -42.5t43.5 -105.5q0 -64 -43.5 -106.5t-108.5 -42.5t-108.5 42.5t-43.5 106.5zM657 419h-240q0 182 45.5 268.5t189.5 171.5q79 47 112 93.5t33 115.5q0 77 -63 127.5t-162 50.5q-111 0 -180 -64t-69 -174h-240
q0 107 40.5 193.5t109.5 141.5t158.5 84.5t190.5 29.5q203 0 331 -113t128 -284q0 -126 -55.5 -209t-199.5 -163q-83 -47 -106 -101.5t-23 -167.5z" />
    <glyph glyph-name="at" unicode="@" horiz-adv-x="1977" 
d="M535 550q0 184 115 311.5t287 127.5q158 0 267 -117v97h197v-561q0 -56 28 -90t75 -34q90 0 152 85.5t62 235.5q0 142 -59 270t-158 219.5t-234 145t-282 53.5q-148 0 -282.5 -57t-232 -154t-155 -232.5t-57.5 -286.5q0 -203 97.5 -370t270.5 -263.5t385 -96.5
q272 0 491 155l74 -152q-268 -168 -565 -168q-264 0 -478.5 116.5t-336.5 321.5t-122 457q0 188 72 355t194.5 285t290.5 186.5t354 68.5q258 0 469 -112t330.5 -307.5t119.5 -434.5q0 -222 -118.5 -357t-305.5 -135q-79 0 -148.5 38t-104.5 102q-109 -140 -290 -140
q-172 0 -287 127t-115 311zM733 550q0 -114 67.5 -188.5t168.5 -74.5t167.5 74.5t66.5 188.5t-66.5 188.5t-167.5 74.5t-168.5 -74.5t-67.5 -188.5z" />
    <glyph glyph-name="A" unicode="A" horiz-adv-x="1404" 
d="M568 1434h269l526 -1434h-259l-120 346h-564l-120 -346h-259zM486 548h433l-217 623z" />
    <glyph glyph-name="B" unicode="B" horiz-adv-x="1272" 
d="M752 0h-588v1434h522q194 0 305 -104t111 -280q0 -107 -49.5 -181.5t-133.5 -107.5q113 -28 188 -121t75 -227q0 -184 -117.5 -298.5t-312.5 -114.5zM863 1033q0 93 -53.5 145t-141.5 52h-265v-391h265q88 0 141.5 51t53.5 143zM938 423q0 100 -58.5 159.5t-153.5 59.5
h-323v-438h323q94 0 153 60t59 159z" />
    <glyph glyph-name="C" unicode="C" horiz-adv-x="1552" 
d="M1306 471l146 -106q-216 -390 -648 -390q-151 0 -284.5 56.5t-230 154t-152.5 236t-56 295.5t56 295t152.5 235.5t230 154t284.5 56.5q256 0 433 -137.5t234 -377.5h-252q-43 145 -155 224t-257 79q-96 0 -183.5 -37.5t-153.5 -104.5t-105 -167.5t-39 -219.5t40 -220
t107.5 -168t156 -104.5t186.5 -37.5q312 0 490 284z" />
    <glyph glyph-name="D" unicode="D" horiz-adv-x="1460" 
d="M164 1434h503q325 0 518.5 -194.5t193.5 -522.5t-193 -522.5t-519 -194.5h-503v1434zM662 1222h-256v-1010h256q217 0 345 129.5t128 375.5q0 245 -128 375t-345 130z" />
    <glyph glyph-name="E" unicode="E" horiz-adv-x="1164" 
d="M164 0v1434h870v-208h-628v-403h577v-206h-577v-410h647v-207h-889z" />
    <glyph glyph-name="F" unicode="F" horiz-adv-x="1092" 
d="M164 0v1434h850v-209h-608v-408h557v-208h-557v-609h-242z" />
    <glyph glyph-name="G" unicode="G" horiz-adv-x="1580" 
d="M779 744h720v-47q0 -169 -51 -305.5t-141.5 -227.5t-216 -140t-274.5 -49q-147 0 -282.5 57.5t-235 155.5t-158.5 236t-59 293q0 157 58 295.5t156 235.5t230.5 153.5t278.5 56.5q263 0 439.5 -134.5t236.5 -355.5h-260q-51 131 -158 204t-255 73q-94 0 -180.5 -37.5
t-153.5 -104t-107 -167t-40 -219.5q0 -116 40.5 -216.5t108.5 -168.5t157.5 -106.5t185.5 -38.5q164 0 282.5 101t136.5 259h-458v197z" />
    <glyph glyph-name="H" unicode="H" horiz-adv-x="1437" 
d="M164 0v1434h242v-610h625v610h242v-1434h-242v615h-625v-615h-242z" />
    <glyph glyph-name="I" unicode="I" horiz-adv-x="602" 
d="M180 1434h242v-1434h-242v1434z" />
    <glyph glyph-name="J" unicode="J" horiz-adv-x="941" 
d="M548 454v980h242v-985q0 -238 -113 -356t-322 -118q-77 0 -159.5 25.5t-144.5 71.5l62 170q100 -55 208 -55q227 0 227 267z" />
    <glyph glyph-name="K" unicode="K" horiz-adv-x="1249" 
d="M900 1433h242q0 -567 -300 -731l416 -702h-276l-375 637q-36 -4 -81 -4h-120v-633h-242v1434h242v-592h76q147 0 236.5 56t135.5 186.5t46 348.5z" />
    <glyph glyph-name="L" unicode="L" horiz-adv-x="1058" 
d="M164 0v1434h242v-1225h611v-209h-853z" />
    <glyph glyph-name="M" unicode="M" horiz-adv-x="1841" 
d="M981 195h-122l-465 811v-1006h-230v1434h238l519 -914l518 914h237v-1434h-230v1006z" />
    <glyph glyph-name="N" unicode="N" horiz-adv-x="1439" 
d="M164 0v1434h240l642 -1033v1033h230v-1434h-241l-641 1032v-1032h-230z" />
    <glyph glyph-name="O" unicode="O" horiz-adv-x="1684" 
d="M326 717q0 -147 68.5 -269t187 -191.5t260.5 -69.5t261 69.5t187.5 191.5t68.5 269q0 223 -150 376t-367 153t-366.5 -153t-149.5 -376zM81 717q0 206 100 376t274.5 267.5t386.5 97.5q159 0 300 -57.5t242.5 -156t160.5 -236t59 -291.5t-59 -291.5t-160.5 -236.5
t-242.5 -156.5t-300 -57.5t-300 57.5t-242 156.5t-160 236.5t-59 291.5z" />
    <glyph glyph-name="P" unicode="P" horiz-adv-x="1213" 
d="M646 520h-240v-520h-242v1434h482q227 0 362 -125.5t135 -331.5q0 -207 -135 -332t-362 -125zM900 977q0 117 -70.5 185t-198.5 68h-225v-507h225q128 0 198.5 68t70.5 186z" />
    <glyph glyph-name="Q" unicode="Q" horiz-adv-x="1684" 
d="M81 717q0 206 100 376t274.5 267.5t386.5 97.5q159 0 300 -57.5t242.5 -156t160.5 -236t59 -291.5q0 -146 -52 -275.5t-146 -230.5l200 -216l-159 -142l-210 226q-180 -104 -395 -104q-159 0 -300 57.5t-242 156.5t-160 236.5t-59 291.5zM326 717q0 -147 68.5 -269
t187 -191.5t260.5 -69.5q128 0 241 61l-222 242l159 143l226 -248q113 142 113 332q0 223 -150 376t-367 153t-366.5 -153t-149.5 -376z" />
    <glyph glyph-name="R" unicode="R" horiz-adv-x="1242" 
d="M164 1434h482q228 0 362.5 -124.5t134.5 -330.5q0 -166 -89 -280t-248 -152l368 -547h-266l-350 525h-154v-525h-240v1434zM632 1230h-228v-505h228q127 0 197.5 68t70.5 184q0 117 -70.5 185t-197.5 68z" />
    <glyph glyph-name="S" unicode="S" horiz-adv-x="1213" 
d="M123 248l114 122q171 -186 372 -186q123 0 200.5 56.5t77.5 149.5q0 90 -72 152.5t-244 98.5q-217 46 -329 152t-112 264q0 178 130 289.5t336 111.5q98 0 185 -26t156.5 -76.5t112.5 -132.5t50 -186h-245q-7 101 -75 156.5t-174 55.5q-101 0 -166 -48.5t-65 -126.5
q0 -86 71.5 -143t229.5 -93q238 -54 347 -163.5t109 -279.5q0 -186 -140 -303t-376 -117q-140 0 -267.5 71t-225.5 202z" />
    <glyph glyph-name="T" unicode="T" horiz-adv-x="1132" 
d="M445 0v1225h-386v209h1013v-209h-385v-1225h-242z" />
    <glyph glyph-name="U" unicode="U" horiz-adv-x="1364" 
d="M1212 1434v-938q0 -153 -71 -272t-191 -183t-268 -64t-268 64t-191 183t-71 272v938h241v-955q0 -129 82.5 -209.5t206.5 -80.5t206.5 80.5t82.5 209.5v955h241z" />
    <glyph glyph-name="V" unicode="V" horiz-adv-x="1403" 
d="M297 1434l404 -1139l406 1139h256l-527 -1434h-269l-526 1434h256z" />
    <glyph glyph-name="W" unicode="W" horiz-adv-x="1998" 
d="M880 1434h239l303 -1091l283 1091h253l-405 -1434h-242l-312 1103l-312 -1103h-242l-404 1434h253l281 -1091z" />
    <glyph glyph-name="X" unicode="X" horiz-adv-x="1303" 
d="M1271 0h-264l-356 558l-355 -558h-263l472 730l-453 704h263l336 -532l336 532h264l-453 -704z" />
    <glyph glyph-name="Y" unicode="Y" horiz-adv-x="1325" 
d="M301 1434l362 -619l360 619h261l-501 -851v-583h-241v583l-501 851h260z" />
    <glyph glyph-name="Z" unicode="Z" horiz-adv-x="1239" 
d="M120 204l700 1021h-669v209h958v-204l-700 -1021h720v-209h-1009v204z" />
    <glyph glyph-name="bracketleft" unicode="[" horiz-adv-x="863" 
d="M228 -287v1823h590v-209h-348v-1405h348v-209h-590z" />
    <glyph glyph-name="backslash" unicode="\" horiz-adv-x="957" 
d="M716 -312l-687 1792l211 82l688 -1792z" />
    <glyph glyph-name="bracketright" unicode="]" horiz-adv-x="863" 
d="M635 1536v-1823h-590v209h348v1405h-348v209h590z" />
    <glyph glyph-name="asciicircum" unicode="^" horiz-adv-x="1266" 
d="M521 1434h223l292 -402l-131 -96l-272 301l-273 -301l-131 96z" />
    <glyph glyph-name="underscore" unicode="_" horiz-adv-x="1024" 
d="M0 -372v188h1024v-188h-1024z" />
    <glyph glyph-name="grave" unicode="`" horiz-adv-x="861" 
d="M346 1547l251 -343l-109 -85l-292 307z" />
    <glyph glyph-name="a" unicode="a" horiz-adv-x="1337" 
d="M71 530q0 153 66.5 280t185.5 201t266 74q228 0 373 -169v145h232v-1061h-232v143q-69 -79 -164.5 -123.5t-208.5 -44.5q-147 0 -266 74t-185.5 201t-66.5 280zM307 530q0 -146 94.5 -246.5t233.5 -100.5t233 100.5t94 246.5t-93.5 247t-233.5 101t-234 -101t-94 -247z
" />
    <glyph glyph-name="b" unicode="b" horiz-adv-x="1355" 
d="M1266 530q0 -153 -66 -280t-185 -201t-266 -74q-114 0 -210 44.5t-164 123.5v-143h-233v1495h233v-579q68 80 163.5 124.5t210.5 44.5q110 0 206.5 -43.5t164.5 -118t107 -177t39 -216.5zM1030 530q0 146 -94 247t-234 101t-233.5 -101t-93.5 -247t94 -246.5t233 -100.5
q138 0 233 100.5t95 246.5z" />
    <glyph glyph-name="c" unicode="c" horiz-adv-x="1209" 
d="M979 359l138 -94q-77 -143 -198 -216.5t-277 -73.5t-287 72.5t-207.5 200t-76.5 282.5q0 116 43 219t116 176.5t175.5 116.5t216.5 43q197 0 334.5 -101t181.5 -278h-252q-28 81 -95.5 126.5t-161.5 45.5q-130 0 -226 -98.5t-96 -249.5q0 -154 101.5 -250.5t245.5 -96.5
q98 0 182.5 46t142.5 130z" />
    <glyph glyph-name="d" unicode="d" horiz-adv-x="1337" 
d="M71 530q0 153 66.5 280t185.5 201t266 74q228 0 373 -169v579h232v-1495h-232v143q-69 -79 -164.5 -123.5t-208.5 -44.5q-147 0 -266 74t-185.5 201t-66.5 280zM307 530q0 -146 94.5 -246.5t233.5 -100.5t233 100.5t94 246.5t-93.5 247t-233.5 101t-234 -101t-94 -247z
" />
    <glyph glyph-name="e" unicode="e" horiz-adv-x="1259" 
d="M308 459q17 -127 113.5 -209t235.5 -82q108 0 193 38.5t165 117.5l125 -122q-95 -108 -210.5 -167.5t-269.5 -59.5q-130 0 -240.5 43.5t-186.5 118t-119 176.5t-43 217q0 114 43.5 216.5t118.5 177t181 118t226 43.5q118 0 220.5 -42.5t174 -114.5t112.5 -170t41 -207
q0 -49 -10 -92h-870zM639 893q-116 0 -205.5 -72t-118.5 -184h630q-23 113 -106 184.5t-200 71.5z" />
    <glyph glyph-name="f" unicode="f" horiz-adv-x="774" 
d="M729 1486v-193q-45 5 -94 5q-99 0 -142 -43.5t-43 -134.5v-59h279v-205h-279v-856h-234v856h-197v205h197v62q0 188 98.5 280t299.5 92q48 0 115 -9z" />
    <glyph glyph-name="g" unicode="g" horiz-adv-x="1337" 
d="M71 530q0 153 66.5 280t185.5 201t266 74q228 0 373 -169v145h232v-1013q0 -238 -144.5 -380.5t-405.5 -142.5q-274 0 -473 228l118 128q147 -155 348 -155q149 0 237 82t88 225v110q-69 -79 -164.5 -123.5t-208.5 -44.5q-147 0 -266 74t-185.5 201t-66.5 280zM307 530
q0 -146 94.5 -246.5t233.5 -100.5t233 100.5t94 246.5t-93.5 247t-233.5 101t-234 -101t-94 -247z" />
    <glyph glyph-name="h" unicode="h" horiz-adv-x="1245" 
d="M699 1085q192 0 308 -118t116 -313v-654h-233v634q0 100 -68 172t-171 72q-112 0 -193 -83.5t-81 -210.5v-584h-235v1495h235v-575q56 76 140 120.5t182 44.5z" />
    <glyph glyph-name="i" unicode="i" horiz-adv-x="549" 
d="M158 0v1061h233v-1061h-233zM130 1350q0 61 41.5 102t102.5 41q62 0 104 -41t42 -102q0 -60 -42.5 -101.5t-103.5 -41.5t-102.5 41.5t-41.5 101.5z" />
    <glyph glyph-name="j" unicode="j" horiz-adv-x="549" 
d="M158 -117v1178h233v-1183q0 -183 -81.5 -268t-246.5 -85q-56 0 -100 11v194q9 -1 56 -1q71 0 105 35.5t34 118.5zM130 1350q0 61 41.5 102t102.5 41q62 0 104 -41t42 -102q0 -60 -42.5 -101.5t-103.5 -41.5t-102.5 41.5t-41.5 101.5z" />
    <glyph glyph-name="k" unicode="k" horiz-adv-x="1076" 
d="M753 1061h233q0 -193 -60 -325t-174 -196l318 -540h-264l-283 486h-146v-486h-235v1495h235v-808h101q125 0 200 90t75 284z" />
    <glyph glyph-name="l" unicode="l" horiz-adv-x="549" 
d="M158 0v1495h233v-1495h-233z" />
    <glyph glyph-name="m" unicode="m" horiz-adv-x="1922" 
d="M1394 1085q175 0 290.5 -119t115.5 -312v-654h-234v634q0 108 -61 176t-159 68q-101 0 -179 -87.5t-78 -206.5v-584h-235v634q0 108 -61 176t-159 68q-99 0 -178 -84.5t-79 -209.5v-584h-235v1061h235v-138q57 76 135.5 119t169.5 43q119 0 214.5 -58.5t145.5 -161.5
q54 102 147 161t205 59z" />
    <glyph glyph-name="n" unicode="n" horiz-adv-x="1245" 
d="M699 1085q192 0 308 -118t116 -313v-654h-233v634q0 107 -66.5 175.5t-172.5 68.5q-112 0 -193 -83.5t-81 -210.5v-584h-235v1061h235v-141q56 76 140 120.5t182 44.5z" />
    <glyph glyph-name="o" unicode="o" horiz-adv-x="1304" 
d="M71 530q0 152 75 279.5t208.5 201.5t297.5 74t297.5 -74t208.5 -201.5t75 -279.5t-75 -279.5t-208.5 -201.5t-297.5 -74t-297.5 74t-208.5 201.5t-75 279.5zM307 530q0 -146 99.5 -246.5t245.5 -100.5t245.5 100.5t99.5 246.5t-99.5 247t-245.5 101t-245.5 -101
t-99.5 -247z" />
    <glyph glyph-name="p" unicode="p" horiz-adv-x="1337" 
d="M1266 530q0 -153 -66 -280t-185 -201t-266 -74q-114 0 -210 44.5t-164 123.5v-618h-233v1536h233v-145q68 80 163.5 124.5t210.5 44.5q110 0 206.5 -43.5t164.5 -118t107 -177t39 -216.5zM1030 530q0 146 -94 247t-234 101t-233.5 -101t-93.5 -247t94 -246.5t233 -100.5
q138 0 233 100.5t95 246.5z" />
    <glyph glyph-name="q" unicode="q" horiz-adv-x="1337" 
d="M71 530q0 153 66.5 280t185.5 201t266 74q228 0 373 -169v145h232v-1536h-232v618q-69 -79 -164.5 -123.5t-208.5 -44.5q-147 0 -266 74t-185.5 201t-66.5 280zM307 530q0 -146 94.5 -246.5t233.5 -100.5t233 100.5t94 246.5t-93.5 247t-233.5 101t-234 -101t-94 -247z
" />
    <glyph glyph-name="r" unicode="r" horiz-adv-x="827" 
d="M655 878q-113 0 -195.5 -86t-82.5 -215v-577h-235v1061h235v-147q54 77 135 124t178 47q48 0 93 -15l-17 -211q-59 19 -111 19z" />
    <glyph glyph-name="s" unicode="s" horiz-adv-x="961" 
d="M90 184l103 118q124 -134 281 -134q86 0 136 35.5t50 95.5q0 59 -48 96t-160 59q-346 69 -346 329q0 132 101.5 217t268.5 85q166 0 268.5 -84t125.5 -237h-226q-7 59 -48 93.5t-107 34.5t-108.5 -31t-42.5 -81q0 -108 193 -147q183 -37 272 -120t89 -217
q0 -141 -109.5 -231t-296.5 -90q-237 0 -396 209z" />
    <glyph glyph-name="t" unicode="t" horiz-adv-x="793" 
d="M457 856v-503q0 -90 43 -132t141 -42q55 0 98 5v-172q-65 -37 -170 -37q-169 0 -257.5 92t-88.5 276v513h-204v205h204v254l234 53v-307h270v-205h-270z" />
    <glyph glyph-name="u" unicode="u" horiz-adv-x="1245" 
d="M546 -24q-192 0 -308 118t-116 313v654h233v-634q0 -107 66.5 -175.5t172.5 -68.5q113 0 193.5 85.5t80.5 214.5v578h235v-1061h-235v140q-56 -75 -140 -119.5t-182 -44.5z" />
    <glyph glyph-name="v" unicode="v" horiz-adv-x="1085" 
d="M818 1061h244l-395 -1061h-248l-395 1061h243l276 -770z" />
    <glyph glyph-name="w" unicode="w" horiz-adv-x="1614" 
d="M688 1061h238l210 -761l214 761h241l-330 -1061h-242l-212 753l-211 -753h-242l-330 1061h240l215 -761z" />
    <glyph glyph-name="x" unicode="x" horiz-adv-x="1085" 
d="M1062 0h-257l-262 388l-263 -388h-256l368 541l-342 520h256l237 -368l235 368h257l-343 -520z" />
    <glyph glyph-name="y" unicode="y" horiz-adv-x="1087" 
d="M482 -475h-244l187 477l-401 1059h243l276 -763l277 763h244z" />
    <glyph glyph-name="z" unicode="z" horiz-adv-x="1043" 
d="M95 0v196l545 661h-518v204h801v-197l-544 -660h564v-204h-848z" />
    <glyph glyph-name="braceleft" unicode="{" horiz-adv-x="863" 
d="M143 520v208q93 0 146 49t53 137v292q0 140 101.5 235t254.5 95h122v-209h-89q-64 0 -105.5 -41.5t-41.5 -106.5v-308q0 -197 -187 -246q187 -51 187 -247v-308q0 -65 41.5 -106.5t105.5 -41.5h89v-209h-122q-153 0 -254.5 95t-101.5 234v293q0 87 -53 136t-146 49z" />
    <glyph glyph-name="bar" unicode="|" horiz-adv-x="669" 
d="M223 -287v1823h223v-1823h-223z" />
    <glyph glyph-name="braceright" unicode="}" horiz-adv-x="863" 
d="M720 728v-208q-93 0 -146.5 -49t-53.5 -136v-293q0 -139 -101 -234t-254 -95h-122v209h88q65 0 106.5 42t41.5 106v308q0 196 187 247q-187 49 -187 246v308q0 65 -41.5 106.5t-106.5 41.5h-88v209h122q153 0 254 -95t101 -235v-292q0 -88 53 -137t147 -49z" />
    <glyph glyph-name="asciitilde" unicode="~" horiz-adv-x="1184" 
d="M564 565q-35 33 -56 51t-52 35t-56 17q-90 0 -117 -166l-222 51q26 157 104 241.5t203 84.5q138 0 252 -104q38 -35 57 -51.5t50 -33.5t56 -17q91 0 118 166l221 -52q-26 -157 -103.5 -241t-202.5 -84q-142 0 -252 103z" />
    <glyph glyph-name="uni00A0" unicode="&#xa0;" horiz-adv-x="612" 
 />
    <glyph glyph-name="exclamdown" unicode="&#xa1;" horiz-adv-x="636" 
d="M198 -373l35 1017h170l36 -1017h-241zM166 937q0 63 43.5 105.5t108.5 42.5t108.5 -42.5t43.5 -105.5t-44 -106t-108 -43q-65 0 -108.5 43t-43.5 106z" />
    <glyph glyph-name="cent" unicode="&#xa2;" horiz-adv-x="1209" 
d="M979 359l138 -94q-134 -250 -398 -284v-169h-159v170q-210 28 -349.5 181.5t-139.5 366.5q0 219 138.5 373.5t350.5 177.5v168h159v-171q160 -24 270 -121t149 -251h-252q-41 121 -167 156v-674q159 26 260 171zM307 530q0 -127 71 -216t182 -119v674
q-108 -26 -180.5 -117.5t-72.5 -221.5z" />
    <glyph glyph-name="sterling" unicode="&#xa3;" horiz-adv-x="1183" 
d="M314 564h-174v178h129q-28 67 -41 102t-27 94t-14 109q0 173 128.5 292t316.5 119q182 0 305.5 -112.5t143.5 -303.5h-235q-14 97 -73 150.5t-141 53.5q-86 0 -143 -58.5t-57 -145.5q0 -33 9.5 -74t19 -69t30 -81t28.5 -76h362v-178h-322q1 -11 1 -33q0 -200 -137 -319
h651v-212h-928v205q169 110 169 319q0 27 -1 40z" />
    <glyph glyph-name="currency" unicode="&#xa4;" horiz-adv-x="1292" 
d="M173 668q0 136 79 247l-183 184l144 142l191 -189q108 61 242 61t242 -61l191 189l144 -142l-183 -184q79 -113 79 -247q0 -135 -79 -248l183 -184l-144 -143l-191 190q-113 -62 -242 -62t-242 62l-191 -190l-144 143l183 184q-79 111 -79 248zM397 668q0 -104 72 -177
t177 -73t177 73t72 177t-72 177t-177 73t-177 -73t-72 -177z" />
    <glyph glyph-name="yen" unicode="&#xa5;" horiz-adv-x="1325" 
d="M171 502h371v81l-15 23h-356v137h276l-406 691h260l362 -619l360 619h261l-406 -691h275v-137h-356l-14 -23v-81h370v-137h-370v-365h-241v365h-371v137z" />
    <glyph glyph-name="brokenbar" unicode="&#xa6;" horiz-adv-x="669" 
d="M223 717v819h223v-819h-223zM223 -287v819h223v-819h-223z" />
    <glyph glyph-name="section" unicode="&#xa7;" horiz-adv-x="1039" 
d="M531 1276q-69 0 -110.5 -34.5t-41.5 -87.5q0 -52 56.5 -90t186.5 -76q170 -51 244.5 -129.5t74.5 -198.5q0 -91 -51 -160.5t-140 -108.5q90 -38 142 -107t52 -161q0 -147 -106.5 -237.5t-307.5 -90.5q-232 0 -411 218l114 101q137 -137 285 -137q88 0 132.5 37.5
t44.5 96.5q0 60 -44.5 97.5t-167.5 69.5q-178 45 -264 126t-86 209q0 96 50.5 166t141.5 109q-195 84 -195 268q0 135 107 218.5t289 83.5q172 0 277.5 -87.5t132.5 -247.5h-235q-13 67 -57 110t-113 43zM541 466q74 17 119 63.5t45 110.5q0 69 -42.5 111.5t-130.5 62.5
q-74 -17 -118.5 -63.5t-44.5 -110.5q0 -69 42 -111.5t130 -62.5z" />
    <glyph glyph-name="dieresis" unicode="&#xa8;" horiz-adv-x="861" 
d="M106 1323q0 55 39 93.5t95 38.5q57 0 95 -38t38 -94t-38 -94.5t-95 -38.5q-56 0 -95 38.5t-39 94.5zM487 1323q0 55 39 93.5t95 38.5q57 0 95 -38t38 -94t-38 -94.5t-95 -38.5q-56 0 -95 38.5t-39 94.5z" />
    <glyph glyph-name="copyright" unicode="&#xa9;" horiz-adv-x="1643" 
d="M80 717q0 153 58 290t157 236t236 157t290 58t290.5 -58t236.5 -157t157 -236t58 -290t-58 -290.5t-157 -236.5t-236.5 -157t-290.5 -58t-290 58t-236 157t-157 236.5t-58 290.5zM204 717q0 -172 82 -316t224 -227t311 -83t311.5 83t224.5 227t82 316q0 129 -48.5 244.5
t-131 198.5t-197 132t-241.5 49q-169 0 -311 -82.5t-224 -226t-82 -315.5zM417 715q0 175 113 289.5t285 114.5q158 0 258.5 -82t124.5 -212h-183q-18 61 -67.5 96t-119.5 35q-92 0 -159.5 -65.5t-67.5 -175.5q0 -112 72 -178t176 -66q67 0 127 30t102 85l112 -68
q-56 -101 -146 -155.5t-208 -54.5q-179 0 -299 116t-120 291z" />
    <glyph glyph-name="ordfeminine" unicode="&#xaa;" horiz-adv-x="940" 
d="M62 1061q0 163 105 276t259 113q142 0 224 -103v87h197v-746h-197v86q-84 -102 -224 -102q-154 0 -259 112.5t-105 276.5zM261 1061q0 -91 55 -151t140 -60t139 60t54 151q0 90 -54 150.5t-139 60.5t-140 -60.5t-55 -150.5z" />
    <glyph glyph-name="guillemotleft" unicode="&#xab;" horiz-adv-x="1310" 
d="M101 557v161l523 340l70 -119l-372 -302l372 -301l-70 -120zM612 557v161l523 340l70 -119l-372 -302l372 -301l-70 -120z" />
    <glyph glyph-name="logicalnot" unicode="&#xac;" horiz-adv-x="1184" 
d="M830 236v343h-709v202h942v-545h-233z" />
    <glyph glyph-name="uni00AD" unicode="&#xad;" horiz-adv-x="835" 
d="M715 570h-594v218h594v-218z" />
    <glyph glyph-name="registered" unicode="&#xae;" horiz-adv-x="1643" 
d="M80 717q0 153 58 290t157 236t236 157t290 58t290.5 -58t236.5 -157t157 -236t58 -290t-58 -290.5t-157 -236.5t-236.5 -157t-290.5 -58t-290 58t-236 157t-157 236.5t-58 290.5zM204 717q0 -172 82 -316t224 -227t311 -83t311.5 83t224.5 227t82 316q0 129 -48.5 244.5
t-131 198.5t-197 132t-241.5 49q-169 0 -311 -82.5t-224 -226t-82 -315.5zM565 1108h292q121 0 199.5 -72.5t78.5 -182.5q0 -82 -45.5 -144t-121.5 -89l185 -297h-185l-170 275h-64v-275h-169v785zM841 955h-107v-219h107q56 0 90.5 30.5t34.5 79.5t-34.5 79t-90.5 30z" />
    <glyph glyph-name="macron" unicode="&#xaf;" horiz-adv-x="861" 
d="M123 1230v178h614v-178h-614z" />
    <glyph glyph-name="degree" unicode="&#xb0;" horiz-adv-x="817" 
d="M284 1178q0 -53 35.5 -89t89.5 -36t89.5 36t35.5 89t-35.5 89t-89.5 36t-89.5 -35.5t-35.5 -89.5zM119 1178q0 118 83.5 198t206.5 80q122 0 205 -80t83 -198t-83 -198.5t-205 -80.5q-123 0 -206.5 80.5t-83.5 198.5z" />
    <glyph glyph-name="plusminus" unicode="&#xb1;" horiz-adv-x="1184" 
d="M476 317v354h-355v201h355v355h233v-355h354v-201h-354v-354h-233zM1063 0h-942v202h942v-202z" />
    <glyph glyph-name="twosuperior" unicode="&#xb2;" 
d="M584 874l-228 -246h356v-165h-618v146l334 366q51 55 72.5 98.5t21.5 90.5q0 56 -35.5 92t-92.5 36q-59 0 -99 -44.5t-48 -118.5h-185q10 153 101.5 241t231.5 88q142 0 234.5 -80t92.5 -209q0 -80 -32.5 -147.5t-105.5 -147.5z" />
    <glyph glyph-name="threesuperior" unicode="&#xb3;" 
d="M535 769q0 69 -47.5 117t-117.5 48q-30 0 -60 -11l-77 94l214 251h-341v166h583v-153l-196 -224q109 -25 175.5 -108t66.5 -196q0 -133 -99 -224t-259 -91q-96 0 -175 49.5t-136 138.5l102 90q95 -114 202 -114q70 0 117.5 48.5t47.5 118.5z" />
    <glyph glyph-name="acute" unicode="&#xb4;" horiz-adv-x="861" 
d="M251 1204l251 343l150 -121l-293 -307z" />
    <glyph glyph-name="mu" unicode="&#xb5;" horiz-adv-x="1265" 
d="M142 -475v1536h234v-641q0 -97 69 -167t169 -70q112 0 193.5 83.5t81.5 210.5v584h234v-1061h-234v140q-56 -75 -140.5 -119.5t-182.5 -44.5q-107 0 -190 40v-491h-234z" />
    <glyph glyph-name="paragraph" unicode="&#xb6;" horiz-adv-x="1196" 
d="M588 549h-54q-192 0 -323.5 127.5t-131.5 314.5t131.5 315t323.5 128h491v-1702h-164v1544h-109v-1544h-164v817z" />
    <glyph glyph-name="periodcentered" unicode="&#xb7;" horiz-adv-x="612" 
d="M156 667q0 64 43 106.5t107 42.5q65 0 108 -42.5t43 -106.5q0 -63 -43.5 -106t-107.5 -43t-107 43t-43 106z" />
    <glyph glyph-name="cedilla" unicode="&#xb8;" horiz-adv-x="861" 
d="M524 -309q0 38 -30 65t-72 27q-28 0 -50 -7l-41 37v187h157v-109q99 -6 154.5 -64t55.5 -139q0 -95 -75.5 -157.5t-191.5 -62.5q-106 0 -185.5 59.5t-95.5 158.5h160q10 -39 40 -62.5t70 -23.5q49 0 76.5 25t27.5 66z" />
    <glyph glyph-name="onesuperior" unicode="&#xb9;" 
d="M394 1434h170v-971h-200v772l-158 -86l-76 143z" />
    <glyph glyph-name="ordmasculine" unicode="&#xba;" horiz-adv-x="940" 
d="M62 1061q0 163 118.5 276t289.5 113q170 0 288.5 -113t118.5 -276t-118.5 -276t-288.5 -113q-171 0 -289.5 113t-118.5 276zM261 1061q0 -91 59.5 -151t149.5 -60q89 0 148.5 60t59.5 151q0 90 -59.5 150.5t-148.5 60.5q-90 0 -149.5 -60.5t-59.5 -150.5z" />
    <glyph glyph-name="guillemotright" unicode="&#xbb;" horiz-adv-x="1310" 
d="M1209 718v-161l-523 -341l-70 120l373 301l-373 302l70 119zM698 718v-161l-523 -341l-70 120l373 301l-373 302l70 119z" />
    <glyph glyph-name="onequarter" unicode="&#xbc;" horiz-adv-x="1971" 
d="M560 43l695 1425l156 -80l-696 -1426zM394 1434h170v-971h-200v772l-158 -86l-76 143zM1191 181v153l432 637h186v-622h107v-168h-107v-181h-196v181h-422zM1397 347h216v327z" />
    <glyph glyph-name="onehalf" unicode="&#xbd;" horiz-adv-x="1971" 
d="M560 43l695 1425l156 -80l-696 -1426zM394 1434h170v-971h-200v772l-158 -86l-76 143zM1738 412l-228 -247h356v-165h-618v146l334 366q51 55 72.5 98.5t21.5 90.5q0 56 -35.5 92t-92.5 36q-59 0 -99 -44t-48 -118h-184q10 153 101 240.5t231 87.5q142 0 234.5 -79.5
t92.5 -208.5q0 -80 -32.5 -147.5t-105.5 -147.5z" />
    <glyph glyph-name="threequarters" unicode="&#xbe;" horiz-adv-x="1971" 
d="M560 43l695 1425l156 -80l-696 -1426zM1191 181v153l432 637h186v-622h107v-168h-107v-181h-196v181h-422zM1397 347h216v327zM535 769q0 69 -47.5 117t-117.5 48q-30 0 -60 -11l-77 94l214 251h-341v166h583v-153l-196 -224q109 -25 175.5 -108t66.5 -196
q0 -133 -99 -224t-259 -91q-96 0 -175 49.5t-136 138.5l102 90q95 -114 202 -114q70 0 117.5 48.5t47.5 118.5z" />
    <glyph glyph-name="questiondown" unicode="&#xbf;" horiz-adv-x="1127" 
d="M737 937q0 -63 -43.5 -106t-108.5 -43q-64 0 -108 43t-44 106t43.5 105.5t108.5 42.5t108.5 -42.5t43.5 -105.5zM469 642h241q0 -125 -19 -198t-68.5 -128t-148.5 -114q-80 -47 -112 -93t-32 -116q0 -77 62 -128t161 -51q111 0 180.5 64.5t69.5 173.5h239
q0 -141 -69.5 -245t-181 -154t-247.5 -50q-203 0 -331.5 113.5t-128.5 283.5q0 120 57 206.5t198 165.5q84 47 107 101.5t23 168.5z" />
    <glyph glyph-name="Agrave" unicode="&#xc0;" horiz-adv-x="1404" 
d="M568 1434h269l526 -1434h-259l-120 346h-564l-120 -346h-259zM486 548h433l-217 623zM586 1944l251 -343l-109 -85l-292 307z" />
    <glyph glyph-name="Aacute" unicode="&#xc1;" horiz-adv-x="1404" 
d="M568 1434h269l526 -1434h-259l-120 346h-564l-120 -346h-259zM486 548h433l-217 623zM570 1602l251 343l151 -121l-293 -307z" />
    <glyph glyph-name="Acircumflex" unicode="&#xc2;" horiz-adv-x="1404" 
d="M568 1434h269l526 -1434h-259l-120 346h-564l-120 -346h-259zM486 548h433l-217 623zM592 1893h220l228 -311l-109 -85l-229 240l-230 -240l-109 85z" />
    <glyph glyph-name="Atilde" unicode="&#xc3;" horiz-adv-x="1404" 
d="M568 1434h269l526 -1434h-259l-120 346h-564l-120 -346h-259zM486 548h433l-217 623zM706 1608q-73 50 -108 50q-47 0 -66 -90l-191 38q45 225 203 225q73 0 154 -52q3 -2 14 -9t14.5 -9.5t13 -8.5t14.5 -8.5l13 -6.5t13.5 -5.5t12 -3t12.5 -1.5q47 0 66 91l191 -38
q-45 -226 -202 -226q-75 0 -154 54z" />
    <glyph glyph-name="Adieresis" unicode="&#xc4;" horiz-adv-x="1404" 
d="M568 1434h269l526 -1434h-259l-120 346h-564l-120 -346h-259zM486 548h433l-217 623zM378 1704q0 56 38.5 94t94.5 38q57 0 95 -38t38 -94t-38 -94.5t-95 -38.5q-56 0 -94.5 38.5t-38.5 94.5zM759 1704q0 56 38.5 94t94.5 38q57 0 95 -38t38 -94t-38 -94.5t-95 -38.5
q-56 0 -94.5 38.5t-38.5 94.5z" />
    <glyph glyph-name="Aring" unicode="&#xc5;" horiz-adv-x="1404" 
d="M568 1434h269l526 -1434h-259l-120 346h-564l-120 -346h-259zM486 548h433l-217 623zM620 1726q0 -34 23 -56.5t58 -22.5t58 22.5t23 56.5t-23 57t-58 23q-34 0 -57.5 -23t-23.5 -57zM478 1726q0 88 64 147t159 59q96 0 159.5 -59t63.5 -147t-63.5 -147t-159.5 -59
q-95 0 -159 59t-64 147z" />
    <glyph glyph-name="AE" unicode="&#xc6;" horiz-adv-x="1899" 
d="M279 0h-269l808 1434h951v-208h-611v-403h561v-206h-561v-410h630v-207h-870v346h-450zM918 1167l-341 -619h341v619z" />
    <glyph glyph-name="Ccedilla" unicode="&#xc7;" horiz-adv-x="1552" 
d="M916 -309q0 38 -30 65t-72 27q-28 0 -50 -7l-41 37v167q-182 19 -328.5 118t-230 261t-83.5 358q0 157 56 295t152.5 235.5t230 154t284.5 56.5q256 0 433 -137.5t234 -377.5h-252q-43 145 -155 224t-257 79q-96 0 -183.5 -37.5t-153.5 -104.5t-105 -167.5t-39 -219.5
t40 -220t107.5 -168t156 -104.5t186.5 -37.5q312 0 490 284l146 -106q-198 -355 -571 -385v-89q99 -6 154.5 -64t55.5 -139q0 -95 -76 -157.5t-192 -62.5q-106 0 -185.5 59.5t-95.5 158.5h160q10 -39 40 -62.5t70 -23.5q49 0 76.5 25t27.5 66z" />
    <glyph glyph-name="Egrave" unicode="&#xc8;" horiz-adv-x="1164" 
d="M164 0v1434h870v-208h-628v-403h577v-206h-577v-410h647v-207h-889zM462 1944l251 -343l-109 -85l-292 307z" />
    <glyph glyph-name="Eacute" unicode="&#xc9;" horiz-adv-x="1164" 
d="M164 0v1434h870v-208h-628v-403h577v-206h-577v-410h647v-207h-889zM490 1601l251 343l150 -121l-293 -307z" />
    <glyph glyph-name="Ecircumflex" unicode="&#xca;" horiz-adv-x="1164" 
d="M164 0v1434h870v-208h-628v-403h577v-206h-577v-410h647v-207h-889zM489 1893h221l228 -311l-109 -85l-229 241l-230 -241l-109 85z" />
    <glyph glyph-name="Edieresis" unicode="&#xcb;" horiz-adv-x="1164" 
d="M164 0v1434h870v-208h-628v-403h577v-206h-577v-410h647v-207h-889zM266 1704q0 55 39 93.5t95 38.5q57 0 95 -38t38 -94t-38 -94.5t-95 -38.5q-56 0 -95 38.5t-39 94.5zM647 1704q0 55 39 93.5t95 38.5q57 0 95 -38t38 -94t-38 -94.5t-95 -38.5q-56 0 -95 38.5t-39 94.5
z" />
    <glyph glyph-name="Igrave" unicode="&#xcc;" horiz-adv-x="602" 
d="M180 1434h242v-1434h-242v1434zM204 1945l251 -343l-109 -85l-293 307z" />
    <glyph glyph-name="Iacute" unicode="&#xcd;" horiz-adv-x="602" 
d="M180 1434h242v-1434h-242v1434zM133 1601l251 343l150 -121l-293 -307z" />
    <glyph glyph-name="Icircumflex" unicode="&#xce;" horiz-adv-x="602" 
d="M180 1434h242v-1434h-242v1434zM191 1893h220l228 -311l-109 -85l-229 240l-230 -240l-109 85z" />
    <glyph glyph-name="Idieresis" unicode="&#xcf;" horiz-adv-x="602" 
d="M180 1434h242v-1434h-242v1434zM-24 1704q0 55 39 93.5t95 38.5q57 0 95 -38t38 -94t-38 -94.5t-95 -38.5q-56 0 -95 38.5t-39 94.5zM357 1704q0 56 38.5 94t94.5 38q57 0 95.5 -38t38.5 -94t-38.5 -94.5t-95.5 -38.5q-56 0 -94.5 38.5t-38.5 94.5z" />
    <glyph glyph-name="Eth" unicode="&#xd0;" horiz-adv-x="1497" 
d="M202 1434h503q325 0 518 -194.5t193 -522.5t-192.5 -522.5t-518.5 -194.5h-503v632h-184v169h184v633zM731 632h-288v-420h256q217 0 344.5 129.5t127.5 375.5t-128 375.5t-344 129.5h-256v-421h288v-169z" />
    <glyph glyph-name="Ntilde" unicode="&#xd1;" horiz-adv-x="1439" 
d="M164 0v1434h240l642 -1033v1033h230v-1434h-241l-641 1032v-1032h-230zM723 1608q-73 50 -108 50q-46 0 -65 -90l-192 38q45 225 203 225q74 0 155 -52q4 -3 15.5 -10.5t16.5 -11t15 -9.5t16 -8.5t14 -6t15 -5t14 -1.5q48 0 67 91l190 -38q-23 -114 -72 -170t-129 -56
q-76 0 -155 54z" />
    <glyph glyph-name="Ograve" unicode="&#xd2;" horiz-adv-x="1684" 
d="M326 717q0 -147 68.5 -269t187 -191.5t260.5 -69.5t261 69.5t187.5 191.5t68.5 269q0 223 -150 376t-367 153t-366.5 -153t-149.5 -376zM81 717q0 206 100 376t274.5 267.5t386.5 97.5q159 0 300 -57.5t242.5 -156t160.5 -236t59 -291.5t-59 -291.5t-160.5 -236.5
t-242.5 -156.5t-300 -57.5t-300 57.5t-242 156.5t-160 236.5t-59 291.5zM740 1944l251 -343l-109 -85l-292 307z" />
    <glyph glyph-name="Oacute" unicode="&#xd3;" horiz-adv-x="1684" 
d="M326 717q0 -147 68.5 -269t187 -191.5t260.5 -69.5t261 69.5t187.5 191.5t68.5 269q0 223 -150 376t-367 153t-366.5 -153t-149.5 -376zM81 717q0 206 100 376t274.5 267.5t386.5 97.5q159 0 300 -57.5t242.5 -156t160.5 -236t59 -291.5t-59 -291.5t-160.5 -236.5
t-242.5 -156.5t-300 -57.5t-300 57.5t-242 156.5t-160 236.5t-59 291.5zM679 1601l251 343l150 -121l-293 -307z" />
    <glyph glyph-name="Ocircumflex" unicode="&#xd4;" horiz-adv-x="1684" 
d="M326 717q0 -147 68.5 -269t187 -191.5t260.5 -69.5t261 69.5t187.5 191.5t68.5 269q0 223 -150 376t-367 153t-366.5 -153t-149.5 -376zM81 717q0 206 100 376t274.5 267.5t386.5 97.5q159 0 300 -57.5t242.5 -156t160.5 -236t59 -291.5t-59 -291.5t-160.5 -236.5
t-242.5 -156.5t-300 -57.5t-300 57.5t-242 156.5t-160 236.5t-59 291.5zM733 1893h220l228 -311l-109 -85l-229 240l-230 -240l-109 85z" />
    <glyph glyph-name="Otilde" unicode="&#xd5;" horiz-adv-x="1684" 
d="M326 717q0 -147 68.5 -269t187 -191.5t260.5 -69.5t261 69.5t187.5 191.5t68.5 269q0 223 -150 376t-367 153t-366.5 -153t-149.5 -376zM81 717q0 206 100 376t274.5 267.5t386.5 97.5q159 0 300 -57.5t242.5 -156t160.5 -236t59 -291.5t-59 -291.5t-160.5 -236.5
t-242.5 -156.5t-300 -57.5t-300 57.5t-242 156.5t-160 236.5t-59 291.5zM846 1608q-73 50 -108 50q-46 0 -65 -90l-192 38q45 225 203 225q74 0 155 -52q4 -3 15.5 -10.5t16.5 -11t15 -9.5t16 -8.5t14 -6t15 -5t14 -1.5q48 0 67 91l190 -38q-45 -226 -202 -226
q-75 0 -154 54z" />
    <glyph glyph-name="Odieresis" unicode="&#xd6;" horiz-adv-x="1684" 
d="M326 717q0 -147 68.5 -269t187 -191.5t260.5 -69.5t261 69.5t187.5 191.5t68.5 269q0 223 -150 376t-367 153t-366.5 -153t-149.5 -376zM81 717q0 206 100 376t274.5 267.5t386.5 97.5q159 0 300 -57.5t242.5 -156t160.5 -236t59 -291.5t-59 -291.5t-160.5 -236.5
t-242.5 -156.5t-300 -57.5t-300 57.5t-242 156.5t-160 236.5t-59 291.5zM518 1704q0 56 38.5 94t94.5 38q57 0 95 -38t38 -94t-38 -94.5t-95 -38.5q-56 0 -94.5 38.5t-38.5 94.5zM899 1704q0 56 38.5 94t94.5 38q57 0 95 -38t38 -94t-38 -94.5t-95 -38.5q-56 0 -94.5 38.5
t-38.5 94.5z" />
    <glyph glyph-name="multiply" unicode="&#xd7;" horiz-adv-x="1184" 
d="M890 1129l154 -154l-298 -300l298 -299l-154 -155l-298 298l-297 -298l-156 155l298 299l-298 300l156 154l297 -299z" />
    <glyph glyph-name="Oslash" unicode="&#xd8;" horiz-adv-x="1684" 
d="M81 717q0 206 100 376t274.5 267.5t386.5 97.5q207 0 387 -99l145 185l131 -96l-144 -183q115 -102 179 -244t64 -304q0 -154 -59 -291.5t-160.5 -236.5t-242.5 -156.5t-300 -57.5q-225 0 -406 110l-151 -193l-131 96l153 194q-107 102 -166.5 240t-59.5 295zM1359 717
q0 214 -140 364l-645 -820q123 -74 268 -74q142 0 261 69.5t187.5 191.5t68.5 269zM326 717q0 -203 126 -350l639 815q-116 64 -249 64q-217 0 -366.5 -153t-149.5 -376z" />
    <glyph glyph-name="Ugrave" unicode="&#xd9;" horiz-adv-x="1364" 
d="M1212 1434v-938q0 -153 -71 -272t-191 -183t-268 -64t-268 64t-191 183t-71 272v938h241v-955q0 -129 82.5 -209.5t206.5 -80.5t206.5 80.5t82.5 209.5v955h241zM576 1944l251 -343l-109 -85l-292 307z" />
    <glyph glyph-name="Uacute" unicode="&#xda;" horiz-adv-x="1364" 
d="M1212 1434v-938q0 -153 -71 -272t-191 -183t-268 -64t-268 64t-191 183t-71 272v938h241v-955q0 -129 82.5 -209.5t206.5 -80.5t206.5 80.5t82.5 209.5v955h241zM525 1601l251 343l150 -121l-293 -307z" />
    <glyph glyph-name="Ucircumflex" unicode="&#xdb;" horiz-adv-x="1364" 
d="M1212 1434v-938q0 -153 -71 -272t-191 -183t-268 -64t-268 64t-191 183t-71 272v938h241v-955q0 -129 82.5 -209.5t206.5 -80.5t206.5 80.5t82.5 209.5v955h241zM573 1893h220l228 -311l-109 -85l-229 240l-230 -240l-109 85z" />
    <glyph glyph-name="Udieresis" unicode="&#xdc;" horiz-adv-x="1364" 
d="M1212 1434v-938q0 -153 -71 -272t-191 -183t-268 -64t-268 64t-191 183t-71 272v938h241v-955q0 -129 82.5 -209.5t206.5 -80.5t206.5 80.5t82.5 209.5v955h241zM358 1704q0 55 39 93.5t95 38.5q57 0 95 -38t38 -94t-38 -94.5t-95 -38.5q-56 0 -95 38.5t-39 94.5z
M739 1704q0 56 38.5 94t94.5 38q57 0 95.5 -38t38.5 -94t-38.5 -94.5t-95.5 -38.5q-56 0 -94.5 38.5t-38.5 94.5z" />
    <glyph glyph-name="Yacute" unicode="&#xdd;" horiz-adv-x="1325" 
d="M301 1434l362 -619l360 619h261l-501 -851v-583h-241v583l-501 851h260zM506 1601l251 343l150 -121l-293 -307z" />
    <glyph glyph-name="Thorn" unicode="&#xde;" horiz-adv-x="1213" 
d="M646 260h-240v-260h-242v1434h242v-260h240q227 0 362 -125.5t135 -331.5q0 -207 -135 -332t-362 -125zM900 717q0 117 -70.5 185t-198.5 68h-225v-507h225q128 0 198.5 68t70.5 186z" />
    <glyph glyph-name="germandbls" unicode="&#xdf;" horiz-adv-x="1253" 
d="M460 72l52 156q94 -51 194 -51q105 0 164.5 76t59.5 200q0 112 -81 191.5t-200 79.5q-35 0 -76 -12l-72 116l205 398h-317v-1226h-237v1434h800v-207l-193 -356q180 -9 295 -135.5t115 -307.5q0 -199 -117.5 -326t-324.5 -127q-145 0 -267 97z" />
    <glyph glyph-name="agrave" unicode="&#xe0;" horiz-adv-x="1337" 
d="M71 530q0 153 66.5 280t185.5 201t266 74q228 0 373 -169v145h232v-1061h-232v143q-69 -79 -164.5 -123.5t-208.5 -44.5q-147 0 -266 74t-185.5 201t-66.5 280zM307 530q0 -146 94.5 -246.5t233.5 -100.5t233 100.5t94 246.5t-93.5 247t-233.5 101t-234 -101t-94 -247z
M561 1613l251 -343l-109 -85l-292 307z" />
    <glyph glyph-name="aacute" unicode="&#xe1;" horiz-adv-x="1337" 
d="M71 530q0 153 66.5 280t185.5 201t266 74q228 0 373 -169v145h232v-1061h-232v143q-69 -79 -164.5 -123.5t-208.5 -44.5q-147 0 -266 74t-185.5 201t-66.5 280zM307 530q0 -146 94.5 -246.5t233.5 -100.5t233 100.5t94 246.5t-93.5 247t-233.5 101t-234 -101t-94 -247z
M506 1270l251 343l150 -121l-293 -307z" />
    <glyph glyph-name="acircumflex" unicode="&#xe2;" horiz-adv-x="1337" 
d="M71 530q0 153 66.5 280t185.5 201t266 74q228 0 373 -169v145h232v-1061h-232v143q-69 -79 -164.5 -123.5t-208.5 -44.5q-147 0 -266 74t-185.5 201t-66.5 280zM307 530q0 -146 94.5 -246.5t233.5 -100.5t233 100.5t94 246.5t-93.5 247t-233.5 101t-234 -101t-94 -247z
M545 1562h220l228 -311l-109 -85l-229 240l-230 -240l-109 85z" />
    <glyph glyph-name="atilde" unicode="&#xe3;" horiz-adv-x="1337" 
d="M71 530q0 153 66.5 280t185.5 201t266 74q228 0 373 -169v145h232v-1061h-232v143q-69 -79 -164.5 -123.5t-208.5 -44.5q-147 0 -266 74t-185.5 201t-66.5 280zM307 530q0 -146 94.5 -246.5t233.5 -100.5t233 100.5t94 246.5t-93.5 247t-233.5 101t-234 -101t-94 -247z
M658 1275q-73 50 -107 50q-47 0 -66 -90l-191 38q45 225 203 225q73 0 154 -52q29 -19 39.5 -25.5t31.5 -16t36 -9.5q47 0 66 90l191 -38q-45 -225 -202 -225q-77 0 -155 53z" />
    <glyph glyph-name="adieresis" unicode="&#xe4;" horiz-adv-x="1337" 
d="M71 530q0 153 66.5 280t185.5 201t266 74q228 0 373 -169v145h232v-1061h-232v143q-69 -79 -164.5 -123.5t-208.5 -44.5q-147 0 -266 74t-185.5 201t-66.5 280zM307 530q0 -146 94.5 -246.5t233.5 -100.5t233 100.5t94 246.5t-93.5 247t-233.5 101t-234 -101t-94 -247z
M312 1372q0 56 38.5 94t94.5 38q57 0 95.5 -38t38.5 -94t-38.5 -94.5t-95.5 -38.5q-56 0 -94.5 38.5t-38.5 94.5zM693 1372q0 56 38.5 94t94.5 38q57 0 95 -38t38 -94t-38 -94.5t-95 -38.5q-56 0 -94.5 38.5t-38.5 94.5z" />
    <glyph glyph-name="aring" unicode="&#xe5;" horiz-adv-x="1337" 
d="M71 530q0 153 66.5 280t185.5 201t266 74q228 0 373 -169v145h232v-1061h-232v143q-69 -79 -164.5 -123.5t-208.5 -44.5q-147 0 -266 74t-185.5 201t-66.5 280zM307 530q0 -146 94.5 -246.5t233.5 -100.5t233 100.5t94 246.5t-93.5 247t-233.5 101t-234 -101t-94 -247z
M572 1394q0 -34 23 -56.5t58 -22.5t58 22.5t23 56.5t-23 57t-58 23q-34 0 -57.5 -23t-23.5 -57zM430 1394q0 88 64 147t159 59q96 0 159.5 -59t63.5 -147t-63.5 -147t-159.5 -59q-95 0 -159 59t-64 147z" />
    <glyph glyph-name="ae" unicode="&#xe6;" horiz-adv-x="2150" 
d="M1200 459q17 -127 113.5 -209t235.5 -82q197 0 342 147l124 -120q-182 -220 -463 -220q-108 0 -202.5 42.5t-155.5 125.5v-143h-232v143q-69 -79 -164.5 -123.5t-208.5 -44.5q-147 0 -266 74t-185.5 201t-66.5 280t66.5 280t185.5 201t266 74q228 0 373 -169v145h232
v-143q117 167 342 167q118 0 220 -42.5t172.5 -114.5t111 -170t40.5 -207q0 -40 -12 -92h-868zM307 530q0 -146 94.5 -246.5t233.5 -100.5t233 100.5t94 246.5t-93.5 247t-233.5 101t-234 -101t-94 -247zM1530 893q-115 0 -205 -72t-118 -184h630q-23 113 -106.5 184.5
t-200.5 71.5z" />
    <glyph glyph-name="ccedilla" unicode="&#xe7;" horiz-adv-x="1209" 
d="M755 -309q0 38 -30.5 65t-72.5 27q-29 0 -50 -7l-41 37v169q-210 27 -350 180.5t-140 367.5q0 116 43 219t116 176.5t175.5 116.5t216.5 43q197 0 334.5 -101t181.5 -278h-252q-28 81 -95.5 126.5t-161.5 45.5q-130 0 -226 -98.5t-96 -249.5q0 -154 101.5 -250.5
t245.5 -96.5q98 0 182.5 46t142.5 130l138 -94q-137 -253 -399 -284v-90q100 -6 155 -63.5t55 -139.5q0 -95 -75.5 -157.5t-192.5 -62.5q-106 0 -185 59.5t-96 158.5h161q10 -40 40 -63t70 -23q48 0 76.5 25.5t28.5 65.5z" />
    <glyph glyph-name="egrave" unicode="&#xe8;" horiz-adv-x="1259" 
d="M308 459q17 -127 113.5 -209t235.5 -82q108 0 193 38.5t165 117.5l125 -122q-95 -108 -210.5 -167.5t-269.5 -59.5q-130 0 -240.5 43.5t-186.5 118t-119 176.5t-43 217q0 114 43.5 216.5t118.5 177t181 118t226 43.5q118 0 220.5 -42.5t174 -114.5t112.5 -170t41 -207
q0 -49 -10 -92h-870zM639 893q-116 0 -205.5 -72t-118.5 -184h630q-23 113 -106 184.5t-200 71.5zM534 1613l251 -343l-109 -85l-292 307z" />
    <glyph glyph-name="eacute" unicode="&#xe9;" horiz-adv-x="1259" 
d="M308 459q17 -127 113.5 -209t235.5 -82q108 0 193 38.5t165 117.5l125 -122q-95 -108 -210.5 -167.5t-269.5 -59.5q-130 0 -240.5 43.5t-186.5 118t-119 176.5t-43 217q0 114 43.5 216.5t118.5 177t181 118t226 43.5q118 0 220.5 -42.5t174 -114.5t112.5 -170t41 -207
q0 -49 -10 -92h-870zM639 893q-116 0 -205.5 -72t-118.5 -184h630q-23 113 -106 184.5t-200 71.5zM499 1270l251 343l150 -121l-293 -307z" />
    <glyph glyph-name="ecircumflex" unicode="&#xea;" horiz-adv-x="1259" 
d="M308 459q17 -127 113.5 -209t235.5 -82q108 0 193 38.5t165 117.5l125 -122q-95 -108 -210.5 -167.5t-269.5 -59.5q-130 0 -240.5 43.5t-186.5 118t-119 176.5t-43 217q0 114 43.5 216.5t118.5 177t181 118t226 43.5q118 0 220.5 -42.5t174 -114.5t112.5 -170t41 -207
q0 -49 -10 -92h-870zM639 893q-116 0 -205.5 -72t-118.5 -184h630q-23 113 -106 184.5t-200 71.5zM519 1562h220l229 -312l-109 -85l-229 241l-231 -241l-108 85z" />
    <glyph glyph-name="edieresis" unicode="&#xeb;" horiz-adv-x="1259" 
d="M308 459q17 -127 113.5 -209t235.5 -82q108 0 193 38.5t165 117.5l125 -122q-95 -108 -210.5 -167.5t-269.5 -59.5q-130 0 -240.5 43.5t-186.5 118t-119 176.5t-43 217q0 114 43.5 216.5t118.5 177t181 118t226 43.5q118 0 220.5 -42.5t174 -114.5t112.5 -170t41 -207
q0 -49 -10 -92h-870zM639 893q-116 0 -205.5 -72t-118.5 -184h630q-23 113 -106 184.5t-200 71.5zM305 1372q0 55 39 93.5t95 38.5q57 0 95 -38t38 -94t-38 -94.5t-95 -38.5q-56 0 -95 38.5t-39 94.5zM686 1372q0 55 39 93.5t95 38.5q57 0 95 -38t38 -94t-38 -94.5
t-95 -38.5q-56 0 -95 38.5t-39 94.5z" />
    <glyph glyph-name="igrave" unicode="&#xec;" horiz-adv-x="549" 
d="M172 1613l251 -343l-109 -85l-292 307zM158 0v1061h233v-1061h-233z" />
    <glyph glyph-name="iacute" unicode="&#xed;" horiz-adv-x="549" 
d="M113 1270l251 343l150 -121l-293 -307zM158 0v1061h233v-1061h-233z" />
    <glyph glyph-name="icircumflex" unicode="&#xee;" horiz-adv-x="549" 
d="M158 0v1061h233v-1061h-233zM164 1562h220l228 -312l-108 -85l-230 241l-230 -241l-109 85z" />
    <glyph glyph-name="idieresis" unicode="&#xef;" horiz-adv-x="549" 
d="M-49 1372q0 56 38.5 94t94.5 38q57 0 95 -38t38 -94t-38 -94.5t-95 -38.5q-56 0 -94.5 38.5t-38.5 94.5zM332 1372q0 56 38.5 94t94.5 38q57 0 95 -38t38 -94t-38 -94.5t-95 -38.5q-56 0 -94.5 38.5t-38.5 94.5zM158 0v1061h233v-1061h-233z" />
    <glyph glyph-name="eth" unicode="&#xf0;" horiz-adv-x="1267" 
d="M322 1050l-63 127l224 105q-86 53 -196 101l101 154q66 -27 156.5 -75.5t141.5 -84.5l221 105l62 -128l-157 -74q176 -156 275 -358.5t99 -419.5q0 -109 -43 -207t-117 -168t-177.5 -111t-219.5 -41q-154 0 -282.5 69t-202 189t-73.5 264q0 106 44 202t116 164t168 108
t198 40q146 0 253 -95q-86 154 -233 272zM306 501q0 -134 94 -226t231 -92q136 0 229.5 92t93.5 226t-93.5 226t-229.5 92q-137 0 -231 -92t-94 -226z" />
    <glyph glyph-name="ntilde" unicode="&#xf1;" horiz-adv-x="1245" 
d="M699 1085q192 0 308 -118t116 -313v-654h-233v634q0 107 -66.5 175.5t-172.5 68.5q-112 0 -193 -83.5t-81 -210.5v-584h-235v1061h235v-141q56 76 140 120.5t182 44.5zM636 1275q-73 50 -108 50q-46 0 -65 -90l-192 38q45 225 203 225q74 0 155 -52q3 -2 12.5 -8t13 -8.5
t11.5 -7.5t12.5 -7.5t11.5 -6.5t12 -5.5t11 -3.5t11.5 -3t10.5 -1q48 0 67 90l190 -38q-23 -114 -72 -169.5t-129 -55.5q-77 0 -155 53z" />
    <glyph glyph-name="ograve" unicode="&#xf2;" horiz-adv-x="1304" 
d="M71 530q0 152 75 279.5t208.5 201.5t297.5 74t297.5 -74t208.5 -201.5t75 -279.5t-75 -279.5t-208.5 -201.5t-297.5 -74t-297.5 74t-208.5 201.5t-75 279.5zM307 530q0 -146 99.5 -246.5t245.5 -100.5t245.5 100.5t99.5 246.5t-99.5 247t-245.5 101t-245.5 -101
t-99.5 -247zM550 1613l251 -343l-109 -85l-292 307z" />
    <glyph glyph-name="oacute" unicode="&#xf3;" horiz-adv-x="1304" 
d="M71 530q0 152 75 279.5t208.5 201.5t297.5 74t297.5 -74t208.5 -201.5t75 -279.5t-75 -279.5t-208.5 -201.5t-297.5 -74t-297.5 74t-208.5 201.5t-75 279.5zM307 530q0 -146 99.5 -246.5t245.5 -100.5t245.5 100.5t99.5 246.5t-99.5 247t-245.5 101t-245.5 -101
t-99.5 -247zM493 1270l251 343l150 -121l-293 -307z" />
    <glyph glyph-name="ocircumflex" unicode="&#xf4;" horiz-adv-x="1304" 
d="M71 530q0 152 75 279.5t208.5 201.5t297.5 74t297.5 -74t208.5 -201.5t75 -279.5t-75 -279.5t-208.5 -201.5t-297.5 -74t-297.5 74t-208.5 201.5t-75 279.5zM307 530q0 -146 99.5 -246.5t245.5 -100.5t245.5 100.5t99.5 246.5t-99.5 247t-245.5 101t-245.5 -101
t-99.5 -247zM542 1562h220l228 -311l-109 -85l-229 240l-230 -240l-109 85z" />
    <glyph glyph-name="otilde" unicode="&#xf5;" horiz-adv-x="1304" 
d="M71 530q0 152 75 279.5t208.5 201.5t297.5 74t297.5 -74t208.5 -201.5t75 -279.5t-75 -279.5t-208.5 -201.5t-297.5 -74t-297.5 74t-208.5 201.5t-75 279.5zM307 530q0 -146 99.5 -246.5t245.5 -100.5t245.5 100.5t99.5 246.5t-99.5 247t-245.5 101t-245.5 -101
t-99.5 -247zM655 1275q-73 50 -107 50q-47 0 -66 -90l-191 38q45 225 203 225q73 0 154 -52q29 -19 39.5 -25.5t31.5 -16t36 -9.5q47 0 66 90l191 -38q-45 -225 -202 -225q-77 0 -155 53z" />
    <glyph glyph-name="odieresis" unicode="&#xf6;" horiz-adv-x="1304" 
d="M71 530q0 152 75 279.5t208.5 201.5t297.5 74t297.5 -74t208.5 -201.5t75 -279.5t-75 -279.5t-208.5 -201.5t-297.5 -74t-297.5 74t-208.5 201.5t-75 279.5zM307 530q0 -146 99.5 -246.5t245.5 -100.5t245.5 100.5t99.5 246.5t-99.5 247t-245.5 101t-245.5 -101
t-99.5 -247zM328 1372q0 56 38.5 94t94.5 38q57 0 95 -38t38 -94t-38 -94.5t-95 -38.5q-56 0 -94.5 38.5t-38.5 94.5zM709 1372q0 56 38.5 94t94.5 38q57 0 95 -38t38 -94t-38 -94.5t-95 -38.5q-56 0 -94.5 38.5t-38.5 94.5z" />
    <glyph glyph-name="divide" unicode="&#xf7;" horiz-adv-x="1184" 
d="M1063 579h-942v201h942v-201zM444 1073q0 62 42.5 105t105.5 43t105.5 -43t42.5 -105q0 -63 -42.5 -105t-105.5 -42t-105.5 42t-42.5 105zM444 287q0 62 42.5 104.5t105.5 42.5t105.5 -42.5t42.5 -104.5q0 -63 -42.5 -105.5t-105.5 -42.5t-105.5 42.5t-42.5 105.5z" />
    <glyph glyph-name="oslash" unicode="&#xf8;" horiz-adv-x="1304" 
d="M71 530q0 152 75 279.5t208.5 201.5t297.5 74q156 0 286 -69l121 153l122 -93l-118 -149q81 -76 125.5 -179t44.5 -218q0 -152 -75 -279.5t-208.5 -201.5t-297.5 -74q-156 0 -286 69l-119 -152l-122 94l116 146q-81 77 -125.5 179.5t-44.5 218.5zM997 530q0 127 -74 218
l-421 -532q68 -33 150 -33q146 0 245.5 100.5t99.5 246.5zM307 530q0 -125 75 -219l420 532q-72 35 -150 35q-146 0 -245.5 -101t-99.5 -247z" />
    <glyph glyph-name="ugrave" unicode="&#xf9;" horiz-adv-x="1245" 
d="M546 -24q-192 0 -308 118t-116 313v654h233v-634q0 -107 66.5 -175.5t172.5 -68.5q113 0 193.5 85.5t80.5 214.5v578h235v-1061h-235v140q-56 -75 -140 -119.5t-182 -44.5zM469 1613l251 -343l-109 -85l-292 307z" />
    <glyph glyph-name="uacute" unicode="&#xfa;" horiz-adv-x="1245" 
d="M546 -24q-192 0 -308 118t-116 313v654h233v-634q0 -107 66.5 -175.5t172.5 -68.5q113 0 193.5 85.5t80.5 214.5v578h235v-1061h-235v140q-56 -75 -140 -119.5t-182 -44.5zM460 1270l251 343l150 -121l-293 -307z" />
    <glyph glyph-name="ucircumflex" unicode="&#xfb;" horiz-adv-x="1245" 
d="M546 -24q-192 0 -308 118t-116 313v654h233v-634q0 -107 66.5 -175.5t172.5 -68.5q113 0 193.5 85.5t80.5 214.5v578h235v-1061h-235v140q-56 -75 -140 -119.5t-182 -44.5zM502 1562h220l228 -311l-109 -85l-229 240l-230 -240l-109 85z" />
    <glyph glyph-name="udieresis" unicode="&#xfc;" horiz-adv-x="1245" 
d="M546 -24q-192 0 -308 118t-116 313v654h233v-634q0 -107 66.5 -175.5t172.5 -68.5q113 0 193.5 85.5t80.5 214.5v578h235v-1061h-235v140q-56 -75 -140 -119.5t-182 -44.5zM288 1372q0 56 38.5 94t94.5 38q57 0 95 -38t38 -94t-38 -94.5t-95 -38.5q-56 0 -94.5 38.5
t-38.5 94.5zM669 1372q0 56 38.5 94t94.5 38q57 0 95 -38t38 -94t-38 -94.5t-95 -38.5q-56 0 -94.5 38.5t-38.5 94.5z" />
    <glyph glyph-name="yacute" unicode="&#xfd;" horiz-adv-x="1087" 
d="M482 -475h-244l187 477l-401 1059h243l276 -763l277 763h244zM383 1270l251 343l150 -121l-293 -307z" />
    <glyph glyph-name="thorn" unicode="&#xfe;" horiz-adv-x="1337" 
d="M1266 530q0 -153 -66 -280t-185 -201t-266 -74q-114 0 -210 44.5t-164 123.5v-618h-233v1970h233v-579q68 80 163.5 124.5t210.5 44.5q110 0 206.5 -43.5t164.5 -118t107 -177t39 -216.5zM1030 530q0 146 -94 247t-234 101t-233.5 -101t-93.5 -247t94 -246.5t233 -100.5
q138 0 233 100.5t95 246.5z" />
    <glyph glyph-name="ydieresis" unicode="&#xff;" horiz-adv-x="1087" 
d="M482 -475h-244l187 477l-401 1059h243l276 -763l277 763h244zM219 1372q0 55 39 93.5t95 38.5q57 0 95 -38t38 -94t-38 -94.5t-95 -38.5q-56 0 -95 38.5t-39 94.5zM600 1372q0 55 39 93.5t95 38.5q57 0 95 -38t38 -94t-38 -94.5t-95 -38.5q-56 0 -95 38.5t-39 94.5z" />
    <glyph glyph-name="Amacron" unicode="&#x100;" horiz-adv-x="1404" 
d="M568 1434h269l526 -1434h-259l-120 346h-564l-120 -346h-259zM486 548h433l-217 623zM394 1609v178h615v-178h-615z" />
    <glyph glyph-name="amacron" unicode="&#x101;" horiz-adv-x="1337" 
d="M71 530q0 153 66.5 280t185.5 201t266 74q228 0 373 -169v145h232v-1061h-232v143q-69 -79 -164.5 -123.5t-208.5 -44.5q-147 0 -266 74t-185.5 201t-66.5 280zM307 530q0 -146 94.5 -246.5t233.5 -100.5t233 100.5t94 246.5t-93.5 247t-233.5 101t-234 -101t-94 -247z
M349 1277v178h615v-178h-615z" />
    <glyph glyph-name="Abreve" unicode="&#x102;" horiz-adv-x="1404" 
d="M568 1434h269l526 -1434h-259l-120 346h-564l-120 -346h-259zM486 548h433l-217 623zM701 1525q-139 0 -239.5 90t-107.5 228h200q2 -67 43.5 -110.5t103.5 -43.5q63 0 104.5 44t43.5 110h201q-7 -138 -108 -228t-241 -90z" />
    <glyph glyph-name="abreve" unicode="&#x103;" horiz-adv-x="1337" 
d="M71 530q0 153 66.5 280t185.5 201t266 74q228 0 373 -169v145h232v-1061h-232v143q-69 -79 -164.5 -123.5t-208.5 -44.5q-147 0 -266 74t-185.5 201t-66.5 280zM307 530q0 -146 94.5 -246.5t233.5 -100.5t233 100.5t94 246.5t-93.5 247t-233.5 101t-234 -101t-94 -247z
M645 1193q-139 0 -239.5 90t-107.5 228h200q2 -67 43.5 -110.5t103.5 -43.5q63 0 104.5 44t43.5 110h200q-7 -138 -107.5 -228t-240.5 -90z" />
    <glyph glyph-name="Aogonek" unicode="&#x104;" horiz-adv-x="1404" 
d="M1197 0h-93l-120 346h-564l-120 -346h-259l527 1434h269l526 -1434q-114 -79 -169 -145.5t-55 -135.5q0 -51 26.5 -78t69.5 -27q44 0 71 28.5t33 78.5h174q-14 -117 -88.5 -185t-194.5 -68q-111 0 -188.5 65.5t-77.5 168.5q0 87 60.5 164.5t172.5 133.5zM486 548h433
l-217 623z" />
    <glyph glyph-name="aogonek" unicode="&#x105;" horiz-adv-x="1337" 
d="M71 530q0 153 66.5 280t185.5 201t266 74q228 0 373 -169v145h232v-1061q-115 -79 -169.5 -145.5t-54.5 -136.5q0 -51 26.5 -78t69.5 -27q44 0 71 28.5t33 79.5h175q-14 -117 -89 -185t-195 -68q-111 0 -188.5 65t-77.5 169q0 87 60.5 164.5t172.5 133.5h-66v143
q-69 -79 -164.5 -123.5t-208.5 -44.5q-147 0 -266 74t-185.5 201t-66.5 280zM307 530q0 -146 94.5 -246.5t233.5 -100.5t233 100.5t94 246.5t-93.5 247t-233.5 101t-234 -101t-94 -247z" />
    <glyph glyph-name="Cacute" unicode="&#x106;" horiz-adv-x="1552" 
d="M1306 471l146 -106q-216 -390 -648 -390q-151 0 -284.5 56.5t-230 154t-152.5 236t-56 295.5t56 295t152.5 235.5t230 154t284.5 56.5q256 0 433 -137.5t234 -377.5h-252q-43 145 -155 224t-257 79q-96 0 -183.5 -37.5t-153.5 -104.5t-105 -167.5t-39 -219.5t40 -220
t107.5 -168t156 -104.5t186.5 -37.5q312 0 490 284zM619 1601l251 343l150 -121l-293 -307z" />
    <glyph glyph-name="cacute" unicode="&#x107;" horiz-adv-x="1209" 
d="M979 359l138 -94q-77 -143 -198 -216.5t-277 -73.5t-287 72.5t-207.5 200t-76.5 282.5q0 116 43 219t116 176.5t175.5 116.5t216.5 43q197 0 334.5 -101t181.5 -278h-252q-28 81 -95.5 126.5t-161.5 45.5q-130 0 -226 -98.5t-96 -249.5q0 -154 101.5 -250.5t245.5 -96.5
q98 0 182.5 46t142.5 130zM479 1270l251 343l150 -121l-293 -307z" />
    <glyph glyph-name="Ccircumflex" unicode="&#x108;" horiz-adv-x="1552" 
d="M1306 471l146 -106q-216 -390 -648 -390q-151 0 -284.5 56.5t-230 154t-152.5 236t-56 295.5t56 295t152.5 235.5t230 154t284.5 56.5q256 0 433 -137.5t234 -377.5h-252q-43 145 -155 224t-257 79q-96 0 -183.5 -37.5t-153.5 -104.5t-105 -167.5t-39 -219.5t40 -220
t107.5 -168t156 -104.5t186.5 -37.5q312 0 490 284zM675 1893h220l228 -311l-109 -85l-229 240l-230 -240l-109 85z" />
    <glyph glyph-name="ccircumflex" unicode="&#x109;" horiz-adv-x="1209" 
d="M979 359l138 -94q-77 -143 -198 -216.5t-277 -73.5t-287 72.5t-207.5 200t-76.5 282.5q0 116 43 219t116 176.5t175.5 116.5t216.5 43q197 0 334.5 -101t181.5 -278h-252q-28 81 -95.5 126.5t-161.5 45.5q-130 0 -226 -98.5t-96 -249.5q0 -154 101.5 -250.5t245.5 -96.5
q98 0 182.5 46t142.5 130zM487 1562h220l228 -311l-109 -85l-229 240l-230 -240l-109 85z" />
    <glyph glyph-name="Cdotaccent" unicode="&#x10a;" horiz-adv-x="1552" 
d="M1306 471l146 -106q-216 -390 -648 -390q-151 0 -284.5 56.5t-230 154t-152.5 236t-56 295.5t56 295t152.5 235.5t230 154t284.5 56.5q256 0 433 -137.5t234 -377.5h-252q-43 145 -155 224t-257 79q-96 0 -183.5 -37.5t-153.5 -104.5t-105 -167.5t-39 -219.5t40 -220
t107.5 -168t156 -104.5t186.5 -37.5q312 0 490 284zM649 1703q0 56 38.5 95t95.5 39t96.5 -39t39.5 -95t-39.5 -95t-96.5 -39t-95.5 39t-38.5 95z" />
    <glyph glyph-name="cdotaccent" unicode="&#x10b;" horiz-adv-x="1209" 
d="M979 359l138 -94q-77 -143 -198 -216.5t-277 -73.5t-287 72.5t-207.5 200t-76.5 282.5q0 116 43 219t116 176.5t175.5 116.5t216.5 43q197 0 334.5 -101t181.5 -278h-252q-28 81 -95.5 126.5t-161.5 45.5q-130 0 -226 -98.5t-96 -249.5q0 -154 101.5 -250.5t245.5 -96.5
q98 0 182.5 46t142.5 130zM482 1371q0 56 38.5 95t95.5 39t96.5 -39t39.5 -95t-39.5 -95t-96.5 -39t-95.5 39t-38.5 95z" />
    <glyph glyph-name="Ccaron" unicode="&#x10c;" horiz-adv-x="1552" 
d="M1306 471l146 -106q-216 -390 -648 -390q-151 0 -284.5 56.5t-230 154t-152.5 236t-56 295.5t56 295t152.5 235.5t230 154t284.5 56.5q256 0 433 -137.5t234 -377.5h-252q-43 145 -155 224t-257 79q-96 0 -183.5 -37.5t-153.5 -104.5t-105 -167.5t-39 -219.5t40 -220
t107.5 -168t156 -104.5t186.5 -37.5q312 0 490 284zM895 1545h-220l-229 312l109 85l229 -241l231 241l108 -85z" />
    <glyph glyph-name="ccaron" unicode="&#x10d;" horiz-adv-x="1209" 
d="M979 359l138 -94q-77 -143 -198 -216.5t-277 -73.5t-287 72.5t-207.5 200t-76.5 282.5q0 116 43 219t116 176.5t175.5 116.5t216.5 43q197 0 334.5 -101t181.5 -278h-252q-28 81 -95.5 126.5t-161.5 45.5q-130 0 -226 -98.5t-96 -249.5q0 -154 101.5 -250.5t245.5 -96.5
q98 0 182.5 46t142.5 130zM709 1193h-221l-228 311l109 85l229 -240l230 240l109 -85z" />
    <glyph glyph-name="Dcaron" unicode="&#x10e;" horiz-adv-x="1460" 
d="M164 1434h503q325 0 518.5 -194.5t193.5 -522.5t-193 -522.5t-519 -194.5h-503v1434zM662 1222h-256v-1010h256q217 0 345 129.5t128 375.5q0 245 -128 375t-345 130zM812 1545h-220l-229 311l109 85l229 -240l230 240l109 -85z" />
    <glyph glyph-name="dcaron" unicode="&#x10f;" horiz-adv-x="1667" 
d="M71 530q0 153 66.5 280t185.5 201t266 74q228 0 373 -169v579h232v-1495h-232v143q-69 -79 -164.5 -123.5t-208.5 -44.5q-147 0 -266 74t-185.5 201t-66.5 280zM307 530q0 -146 94.5 -246.5t233.5 -100.5t233 100.5t94 246.5t-93.5 247t-233.5 101t-234 -101t-94 -247z
M1352 1395q0 49 37 86.5t96 37.5q58 0 94.5 -40t36.5 -108q0 -110 -65 -203.5t-189 -144.5l-59 69q51 37 77.5 67.5t31 59t-4.5 52.5t-33 57q-22 30 -22 67z" />
    <glyph glyph-name="Dcroat" unicode="&#x110;" horiz-adv-x="1497" 
d="M202 1434h503q325 0 518 -194.5t193 -522.5t-192.5 -522.5t-518.5 -194.5h-503v632h-184v169h184v633zM731 632h-288v-420h256q217 0 344.5 129.5t127.5 375.5t-128 375.5t-344 129.5h-256v-421h288v-169z" />
    <glyph glyph-name="dcroat" unicode="&#x111;" horiz-adv-x="1364" 
d="M632 1190v150h330v155h232v-155h147v-150h-147v-1190h-232v143q-69 -79 -164.5 -123.5t-208.5 -44.5q-147 0 -266 74t-185.5 201t-66.5 280t66.5 280t185.5 201t266 74q228 0 373 -169v274h-330zM307 530q0 -146 94.5 -246.5t233.5 -100.5t233 100.5t94 246.5t-93.5 247
t-233.5 101t-234 -101t-94 -247z" />
    <glyph glyph-name="Emacron" unicode="&#x112;" horiz-adv-x="1164" 
d="M164 0v1434h870v-208h-628v-403h577v-206h-577v-410h647v-207h-889zM290 1609v178h614v-178h-614z" />
    <glyph glyph-name="emacron" unicode="&#x113;" horiz-adv-x="1259" 
d="M308 459q17 -127 113.5 -209t235.5 -82q108 0 193 38.5t165 117.5l125 -122q-95 -108 -210.5 -167.5t-269.5 -59.5q-130 0 -240.5 43.5t-186.5 118t-119 176.5t-43 217q0 114 43.5 216.5t118.5 177t181 118t226 43.5q118 0 220.5 -42.5t174 -114.5t112.5 -170t41 -207
q0 -49 -10 -92h-870zM639 893q-116 0 -205.5 -72t-118.5 -184h630q-23 113 -106 184.5t-200 71.5zM322 1277v178h614v-178h-614z" />
    <glyph glyph-name="Ebreve" unicode="&#x114;" horiz-adv-x="1164" 
d="M164 0v1434h870v-208h-628v-403h577v-206h-577v-410h647v-207h-889zM596 1525q-139 0 -239.5 90t-107.5 228h200q2 -67 43.5 -110.5t103.5 -43.5t103.5 43.5t43.5 110.5h201q-7 -138 -107.5 -228t-240.5 -90z" />
    <glyph glyph-name="ebreve" unicode="&#x115;" horiz-adv-x="1259" 
d="M308 459q17 -127 113.5 -209t235.5 -82q108 0 193 38.5t165 117.5l125 -122q-95 -108 -210.5 -167.5t-269.5 -59.5q-130 0 -240.5 43.5t-186.5 118t-119 176.5t-43 217q0 114 43.5 216.5t118.5 177t181 118t226 43.5q118 0 220.5 -42.5t174 -114.5t112.5 -170t41 -207
q0 -49 -10 -92h-870zM639 893q-116 0 -205.5 -72t-118.5 -184h630q-23 113 -106 184.5t-200 71.5zM629 1193q-139 0 -239.5 90t-107.5 228h199q2 -66 43.5 -110t104.5 -44q62 0 103.5 43.5t43.5 110.5h201q-7 -138 -107.5 -228t-240.5 -90z" />
    <glyph glyph-name="Edotaccent" unicode="&#x116;" horiz-adv-x="1164" 
d="M164 0v1434h870v-208h-628v-403h577v-206h-577v-410h647v-207h-889zM471 1703q0 56 38.5 95t95.5 39t96 -39t39 -95t-39 -95t-96 -39t-95.5 39t-38.5 95z" />
    <glyph glyph-name="edotaccent" unicode="&#x117;" horiz-adv-x="1259" 
d="M308 459q17 -127 113.5 -209t235.5 -82q108 0 193 38.5t165 117.5l125 -122q-95 -108 -210.5 -167.5t-269.5 -59.5q-130 0 -240.5 43.5t-186.5 118t-119 176.5t-43 217q0 114 43.5 216.5t118.5 177t181 118t226 43.5q118 0 220.5 -42.5t174 -114.5t112.5 -170t41 -207
q0 -49 -10 -92h-870zM639 893q-116 0 -205.5 -72t-118.5 -184h630q-23 113 -106 184.5t-200 71.5zM495 1371q0 56 38.5 95t95.5 39t96 -39t39 -95t-39 -95t-96 -39t-95.5 39t-38.5 95z" />
    <glyph glyph-name="Eogonek" unicode="&#x118;" horiz-adv-x="1164" 
d="M164 0v1434h870v-208h-628v-403h577v-206h-577v-410h647v-207h-165q-115 -79 -169.5 -145.5t-54.5 -136.5q0 -51 26.5 -78t69.5 -27q44 0 71 28.5t33 79.5h174q-14 -117 -88.5 -185t-194.5 -68q-111 0 -189 65t-78 169q0 86 61 164t173 134h-558z" />
    <glyph glyph-name="eogonek" unicode="&#x119;" horiz-adv-x="1259" 
d="M308 459q17 -127 113.5 -209t235.5 -82q197 0 342 147l125 -120q-150 -178 -363 -212q-102 -73 -151.5 -135.5t-49.5 -129.5q0 -51 26.5 -78t69.5 -27q44 0 71.5 28.5t33.5 79.5h174q-14 -117 -88.5 -185t-194.5 -68q-112 0 -189 65t-77 169q0 78 50.5 150.5t144.5 127.5
q-151 17 -268 93.5t-179.5 195.5t-62.5 261q0 114 43.5 216.5t118.5 177t181 118t226 43.5q118 0 220.5 -42.5t174 -114.5t112.5 -170t41 -207q0 -49 -10 -92h-870zM639 893q-116 0 -205.5 -72t-118.5 -184h630q-23 113 -106 184.5t-200 71.5z" />
    <glyph glyph-name="Ecaron" unicode="&#x11a;" horiz-adv-x="1164" 
d="M164 0v1434h870v-208h-628v-403h577v-206h-577v-410h647v-207h-889zM709 1545h-220l-229 311l109 85l229 -240l230 240l109 -85z" />
    <glyph glyph-name="ecaron" unicode="&#x11b;" horiz-adv-x="1259" 
d="M308 459q17 -127 113.5 -209t235.5 -82q108 0 193 38.5t165 117.5l125 -122q-95 -108 -210.5 -167.5t-269.5 -59.5q-130 0 -240.5 43.5t-186.5 118t-119 176.5t-43 217q0 114 43.5 216.5t118.5 177t181 118t226 43.5q118 0 220.5 -42.5t174 -114.5t112.5 -170t41 -207
q0 -49 -10 -92h-870zM639 893q-116 0 -205.5 -72t-118.5 -184h630q-23 113 -106 184.5t-200 71.5zM740 1193h-220l-229 311l109 85l229 -240l230 240l109 -85z" />
    <glyph glyph-name="Gcircumflex" unicode="&#x11c;" horiz-adv-x="1580" 
d="M779 744h720v-47q0 -169 -51 -305.5t-141.5 -227.5t-216 -140t-274.5 -49q-147 0 -282.5 57.5t-235 155.5t-158.5 236t-59 293q0 157 58 295.5t156 235.5t230.5 153.5t278.5 56.5q263 0 439.5 -134.5t236.5 -355.5h-260q-51 131 -158 204t-255 73q-94 0 -180.5 -37.5
t-153.5 -104t-107 -167t-40 -219.5q0 -116 40.5 -216.5t108.5 -168.5t157.5 -106.5t185.5 -38.5q164 0 282.5 101t136.5 259h-458v197zM678 1893h220l228 -311l-108 -85l-230 241l-230 -241l-108 85z" />
    <glyph glyph-name="gcircumflex" unicode="&#x11d;" horiz-adv-x="1337" 
d="M71 530q0 153 66.5 280t185.5 201t266 74q228 0 373 -169v145h232v-1013q0 -238 -144.5 -380.5t-405.5 -142.5q-274 0 -473 228l118 128q147 -155 348 -155q149 0 237 82t88 225v110q-69 -79 -164.5 -123.5t-208.5 -44.5q-147 0 -266 74t-185.5 201t-66.5 280zM307 530
q0 -146 94.5 -246.5t233.5 -100.5t233 100.5t94 246.5t-93.5 247t-233.5 101t-234 -101t-94 -247zM546 1562h220l228 -312l-108 -85l-230 241l-230 -241l-109 85z" />
    <glyph glyph-name="Gbreve" unicode="&#x11e;" horiz-adv-x="1580" 
d="M779 744h720v-47q0 -169 -51 -305.5t-141.5 -227.5t-216 -140t-274.5 -49q-147 0 -282.5 57.5t-235 155.5t-158.5 236t-59 293q0 157 58 295.5t156 235.5t230.5 153.5t278.5 56.5q263 0 439.5 -134.5t236.5 -355.5h-260q-51 131 -158 204t-255 73q-94 0 -180.5 -37.5
t-153.5 -104t-107 -167t-40 -219.5q0 -116 40.5 -216.5t108.5 -168.5t157.5 -106.5t185.5 -38.5q164 0 282.5 101t136.5 259h-458v197zM787 1525q-139 0 -239.5 90.5t-107.5 228.5h200q2 -67 43.5 -111t103.5 -44t104 44t44 111h200q-7 -138 -107.5 -228.5t-240.5 -90.5z
" />
    <glyph glyph-name="gbreve" unicode="&#x11f;" horiz-adv-x="1337" 
d="M71 530q0 153 66.5 280t185.5 201t266 74q228 0 373 -169v145h232v-1013q0 -238 -144.5 -380.5t-405.5 -142.5q-274 0 -473 228l118 128q147 -155 348 -155q149 0 237 82t88 225v110q-69 -79 -164.5 -123.5t-208.5 -44.5q-147 0 -266 74t-185.5 201t-66.5 280zM307 530
q0 -146 94.5 -246.5t233.5 -100.5t233 100.5t94 246.5t-93.5 247t-233.5 101t-234 -101t-94 -247zM644 1193q-139 0 -239.5 90.5t-107.5 228.5h200q2 -67 43.5 -111t103.5 -44t104 44t44 111h200q-7 -138 -107.5 -228.5t-240.5 -90.5z" />
    <glyph glyph-name="Gdotaccent" unicode="&#x120;" horiz-adv-x="1580" 
d="M779 744h720v-47q0 -169 -51 -305.5t-141.5 -227.5t-216 -140t-274.5 -49q-147 0 -282.5 57.5t-235 155.5t-158.5 236t-59 293q0 157 58 295.5t156 235.5t230.5 153.5t278.5 56.5q263 0 439.5 -134.5t236.5 -355.5h-260q-51 131 -158 204t-255 73q-94 0 -180.5 -37.5
t-153.5 -104t-107 -167t-40 -219.5q0 -116 40.5 -216.5t108.5 -168.5t157.5 -106.5t185.5 -38.5q164 0 282.5 101t136.5 259h-458v197zM653 1703q0 56 38.5 95t95.5 39t96.5 -39t39.5 -95t-39.5 -95t-96.5 -39t-95.5 39t-38.5 95z" />
    <glyph glyph-name="gdotaccent" unicode="&#x121;" horiz-adv-x="1337" 
d="M71 530q0 153 66.5 280t185.5 201t266 74q228 0 373 -169v145h232v-1013q0 -238 -144.5 -380.5t-405.5 -142.5q-274 0 -473 228l118 128q147 -155 348 -155q149 0 237 82t88 225v110q-69 -79 -164.5 -123.5t-208.5 -44.5q-147 0 -266 74t-185.5 201t-66.5 280zM307 530
q0 -146 94.5 -246.5t233.5 -100.5t233 100.5t94 246.5t-93.5 247t-233.5 101t-234 -101t-94 -247zM503 1371q0 56 38.5 95t95.5 39t96 -39t39 -95t-39 -95t-96 -39t-95.5 39t-38.5 95z" />
    <glyph glyph-name="Gcommaaccent" unicode="&#x122;" horiz-adv-x="1580" 
d="M779 744h720v-47q0 -169 -51 -305.5t-141.5 -227.5t-216 -140t-274.5 -49q-147 0 -282.5 57.5t-235 155.5t-158.5 236t-59 293q0 157 58 295.5t156 235.5t230.5 153.5t278.5 56.5q263 0 439.5 -134.5t236.5 -355.5h-260q-51 131 -158 204t-255 73q-94 0 -180.5 -37.5
t-153.5 -104t-107 -167t-40 -219.5q0 -116 40.5 -216.5t108.5 -168.5t157.5 -106.5t185.5 -38.5q164 0 282.5 101t136.5 259h-458v197zM581 -434l250 343l151 -121l-293 -307z" />
    <glyph glyph-name="gcommaaccent" unicode="&#x123;" horiz-adv-x="1337" 
d="M71 530q0 153 66.5 280t185.5 201t266 74q228 0 373 -169v145h232v-1013q0 -238 -144.5 -380.5t-405.5 -142.5q-274 0 -473 228l118 128q147 -155 348 -155q149 0 237 82t88 225v110q-69 -79 -164.5 -123.5t-208.5 -44.5q-147 0 -266 74t-185.5 201t-66.5 280zM307 530
q0 -146 94.5 -246.5t233.5 -100.5t233 100.5t94 246.5t-93.5 247t-233.5 101t-234 -101t-94 -247zM886 1503l-251 -343l-151 121l293 307z" />
    <glyph glyph-name="Hcircumflex" unicode="&#x124;" horiz-adv-x="1437" 
d="M164 0v1434h242v-610h625v610h242v-1434h-242v615h-625v-615h-242zM609 1893h220l228 -311l-109 -85l-229 240l-230 -240l-109 85z" />
    <glyph glyph-name="hcircumflex" unicode="&#x125;" horiz-adv-x="1245" 
d="M699 1085q192 0 308 -118t116 -313v-654h-233v634q0 100 -68 172t-171 72q-112 0 -193 -83.5t-81 -210.5v-584h-235v1495h235v-575q56 76 140 120.5t182 44.5zM150 1955h220l228 -311l-109 -85l-229 240l-230 -240l-109 85z" />
    <glyph glyph-name="Hbar" unicode="&#x126;" horiz-adv-x="1458" 
d="M174 0v1062h-125v166h125v206h242v-206h625v206h242v-206h126v-166h-126v-1062h-242v617h-625v-617h-242zM416 823h625v239h-625v-239z" />
    <glyph glyph-name="hbar" unicode="&#x127;" horiz-adv-x="1272" 
d="M402 1495v-155h331v-150h-331v-270q56 76 140.5 120.5t183.5 44.5q192 0 308 -118t116 -313v-654h-235v634q0 107 -66 175.5t-171 68.5q-113 0 -194.5 -85.5t-81.5 -214.5v-578h-233v1190h-145v150h145v155h233z" />
    <glyph glyph-name="Itilde" unicode="&#x128;" horiz-adv-x="602" 
d="M180 1434h242v-1434h-242v1434zM304 1608q-73 50 -107 50q-47 0 -66 -90l-191 38q45 225 202 225q74 0 155 -52q4 -3 15.5 -10.5t16.5 -11t15 -9.5t16 -8.5t14 -6t15 -5t14 -1.5q48 0 67 91l190 -38q-23 -114 -72 -170t-129 -56q-76 0 -155 54z" />
    <glyph glyph-name="itilde" unicode="&#x129;" horiz-adv-x="549" 
d="M279 1275q-73 50 -108 50q-47 0 -66 -90l-191 38q45 225 203 225q73 0 154 -52q29 -19 39.5 -25.5t31.5 -16t36 -9.5q47 0 66 90l191 -38q-45 -225 -202 -225q-76 0 -154 53zM158 0v1061h233v-1061h-233z" />
    <glyph glyph-name="Imacron" unicode="&#x12a;" horiz-adv-x="602" 
d="M180 1434h242v-1434h-242v1434zM-7 1609v178h614v-178h-614z" />
    <glyph glyph-name="imacron" unicode="&#x12b;" horiz-adv-x="549" 
d="M-33 1277v178h615v-178h-615zM158 0v1061h233v-1061h-233z" />
    <glyph glyph-name="Ibreve" unicode="&#x12c;" horiz-adv-x="602" 
d="M180 1434h242v-1434h-242v1434zM300 1525q-139 0 -239.5 90t-107.5 228h200q2 -67 43.5 -110.5t103.5 -43.5t103.5 43.5t43.5 110.5h201q-7 -138 -107.5 -228t-240.5 -90z" />
    <glyph glyph-name="ibreve" unicode="&#x12d;" horiz-adv-x="549" 
d="M274 1193q-139 0 -239.5 90t-107.5 228h200q2 -67 43.5 -110.5t103.5 -43.5q63 0 104.5 44t43.5 110h201q-7 -138 -108 -228t-241 -90zM158 0v1061h233v-1061h-233z" />
    <glyph glyph-name="Iogonek" unicode="&#x12e;" horiz-adv-x="602" 
d="M256 0h-76v1434h242v-1434q-200 -140 -200 -282q0 -51 26.5 -78t69.5 -27q44 0 71.5 28.5t33.5 79.5h174q-14 -117 -88.5 -185t-194.5 -68q-112 0 -189 65t-77 169q0 86 53.5 163t154.5 135z" />
    <glyph glyph-name="iogonek" unicode="&#x12f;" horiz-adv-x="549" 
d="M158 0v1061h233v-1061q-198 -138 -198 -282q0 -51 26.5 -78t69.5 -27q44 0 71 28.5t33 79.5h174q-14 -117 -88.5 -185t-194.5 -68q-111 0 -189 65t-78 169q0 86 53.5 163t154.5 135h-67zM130 1350q0 61 41.5 102t102.5 41q62 0 104 -41t42 -102q0 -60 -42.5 -101.5
t-103.5 -41.5t-102.5 41.5t-41.5 101.5z" />
    <glyph glyph-name="Idotaccent" unicode="&#x130;" horiz-adv-x="602" 
d="M180 1434h242v-1434h-242v1434zM166 1703q0 56 38.5 95t95.5 39t96 -39t39 -95t-39 -95t-96 -39t-95.5 39t-38.5 95z" />
    <glyph glyph-name="dotlessi" unicode="&#x131;" horiz-adv-x="549" 
d="M158 0v1061h233v-1061h-233z" />
    <glyph glyph-name="IJ" unicode="&#x132;" horiz-adv-x="1507" 
d="M180 1434h242v-1434h-242v1434zM1114 454v980h242v-985q0 -238 -112.5 -356t-321.5 -118q-77 0 -160 25.5t-145 71.5l62 170q100 -55 208 -55q227 0 227 267z" />
    <glyph glyph-name="ij" unicode="&#x133;" horiz-adv-x="1099" 
d="M158 0v1061h233v-1061h-233zM130 1350q0 61 41.5 102t102.5 41q62 0 104 -41t42 -102q0 -60 -42.5 -101.5t-103.5 -41.5t-102.5 41.5t-41.5 101.5zM708 -117v1178h233v-1183q0 -183 -81.5 -268t-246.5 -85q-56 0 -100 11v194q9 -1 56 -1q71 0 105 35.5t34 118.5z
M680 1350q0 61 41.5 102t102.5 41q62 0 104 -41t42 -102q0 -60 -42.5 -101.5t-103.5 -41.5t-102.5 41.5t-41.5 101.5z" />
    <glyph glyph-name="Jcircumflex" unicode="&#x134;" horiz-adv-x="941" 
d="M548 454v980h242v-985q0 -238 -113 -356t-322 -118q-77 0 -159.5 25.5t-144.5 71.5l62 170q100 -55 208 -55q227 0 227 267zM559 1893h220l228 -311l-109 -85l-229 240l-230 -240l-109 85z" />
    <glyph glyph-name="jcircumflex" unicode="&#x135;" horiz-adv-x="549" 
d="M158 -117v1178h233v-1183q0 -183 -83 -268t-255 -85q-52 0 -90 5v200q9 -1 56 -1q71 0 105 35.5t34 118.5zM165 1562h220l228 -312l-108 -85l-230 241l-230 -241l-108 85z" />
    <glyph glyph-name="Kcommaaccent" unicode="&#x136;" horiz-adv-x="1249" 
d="M900 1433h242q0 -567 -300 -731l416 -702h-276l-375 637q-36 -4 -81 -4h-120v-633h-242v1434h242v-592h76q147 0 236.5 56t135.5 186.5t46 348.5zM414 -434l251 343l150 -121l-293 -307z" />
    <glyph glyph-name="kcommaaccent" unicode="&#x137;" horiz-adv-x="1076" 
d="M753 1061h233q0 -193 -60 -325t-174 -196l318 -540h-264l-283 486h-146v-486h-235v1495h235v-808h101q125 0 200 90t75 284zM298 -434l251 343l150 -121l-292 -307z" />
    <glyph glyph-name="kgreenlandic" unicode="&#x138;" horiz-adv-x="1076" 
d="M753 1061h233q0 -193 -60 -325t-174 -196l318 -540h-264l-283 486h-146v-486h-235v1061h235v-374h101q125 0 200 90t75 284z" />
    <glyph glyph-name="Lacute" unicode="&#x139;" horiz-adv-x="1058" 
d="M164 0v1434h242v-1225h611v-209h-853zM213 1601l251 343l150 -121l-293 -307z" />
    <glyph glyph-name="lacute" unicode="&#x13a;" horiz-adv-x="549" 
d="M158 0v1495h233v-1495h-233zM151 1663l251 343l150 -121l-293 -307z" />
    <glyph glyph-name="Lcommaaccent" unicode="&#x13b;" horiz-adv-x="1058" 
d="M164 0v1434h242v-1225h611v-209h-853zM351 -434l251 343l151 -121l-293 -307z" />
    <glyph glyph-name="lcommaaccent" unicode="&#x13c;" horiz-adv-x="549" 
d="M158 0v1495h233v-1495h-233zM27 -434l251 343l150 -121l-293 -307z" />
    <glyph glyph-name="Lcaron" unicode="&#x13d;" horiz-adv-x="1058" 
d="M164 0v1434h242v-1225h611v-209h-853zM659 1333q0 49 37.5 86.5t96.5 37.5q58 0 94.5 -39.5t36.5 -107.5q0 -110 -65 -203.5t-189 -144.5l-60 68q51 37 78 67.5t31.5 59t-4.5 53t-33 57.5q-23 32 -23 66z" />
    <glyph glyph-name="lcaron" unicode="&#x13e;" horiz-adv-x="864" 
d="M158 0v1495h233v-1495h-233zM550 1395q0 49 37 86.5t96 37.5q58 0 94.5 -40t36.5 -108q0 -110 -65 -203.5t-189 -144.5l-59 69q51 37 77.5 67.5t31 59t-4.5 52.5t-33 57q-22 30 -22 67z" />
    <glyph glyph-name="Ldot" unicode="&#x13f;" horiz-adv-x="1058" 
d="M164 0v1434h242v-1225h611v-209h-853zM627 774q0 56 38.5 95t95.5 39t96 -39t39 -95t-39 -95t-96 -39t-95.5 39t-38.5 95z" />
    <glyph glyph-name="ldot" unicode="&#x140;" horiz-adv-x="855" 
d="M158 0v1495h233v-1495h-233zM540 769q0 56 38.5 95t95.5 39t96 -39t39 -95t-39 -95t-96 -39t-95.5 39t-38.5 95z" />
    <glyph glyph-name="Lslash" unicode="&#x141;" horiz-adv-x="1088" 
d="M195 0v544l-107 -55l-70 149l177 89v707h241v-582l308 158l72 -147l-380 -195v-459h611v-209h-852z" />
    <glyph glyph-name="lslash" unicode="&#x142;" horiz-adv-x="617" 
d="M574 995l70 -142l-218 -109v-744h-235v628l-146 -73l-68 144l214 107v689h235v-573z" />
    <glyph glyph-name="Nacute" unicode="&#x143;" horiz-adv-x="1439" 
d="M164 0v1434h240l642 -1033v1033h230v-1434h-241l-641 1032v-1032h-230zM557 1601l251 343l150 -121l-293 -307z" />
    <glyph glyph-name="nacute" unicode="&#x144;" horiz-adv-x="1245" 
d="M699 1085q192 0 308 -118t116 -313v-654h-233v634q0 107 -66.5 175.5t-172.5 68.5q-112 0 -193 -83.5t-81 -210.5v-584h-235v1061h235v-141q56 76 140 120.5t182 44.5zM510 1270l251 343l150 -121l-293 -307z" />
    <glyph glyph-name="Ncommaaccent" unicode="&#x145;" horiz-adv-x="1440" 
d="M164 0v1434h240l642 -1033v1033h230v-1434h-241l-641 1032v-1032h-230zM488 -434l251 343l151 -121l-293 -307z" />
    <glyph glyph-name="ncommaaccent" unicode="&#x146;" horiz-adv-x="1245" 
d="M699 1085q192 0 308 -118t116 -313v-654h-233v634q0 107 -66.5 175.5t-172.5 68.5q-112 0 -193 -83.5t-81 -210.5v-584h-235v1061h235v-141q56 76 140 120.5t182 44.5zM394 -434l251 343l151 -121l-293 -307z" />
    <glyph glyph-name="Ncaron" unicode="&#x147;" horiz-adv-x="1440" 
d="M164 0v1434h240l642 -1033v1033h230v-1434h-241l-641 1032v-1032h-230zM829 1545h-220l-228 312l108 85l230 -241l230 241l109 -85z" />
    <glyph glyph-name="ncaron" unicode="&#x148;" horiz-adv-x="1245" 
d="M699 1085q192 0 308 -118t116 -313v-654h-233v634q0 107 -66.5 175.5t-172.5 68.5q-112 0 -193 -83.5t-81 -210.5v-584h-235v1061h235v-141q56 76 140 120.5t182 44.5zM729 1193h-220l-228 311l108 85l229 -240l231 240l108 -85z" />
    <glyph glyph-name="napostrophe" unicode="&#x149;" horiz-adv-x="1462" 
d="M916 1085q192 0 308 -118t116 -313v-654h-233v634q0 107 -66.5 175.5t-172.5 68.5q-112 0 -193 -83.5t-81 -210.5v-584h-235v1061h235v-141q56 76 140 120.5t182 44.5zM77 1395q0 49 37.5 86.5t95.5 37.5t94.5 -40t36.5 -108q0 -110 -65 -203.5t-189 -144.5l-59 69
q51 37 77.5 67.5t31 59t-4.5 52.5t-33 57q-22 30 -22 67z" />
    <glyph glyph-name="Eng" unicode="&#x14a;" horiz-adv-x="1439" 
d="M1046 -100v103l-652 1031v-1034h-230v1434h232l650 -1030v1030h230v-1537q0 -372 -400 -372q-62 0 -111 9v193q56 -6 95 -6q99 0 142.5 44t43.5 135z" />
    <glyph glyph-name="eng" unicode="&#x14b;" horiz-adv-x="1245" 
d="M699 1085q192 0 308 -118t116 -313v-757q0 -187 -99 -279.5t-299 -92.5q-51 0 -116 9v193q54 -6 94 -6q187 0 187 179v734q0 107 -66.5 175.5t-172.5 68.5q-112 0 -193 -83.5t-81 -210.5v-584h-235v1061h235v-141q56 76 140 120.5t182 44.5z" />
    <glyph glyph-name="Omacron" unicode="&#x14c;" horiz-adv-x="1684" 
d="M326 717q0 -147 68.5 -269t187 -191.5t260.5 -69.5t261 69.5t187.5 191.5t68.5 269q0 223 -150 376t-367 153t-366.5 -153t-149.5 -376zM81 717q0 206 100 376t274.5 267.5t386.5 97.5q159 0 300 -57.5t242.5 -156t160.5 -236t59 -291.5t-59 -291.5t-160.5 -236.5
t-242.5 -156.5t-300 -57.5t-300 57.5t-242 156.5t-160 236.5t-59 291.5zM535 1609v178h614v-178h-614z" />
    <glyph glyph-name="omacron" unicode="&#x14d;" horiz-adv-x="1304" 
d="M71 530q0 152 75 279.5t208.5 201.5t297.5 74t297.5 -74t208.5 -201.5t75 -279.5t-75 -279.5t-208.5 -201.5t-297.5 -74t-297.5 74t-208.5 201.5t-75 279.5zM307 530q0 -146 99.5 -246.5t245.5 -100.5t245.5 100.5t99.5 246.5t-99.5 247t-245.5 101t-245.5 -101
t-99.5 -247zM344 1277v178h614v-178h-614z" />
    <glyph glyph-name="Obreve" unicode="&#x14e;" horiz-adv-x="1684" 
d="M326 717q0 -147 68.5 -269t187 -191.5t260.5 -69.5t261 69.5t187.5 191.5t68.5 269q0 223 -150 376t-367 153t-366.5 -153t-149.5 -376zM81 717q0 206 100 376t274.5 267.5t386.5 97.5q159 0 300 -57.5t242.5 -156t160.5 -236t59 -291.5t-59 -291.5t-160.5 -236.5
t-242.5 -156.5t-300 -57.5t-300 57.5t-242 156.5t-160 236.5t-59 291.5zM842 1525q-139 0 -239.5 90t-107.5 228h199q2 -66 43.5 -110t104.5 -44q62 0 103.5 43.5t43.5 110.5h201q-7 -138 -107.5 -228t-240.5 -90z" />
    <glyph glyph-name="obreve" unicode="&#x14f;" horiz-adv-x="1304" 
d="M71 530q0 152 75 279.5t208.5 201.5t297.5 74t297.5 -74t208.5 -201.5t75 -279.5t-75 -279.5t-208.5 -201.5t-297.5 -74t-297.5 74t-208.5 201.5t-75 279.5zM307 530q0 -146 99.5 -246.5t245.5 -100.5t245.5 100.5t99.5 246.5t-99.5 247t-245.5 101t-245.5 -101
t-99.5 -247zM651 1193q-139 0 -239.5 90t-107.5 228h200q2 -67 43.5 -110.5t103.5 -43.5q63 0 104.5 44t43.5 110h200q-7 -138 -107.5 -228t-240.5 -90z" />
    <glyph glyph-name="Ohungarumlaut" unicode="&#x150;" horiz-adv-x="1684" 
d="M326 717q0 -147 68.5 -269t187 -191.5t260.5 -69.5t261 69.5t187.5 191.5t68.5 269q0 223 -150 376t-367 153t-366.5 -153t-149.5 -376zM81 717q0 206 100 376t274.5 267.5t386.5 97.5q159 0 300 -57.5t242.5 -156t160.5 -236t59 -291.5t-59 -291.5t-160.5 -236.5
t-242.5 -156.5t-300 -57.5t-300 57.5t-242 156.5t-160 236.5t-59 291.5zM521 1602l251 343l151 -121l-293 -307zM857 1602l251 343l150 -121l-292 -307z" />
    <glyph glyph-name="ohungarumlaut" unicode="&#x151;" horiz-adv-x="1304" 
d="M71 530q0 152 75 279.5t208.5 201.5t297.5 74t297.5 -74t208.5 -201.5t75 -279.5t-75 -279.5t-208.5 -201.5t-297.5 -74t-297.5 74t-208.5 201.5t-75 279.5zM307 530q0 -146 99.5 -246.5t245.5 -100.5t245.5 100.5t99.5 246.5t-99.5 247t-245.5 101t-245.5 -101
t-99.5 -247zM322 1270l250 343l151 -121l-293 -307zM657 1270l251 343l151 -121l-293 -307z" />
    <glyph glyph-name="OE" unicode="&#x152;" horiz-adv-x="1850" 
d="M852 211h15v1011h-15q-146 0 -267 -66t-190.5 -182t-69.5 -257q0 -215 152 -360.5t375 -145.5zM1738 0h-886q-212 0 -389 94t-279.5 258.5t-102.5 364.5q0 149 60.5 282t163.5 228.5t245.5 151t301.5 55.5h867v-208h-611v-403h561v-206h-561v-410h630v-207z" />
    <glyph glyph-name="oe" unicode="&#x153;" horiz-adv-x="2193" 
d="M71 530q0 153 74.5 280t207.5 201t295 74q147 0 271.5 -69.5t197.5 -186.5q69 114 192.5 185t267.5 71q117 0 219.5 -42.5t173.5 -114.5t112 -170t41 -207q0 -49 -10 -92h-866q18 -127 113.5 -209t229.5 -82q208 0 344 147l124 -118q-185 -222 -466 -222
q-154 0 -280.5 69.5t-196.5 183.5q-72 -116 -196 -184.5t-271 -68.5q-122 0 -229.5 43.5t-183.5 117.5t-120 176.5t-44 217.5zM307 530q0 -147 98 -247t243 -100t243 100t98 247t-98.5 247.5t-242.5 100.5t-242.5 -100.5t-98.5 -247.5zM1576 893q-115 0 -204.5 -72
t-116.5 -184h625q-24 113 -106.5 184.5t-197.5 71.5z" />
    <glyph glyph-name="Racute" unicode="&#x154;" horiz-adv-x="1242" 
d="M164 1434h482q228 0 362.5 -124.5t134.5 -330.5q0 -166 -89 -280t-248 -152l368 -547h-266l-350 525h-154v-525h-240v1434zM632 1230h-228v-505h228q127 0 197.5 68t70.5 184q0 117 -70.5 185t-197.5 68zM483 1601l251 343l150 -121l-293 -307z" />
    <glyph glyph-name="racute" unicode="&#x155;" horiz-adv-x="827" 
d="M655 878q-113 0 -195.5 -86t-82.5 -215v-577h-235v1061h235v-147q54 77 135 124t178 47q48 0 93 -15l-17 -211q-59 19 -111 19zM281 1270l251 343l150 -121l-293 -307z" />
    <glyph glyph-name="Rcommaaccent" unicode="&#x156;" horiz-adv-x="1242" 
d="M164 1434h482q228 0 362.5 -124.5t134.5 -330.5q0 -166 -89 -280t-248 -152l368 -547h-266l-350 525h-154v-525h-240v1434zM632 1230h-228v-505h228q127 0 197.5 68t70.5 184q0 117 -70.5 185t-197.5 68zM374 -434l251 343l150 -121l-293 -307z" />
    <glyph glyph-name="rcommaaccent" unicode="&#x157;" horiz-adv-x="827" 
d="M655 878q-113 0 -195.5 -86t-82.5 -215v-577h-235v1061h235v-147q54 77 135 124t178 47q48 0 93 -15l-17 -211q-59 19 -111 19zM79 -434l251 343l150 -121l-293 -307z" />
    <glyph glyph-name="Rcaron" unicode="&#x158;" horiz-adv-x="1242" 
d="M164 1434h482q228 0 362.5 -124.5t134.5 -330.5q0 -166 -89 -280t-248 -152l368 -547h-266l-350 525h-154v-525h-240v1434zM632 1230h-228v-505h228q127 0 197.5 68t70.5 184q0 117 -70.5 185t-197.5 68zM722 1545h-220l-229 312l109 85l229 -241l231 241l108 -85z" />
    <glyph glyph-name="rcaron" unicode="&#x159;" horiz-adv-x="827" 
d="M655 878q-113 0 -195.5 -86t-82.5 -215v-577h-235v1061h235v-147q54 77 135 124t178 47q48 0 93 -15l-17 -211q-59 19 -111 19zM522 1193h-220l-228 311l108 85l230 -240l230 240l109 -85z" />
    <glyph glyph-name="Sacute" unicode="&#x15a;" horiz-adv-x="1213" 
d="M123 248l114 122q171 -186 372 -186q123 0 200.5 56.5t77.5 149.5q0 90 -72 152.5t-244 98.5q-217 46 -329 152t-112 264q0 178 130 289.5t336 111.5q98 0 185 -26t156.5 -76.5t112.5 -132.5t50 -186h-245q-7 101 -75 156.5t-174 55.5q-101 0 -166 -48.5t-65 -126.5
q0 -86 71.5 -143t229.5 -93q238 -54 347 -163.5t109 -279.5q0 -186 -140 -303t-376 -117q-140 0 -267.5 71t-225.5 202zM441 1601l251 343l150 -121l-293 -307z" />
    <glyph glyph-name="sacute" unicode="&#x15b;" horiz-adv-x="961" 
d="M90 184l103 118q124 -134 281 -134q86 0 136 35.5t50 95.5q0 59 -48 96t-160 59q-346 69 -346 329q0 132 101.5 217t268.5 85q166 0 268.5 -84t125.5 -237h-226q-7 59 -48 93.5t-107 34.5t-108.5 -31t-42.5 -81q0 -108 193 -147q183 -37 272 -120t89 -217
q0 -141 -109.5 -231t-296.5 -90q-237 0 -396 209zM347 1270l251 343l150 -121l-293 -307z" />
    <glyph glyph-name="Scircumflex" unicode="&#x15c;" horiz-adv-x="1213" 
d="M123 248l114 122q171 -186 372 -186q123 0 200.5 56.5t77.5 149.5q0 90 -72 152.5t-244 98.5q-217 46 -329 152t-112 264q0 178 130 289.5t336 111.5q98 0 185 -26t156.5 -76.5t112.5 -132.5t50 -186h-245q-7 101 -75 156.5t-174 55.5q-101 0 -166 -48.5t-65 -126.5
q0 -86 71.5 -143t229.5 -93q238 -54 347 -163.5t109 -279.5q0 -186 -140 -303t-376 -117q-140 0 -267.5 71t-225.5 202zM486 1893h220l228 -311l-109 -85l-229 240l-230 -240l-109 85z" />
    <glyph glyph-name="scircumflex" unicode="&#x15d;" horiz-adv-x="961" 
d="M90 184l103 118q124 -134 281 -134q86 0 136 35.5t50 95.5q0 59 -48 96t-160 59q-346 69 -346 329q0 132 101.5 217t268.5 85q166 0 268.5 -84t125.5 -237h-226q-7 59 -48 93.5t-107 34.5t-108.5 -31t-42.5 -81q0 -108 193 -147q183 -37 272 -120t89 -217
q0 -141 -109.5 -231t-296.5 -90q-237 0 -396 209zM360 1562h220l228 -311l-109 -85l-229 240l-230 -240l-109 85z" />
    <glyph glyph-name="Scedilla" unicode="&#x15e;" horiz-adv-x="1213" 
d="M734 -309q0 38 -30 65t-72 27q-28 0 -50 -7l-41 37v169q-120 17 -227 85t-191 181l114 122q171 -186 372 -186q123 0 200.5 56.5t77.5 149.5q0 89 -72 152t-244 99q-217 46 -329 152t-112 264q0 178 130 289.5t336 111.5q98 0 185 -26t156.5 -76.5t112.5 -132.5t50 -186
h-245q-7 101 -75 156.5t-174 55.5q-101 0 -166 -48.5t-65 -126.5q0 -86 71.5 -143t229.5 -93q238 -54 347 -163.5t109 -279.5q0 -169 -116.5 -282t-317.5 -133v-89q99 -6 154.5 -64t55.5 -139q0 -95 -75.5 -157.5t-191.5 -62.5q-106 0 -186 59.5t-96 158.5h161
q10 -39 40 -62.5t70 -23.5q49 0 76.5 25t27.5 66z" />
    <glyph glyph-name="scedilla" unicode="&#x15f;" horiz-adv-x="961" 
d="M594 -309q0 38 -30 65t-72 27q-30 0 -51 -7l-41 37v170q-182 32 -310 201l103 118q124 -134 281 -134q86 0 136 35.5t50 95.5q0 58 -48.5 95.5t-159.5 59.5q-172 34 -259 117.5t-87 211.5q0 132 101.5 217t268.5 85q166 0 268.5 -84t125.5 -237h-226q-7 59 -48 93.5
t-107 34.5q-63 0 -107 -31.5t-44 -80.5q0 -108 193 -147q183 -37 272 -120t89 -217q0 -127 -89 -213t-246 -102v-90q100 -6 155 -63.5t55 -139.5q0 -96 -75 -158t-192 -62q-106 0 -185.5 59.5t-96.5 158.5h161q10 -40 40 -63t70 -23q48 0 76.5 25.5t28.5 65.5z" />
    <glyph glyph-name="Scaron" unicode="&#x160;" horiz-adv-x="1213" 
d="M123 248l114 122q171 -186 372 -186q123 0 200.5 56.5t77.5 149.5q0 90 -72 152.5t-244 98.5q-217 46 -329 152t-112 264q0 178 130 289.5t336 111.5q98 0 185 -26t156.5 -76.5t112.5 -132.5t50 -186h-245q-7 101 -75 156.5t-174 55.5q-101 0 -166 -48.5t-65 -126.5
q0 -86 71.5 -143t229.5 -93q238 -54 347 -163.5t109 -279.5q0 -186 -140 -303t-376 -117q-140 0 -267.5 71t-225.5 202zM710 1545h-221l-228 312l109 85l229 -241l230 241l109 -85z" />
    <glyph glyph-name="scaron" unicode="&#x161;" horiz-adv-x="961" 
d="M90 184l103 118q124 -134 281 -134q86 0 136 35.5t50 95.5q0 59 -48 96t-160 59q-346 69 -346 329q0 132 101.5 217t268.5 85q166 0 268.5 -84t125.5 -237h-226q-7 59 -48 93.5t-107 34.5t-108.5 -31t-42.5 -81q0 -108 193 -147q183 -37 272 -120t89 -217
q0 -141 -109.5 -231t-296.5 -90q-237 0 -396 209zM581 1193h-221l-228 311l109 85l229 -240l230 240l109 -85z" />
    <glyph glyph-name="Tcommaaccent" unicode="&#x162;" horiz-adv-x="1132" 
d="M445 0v1225h-386v209h1013v-209h-385v-1225h-40v-110q100 -5 155 -63t55 -140q0 -95 -75 -157t-192 -62q-106 0 -185.5 59.5t-96.5 158.5h161q10 -40 40.5 -63t70.5 -23q48 0 76 25.5t28 65.5q0 37 -30.5 64t-71.5 27q-34 0 -51 -7l-41 38v187h-45z" />
    <glyph glyph-name="tcommaaccent" unicode="&#x163;" horiz-adv-x="793" 
d="M529 -309q0 38 -30 65t-72 27q-28 0 -50 -7l-41 37v231q-113 92 -113 299v513h-193v205h193v269l234 38v-307h270v-205h-270v-503q0 -90 43 -132t141 -42q55 0 98 5v-172q-65 -37 -170 -37q-33 0 -75 7v-91q99 -6 154 -63.5t55 -139.5q0 -95 -75.5 -157.5t-191.5 -62.5
q-106 0 -185.5 59.5t-95.5 158.5h160q10 -39 40 -62.5t70 -23.5q43 0 73.5 25.5t30.5 65.5z" />
    <glyph glyph-name="Tcaron" unicode="&#x164;" horiz-adv-x="1132" 
d="M445 0v1225h-386v209h1013v-209h-385v-1225h-242zM676 1545h-220l-229 311l109 85l229 -240l230 240l109 -85z" />
    <glyph glyph-name="tcaron" unicode="&#x165;" horiz-adv-x="1075" 
d="M457 856v-503q0 -90 43 -132t141 -42q55 0 98 5v-172q-65 -37 -170 -37q-169 0 -257.5 92t-88.5 276v513h-204v205h204v254l234 53v-307h270v-205h-270zM771 1395q0 49 37.5 86.5t95.5 37.5t94.5 -40t36.5 -108q0 -110 -65 -203.5t-189 -144.5l-59 69q51 37 78 67.5
t31.5 58.5t-4.5 52.5t-33 57.5q-23 32 -23 67z" />
    <glyph glyph-name="Tbar" unicode="&#x166;" horiz-adv-x="1132" 
d="M445 0v627h-257v170h257v428h-386v209h1013v-209h-385v-428h257v-170h-257v-627h-242z" />
    <glyph glyph-name="tbar" unicode="&#x167;" horiz-adv-x="793" 
d="M457 856v-236h227v-150h-227v-117q0 -90 43 -132t141 -42q55 0 98 5v-172q-65 -37 -170 -37q-169 0 -257.5 92t-88.5 276v127h-153v150h153v236h-204v205h204v269l234 38v-307h270v-205h-270z" />
    <glyph glyph-name="Utilde" unicode="&#x168;" horiz-adv-x="1364" 
d="M1212 1434v-938q0 -153 -71 -272t-191 -183t-268 -64t-268 64t-191 183t-71 272v938h241v-955q0 -129 82.5 -209.5t206.5 -80.5t206.5 80.5t82.5 209.5v955h241zM686 1608q-73 50 -107 50q-47 0 -66 -90l-191 38q45 225 202 225q74 0 155 -52q29 -19 39.5 -25.5t31.5 -16
t36 -9.5q47 0 66 90l191 -38q-45 -225 -202 -225q-77 0 -155 53z" />
    <glyph glyph-name="utilde" unicode="&#x169;" horiz-adv-x="1245" 
d="M546 -24q-192 0 -308 118t-116 313v654h233v-634q0 -107 66.5 -175.5t172.5 -68.5q113 0 193.5 85.5t80.5 214.5v578h235v-1061h-235v140q-56 -75 -140 -119.5t-182 -44.5zM615 1275q-73 50 -107 50q-47 0 -66 -90l-191 38q45 225 203 225q73 0 154 -52
q29 -19 39.5 -25.5t31.5 -16t36 -9.5q47 0 66 90l191 -38q-45 -225 -202 -225q-77 0 -155 53z" />
    <glyph glyph-name="Umacron" unicode="&#x16a;" horiz-adv-x="1364" 
d="M1212 1434v-938q0 -153 -71 -272t-191 -183t-268 -64t-268 64t-191 183t-71 272v938h241v-955q0 -129 82.5 -209.5t206.5 -80.5t206.5 80.5t82.5 209.5v955h241zM375 1609v178h614v-178h-614z" />
    <glyph glyph-name="umacron" unicode="&#x16b;" horiz-adv-x="1245" 
d="M546 -24q-192 0 -308 118t-116 313v654h233v-634q0 -107 66.5 -175.5t172.5 -68.5q113 0 193.5 85.5t80.5 214.5v578h235v-1061h-235v140q-56 -75 -140 -119.5t-182 -44.5zM304 1277v178h614v-178h-614z" />
    <glyph glyph-name="Ubreve" unicode="&#x16c;" horiz-adv-x="1364" 
d="M1212 1434v-938q0 -153 -71 -272t-191 -183t-268 -64t-268 64t-191 183t-71 272v938h241v-955q0 -129 82.5 -209.5t206.5 -80.5t206.5 80.5t82.5 209.5v955h241zM682 1525q-139 0 -239.5 90t-107.5 228h200q2 -67 43.5 -110.5t103.5 -43.5t103.5 43.5t43.5 110.5h201
q-7 -138 -107.5 -228t-240.5 -90z" />
    <glyph glyph-name="ubreve" unicode="&#x16d;" horiz-adv-x="1245" 
d="M546 -24q-192 0 -308 118t-116 313v654h233v-634q0 -107 66.5 -175.5t172.5 -68.5q113 0 193.5 85.5t80.5 214.5v578h235v-1061h-235v140q-56 -75 -140 -119.5t-182 -44.5zM611 1193q-139 0 -239.5 90t-107.5 228h200q2 -67 43.5 -110.5t103.5 -43.5q63 0 104.5 44
t43.5 110h200q-7 -138 -107.5 -228t-240.5 -90z" />
    <glyph glyph-name="Uring" unicode="&#x16e;" horiz-adv-x="1364" 
d="M1212 1434v-938q0 -153 -71 -272t-191 -183t-268 -64t-268 64t-191 183t-71 272v938h241v-955q0 -129 82.5 -209.5t206.5 -80.5t206.5 80.5t82.5 209.5v955h241zM601 1725q0 -34 23 -56t58 -22t58 22t23 56t-23 57t-58 23q-34 0 -57.5 -23t-23.5 -57zM459 1725
q0 88 64 147t159 59q96 0 159.5 -59t63.5 -147t-63.5 -146.5t-159.5 -58.5q-95 0 -159 58.5t-64 146.5z" />
    <glyph glyph-name="uring" unicode="&#x16f;" horiz-adv-x="1245" 
d="M546 -24q-192 0 -308 118t-116 313v654h233v-634q0 -107 66.5 -175.5t172.5 -68.5q113 0 193.5 85.5t80.5 214.5v578h235v-1061h-235v140q-56 -75 -140 -119.5t-182 -44.5zM527 1394q0 -34 23 -56.5t58 -22.5t58 22.5t23 56.5t-23 57t-58 23q-34 0 -57.5 -23t-23.5 -57z
M385 1394q0 88 64 147t159 59q96 0 159.5 -59t63.5 -147t-63.5 -147t-159.5 -59q-95 0 -159 59t-64 147z" />
    <glyph glyph-name="Uhungarumlaut" unicode="&#x170;" horiz-adv-x="1364" 
d="M1212 1434v-938q0 -153 -71 -272t-191 -183t-268 -64t-268 64t-191 183t-71 272v938h241v-955q0 -129 82.5 -209.5t206.5 -80.5t206.5 80.5t82.5 209.5v955h241zM370 1612l251 343l150 -121l-293 -307zM706 1612l250 343l151 -121l-293 -307z" />
    <glyph glyph-name="uhungarumlaut" unicode="&#x171;" horiz-adv-x="1245" 
d="M546 -24q-192 0 -308 118t-116 313v654h233v-634q0 -107 66.5 -175.5t172.5 -68.5q113 0 193.5 85.5t80.5 214.5v578h235v-1061h-235v140q-56 -75 -140 -119.5t-182 -44.5zM300 1275l251 343l150 -121l-292 -307zM636 1275l251 343l150 -121l-293 -307z" />
    <glyph glyph-name="Uogonek" unicode="&#x172;" horiz-adv-x="1364" 
d="M1212 1434v-938q0 -199 -115.5 -335.5t-299.5 -171.5q-184 -133 -184 -271q0 -51 27 -78t70 -27q44 0 71 28.5t33 79.5h174q-14 -117 -88.5 -185t-193.5 -68q-112 0 -189.5 65t-77.5 169q0 79 45.5 151.5t131.5 128.5q-202 21 -333 161.5t-131 352.5v938h241v-955
q0 -129 82.5 -209.5t206.5 -80.5t206.5 80.5t82.5 209.5v955h241z" />
    <glyph glyph-name="uogonek" unicode="&#x173;" horiz-adv-x="1245" 
d="M546 -25q-192 0 -308 118t-116 314v654h233v-635q0 -107 66.5 -175t172.5 -68q113 0 193.5 85t80.5 214v579h235v-1061q-200 -138 -200 -281q0 -51 26.5 -78t69.5 -27q44 0 71.5 28.5t33.5 78.5h174q-14 -117 -88.5 -185t-194.5 -68q-111 0 -188.5 65.5t-77.5 168.5
q0 86 53.5 163t154.5 135h-69v140q-56 -76 -140 -120.5t-182 -44.5z" />
    <glyph glyph-name="Wcircumflex" unicode="&#x174;" horiz-adv-x="1998" 
d="M880 1434h239l303 -1091l283 1091h253l-405 -1434h-242l-312 1103l-312 -1103h-242l-404 1434h253l281 -1091zM889 1893h220l228 -311l-109 -85l-229 240l-230 -240l-109 85z" />
    <glyph glyph-name="wcircumflex" unicode="&#x175;" horiz-adv-x="1614" 
d="M688 1061h238l210 -761l214 761h241l-330 -1061h-242l-212 753l-211 -753h-242l-330 1061h240l215 -761zM698 1562h220l228 -311l-109 -85l-229 240l-230 -240l-109 85z" />
    <glyph glyph-name="Ycircumflex" unicode="&#x176;" horiz-adv-x="1325" 
d="M301 1434l362 -619l360 619h261l-501 -851v-583h-241v583l-501 851h260zM552 1893h220l228 -311l-108 -85l-229 241l-231 -241l-108 85z" />
    <glyph glyph-name="ycircumflex" unicode="&#x177;" horiz-adv-x="1087" 
d="M482 -475h-244l187 477l-401 1059h243l276 -763l277 763h244zM432 1562h220l229 -312l-109 -85l-229 241l-231 -241l-108 85z" />
    <glyph glyph-name="Ydieresis" unicode="&#x178;" horiz-adv-x="1325" 
d="M301 1434l362 -619l360 619h261l-501 -851v-583h-241v583l-501 851h260zM337 1704q0 55 39 93.5t95 38.5q57 0 95 -38t38 -94t-38 -94.5t-95 -38.5q-56 0 -95 38.5t-39 94.5zM718 1704q0 55 39 93.5t95 38.5q57 0 95 -38t38 -94t-38 -94.5t-95 -38.5q-56 0 -95 38.5
t-39 94.5z" />
    <glyph glyph-name="Zacute" unicode="&#x179;" horiz-adv-x="1239" 
d="M120 204l700 1021h-669v209h958v-204l-700 -1021h720v-209h-1009v204zM478 1601l251 343l150 -121l-293 -307z" />
    <glyph glyph-name="zacute" unicode="&#x17a;" horiz-adv-x="1043" 
d="M95 0v196l545 661h-518v204h801v-197l-544 -660h564v-204h-848zM346 1270l251 343l150 -121l-293 -307z" />
    <glyph glyph-name="Zdotaccent" unicode="&#x17b;" horiz-adv-x="1239" 
d="M120 204l700 1021h-669v209h958v-204l-700 -1021h720v-209h-1009v204zM489 1703q0 56 38.5 95t95.5 39t96 -39t39 -95t-39 -95t-96 -39t-95.5 39t-38.5 95z" />
    <glyph glyph-name="zdotaccent" unicode="&#x17c;" horiz-adv-x="1043" 
d="M95 0v196l545 661h-518v204h801v-197l-544 -660h564v-204h-848zM388 1371q0 56 38.5 95t95.5 39t96 -39t39 -95t-39 -95t-96 -39t-95.5 39t-38.5 95z" />
    <glyph glyph-name="Zcaron" unicode="&#x17d;" horiz-adv-x="1239" 
d="M120 204l700 1021h-669v209h958v-204l-700 -1021h720v-209h-1009v204zM731 1545h-220l-228 312l108 85l230 -241l230 241l108 -85z" />
    <glyph glyph-name="zcaron" unicode="&#x17e;" horiz-adv-x="1043" 
d="M95 0v196l545 661h-518v204h801v-197l-544 -660h564v-204h-848zM627 1193h-220l-229 311l109 85l229 -240l230 240l109 -85z" />
    <glyph glyph-name="longs" unicode="&#x17f;" horiz-adv-x="773" 
d="M729 1486v-193q-45 5 -94 5q-99 0 -142 -43.5t-43 -134.5v-1120h-234v856h-171v205h171v62q0 188 98.5 280t299.5 92q48 0 115 -9z" />
    <glyph glyph-name="uni0191" unicode="&#x191;" horiz-adv-x="1092" 
d="M406 609v-710q0 -185 -99.5 -279.5t-293.5 -94.5q-57 0 -115 9v202q47 -5 89 -5q93 0 135 43.5t42 134.5v1525h850v-209h-608v-408h557v-208h-557z" />
    <glyph glyph-name="florin" unicode="&#x192;" horiz-adv-x="774" 
d="M216 -101v957h-171v205h171v62q0 188 98.5 280t299.5 92q48 0 115 -9v-193q-45 5 -94 5q-99 0 -142 -43.5t-43 -134.5v-59h279v-205h-279v-959q0 -188 -99 -280t-300 -92q-60 0 -114 9v193q54 -6 94 -6q98 0 141.5 43.5t43.5 134.5z" />
    <glyph glyph-name="Aringacute" unicode="&#x1fa;" horiz-adv-x="1404" 
d="M481 1506q0 86 63.5 144t157.5 58t157.5 -58t63.5 -144q0 -85 -65 -142l505 -1364h-259l-120 346h-564l-120 -346h-259l506 1364q-66 56 -66 142zM486 548h433l-217 623zM624 1506q0 -32 22 -53.5t56 -21.5t56.5 21.5t22.5 53.5t-22.5 53.5t-56.5 21.5t-56 -21.5
t-22 -53.5zM548 1818l245 248l134 -133l-283 -212z" />
    <glyph glyph-name="aringacute" unicode="&#x1fb;" horiz-adv-x="1337" 
d="M71 530q0 153 66.5 280t185.5 201t266 74q228 0 373 -169v145h232v-1061h-232v143q-69 -79 -164.5 -123.5t-208.5 -44.5q-147 0 -266 74t-185.5 201t-66.5 280zM307 530q0 -146 94.5 -246.5t233.5 -100.5t233 100.5t94 246.5t-93.5 247t-233.5 101t-234 -101t-94 -247z
M426 1360q0 86 63 145t157 59t157.5 -59t63.5 -145q0 -87 -63.5 -146t-157.5 -59q-93 0 -156.5 59t-63.5 146zM513 1674l245 249l134 -133l-283 -212zM565 1360q0 -34 23.5 -57.5t57.5 -23.5q35 0 58.5 23.5t23.5 57.5t-23.5 57t-58.5 23q-34 0 -57.5 -23t-23.5 -57z" />
    <glyph glyph-name="AEacute" unicode="&#x1fc;" horiz-adv-x="1899" 
d="M279 0h-269l808 1434h951v-208h-611v-403h561v-206h-561v-410h630v-207h-870v346h-450zM918 1167l-341 -619h341v619zM831 1601l251 343l150 -121l-293 -307z" />
    <glyph glyph-name="aeacute" unicode="&#x1fd;" horiz-adv-x="2079" 
d="M1219 459q17 -127 113.5 -209t235.5 -82q197 0 342 147l124 -120q-182 -220 -463 -220q-108 0 -203 42.5t-156 125.5v-143h-232v143q-69 -79 -164.5 -123.5t-208.5 -44.5q-147 0 -266 74t-185.5 201t-66.5 280t66.5 280t185.5 201t266 74q228 0 373 -169v145h232v-143
q117 167 342 167q118 0 220 -42.5t172.5 -114.5t111 -170t40.5 -207q0 -44 -11 -92h-868zM326 530q0 -146 94 -246.5t233 -100.5t233 100.5t94 246.5t-93.5 247t-233.5 101t-233.5 -101t-93.5 -247zM1548 893q-115 0 -204.5 -72t-117.5 -184h629q-23 113 -106.5 184.5
t-200.5 71.5zM902 1270l251 343l151 -121l-293 -307z" />
    <glyph glyph-name="Oslashacute" unicode="&#x1fe;" horiz-adv-x="1684" 
d="M723 1602l251 343l150 -121l-293 -307zM81 717q0 206 100 376t274.5 267.5t386.5 97.5q207 0 387 -99l145 185l131 -96l-144 -183q115 -102 179 -244t64 -304q0 -154 -59 -291.5t-160.5 -236.5t-242.5 -156.5t-300 -57.5q-225 0 -406 110l-151 -193l-131 96l153 194
q-107 102 -166.5 240t-59.5 295zM1359 717q0 214 -140 364l-645 -820q123 -74 268 -74q142 0 261 69.5t187.5 191.5t68.5 269zM326 717q0 -203 126 -350l639 815q-116 64 -249 64q-217 0 -366.5 -153t-149.5 -376z" />
    <glyph glyph-name="oslashacute" unicode="&#x1ff;" horiz-adv-x="1304" 
d="M536 1270l250 343l151 -121l-293 -307zM71 530q0 152 75 279.5t208.5 201.5t297.5 74q156 0 286 -69l121 153l122 -93l-118 -149q81 -76 125.5 -179t44.5 -218q0 -152 -75 -279.5t-208.5 -201.5t-297.5 -74q-156 0 -286 69l-119 -152l-122 94l116 146
q-81 77 -125.5 179.5t-44.5 218.5zM997 530q0 127 -74 218l-421 -532q68 -33 150 -33q146 0 245.5 100.5t99.5 246.5zM307 530q0 -125 75 -219l420 532q-72 35 -150 35q-146 0 -245.5 -101t-99.5 -247z" />
    <glyph glyph-name="Scommaaccent" unicode="&#x218;" horiz-adv-x="1213" 
d="M123 248l114 122q171 -186 372 -186q123 0 200.5 56.5t77.5 149.5q0 90 -72 152.5t-244 98.5q-217 46 -329 152t-112 264q0 178 130 289.5t336 111.5q98 0 185 -26t156.5 -76.5t112.5 -132.5t50 -186h-245q-7 101 -75 156.5t-174 55.5q-101 0 -166 -48.5t-65 -126.5
q0 -86 71.5 -143t229.5 -93q238 -54 347 -163.5t109 -279.5q0 -186 -140 -303t-376 -117q-140 0 -267.5 71t-225.5 202zM392 -434l251 343l151 -121l-293 -307z" />
    <glyph glyph-name="scommaaccent" unicode="&#x219;" horiz-adv-x="961" 
d="M90 184l103 118q124 -134 281 -134q86 0 136 35.5t50 95.5q0 59 -48 96t-160 59q-346 69 -346 329q0 132 101.5 217t268.5 85q166 0 268.5 -84t125.5 -237h-226q-7 59 -48 93.5t-107 34.5t-108.5 -31t-42.5 -81q0 -108 193 -147q183 -37 272 -120t89 -217
q0 -141 -109.5 -231t-296.5 -90q-237 0 -396 209zM253 -434l251 343l150 -121l-293 -307z" />
    <glyph glyph-name="uni021A" unicode="&#x21a;" horiz-adv-x="1132" 
d="M445 0v1225h-386v209h1013v-209h-385v-1225h-242zM331 -434l251 343l150 -121l-293 -307z" />
    <glyph glyph-name="uni021B" unicode="&#x21b;" horiz-adv-x="793" 
d="M457 856v-503q0 -90 43 -132t141 -42q55 0 98 5v-172q-65 -37 -170 -37q-169 0 -257.5 92t-88.5 276v513h-204v205h204v254l234 53v-307h270v-205h-270zM203 -434l251 343l150 -121l-293 -307z" />
    <glyph glyph-name="dotlessj" unicode="&#x237;" horiz-adv-x="549" 
d="M158 -117v1178h233v-1183q0 -183 -83 -268t-255 -85q-52 0 -90 5v200q9 -1 56 -1q71 0 105 35.5t34 118.5z" />
    <glyph glyph-name="apostrophe" unicode="&#x2bc;" horiz-adv-x="861" 
d="M306 1388q0 49 37 86t96 37q58 0 94.5 -39.5t36.5 -107.5q0 -110 -65 -203.5t-189 -144.5l-59 68q51 37 78 67.5t31.5 59t-4.5 53t-33 57.5q-23 32 -23 67z" />
    <glyph glyph-name="circumflex" unicode="&#x2c6;" horiz-adv-x="861" 
d="M321 1494h220l228 -311l-109 -85l-229 240l-230 -240l-109 85z" />
    <glyph glyph-name="caron" unicode="&#x2c7;" horiz-adv-x="861" 
d="M541 1146h-220l-229 311l109 85l229 -240l230 240l109 -85z" />
    <glyph glyph-name="uni02C9" unicode="&#x2c9;" horiz-adv-x="861" 
d="M123 1230v178h614v-178h-614z" />
    <glyph glyph-name="breve" unicode="&#x2d8;" horiz-adv-x="861" 
d="M430 1154q-139 0 -239.5 90.5t-107.5 228.5h200q2 -67 43.5 -111t103.5 -44t104 44t44 111h200q-7 -138 -107.5 -228.5t-240.5 -90.5z" />
    <glyph glyph-name="dotaccent" unicode="&#x2d9;" horiz-adv-x="861" 
d="M296 1322q0 56 38.5 95t95.5 39t96 -39t39 -95t-39 -95t-96 -39t-95.5 39t-38.5 95z" />
    <glyph glyph-name="ring" unicode="&#x2da;" horiz-adv-x="861" 
d="M349 1316q0 -34 23 -56.5t58 -22.5t58 22.5t23 56.5t-23 57t-58 23q-34 0 -57.5 -23t-23.5 -57zM207 1316q0 88 64 147t159 59q96 0 159.5 -59t63.5 -147t-63.5 -147t-159.5 -59q-95 0 -159 59t-64 147z" />
    <glyph glyph-name="ogonek" unicode="&#x2db;" horiz-adv-x="861" 
d="M388 0h166q-200 -140 -200 -282q0 -51 27 -78t70 -27q44 0 71 28.5t33 79.5h174q-14 -117 -88.5 -185t-194.5 -68q-112 0 -189 65t-77 169q0 86 53.5 163t154.5 135z" />
    <glyph glyph-name="tilde" unicode="&#x2dc;" horiz-adv-x="861" 
d="M434 1228q-73 50 -107 50q-47 0 -66 -90l-191 38q45 225 202 225q74 0 155 -52q29 -19 39.5 -25.5t31.5 -16t36 -9.5q47 0 66 90l191 -38q-45 -225 -202 -225q-77 0 -155 53z" />
    <glyph glyph-name="hungarumlaut" unicode="&#x2dd;" horiz-adv-x="861" 
d="M111 1204l250 343l151 -121l-293 -307zM446 1204l251 343l151 -121l-293 -307z" />
    <glyph glyph-name="gravecomb" unicode="&#x300;" horiz-adv-x="0" 
d="M-526 1547l251 -343l-109 -85l-293 307z" />
    <glyph glyph-name="acutecomb" unicode="&#x301;" horiz-adv-x="0" 
d="M-581 1204l251 343l151 -121l-293 -307z" />
    <glyph glyph-name="uni0302" unicode="&#x302;" horiz-adv-x="0" 
d="M-541 1494h220l229 -311l-109 -85l-229 240l-230 -240l-109 85z" />
    <glyph glyph-name="tildecomb" unicode="&#x303;" horiz-adv-x="0" 
d="M-427 1228q-73 50 -108 50q-46 0 -65 -90l-192 38q45 225 203 225q74 0 155 -52q3 -2 12.5 -8t13 -8.5t11.5 -7.5t12.5 -7.5t11.5 -6.5t12 -5.5t11 -3.5t11.5 -3t10.5 -1q48 0 67 90l190 -38q-23 -114 -72 -169.5t-129 -55.5q-77 0 -155 53z" />
    <glyph glyph-name="uni0304" unicode="&#x304;" horiz-adv-x="0" 
d="M-738 1231v178h614v-178h-614z" />
    <glyph glyph-name="uni0306" unicode="&#x306;" horiz-adv-x="0" 
d="M-431 1154q-139 0 -239.5 90.5t-107.5 228.5h199q2 -67 44 -111t104 -44t103.5 44t43.5 111h201q-7 -138 -107.5 -228.5t-240.5 -90.5z" />
    <glyph glyph-name="uni0307" unicode="&#x307;" horiz-adv-x="0" 
d="M-565 1322q0 56 38.5 95t95.5 39t96 -39t39 -95t-39 -95t-96 -39t-95.5 39t-38.5 95z" />
    <glyph glyph-name="uni0308" unicode="&#x308;" horiz-adv-x="0" 
d="M-755 1323q0 56 38.5 94t94.5 38q57 0 95.5 -38t38.5 -94t-38.5 -94.5t-95.5 -38.5q-56 0 -94.5 38.5t-38.5 94.5zM-374 1323q0 56 38.5 94t94.5 38q57 0 95 -38t38 -94t-38 -94.5t-95 -38.5q-56 0 -94.5 38.5t-38.5 94.5z" />
    <glyph glyph-name="uni030A" unicode="&#x30a;" horiz-adv-x="0" 
d="M-512 1316q0 -34 23 -56.5t58 -22.5t58 22.5t23 56.5t-23 57t-58 23q-34 0 -57.5 -23t-23.5 -57zM-654 1316q0 88 64 147t159 59q96 0 159.5 -59t63.5 -147t-63.5 -147t-159.5 -59q-95 0 -159 59t-64 147z" />
    <glyph glyph-name="uni030C" unicode="&#x30c;" horiz-adv-x="0" 
d="M-321 1146h-220l-228 311l109 85l229 -240l230 240l109 -85z" />
    <glyph glyph-name="uni0327" unicode="&#x327;" horiz-adv-x="0" 
d="M-328 -309q0 38 -30 65t-72 27q-28 0 -50 -7l-41 37v187h157v-109q99 -6 154.5 -64t55.5 -139q0 -95 -75.5 -157.5t-191.5 -62.5q-106 0 -185.5 59.5t-95.5 158.5h160q10 -39 40 -62.5t70 -23.5q49 0 76.5 25t27.5 66z" />
    <glyph glyph-name="tonos" unicode="&#x384;" horiz-adv-x="861" 
d="M248 1204l251 343l150 -121l-293 -307z" />
    <glyph glyph-name="dieresistonos" unicode="&#x385;" horiz-adv-x="861" 
d="M108 1167q0 57 38.5 95t97.5 38t97.5 -38t38.5 -95t-38.5 -94.5t-97.5 -37.5t-97.5 37.5t-38.5 94.5zM481 1167q0 57 38.5 95t97.5 38t98 -38t39 -95q0 -56 -39 -94t-98 -38t-97.5 37.5t-38.5 94.5zM311 1363l228 302l150 -122l-269 -265z" />
    <glyph glyph-name="Alphatonos" unicode="&#x386;" horiz-adv-x="1447" 
d="M611 1434h269l526 -1434h-259l-120 346h-564l-120 -346h-259zM529 548h433l-217 623zM35 1143l251 343l150 -121l-293 -307z" />
    <glyph glyph-name="anoteleia" unicode="&#x387;" horiz-adv-x="612" 
d="M156 653q0 64 43 107t107 43t107.5 -43t43.5 -107q0 -63 -43.5 -105.5t-107.5 -42.5t-107 42.5t-43 105.5z" />
    <glyph glyph-name="Epsilontonos" unicode="&#x388;" horiz-adv-x="1519" 
d="M518 0v1434h871v-208h-629v-403h577v-206h-577v-410h647v-207h-889zM35 1143l251 343l150 -121l-293 -307z" />
    <glyph glyph-name="Etatonos" unicode="&#x389;" horiz-adv-x="1792" 
d="M518 0v1434h242v-610h625v610h242v-1434h-242v615h-625v-615h-242zM35 1143l251 343l150 -121l-293 -307z" />
    <glyph glyph-name="Iotatonos" unicode="&#x38a;" horiz-adv-x="941" 
d="M519 1434h242v-1434h-242v1434zM35 1143l251 343l150 -121l-293 -307z" />
    <glyph glyph-name="Omicrontonos" unicode="&#x38c;" horiz-adv-x="1910" 
d="M552 717q0 -147 68.5 -269t187 -191.5t260.5 -69.5t261 69.5t187.5 191.5t68.5 269q0 223 -150 376t-367 153t-366.5 -153t-149.5 -376zM307 717q0 206 100 376t274.5 267.5t386.5 97.5q159 0 300 -57.5t242.5 -156t160.5 -236t59 -291.5t-59 -291.5t-160.5 -236.5
t-242.5 -156.5t-300 -57.5t-300 57.5t-242 156.5t-160 236.5t-59 291.5zM35 1143l251 343l150 -121l-293 -307z" />
    <glyph glyph-name="Upsilontonos" unicode="&#x38e;" horiz-adv-x="1763" 
d="M739 1434l362 -619l360 619h261l-500 -851v-583h-242v583l-501 851h260zM35 1143l251 343l150 -121l-293 -307z" />
    <glyph glyph-name="Omegatonos" unicode="&#x38f;" horiz-adv-x="1873" 
d="M35 1143l251 343l150 -121l-293 -307zM1538 751q0 207 -140.5 351t-342.5 144q-203 0 -343.5 -144t-140.5 -351q0 -171 97 -316t275 -233v-202h-599v212h314q-163 102 -247 245t-84 315q0 141 56.5 268t153.5 218.5t232 145.5t286 54t286 -54t232 -145.5t153.5 -218.5
t56.5 -268q0 -172 -84.5 -315t-247.5 -245h313v-212h-599v202q178 88 275.5 233t97.5 316z" />
    <glyph glyph-name="iotadieresistonos" unicode="&#x390;" horiz-adv-x="581" 
d="M158 252v809h233v-750q0 -106 106 -106h40v-202q-36 -3 -86 -3q-293 0 -293 252zM-48 1305q0 57 38.5 95t97.5 38t97.5 -38t38.5 -95t-38.5 -95t-97.5 -38t-97.5 38t-38.5 95zM326 1305q0 57 38.5 95t97.5 38t97.5 -38t38.5 -95t-38.5 -95t-97.5 -38t-97.5 38t-38.5 95z
M156 1500l227 302l151 -122l-270 -265z" />
    <glyph glyph-name="Alpha" unicode="&#x391;" horiz-adv-x="1404" 
d="M568 1434h269l526 -1434h-259l-120 346h-564l-120 -346h-259zM486 548h433l-217 623z" />
    <glyph glyph-name="Beta" unicode="&#x392;" horiz-adv-x="1272" 
d="M752 0h-588v1434h522q194 0 305 -104t111 -280q0 -107 -49.5 -181.5t-133.5 -107.5q113 -28 188 -121t75 -227q0 -184 -117.5 -298.5t-312.5 -114.5zM863 1033q0 93 -53.5 145t-141.5 52h-265v-391h265q88 0 141.5 51t53.5 143zM938 423q0 100 -58.5 159.5t-153.5 59.5
h-323v-438h323q94 0 153 60t59 159z" />
    <glyph glyph-name="Gamma" unicode="&#x393;" horiz-adv-x="1058" 
d="M164 0v1434h853v-209h-611v-1225h-242z" />
    <glyph glyph-name="uni0394" unicode="&#x394;" horiz-adv-x="1404" 
d="M837 1434l526 -1434h-1322l527 1434h269zM702 1171l-337 -965h675z" />
    <glyph glyph-name="Epsilon" unicode="&#x395;" horiz-adv-x="1164" 
d="M164 0v1434h870v-208h-628v-403h577v-206h-577v-410h647v-207h-889z" />
    <glyph glyph-name="Zeta" unicode="&#x396;" horiz-adv-x="1239" 
d="M120 204l700 1021h-669v209h958v-204l-700 -1021h720v-209h-1009v204z" />
    <glyph glyph-name="Eta" unicode="&#x397;" horiz-adv-x="1437" 
d="M164 0v1434h242v-610h625v610h242v-1434h-242v615h-625v-615h-242z" />
    <glyph glyph-name="Theta" unicode="&#x398;" horiz-adv-x="1684" 
d="M550 615v202h585v-202h-585zM81 717q0 206 100 376t274.5 267.5t386.5 97.5q159 0 300 -57.5t242.5 -156t160.5 -236t59 -291.5t-59 -291.5t-160.5 -236.5t-242.5 -156.5t-300 -57.5t-300 57.5t-242 156.5t-160 236.5t-59 291.5zM323 717q0 -148 69 -270.5t188 -192.5
t262 -70t262 70t188 192.5t69 270.5q0 147 -69 269t-188 192t-262 70t-262 -70t-188 -192t-69 -269z" />
    <glyph glyph-name="Iota" unicode="&#x399;" horiz-adv-x="602" 
d="M180 1434h242v-1434h-242v1434z" />
    <glyph glyph-name="Kappa" unicode="&#x39a;" horiz-adv-x="1249" 
d="M900 1433h242q0 -567 -300 -731l416 -702h-276l-375 637q-36 -4 -81 -4h-120v-633h-242v1434h242v-592h76q147 0 236.5 56t135.5 186.5t46 348.5z" />
    <glyph glyph-name="Lambda" unicode="&#x39b;" horiz-adv-x="1404" 
d="M1363 0h-259l-402 1155l-402 -1155h-259l527 1434h269z" />
    <glyph glyph-name="Mu" unicode="&#x39c;" horiz-adv-x="1748" 
d="M981 195h-122l-465 811v-1006h-230v1434h238l519 -914l518 914h237v-1434h-230v1006z" />
    <glyph glyph-name="Nu" unicode="&#x39d;" horiz-adv-x="1439" 
d="M164 0v1434h240l642 -1033v1033h230v-1434h-241l-641 1032v-1032h-230z" />
    <glyph glyph-name="Xi" unicode="&#x39e;" horiz-adv-x="1196" 
d="M131 1226v208h934v-208h-934zM112 0v207h971v-207h-971zM1004 617h-813v206h813v-206z" />
    <glyph glyph-name="Omicron" unicode="&#x39f;" horiz-adv-x="1684" 
d="M326 717q0 -147 68.5 -269t187 -191.5t260.5 -69.5t261 69.5t187.5 191.5t68.5 269q0 223 -150 376t-367 153t-366.5 -153t-149.5 -376zM81 717q0 206 100 376t274.5 267.5t386.5 97.5q159 0 300 -57.5t242.5 -156t160.5 -236t59 -291.5t-59 -291.5t-160.5 -236.5
t-242.5 -156.5t-300 -57.5t-300 57.5t-242 156.5t-160 236.5t-59 291.5z" />
    <glyph glyph-name="Pi" unicode="&#x3a0;" horiz-adv-x="1387" 
d="M1224 1434v-1434h-242v1225h-576v-1225h-242v1434h1060z" />
    <glyph glyph-name="Rho" unicode="&#x3a1;" horiz-adv-x="1213" 
d="M646 520h-240v-520h-242v1434h482q227 0 362 -125.5t135 -331.5q0 -207 -135 -332t-362 -125zM900 977q0 117 -70.5 185t-198.5 68h-225v-507h225q128 0 198.5 68t70.5 186z" />
    <glyph glyph-name="Sigma" unicode="&#x3a3;" horiz-adv-x="1195" 
d="M120 212l398 507l-398 502v213h955v-209h-668l365 -454v-107l-368 -456h671v-208h-955v212z" />
    <glyph glyph-name="Tau" unicode="&#x3a4;" horiz-adv-x="1132" 
d="M445 0v1225h-386v209h1013v-209h-385v-1225h-242z" />
    <glyph glyph-name="Upsilon" unicode="&#x3a5;" horiz-adv-x="1325" 
d="M301 1434l362 -619l360 619h261l-501 -851v-583h-241v583l-501 851h260z" />
    <glyph glyph-name="Phi" unicode="&#x3a6;" horiz-adv-x="1567" 
d="M666 0v197q-164 0 -300.5 68t-216 187t-79.5 263t79.5 263t216 187t300.5 68v201h236v-201q163 0 300 -68t216.5 -187.5t79.5 -262.5q0 -144 -79.5 -263t-216.5 -187t-300 -68v-197h-236zM1258 715q0 129 -103.5 220t-252.5 91v-624q149 0 252.5 91.5t103.5 221.5z
M309 715q0 -130 104 -221.5t253 -91.5v624q-150 0 -253.5 -91t-103.5 -220z" />
    <glyph glyph-name="Chi" unicode="&#x3a7;" horiz-adv-x="1303" 
d="M1271 0h-264l-356 558l-355 -558h-263l472 730l-453 704h263l336 -532l336 532h264l-453 -704z" />
    <glyph glyph-name="Psi" unicode="&#x3a8;" horiz-adv-x="1425" 
d="M828 1434v-885q105 33 170 123t65 212v550h232v-562q0 -205 -131 -356t-336 -187v-329h-232v329q-204 36 -335.5 187t-131.5 356v562h232v-550q0 -122 65 -212t170 -123v885h232z" />
    <glyph glyph-name="uni03A9" unicode="&#x3a9;" horiz-adv-x="1638" 
d="M1303 751q0 207 -141 351t-343 144q-203 0 -343 -144t-140 -351q0 -171 97 -316t275 -233v-202h-599v212h314q-163 102 -247.5 245t-84.5 315q0 141 56.5 268t153.5 218.5t232 145.5t286 54t286 -54t232 -145.5t153.5 -218.5t56.5 -268q0 -172 -84.5 -315t-247.5 -245
h314v-212h-599v202q178 88 275.5 233t97.5 316z" />
    <glyph glyph-name="Iotadieresis" unicode="&#x3aa;" horiz-adv-x="602" 
d="M180 1434h242v-1434h-242v1434zM-24 1704q0 55 39 93.5t95 38.5q57 0 95 -38t38 -94t-38 -94.5t-95 -38.5q-56 0 -95 38.5t-39 94.5zM357 1704q0 55 39 93.5t95 38.5q57 0 95 -38t38 -94t-38 -94.5t-95 -38.5q-56 0 -95 38.5t-39 94.5z" />
    <glyph glyph-name="Upsilondieresis" unicode="&#x3ab;" horiz-adv-x="1325" 
d="M301 1434l362 -619l360 619h261l-501 -851v-583h-241v583l-501 851h260zM338 1704q0 56 38.5 94t94.5 38q57 0 95 -38t38 -94t-38 -94.5t-95 -38.5q-56 0 -94.5 38.5t-38.5 94.5zM719 1704q0 56 38.5 94t94.5 38q57 0 95 -38t38 -94t-38 -94.5t-95 -38.5
q-56 0 -94.5 38.5t-38.5 94.5z" />
    <glyph glyph-name="alphatonos" unicode="&#x3ac;" horiz-adv-x="1415" 
d="M506 1270l251 343l150 -121l-293 -307zM71 530q0 153 66.5 280t185.5 201t266 74q114 0 209.5 -44t163.5 -123v143h233v-750q0 -106 105 -106h46v-202q-36 -3 -92 -3q-221 0 -277 164q-68 -89 -167.5 -139t-220.5 -50q-147 0 -266 74t-185.5 201t-66.5 280zM307 530
q0 -146 94.5 -246.5t233.5 -100.5t233 100.5t94 246.5t-93.5 247t-233.5 101t-234 -101t-94 -247z" />
    <glyph glyph-name="epsilontonos" unicode="&#x3ad;" horiz-adv-x="977" 
d="M339 1270l251 343l150 -121l-293 -307zM301 319q0 -65 58.5 -109t144.5 -44q154 0 263 122l130 -111q-74 -99 -169 -150.5t-227 -51.5q-185 0 -308.5 94.5t-123.5 234.5q0 92 62 161t154 96q-81 27 -130 92.5t-49 142.5q0 122 112 205.5t277 83.5q163 0 268.5 -89
t126.5 -233h-219q-37 130 -179 130q-67 0 -111.5 -32.5t-44.5 -82.5q0 -53 48 -90t117 -37h159v-186h-153q-88 0 -147 -41t-59 -105z" />
    <glyph glyph-name="etatonos" unicode="&#x3ae;" horiz-adv-x="1245" 
d="M699 1085q192 0 308 -118t116 -313v-1129h-233v1109q0 100 -68 172t-171 72q-112 0 -193 -83.5t-81 -210.5v-584h-235v1061h235v-141q56 76 140 120.5t182 44.5zM510 1270l251 343l150 -121l-293 -307z" />
    <glyph glyph-name="iotatonos" unicode="&#x3af;" horiz-adv-x="581" 
d="M158 252v809h233v-750q0 -106 106 -106h40v-202q-36 -3 -86 -3q-293 0 -293 252zM160 1270l251 343l150 -121l-293 -307z" />
    <glyph glyph-name="upsilondieresistonos" unicode="&#x3b0;" horiz-adv-x="1177" 
d="M589 -25q-197 0 -332 128t-135 313v645h234v-633q0 -104 67 -174.5t166 -70.5q98 0 165 70.5t67 174.5v633h234v-645q0 -185 -135 -313t-331 -128zM265 1305q0 57 38.5 95t97.5 38t98 -38t39 -95t-39 -95t-98 -38t-97.5 38t-38.5 95zM639 1305q0 57 38.5 95t97.5 38
t97.5 -38t38.5 -95t-38.5 -95t-97.5 -38t-97.5 38t-38.5 95zM469 1500l227 302l151 -122l-269 -265z" />
    <glyph glyph-name="alpha" unicode="&#x3b1;" horiz-adv-x="1415" 
d="M71 530q0 153 66.5 280t185.5 201t266 74q114 0 209.5 -44t163.5 -123v143h233v-750q0 -106 105 -106h46v-202q-36 -3 -92 -3q-221 0 -277 164q-68 -89 -167.5 -139t-220.5 -50q-147 0 -266 74t-185.5 201t-66.5 280zM307 530q0 -146 94.5 -246.5t233.5 -100.5t233 100.5
t94 246.5t-93.5 247t-233.5 101t-234 -101t-94 -247z" />
    <glyph glyph-name="beta" unicode="&#x3b2;" horiz-adv-x="1235" 
d="M460 72l52 156q94 -51 194 -51q105 0 164.5 76t59.5 200q0 112 -81 191.5t-200 79.5q-35 0 -76 -12l-72 116l205 398h-317v-1701h-237v1909h800v-207l-193 -356q180 -9 295 -135.5t115 -307.5q0 -199 -117.5 -326t-324.5 -127q-145 0 -267 97z" />
    <glyph glyph-name="gamma" unicode="&#x3b3;" horiz-adv-x="1087" 
d="M427 -475v474l-403 1062h243l277 -765l276 765h244l-404 -1062v-474h-233z" />
    <glyph glyph-name="delta" unicode="&#x3b4;" horiz-adv-x="1159" 
d="M305 455q0 -117 80 -197t195 -80t194.5 80t79.5 197q0 116 -79.5 195.5t-194.5 79.5t-195 -79.5t-80 -195.5zM534 923l-322 321v190h745v-208h-449l453 -454q61 -61 95 -145t34 -172q0 -102 -42 -192.5t-112.5 -153t-164 -98.5t-194.5 -36q-133 0 -248.5 60.5t-187 172
t-71.5 247.5q0 128 63.5 233t169 165.5t231.5 69.5z" />
    <glyph glyph-name="epsilon" unicode="&#x3b5;" horiz-adv-x="977" 
d="M301 319q0 -65 58.5 -109t144.5 -44q154 0 263 122l130 -111q-74 -99 -169 -150.5t-227 -51.5q-185 0 -308.5 94.5t-123.5 234.5q0 92 62 161t154 96q-81 27 -130 92.5t-49 142.5q0 122 112 205.5t277 83.5q163 0 268.5 -89t126.5 -233h-219q-37 130 -179 130
q-67 0 -111.5 -32.5t-44.5 -82.5q0 -53 48 -90t117 -37h159v-186h-153q-88 0 -147 -41t-59 -105z" />
    <glyph glyph-name="zeta" unicode="&#x3b6;" horiz-adv-x="964" 
d="M70 377q0 97 48.5 189t135.5 199l379 461h-461v208h732v-195l-467 -577q-134 -165 -134 -282q0 -141 171 -221l243 -113q91 -42 138.5 -110.5t47.5 -158.5q0 -125 -90 -252h-232q88 116 88 220q0 48 -30 87t-80 62l-217 97q-131 59 -201.5 159t-70.5 227z" />
    <glyph glyph-name="eta" unicode="&#x3b7;" horiz-adv-x="1245" 
d="M699 1085q192 0 308 -118t116 -313v-1129h-233v1109q0 100 -68 172t-171 72q-112 0 -193 -83.5t-81 -210.5v-584h-235v1061h235v-141q56 76 140 120.5t182 44.5z" />
    <glyph glyph-name="theta" unicode="&#x3b8;" horiz-adv-x="1310" 
d="M70 717q0 120 27 232t78.5 204t122 160.5t162.5 106.5t195 38q170 0 305 -101t207.5 -269.5t72.5 -370.5t-72.5 -370.5t-207.5 -270t-305 -101.5q-128 0 -238.5 59.5t-186 160t-118 236t-42.5 286.5zM655 180q136 0 230 125t113 313h-686q13 -123 58 -221.5t119.5 -157.5
t165.5 -59zM655 1252q-91 0 -165.5 -59t-119.5 -157.5t-58 -221.5h686q-19 188 -113 313t-230 125z" />
    <glyph glyph-name="iota" unicode="&#x3b9;" horiz-adv-x="581" 
d="M158 252v809h233v-750q0 -106 106 -106h40v-202q-36 -3 -86 -3q-293 0 -293 252z" />
    <glyph glyph-name="kappa" unicode="&#x3ba;" horiz-adv-x="1076" 
d="M753 1061h233q0 -193 -60 -325t-174 -196l318 -540h-264l-283 486h-146v-486h-235v1061h235v-374h101q125 0 200 90t75 284z" />
    <glyph glyph-name="lambda" unicode="&#x3bb;" horiz-adv-x="1087" 
d="M426 1041l-179 454h243l574 -1495h-244l-279 741l-274 -741h-243z" />
    <glyph glyph-name="uni03BC" unicode="&#x3bc;" horiz-adv-x="1265" 
d="M142 -475v1536h234v-641q0 -97 69 -167t169 -70q112 0 193.5 83.5t81.5 210.5v584h234v-1061h-234v140q-56 -75 -140.5 -119.5t-182.5 -44.5q-107 0 -190 40v-491h-234z" />
    <glyph glyph-name="nu" unicode="&#x3bd;" horiz-adv-x="1085" 
d="M818 1061h244l-395 -1061h-248l-395 1061h243l276 -770z" />
    <glyph glyph-name="xi" unicode="&#x3be;" horiz-adv-x="974" 
d="M312 384q0 -180 202 -256l180 -69q104 -40 162 -111t58 -167q0 -127 -93 -256h-231q91 114 91 219q0 101 -114 144l-169 62q-149 54 -234 170.5t-85 253.5q0 135 82.5 245.5t211.5 157.5q-109 41 -170 128t-61 194q0 152 118 255.5t291 103.5q176 0 283 -95.5t114 -259.5
h-215q-6 70 -57.5 116t-120.5 46q-78 0 -130 -55t-52 -139t53.5 -140.5t132.5 -56.5h223v-192h-182q-122 0 -205 -85.5t-83 -212.5z" />
    <glyph glyph-name="omicron" unicode="&#x3bf;" horiz-adv-x="1304" 
d="M71 530q0 152 75 279.5t208.5 201.5t297.5 74t297.5 -74t208.5 -201.5t75 -279.5t-75 -279.5t-208.5 -201.5t-297.5 -74t-297.5 74t-208.5 201.5t-75 279.5zM307 530q0 -146 99.5 -246.5t245.5 -100.5t245.5 100.5t99.5 246.5t-99.5 247t-245.5 101t-245.5 -101
t-99.5 -247z" />
    <glyph glyph-name="pi" unicode="&#x3c0;" horiz-adv-x="1179" 
d="M428 853v-853h-232v853h-148v208h1082v-208h-147v-853h-232v853h-323z" />
    <glyph glyph-name="rho" unicode="&#x3c1;" horiz-adv-x="1318" 
d="M122 -475v1005q0 153 71.5 280t201.5 201t291 74q160 0 289.5 -74t201 -201t71.5 -280q0 -150 -70.5 -277.5t-195.5 -202.5t-276 -75q-105 0 -196 40t-156 113v-603h-232zM354 530v-139q39 -95 125.5 -151.5t191.5 -56.5q144 0 242.5 100t98.5 247t-93.5 247.5
t-234.5 100.5q-142 0 -236 -100.5t-94 -247.5z" />
    <glyph glyph-name="sigma1" unicode="&#x3c2;" horiz-adv-x="1104" 
d="M308 530q0 -117 61 -208t177 -142q25 -11 121.5 -53.5t147.5 -65.5q199 -90 199 -279q0 -128 -92 -257h-231q90 118 90 220q0 100 -110 149q-42 19 -126 54.5t-126 53.5q-162 69 -255 207.5t-93 320.5q0 152 75 279.5t208.5 201.5t297.5 74q227 0 394 -141l-119 -178
q-133 112 -274 112q-146 0 -245.5 -101t-99.5 -247z" />
    <glyph glyph-name="sigma" unicode="&#x3c3;" horiz-adv-x="1352" 
d="M71 518q0 149 75.5 274t206 197t287.5 72h664v-208h-264q78 -64 123 -157t45 -198t-44.5 -201.5t-119.5 -167t-181 -112.5t-223 -42q-157 0 -287.5 72t-206 196.5t-75.5 274.5zM306 518q0 -142 97 -238.5t237 -96.5t236.5 96.5t96.5 238.5q0 141 -96.5 238t-236.5 97
t-237 -97t-97 -238z" />
    <glyph glyph-name="tau" unicode="&#x3c4;" horiz-adv-x="1007" 
d="M376 340v513h-329v208h914v-208h-352v-499q0 -82 33 -117t104 -35h55v-202q-35 -3 -87 -3q-178 0 -258 80.5t-80 262.5z" />
    <glyph glyph-name="upsilon" unicode="&#x3c5;" horiz-adv-x="1177" 
d="M589 -25q-197 0 -332 128t-135 313v645h234v-633q0 -104 67 -174.5t166 -70.5q98 0 165 70.5t67 174.5v633h234v-645q0 -185 -135 -313t-331 -128z" />
    <glyph glyph-name="phi" unicode="&#x3c6;" horiz-adv-x="1429" 
d="M273 966l157 -147q-131 -123 -131 -289q0 -134 86.5 -231t218.5 -114v900h170q123 0 232 -43.5t186.5 -118t122 -177t44.5 -216.5q0 -221 -151.5 -378t-380.5 -174v-453h-223v453q-151 11 -273 86t-191 197.5t-69 268.5q0 132 55.5 245t146.5 191zM1132 530
q0 133 -87 230t-218 114v-689q131 17 218 114.5t87 230.5z" />
    <glyph glyph-name="chi" unicode="&#x3c7;" horiz-adv-x="1069" 
d="M1040 1061l-369 -749l390 -787h-250l-276 564l-277 -564h-250l390 787l-369 749h250l256 -526l256 526h249z" />
    <glyph glyph-name="psi" unicode="&#x3c8;" horiz-adv-x="1409" 
d="M817 1061v-860q108 29 175 114.5t67 198.5v547h227v-560q0 -195 -132 -338.5t-337 -176.5v-461h-226v461q-204 33 -336.5 176.5t-132.5 338.5v560h227v-547q0 -113 67 -198.5t175 -114.5v860h226z" />
    <glyph glyph-name="omega" unicode="&#x3c9;" horiz-adv-x="1637" 
d="M935 838v-325q0 -138 56 -234t139 -96q85 0 142.5 97t57.5 240q0 243 -179 541h233q80 -129 131.5 -260.5t51.5 -280.5q0 -248 -119 -396.5t-300 -148.5q-109 0 -196 64t-134 163q-45 -99 -132.5 -163t-196.5 -64q-181 0 -299.5 148.5t-118.5 396.5q0 150 51.5 281.5
t130.5 259.5h233q-179 -298 -179 -541q0 -143 57.5 -240t142.5 -97q83 0 139 96t56 234v325h233z" />
    <glyph glyph-name="iotadieresis" unicode="&#x3ca;" horiz-adv-x="581" 
d="M158 252v809h233v-750q0 -106 106 -106h40v-202q-36 -3 -86 -3q-293 0 -293 252zM-49 1372q0 56 38.5 94t94.5 38q57 0 95 -38t38 -94t-38 -94.5t-95 -38.5q-56 0 -94.5 38.5t-38.5 94.5zM332 1372q0 56 38.5 94t94.5 38q57 0 95 -38t38 -94t-38 -94.5t-95 -38.5
q-56 0 -94.5 38.5t-38.5 94.5z" />
    <glyph glyph-name="upsilondieresis" unicode="&#x3cb;" horiz-adv-x="1177" 
d="M589 -25q-197 0 -332 128t-135 313v645h234v-633q0 -104 67 -174.5t166 -70.5q98 0 165 70.5t67 174.5v633h234v-645q0 -185 -135 -313t-331 -128zM264 1372q0 56 38.5 94t94.5 38q57 0 95 -38t38 -94t-38 -94.5t-95 -38.5q-56 0 -94.5 38.5t-38.5 94.5zM645 1372
q0 56 38.5 94t94.5 38q57 0 95 -38t38 -94t-38 -94.5t-95 -38.5q-56 0 -94.5 38.5t-38.5 94.5z" />
    <glyph glyph-name="omicrontonos" unicode="&#x3cc;" horiz-adv-x="1304" 
d="M71 530q0 152 75 279.5t208.5 201.5t297.5 74t297.5 -74t208.5 -201.5t75 -279.5t-75 -279.5t-208.5 -201.5t-297.5 -74t-297.5 74t-208.5 201.5t-75 279.5zM307 530q0 -146 99.5 -246.5t245.5 -100.5t245.5 100.5t99.5 246.5t-99.5 247t-245.5 101t-245.5 -101
t-99.5 -247zM536 1270l251 343l150 -121l-293 -307z" />
    <glyph glyph-name="upsilontonos" unicode="&#x3cd;" horiz-adv-x="1177" 
d="M461 1270l251 343l150 -121l-293 -307zM589 -25q-197 0 -332 128t-135 313v645h234v-633q0 -104 67 -174.5t166 -70.5q98 0 165 70.5t67 174.5v633h234v-645q0 -185 -135 -313t-331 -128z" />
    <glyph glyph-name="omegatonos" unicode="&#x3ce;" horiz-adv-x="1637" 
d="M711 1270l251 343l150 -121l-293 -307zM935 838v-325q0 -138 56 -234t139 -96q85 0 142.5 97t57.5 240q0 243 -179 541h233q80 -129 131.5 -260.5t51.5 -280.5q0 -248 -119 -396.5t-300 -148.5q-109 0 -196 64t-134 163q-45 -99 -132.5 -163t-196.5 -64
q-181 0 -299.5 148.5t-118.5 396.5q0 150 51.5 281.5t130.5 259.5h233q-179 -298 -179 -541q0 -143 57.5 -240t142.5 -97q83 0 139 96t56 234v325h233z" />
    <glyph glyph-name="uni0400" unicode="&#x400;" horiz-adv-x="1164" 
d="M164 0v1434h870v-208h-628v-403h577v-206h-577v-410h647v-207h-889zM462 1944l251 -343l-109 -85l-292 307z" />
    <glyph glyph-name="afii10023" unicode="&#x401;" horiz-adv-x="1164" 
d="M164 0v1434h870v-208h-628v-403h577v-206h-577v-410h647v-207h-889zM276 1704q0 55 39 93.5t95 38.5q57 0 95 -38t38 -94t-38 -94.5t-95 -38.5q-56 0 -95 38.5t-39 94.5zM657 1704q0 55 39 93.5t95 38.5q57 0 95 -38t38 -94t-38 -94.5t-95 -38.5q-56 0 -95 38.5t-39 94.5
z" />
    <glyph glyph-name="afii10051" unicode="&#x402;" horiz-adv-x="1469" 
d="M991 922q184 0 295.5 -118t111.5 -314v-92q0 -170 -120.5 -286t-295.5 -116q-43 0 -89 4v201q17 -1 55 -1q88 0 148 60.5t60 149.5v60q0 110 -56.5 177t-156.5 67q-108 0 -182.5 -83t-74.5 -211v-420h-242v1226h-385v208h1012v-208h-385v-467q54 76 133.5 119.5
t171.5 43.5z" />
    <glyph glyph-name="afii10052" unicode="&#x403;" horiz-adv-x="1058" 
d="M164 0v1434h853v-209h-611v-1225h-242zM471 1642l251 344l150 -121l-292 -307z" />
    <glyph glyph-name="afii10053" unicode="&#x404;" horiz-adv-x="1552" 
d="M1306 471l146 -106q-216 -390 -648 -390q-151 0 -284.5 56.5t-230 154t-152.5 236t-56 295.5t56 295t152.5 235.5t230 154t284.5 56.5q256 0 433 -137.5t234 -377.5h-252q-43 145 -155 224t-257 79q-176 0 -310 -117t-163 -312h700v-202h-700q31 -196 167 -312t315 -116
q312 0 490 284z" />
    <glyph glyph-name="afii10054" unicode="&#x405;" horiz-adv-x="1213" 
d="M123 248l114 122q171 -186 372 -186q123 0 200.5 56.5t77.5 149.5q0 90 -72 152.5t-244 98.5q-217 46 -329 152t-112 264q0 178 130 289.5t336 111.5q98 0 185 -26t156.5 -76.5t112.5 -132.5t50 -186h-245q-7 101 -75 156.5t-174 55.5q-101 0 -166 -48.5t-65 -126.5
q0 -86 71.5 -143t229.5 -93q238 -54 347 -163.5t109 -279.5q0 -186 -140 -303t-376 -117q-140 0 -267.5 71t-225.5 202z" />
    <glyph glyph-name="afii10055" unicode="&#x406;" horiz-adv-x="602" 
d="M180 1434h242v-1434h-242v1434z" />
    <glyph glyph-name="afii10056" unicode="&#x407;" horiz-adv-x="602" 
d="M180 1434h242v-1434h-242v1434zM-24 1704q0 55 39 93.5t95 38.5q57 0 95 -38t38 -94t-38 -94.5t-95 -38.5q-56 0 -95 38.5t-39 94.5zM357 1704q0 55 39 93.5t95 38.5q57 0 95 -38t38 -94t-38 -94.5t-95 -38.5q-56 0 -95 38.5t-39 94.5z" />
    <glyph glyph-name="afii10057" unicode="&#x408;" horiz-adv-x="941" 
d="M548 454v980h242v-985q0 -238 -113 -356t-322 -118q-77 0 -159.5 25.5t-144.5 71.5l62 170q100 -55 208 -55q227 0 227 267z" />
    <glyph glyph-name="afii10058" unicode="&#x409;" horiz-adv-x="2061" 
d="M1248 1434v-519h241q228 0 365 -126t137 -331t-137 -331.5t-365 -126.5h-482v1225h-519v-870q0 -185 -89.5 -272t-272.5 -87q-36 0 -84 4v205h59q74 0 110 38t36 127v1064h1001zM1747 458q0 117 -73 185t-201 68h-225v-506h225q129 0 201.5 68t72.5 185z" />
    <glyph glyph-name="afii10059" unicode="&#x40a;" horiz-adv-x="2069" 
d="M1256 1434v-519h241q228 0 365 -126t137 -331t-137 -331.5t-365 -126.5h-482v615h-609v-615h-242v1434h242v-610h609v610h241zM1755 458q0 117 -73 185t-202 68h-224v-506h224q130 0 202.5 68t72.5 185z" />
    <glyph glyph-name="afii10060" unicode="&#x40b;" horiz-adv-x="1520" 
d="M991 922q184 0 295.5 -118t111.5 -314v-490h-242v470q0 110 -56.5 177t-156.5 67q-109 0 -183 -84.5t-74 -215.5v-414h-242v1226h-385v208h1012v-208h-385v-467q54 76 133.5 119.5t171.5 43.5z" />
    <glyph glyph-name="afii10061" unicode="&#x40c;" horiz-adv-x="1249" 
d="M900 1433h242q0 -567 -300 -731l416 -702h-276l-375 637q-36 -4 -81 -4h-120v-633h-242v1434h242v-592h76q147 0 236.5 56t135.5 186.5t46 348.5zM478 1601l251 343l150 -121l-293 -307z" />
    <glyph glyph-name="uni040D" unicode="&#x40d;" horiz-adv-x="1439" 
d="M593 1945l251 -343l-109 -85l-293 307zM1276 1434v-1434h-230v1032l-642 -1032h-240v1434h230v-1033l641 1033h241z" />
    <glyph glyph-name="afii10062" unicode="&#x40e;" horiz-adv-x="1325" 
d="M667 1525q-139 0 -240 90t-108 228h200q2 -66 43.5 -110t104.5 -44q62 0 103.5 43.5t43.5 110.5h201q-7 -138 -107.5 -228t-240.5 -90zM1029 1434h255l-597 -1227q-102 -207 -313 -207h-169v209h108q35 0 58 6.5t49.5 29.5t54 66.5t65.5 117.5l-499 1005h255l371 -766z
" />
    <glyph glyph-name="afii10145" unicode="&#x40f;" horiz-adv-x="1388" 
d="M982 209v1225h242v-1434h-409v-287h-242v287h-409v1434h242v-1225h576z" />
    <glyph glyph-name="afii10017" unicode="&#x410;" horiz-adv-x="1404" 
d="M568 1434h269l526 -1434h-259l-120 346h-564l-120 -346h-259zM486 548h433l-217 623z" />
    <glyph glyph-name="afii10018" unicode="&#x411;" horiz-adv-x="1232" 
d="M406 915h242q228 0 365.5 -126t137.5 -331t-137.5 -331.5t-365.5 -126.5h-484v1434h869v-206h-627v-313zM906 458q0 117 -73 185t-201 68h-226v-506h226q129 0 201.5 68t72.5 185z" />
    <glyph glyph-name="afii10019" unicode="&#x412;" horiz-adv-x="1272" 
d="M752 0h-588v1434h522q194 0 305 -104t111 -280q0 -107 -49.5 -181.5t-133.5 -107.5q113 -28 188 -121t75 -227q0 -184 -117.5 -298.5t-312.5 -114.5zM863 1033q0 93 -53.5 145t-141.5 52h-265v-391h265q88 0 141.5 51t53.5 143zM938 423q0 100 -58.5 159.5t-153.5 59.5
h-323v-438h323q94 0 153 60t59 159z" />
    <glyph glyph-name="afii10020" unicode="&#x413;" horiz-adv-x="1058" 
d="M164 0v1434h853v-209h-611v-1225h-242z" />
    <glyph glyph-name="afii10021" unicode="&#x414;" horiz-adv-x="1363" 
d="M1304 204v-491h-240v287h-765v-287h-239v491h108q176 407 176 1062v168h833v-1230h127zM422 204h515v1026h-356q0 -272 -40 -544.5t-119 -481.5z" />
    <glyph glyph-name="afii10022" unicode="&#x415;" horiz-adv-x="1164" 
d="M164 0v1434h870v-208h-628v-403h577v-206h-577v-410h647v-207h-889z" />
    <glyph glyph-name="afii10024" unicode="&#x416;" horiz-adv-x="1851" 
d="M1504 1433h242q0 -568 -299 -731l416 -702h-277l-375 637q-35 -4 -79 -4h-85v-633h-242v633h-63q-70 0 -103 4l-374 -637h-276l415 702q-299 163 -299 731h242q0 -218 45.5 -348.5t135 -186.5t236.5 -56h41v592h242v-592h40q147 0 236.5 56t135 186.5t45.5 348.5z" />
    <glyph glyph-name="afii10025" unicode="&#x417;" horiz-adv-x="1090" 
d="M276 1079h-207q18 175 133 277t309 102q186 0 306 -109t120 -270q0 -97 -57.5 -182t-148.5 -123q125 -45 202.5 -141.5t77.5 -220.5q0 -123 -66 -223.5t-181 -157t-255 -56.5q-132 0 -248.5 63.5t-193.5 186.5l126 121q126 -170 313 -170q114 0 190 69.5t76 175.5
q0 111 -82.5 180t-218.5 69h-148v195h151q103 0 169.5 60t66.5 145q0 81 -62.5 134t-155.5 53q-90 0 -147 -44.5t-69 -133.5z" />
    <glyph glyph-name="afii10026" unicode="&#x418;" horiz-adv-x="1439" 
d="M1276 1434v-1434h-230v1032l-642 -1032h-240v1434h230v-1033l641 1033h241z" />
    <glyph glyph-name="afii10027" unicode="&#x419;" horiz-adv-x="1439" 
d="M719 1525q-139 0 -239.5 90t-107.5 228h199q2 -66 43.5 -110t104.5 -44q62 0 103.5 43.5t43.5 110.5h201q-7 -138 -107.5 -228t-240.5 -90zM1276 1434v-1434h-230v1032l-642 -1032h-240v1434h230v-1033l641 1033h241z" />
    <glyph glyph-name="afii10028" unicode="&#x41a;" horiz-adv-x="1249" 
d="M900 1433h242q0 -567 -300 -731l416 -702h-276l-375 637q-36 -4 -81 -4h-120v-633h-242v1434h242v-592h76q147 0 236.5 56t135.5 186.5t46 348.5z" />
    <glyph glyph-name="afii10029" unicode="&#x41b;" horiz-adv-x="1449" 
d="M488 1225v-870q0 -185 -89.5 -272t-272.5 -87q-36 0 -84 4v206q22 -1 59 -1q74 0 110 38t36 127v1064h1038v-1434h-242v1225h-555z" />
    <glyph glyph-name="afii10030" unicode="&#x41c;" horiz-adv-x="1748" 
d="M981 195h-122l-465 811v-1006h-230v1434h238l519 -914l518 914h237v-1434h-230v1006z" />
    <glyph glyph-name="afii10031" unicode="&#x41d;" horiz-adv-x="1437" 
d="M164 0v1434h242v-610h625v610h242v-1434h-242v615h-625v-615h-242z" />
    <glyph glyph-name="afii10032" unicode="&#x41e;" horiz-adv-x="1684" 
d="M326 717q0 -147 68.5 -269t187 -191.5t260.5 -69.5t261 69.5t187.5 191.5t68.5 269q0 223 -150 376t-367 153t-366.5 -153t-149.5 -376zM81 717q0 206 100 376t274.5 267.5t386.5 97.5q159 0 300 -57.5t242.5 -156t160.5 -236t59 -291.5t-59 -291.5t-160.5 -236.5
t-242.5 -156.5t-300 -57.5t-300 57.5t-242 156.5t-160 236.5t-59 291.5z" />
    <glyph glyph-name="afii10033" unicode="&#x41f;" horiz-adv-x="1387" 
d="M1224 1434v-1434h-242v1225h-576v-1225h-242v1434h1060z" />
    <glyph glyph-name="afii10034" unicode="&#x420;" horiz-adv-x="1213" 
d="M646 520h-240v-520h-242v1434h482q227 0 362 -125.5t135 -331.5q0 -207 -135 -332t-362 -125zM900 977q0 117 -70.5 185t-198.5 68h-225v-507h225q128 0 198.5 68t70.5 186z" />
    <glyph glyph-name="afii10035" unicode="&#x421;" horiz-adv-x="1552" 
d="M1306 471l146 -106q-216 -390 -648 -390q-151 0 -284.5 56.5t-230 154t-152.5 236t-56 295.5t56 295t152.5 235.5t230 154t284.5 56.5q256 0 433 -137.5t234 -377.5h-252q-43 145 -155 224t-257 79q-96 0 -183.5 -37.5t-153.5 -104.5t-105 -167.5t-39 -219.5t40 -220
t107.5 -168t156 -104.5t186.5 -37.5q312 0 490 284z" />
    <glyph glyph-name="afii10036" unicode="&#x422;" horiz-adv-x="1132" 
d="M445 0v1225h-386v209h1013v-209h-385v-1225h-242z" />
    <glyph glyph-name="afii10037" unicode="&#x423;" horiz-adv-x="1325" 
d="M1029 1434h255l-597 -1227q-102 -207 -313 -207h-169v209h108q35 0 58 6.5t49.5 29.5t54 66.5t65.5 117.5l-499 1005h255l371 -766z" />
    <glyph glyph-name="afii10038" unicode="&#x424;" horiz-adv-x="1567" 
d="M666 0v197q-164 0 -300.5 68t-216 187t-79.5 263t79.5 263t216 187t300.5 68v201h236v-201q163 0 300 -68t216.5 -187.5t79.5 -262.5q0 -144 -79.5 -263t-216.5 -187t-300 -68v-197h-236zM1258 715q0 129 -103.5 220t-252.5 91v-624q149 0 252.5 91.5t103.5 221.5z
M309 715q0 -130 104 -221.5t253 -91.5v624q-150 0 -253.5 -91t-103.5 -220z" />
    <glyph glyph-name="afii10039" unicode="&#x425;" horiz-adv-x="1303" 
d="M1271 0h-264l-356 558l-355 -558h-263l472 730l-453 704h263l336 -532l336 532h264l-453 -704z" />
    <glyph glyph-name="afii10040" unicode="&#x426;" horiz-adv-x="1410" 
d="M1115 0h-951v1434h242v-1225h576v1225h242v-1225h126v-496h-235v287z" />
    <glyph glyph-name="afii10041" unicode="&#x427;" horiz-adv-x="1281" 
d="M1116 0h-238v669q-53 -73 -141.5 -117.5t-187.5 -44.5q-192 0 -309 117.5t-117 313.5v496h238v-477q0 -100 67 -171t169 -71q114 0 197.5 85t83.5 214v420h238v-1434z" />
    <glyph glyph-name="afii10042" unicode="&#x428;" horiz-adv-x="1991" 
d="M1585 209v1225h242v-1434h-1663v1434h242v-1225h468v1225h242v-1225h469z" />
    <glyph glyph-name="afii10043" unicode="&#x429;" horiz-adv-x="2013" 
d="M1717 0h-1553v1434h242v-1225h468v1225h242v-1225h469v1225h242v-1225h126v-496h-236v287z" />
    <glyph glyph-name="afii10044" unicode="&#x42a;" horiz-adv-x="1465" 
d="M650 915h243q228 0 365 -126t137 -331t-137 -331.5t-365 -126.5h-484v1228h-350v206h591v-519zM1151 458q0 117 -72.5 185t-201.5 68h-227v-506h227q129 0 201.5 68t72.5 185z" />
    <glyph glyph-name="afii10045" unicode="&#x42b;" horiz-adv-x="1714" 
d="M164 1434h242v-519h242q228 0 365.5 -126t137.5 -331t-137.5 -331.5t-365.5 -126.5h-484v1434zM906 458q0 117 -72.5 185t-201.5 68h-226v-506h226q129 0 201.5 68t72.5 185zM1309 1434h241v-1434h-241v1434z" />
    <glyph glyph-name="afii10046" unicode="&#x42c;" horiz-adv-x="1220" 
d="M164 1434h242v-519h242q228 0 365.5 -126t137.5 -331t-137.5 -331.5t-365.5 -126.5h-484v1434zM906 458q0 117 -72.5 185t-201.5 68h-226v-506h226q129 0 201.5 68t72.5 185z" />
    <glyph glyph-name="afii10047" unicode="&#x42d;" horiz-adv-x="1552" 
d="M99 365l148 106q85 -136 208 -210t280 -74q179 0 316 116t168 312h-702v202h702q-20 130 -90 228.5t-169.5 149.5t-214.5 51q-145 0 -257 -79t-155 -224h-252q57 240 234 377.5t434 137.5q150 0 283.5 -56.5t230 -154t152.5 -235.5t56 -295t-56 -295.5t-152.5 -236
t-230 -154t-283.5 -56.5q-433 0 -650 390z" />
    <glyph glyph-name="afii10048" unicode="&#x42e;" horiz-adv-x="2188" 
d="M406 615v-615h-242v1434h242v-610h190q25 180 129 324.5t267.5 227t355.5 82.5q158 0 299 -57.5t242 -156t159.5 -236t58.5 -291.5t-58.5 -291.5t-159.5 -236.5t-242 -156.5t-299 -57.5q-194 0 -358 82.5t-267.5 228.5t-127.5 329h-189zM831 717q0 -147 69 -269
t187.5 -191.5t260.5 -69.5q106 0 201.5 41t164 111.5t109 169t40.5 208.5q0 223 -149.5 376t-365.5 153q-142 0 -260.5 -69.5t-187.5 -191t-69 -268.5z" />
    <glyph glyph-name="afii10049" unicode="&#x42f;" horiz-adv-x="1242" 
d="M596 1434h482v-1434h-240v525h-154l-350 -525h-265l367 547q-159 38 -248 152t-89 280q0 206 134.5 330.5t362.5 124.5zM838 1230h-228q-127 0 -197.5 -68t-70.5 -185q0 -116 70.5 -184t197.5 -68h228v505z" />
    <glyph glyph-name="afii10065" unicode="&#x430;" horiz-adv-x="1337" 
d="M71 530q0 153 66.5 280t185.5 201t266 74q228 0 373 -169v145h232v-1061h-232v143q-69 -79 -164.5 -123.5t-208.5 -44.5q-147 0 -266 74t-185.5 201t-66.5 280zM307 530q0 -146 94.5 -246.5t233.5 -100.5t233 100.5t94 246.5t-93.5 247t-233.5 101t-234 -101t-94 -247z
" />
    <glyph glyph-name="afii10066" unicode="&#x431;" horiz-adv-x="1254" 
d="M347 830q63 66 151 105t186 39q138 0 253 -66t180.5 -180.5t65.5 -252.5q0 -215 -154 -357.5t-391 -142.5q-117 0 -216 40t-173 115.5t-116 192t-42 261.5q0 242 41.5 404.5t140 271t250 163t381.5 72.5l34 -208q-135 -13 -229.5 -35.5t-161 -56t-107 -87t-62 -118.5
t-31.5 -160zM327 579q1 -188 86 -292t225 -104q133 0 221 83.5t88 207.5t-86.5 208t-212.5 84q-98 0 -180 -50.5t-141 -136.5z" />
    <glyph glyph-name="afii10067" unicode="&#x432;" horiz-adv-x="1062" 
d="M606 0h-464v1061h432q149 0 249 -82t100 -203q0 -71 -42 -130.5t-109 -86.5q86 -21 143 -93.5t57 -160.5q0 -129 -105.5 -217t-260.5 -88zM588 456h-220v-267h220q67 0 111.5 38t44.5 95t-44.5 95.5t-111.5 38.5zM368 635h188q52 0 97 32.5t45 85.5q0 51 -40.5 84
t-101.5 33h-188v-235z" />
    <glyph glyph-name="afii10068" unicode="&#x433;" horiz-adv-x="849" 
d="M805 853h-428v-853h-235v1061h663v-208z" />
    <glyph glyph-name="afii10069" unicode="&#x434;" horiz-adv-x="1140" 
d="M1094 193v-410h-227v217h-595v-217h-225v410h109q147 311 147 868h661v-868h130zM396 193h344v674h-222q0 -169 -32 -351.5t-90 -322.5z" />
    <glyph glyph-name="afii10070" unicode="&#x435;" horiz-adv-x="1259" 
d="M308 459q17 -127 113.5 -209t235.5 -82q108 0 193 38.5t165 117.5l125 -122q-95 -108 -210.5 -167.5t-269.5 -59.5q-130 0 -240.5 43.5t-186.5 118t-119 176.5t-43 217q0 114 43.5 216.5t118.5 177t181 118t226 43.5q118 0 220.5 -42.5t174 -114.5t112.5 -170t41 -207
q0 -49 -10 -92h-870zM639 893q-116 0 -205.5 -72t-118.5 -184h630q-23 113 -106 184.5t-200 71.5z" />
    <glyph glyph-name="afii10072" unicode="&#x436;" horiz-adv-x="1622" 
d="M84 1061h234q0 -194 74.5 -284t199.5 -90h102v374h234v-374h102q125 0 199.5 90t74.5 284h234q0 -193 -60 -325t-174 -196l317 -540h-263l-283 486h-147v-486h-234v486h-147l-283 -486h-263l317 540q-114 64 -174 196t-60 325z" />
    <glyph glyph-name="afii10073" unicode="&#x437;" horiz-adv-x="977" 
d="M674 319q0 64 -59.5 105t-147.5 41h-153v186h159q69 0 117 37t48 90q0 50 -44 82.5t-111 32.5q-142 0 -179 -130h-219q21 145 126 233.5t268 88.5q165 0 276.5 -83t111.5 -206q0 -77 -48 -142.5t-129 -92.5q92 -27 153.5 -95.5t61.5 -161.5q0 -140 -123.5 -234.5
t-308.5 -94.5q-132 0 -226.5 51.5t-169.5 150.5l131 111q109 -122 262 -122q87 0 145.5 44t58.5 109z" />
    <glyph glyph-name="afii10074" unicode="&#x438;" horiz-adv-x="1265" 
d="M1123 1061v-1061h-226v731l-539 -731h-216v1061h227v-731l538 731h216z" />
    <glyph glyph-name="afii10075" unicode="&#x439;" horiz-adv-x="1265" 
d="M632 1193q-139 0 -239.5 90t-107.5 228h199q2 -66 43.5 -110t104.5 -44q62 0 103.5 43.5t43.5 110.5h201q-7 -138 -107.5 -228t-240.5 -90zM1123 1061v-1061h-226v731l-539 -731h-216v1061h227v-731l538 731h216z" />
    <glyph glyph-name="afii10076" unicode="&#x43a;" horiz-adv-x="1076" 
d="M753 1061h233q0 -193 -60 -325t-174 -196l318 -540h-264l-283 486h-146v-486h-235v1061h235v-374h101q125 0 200 90t75 284z" />
    <glyph glyph-name="afii10077" unicode="&#x43b;" horiz-adv-x="1266" 
d="M1123 1061v-1061h-233v854h-427v-548q0 -135 -90.5 -224t-228.5 -89q-58 0 -99 7v205q16 -1 53 -1q58 0 94.5 36.5t36.5 96.5v724h894z" />
    <glyph glyph-name="afii10078" unicode="&#x43c;" horiz-adv-x="1394" 
d="M365 1061l332 -533l333 533h221v-1061h-223v719l-262 -408h-138l-262 408v-719h-224v1061h223z" />
    <glyph glyph-name="afii10079" unicode="&#x43d;" horiz-adv-x="1265" 
d="M1123 1061v-1061h-234v444h-512v-444h-235v1061h235v-410h512v410h234z" />
    <glyph glyph-name="afii10080" unicode="&#x43e;" horiz-adv-x="1304" 
d="M71 530q0 152 75 279.5t208.5 201.5t297.5 74t297.5 -74t208.5 -201.5t75 -279.5t-75 -279.5t-208.5 -201.5t-297.5 -74t-297.5 74t-208.5 201.5t-75 279.5zM307 530q0 -146 99.5 -246.5t245.5 -100.5t245.5 100.5t99.5 246.5t-99.5 247t-245.5 101t-245.5 -101
t-99.5 -247z" />
    <glyph glyph-name="afii10081" unicode="&#x43f;" horiz-adv-x="1265" 
d="M1123 1061v-1061h-234v854h-512v-854h-235v1061h981z" />
    <glyph glyph-name="afii10082" unicode="&#x440;" horiz-adv-x="1337" 
d="M1266 530q0 -153 -66 -280t-185 -201t-266 -74q-114 0 -210 44.5t-164 123.5v-618h-233v1536h233v-145q68 80 163.5 124.5t210.5 44.5q110 0 206.5 -43.5t164.5 -118t107 -177t39 -216.5zM1030 530q0 146 -94 247t-234 101t-233.5 -101t-93.5 -247t94 -246.5t233 -100.5
q138 0 233 100.5t95 246.5z" />
    <glyph glyph-name="afii10083" unicode="&#x441;" horiz-adv-x="1209" 
d="M979 359l138 -94q-77 -143 -198 -216.5t-277 -73.5t-287 72.5t-207.5 200t-76.5 282.5q0 116 43 219t116 176.5t175.5 116.5t216.5 43q197 0 334.5 -101t181.5 -278h-252q-28 81 -95.5 126.5t-161.5 45.5q-130 0 -226 -98.5t-96 -249.5q0 -154 101.5 -250.5t245.5 -96.5
q98 0 182.5 46t142.5 130z" />
    <glyph glyph-name="afii10084" unicode="&#x442;" horiz-adv-x="975" 
d="M371 853h-326v208h886v-208h-327v-853h-233v853z" />
    <glyph glyph-name="afii10085" unicode="&#x443;" horiz-adv-x="1087" 
d="M482 -475h-244l187 477l-401 1059h243l276 -763l277 763h244z" />
    <glyph glyph-name="afii10086" unicode="&#x444;" horiz-adv-x="2156" 
d="M2085 530q0 -153 -66 -280t-185 -201t-266 -74q-114 0 -210 44.5t-164 123.5v-618h-232v618q-69 -79 -164.5 -123.5t-208.5 -44.5q-147 0 -266 74t-185.5 201t-66.5 280t66.5 280t185.5 201t266 74q228 0 373 -169v579h232v-579q68 80 164 124.5t210 44.5
q110 0 206.5 -43.5t164.5 -118t107 -177t39 -216.5zM1849 530q0 146 -93.5 247t-233.5 101q-141 0 -234.5 -101t-93.5 -247t94.5 -246.5t233.5 -100.5q138 0 232.5 100.5t94.5 246.5zM306 530q0 -146 95 -246.5t233 -100.5q139 0 233.5 100.5t94.5 246.5t-93.5 247
t-234.5 101q-140 0 -234 -101t-94 -247z" />
    <glyph glyph-name="afii10087" unicode="&#x445;" horiz-adv-x="1085" 
d="M1062 0h-257l-262 388l-263 -388h-256l368 541l-342 520h256l237 -368l235 368h257l-343 -520z" />
    <glyph glyph-name="afii10088" unicode="&#x446;" horiz-adv-x="1295" 
d="M1123 1061v-855h125v-493h-228v287h-878v1061h235v-855h512v855h234z" />
    <glyph glyph-name="afii10089" unicode="&#x447;" horiz-adv-x="1134" 
d="M991 0h-233v444q-48 -71 -122.5 -111.5t-166.5 -40.5q-179 0 -279 113t-100 313v344h234v-324q0 -114 49 -176t144 -62q112 0 176.5 80.5t64.5 214.5v267h233v-1062z" />
    <glyph glyph-name="afii10090" unicode="&#x448;" horiz-adv-x="1623" 
d="M1481 1061v-1061h-1339v1061h231v-855h323v855h231v-855h323v855h231z" />
    <glyph glyph-name="afii10091" unicode="&#x449;" horiz-adv-x="1652" 
d="M1377 0h-1235v1061h231v-855h323v855h231v-855h323v855h231v-855h125v-493h-229v287z" />
    <glyph glyph-name="afii10092" unicode="&#x44a;" horiz-adv-x="1232" 
d="M942 362q0 74 -53.5 124.5t-131.5 50.5h-195v-348h195q78 0 131.5 49.5t53.5 123.5zM1172 362q0 -153 -112.5 -257.5t-277.5 -104.5h-450v864h-287v197h517v-335h220q165 0 277.5 -105.5t112.5 -258.5z" />
    <glyph glyph-name="afii10093" unicode="&#x44b;" horiz-adv-x="1490" 
d="M753 362q0 74 -54 124.5t-132 50.5h-194v-348h194q78 0 132 49.5t54 123.5zM983 362q0 -153 -112.5 -257.5t-277.5 -104.5h-451v1061h231v-335h220q165 0 277.5 -105.5t112.5 -258.5zM1114 0v1061h234v-1061h-234z" />
    <glyph glyph-name="afii10094" unicode="&#x44c;" horiz-adv-x="1044" 
d="M753 362q0 74 -54 124.5t-132 50.5h-194v-348h194q78 0 132 49.5t54 123.5zM983 362q0 -153 -112.5 -257.5t-277.5 -104.5h-451v1061h231v-335h220q165 0 277.5 -105.5t112.5 -258.5z" />
    <glyph glyph-name="afii10095" unicode="&#x44d;" horiz-adv-x="1209" 
d="M92 265l137 94q59 -84 143 -130t182 -46q121 0 214.5 69t121.5 186h-472v180h473q-26 117 -114.5 188.5t-195.5 71.5q-94 0 -162 -45.5t-96 -126.5h-252q45 177 182 278t334 101q233 0 392 -160t159 -395q0 -154 -77 -282t-208 -200.5t-287 -72.5t-276.5 73.5
t-197.5 216.5z" />
    <glyph glyph-name="afii10096" unicode="&#x44e;" horiz-adv-x="1743" 
d="M1092 1085q164 0 297.5 -74t208.5 -201.5t75 -279.5t-75 -279.5t-208.5 -201.5t-297.5 -74q-219 0 -377 128t-194 325h-146v-428h-233v1061h233v-425h147q37 195 194.5 322t375.5 127zM1092 183q147 0 246.5 100.5t99.5 246.5q0 145 -100 246.5t-246 101.5t-246 -101.5
t-100 -246.5q0 -146 100 -246.5t246 -100.5z" />
    <glyph glyph-name="afii10097" unicode="&#x44f;" horiz-adv-x="1129" 
d="M93 715q0 147 114.5 246.5t282.5 99.5h496v-1061h-227v367h-158l-284 -367h-252l302 385q-123 33 -198.5 123t-75.5 207zM759 870h-251q-85 0 -134.5 -44t-49.5 -111t52.5 -111.5t131.5 -44.5h251v311z" />
    <glyph glyph-name="uni0450" unicode="&#x450;" horiz-adv-x="1259" 
d="M308 459q17 -127 113.5 -209t235.5 -82q108 0 193 38.5t165 117.5l125 -122q-95 -108 -210.5 -167.5t-269.5 -59.5q-130 0 -240.5 43.5t-186.5 118t-119 176.5t-43 217q0 114 43.5 216.5t118.5 177t181 118t226 43.5q118 0 220.5 -42.5t174 -114.5t112.5 -170t41 -207
q0 -49 -10 -92h-870zM639 893q-116 0 -205.5 -72t-118.5 -184h630q-23 113 -106 184.5t-200 71.5zM518 1613l251 -343l-109 -85l-292 307z" />
    <glyph glyph-name="afii10071" unicode="&#x451;" horiz-adv-x="1259" 
d="M308 459q17 -127 113.5 -209t235.5 -82q108 0 193 38.5t165 117.5l125 -122q-95 -108 -210.5 -167.5t-269.5 -59.5q-130 0 -240.5 43.5t-186.5 118t-119 176.5t-43 217q0 114 43.5 216.5t118.5 177t181 118t226 43.5q118 0 220.5 -42.5t174 -114.5t112.5 -170t41 -207
q0 -49 -10 -92h-870zM639 893q-116 0 -205.5 -72t-118.5 -184h630q-23 113 -106 184.5t-200 71.5zM305 1372q0 56 38.5 94t94.5 38q57 0 95 -38t38 -94t-38 -94.5t-95 -38.5q-56 0 -94.5 38.5t-38.5 94.5zM686 1372q0 56 38.5 94t94.5 38q57 0 95 -38t38 -94t-38 -94.5
t-95 -38.5q-56 0 -94.5 38.5t-38.5 94.5z" />
    <glyph glyph-name="afii10099" unicode="&#x452;" horiz-adv-x="1272" 
d="M402 1495v-155h331v-150h-331v-270q56 76 140.5 120.5t183.5 44.5q192 0 308 -118t116 -313v-757q0 -188 -99 -280t-301 -92q-60 0 -114 9v193q56 -6 94 -6q100 0 142.5 46.5t42.5 144.5v722q0 107 -66 175.5t-171 68.5q-113 0 -194.5 -85.5t-81.5 -214.5v-578h-233v1190
h-145v150h145v155h233z" />
    <glyph glyph-name="afii10100" unicode="&#x453;" horiz-adv-x="849" 
d="M281 1270l250 343l151 -121l-293 -307zM805 853h-428v-853h-235v1061h663v-208z" />
    <glyph glyph-name="afii10101" unicode="&#x454;" horiz-adv-x="1209" 
d="M979 359l138 -94q-77 -143 -198 -216.5t-277 -73.5t-287 72.5t-207.5 200t-76.5 282.5q0 116 43 219t116 176.5t175.5 116.5t216.5 43q197 0 334.5 -101t181.5 -278h-252q-28 81 -95.5 126.5t-161.5 45.5q-108 0 -197 -71.5t-115 -188.5h475v-180h-474
q29 -117 122.5 -186t213.5 -69q98 0 182.5 46t142.5 130z" />
    <glyph glyph-name="afii10102" unicode="&#x455;" horiz-adv-x="961" 
d="M90 184l103 118q124 -134 281 -134q86 0 136 35.5t50 95.5q0 59 -48 96t-160 59q-346 69 -346 329q0 132 101.5 217t268.5 85q166 0 268.5 -84t125.5 -237h-226q-7 59 -48 93.5t-107 34.5t-108.5 -31t-42.5 -81q0 -108 193 -147q183 -37 272 -120t89 -217
q0 -141 -109.5 -231t-296.5 -90q-237 0 -396 209z" />
    <glyph glyph-name="afii10103" unicode="&#x456;" horiz-adv-x="549" 
d="M158 0v1061h233v-1061h-233zM130 1350q0 61 41.5 102t102.5 41q62 0 104 -41t42 -102q0 -60 -42.5 -101.5t-103.5 -41.5t-102.5 41.5t-41.5 101.5z" />
    <glyph glyph-name="afii10104" unicode="&#x457;" horiz-adv-x="549" 
d="M-49 1372q0 56 38.5 94t94.5 38q57 0 95 -38t38 -94t-38 -94.5t-95 -38.5q-56 0 -94.5 38.5t-38.5 94.5zM332 1372q0 56 38.5 94t94.5 38q57 0 95 -38t38 -94t-38 -94.5t-95 -38.5q-56 0 -94.5 38.5t-38.5 94.5zM158 0v1061h233v-1061h-233z" />
    <glyph glyph-name="afii10105" unicode="&#x458;" horiz-adv-x="549" 
d="M158 -117v1178h233v-1183q0 -183 -81.5 -268t-246.5 -85q-56 0 -100 11v194q9 -1 56 -1q71 0 105 35.5t34 118.5zM130 1350q0 61 41.5 102t102.5 41q62 0 104 -41t42 -102q0 -60 -42.5 -101.5t-103.5 -41.5t-102.5 41.5t-41.5 101.5z" />
    <glyph glyph-name="afii10106" unicode="&#x459;" horiz-adv-x="1752" 
d="M1302 0h-449v855h-390v-549q0 -135 -90.5 -224t-228.5 -89q-58 0 -99 7v205q16 -1 53 -1q58 0 94.5 36.5t36.5 96.5v724h854v-335h219q165 0 277.5 -105.5t112.5 -258.5t-112.5 -257.5t-277.5 -104.5zM1461 362q0 74 -53.5 124.5t-131.5 50.5h-193v-348h193
q78 0 131.5 49.5t53.5 123.5z" />
    <glyph glyph-name="afii10107" unicode="&#x45a;" horiz-adv-x="1752" 
d="M1691 362q0 -153 -113 -257.5t-278 -104.5h-447v444h-476v-444h-235v1061h235v-410h476v410h230v-335h217q165 0 278 -105.5t113 -258.5zM1460 362q0 74 -53.5 124.5t-131.5 50.5h-192v-348h192q78 0 131.5 49.5t53.5 123.5z" />
    <glyph glyph-name="afii10108" unicode="&#x45b;" horiz-adv-x="1272" 
d="M402 1495v-155h331v-150h-331v-270q56 76 140.5 120.5t183.5 44.5q192 0 308 -118t116 -313v-654h-235v634q0 107 -66 175.5t-171 68.5q-113 0 -194.5 -85.5t-81.5 -214.5v-578h-233v1190h-145v150h145v155h233z" />
    <glyph glyph-name="afii10109" unicode="&#x45c;" horiz-adv-x="1076" 
d="M384 1270l251 343l150 -121l-292 -307zM753 1061h233q0 -193 -60 -325t-174 -196l318 -540h-264l-283 486h-146v-486h-235v1061h235v-374h101q125 0 200 90t75 284z" />
    <glyph glyph-name="uni045D" unicode="&#x45d;" horiz-adv-x="1265" 
d="M512 1613l251 -343l-109 -85l-293 307zM1123 1061v-1061h-226v731l-539 -731h-216v1061h227v-731l538 731h216z" />
    <glyph glyph-name="afii10110" unicode="&#x45e;" horiz-adv-x="1087" 
d="M482 -475h-244l187 477l-401 1059h243l276 -763l277 763h244zM542 1193q-139 0 -239.5 90.5t-107.5 228.5h200q2 -67 43.5 -111t103.5 -44t104 44t44 111h200q-7 -138 -107.5 -228.5t-240.5 -90.5z" />
    <glyph glyph-name="afii10193" unicode="&#x45f;" horiz-adv-x="1266" 
d="M751 0v-287h-235v287h-374v1061h235v-855h513v855h234v-1061h-373z" />
    <glyph glyph-name="afii10050" unicode="&#x490;" horiz-adv-x="1058" 
d="M782 1434v286h235v-495h-611v-1225h-242v1434h618z" />
    <glyph glyph-name="afii10098" unicode="&#x491;" horiz-adv-x="849" 
d="M577 1061v287h228v-495h-428v-853h-235v1061h435z" />
    <glyph glyph-name="Wgrave" unicode="&#x1e80;" horiz-adv-x="1998" 
d="M880 1434h239l303 -1091l283 1091h253l-405 -1434h-242l-312 1103l-312 -1103h-242l-404 1434h253l281 -1091zM873 1944l251 -343l-109 -85l-292 307z" />
    <glyph glyph-name="wgrave" unicode="&#x1e81;" horiz-adv-x="1614" 
d="M688 1061h238l210 -761l214 761h241l-330 -1061h-242l-212 753l-211 -753h-242l-330 1061h240l215 -761zM667 1613l251 -343l-109 -85l-293 307z" />
    <glyph glyph-name="Wacute" unicode="&#x1e82;" horiz-adv-x="1998" 
d="M880 1434h239l303 -1091l283 1091h253l-405 -1434h-242l-312 1103l-312 -1103h-242l-404 1434h253l281 -1091zM884 1601l251 343l150 -121l-293 -307z" />
    <glyph glyph-name="wacute" unicode="&#x1e83;" horiz-adv-x="1614" 
d="M688 1061h238l210 -761l214 761h241l-330 -1061h-242l-212 753l-211 -753h-242l-330 1061h240l215 -761zM696 1270l251 343l151 -121l-293 -307z" />
    <glyph glyph-name="Wdieresis" unicode="&#x1e84;" horiz-adv-x="1998" 
d="M880 1434h239l303 -1091l283 1091h253l-405 -1434h-242l-312 1103l-312 -1103h-242l-404 1434h253l281 -1091zM674 1704q0 55 39 93.5t95 38.5q57 0 95 -38t38 -94t-38 -94.5t-95 -38.5q-56 0 -95 38.5t-39 94.5zM1055 1704q0 55 39 93.5t95 38.5q57 0 95 -38t38 -94
t-38 -94.5t-95 -38.5q-56 0 -95 38.5t-39 94.5z" />
    <glyph glyph-name="wdieresis" unicode="&#x1e85;" horiz-adv-x="1614" 
d="M688 1061h238l210 -761l214 761h241l-330 -1061h-242l-212 753l-211 -753h-242l-330 1061h240l215 -761zM483 1372q0 56 38.5 94t94.5 38q57 0 95.5 -38t38.5 -94t-38.5 -94.5t-95.5 -38.5q-56 0 -94.5 38.5t-38.5 94.5zM864 1372q0 56 38.5 94t94.5 38q57 0 95 -38
t38 -94t-38 -94.5t-95 -38.5q-56 0 -94.5 38.5t-38.5 94.5z" />
    <glyph glyph-name="Ygrave" unicode="&#x1ef2;" horiz-adv-x="1325" 
d="M301 1434l362 -619l360 619h261l-501 -851v-583h-241v583l-501 851h260zM529 1944l251 -343l-109 -85l-292 307z" />
    <glyph glyph-name="ygrave" unicode="&#x1ef3;" horiz-adv-x="1087" 
d="M482 -475h-244l187 477l-401 1059h243l276 -763l277 763h244zM399 1613l251 -343l-108 -85l-293 307z" />
    <glyph glyph-name="thinspace" unicode="&#x2009;" horiz-adv-x="409" 
 />
    <glyph glyph-name="uni2010" unicode="&#x2010;" horiz-adv-x="835" 
d="M715 570h-594v218h594v-218z" />
    <glyph glyph-name="figuredash" unicode="&#x2012;" horiz-adv-x="1228" 
d="M1126 570h-1024v218h1024v-218z" />
    <glyph glyph-name="endash" unicode="&#x2013;" horiz-adv-x="1024" 
d="M1024 570h-1024v218h1024v-218z" />
    <glyph glyph-name="emdash" unicode="&#x2014;" horiz-adv-x="2048" 
d="M2048 570h-2048v218h2048v-218z" />
    <glyph glyph-name="afii00208" unicode="&#x2015;" horiz-adv-x="2048" 
d="M1843 570h-1638v218h1638v-218z" />
    <glyph glyph-name="uni2016" unicode="&#x2016;" horiz-adv-x="949" 
d="M181 -287v1823h213v-1823h-213zM555 -287v1823h213v-1823h-213z" />
    <glyph glyph-name="underscoredbl" unicode="&#x2017;" horiz-adv-x="1228" 
d="M102 -477v177h1024v-177h-1024zM102 -189v177h1024v-177h-1024z" />
    <glyph glyph-name="quoteleft" unicode="&#x2018;" horiz-adv-x="612" 
d="M457 1196q0 -54 -43.5 -95.5t-109.5 -41.5q-65 0 -107 45.5t-42 123.5q0 131 73.5 235.5t218.5 167.5l65 -82q-118 -81 -132.5 -139t50.5 -138q27 -36 27 -76z" />
    <glyph glyph-name="quoteright" unicode="&#x2019;" horiz-adv-x="612" 
d="M156 1448q0 54 43 95.5t109 41.5q65 0 107.5 -45.5t42.5 -123.5q0 -131 -73.5 -235.5t-219.5 -167.5l-65 82q118 81 132.5 139t-50.5 138q-26 35 -26 76z" />
    <glyph glyph-name="quotesinglbase" unicode="&#x201a;" horiz-adv-x="612" 
d="M156 136q0 54 43 95.5t109 41.5q65 0 107.5 -45.5t42.5 -123.5q0 -131 -73.5 -235.5t-219.5 -167.5l-65 82q118 81 132.5 139t-50.5 138q-26 35 -26 76z" />
    <glyph glyph-name="quotereversed" unicode="&#x201b;" horiz-adv-x="612" 
d="M458 1450q0 -40 -27 -76q-65 -80 -50.5 -138t132.5 -139l-64 -82q-146 63 -219.5 167.5t-73.5 235.5q0 78 42 123.5t107 45.5q66 0 109.5 -41.5t43.5 -95.5z" />
    <glyph glyph-name="quotedblleft" unicode="&#x201c;" horiz-adv-x="979" 
d="M457 1196q0 -54 -43.5 -95.5t-109.5 -41.5q-65 0 -107 45.5t-42 123.5q0 131 73.5 235.5t218.5 167.5l65 -82q-118 -81 -132.5 -139t50.5 -138q27 -36 27 -76zM824 1196q0 -54 -43 -95.5t-109 -41.5q-65 0 -107.5 45.5t-42.5 123.5q0 131 73.5 235.5t219.5 167.5l65 -82
q-118 -81 -132.5 -139t50.5 -138q26 -35 26 -76z" />
    <glyph glyph-name="quotedblright" unicode="&#x201d;" horiz-adv-x="979" 
d="M156 1448q0 54 43 95.5t109 41.5q65 0 107.5 -45.5t42.5 -123.5q0 -131 -73.5 -235.5t-219.5 -167.5l-65 82q118 81 132.5 139t-50.5 138q-26 35 -26 76zM522 1448q0 54 43.5 95.5t109.5 41.5q65 0 107 -45.5t42 -123.5q0 -131 -73.5 -235.5t-219.5 -167.5l-64 82
q118 81 132.5 139t-50.5 138q-27 36 -27 76z" />
    <glyph glyph-name="quotedblbase" unicode="&#x201e;" horiz-adv-x="979" 
d="M522 136q0 54 43.5 95.5t109.5 41.5q65 0 107 -45.5t42 -123.5q0 -131 -73.5 -235.5t-219.5 -167.5l-64 82q118 81 132.5 139t-50.5 138q-27 36 -27 76zM156 136q0 54 43 95.5t109 41.5q65 0 107.5 -45.5t42.5 -123.5q0 -131 -73.5 -235.5t-219.5 -167.5l-65 82
q118 81 132.5 139t-50.5 138q-26 35 -26 76z" />
    <glyph glyph-name="uni201F" unicode="&#x201f;" horiz-adv-x="979" 
d="M824 1450q0 -41 -26 -76q-65 -80 -50.5 -138t132.5 -139l-65 -82q-146 63 -219.5 167.5t-73.5 235.5q0 78 42.5 123.5t107.5 45.5q66 0 109 -41.5t43 -95.5zM458 1450q0 -40 -27 -76q-65 -80 -50.5 -138t132.5 -139l-64 -82q-146 63 -219.5 167.5t-73.5 235.5
q0 78 42 123.5t107 45.5q66 0 109.5 -41.5t43.5 -95.5z" />
    <glyph glyph-name="dagger" unicode="&#x2020;" horiz-adv-x="1148" 
d="M455 -268v1242h-327v207h327v351h239v-351h327v-207h-327v-1242h-239z" />
    <glyph glyph-name="daggerdbl" unicode="&#x2021;" horiz-adv-x="1148" 
d="M128 82v207h327v685h-327v207h327v351h239v-351h327v-207h-327v-685h327v-207h-327v-350h-239v350h-327z" />
    <glyph glyph-name="bullet" unicode="&#x2022;" horiz-adv-x="819" 
d="M139 680q0 110 79.5 189t191.5 79q111 0 190.5 -79t79.5 -189q0 -112 -79 -190t-191 -78q-113 0 -192 78t-79 190z" />
    <glyph glyph-name="onedotenleader" unicode="&#x2024;" horiz-adv-x="612" 
d="M156 124q0 64 43 106.5t107 42.5q65 0 108 -42.5t43 -106.5q0 -63 -43.5 -106t-107.5 -43t-107 43t-43 106z" />
    <glyph glyph-name="twodotenleader" unicode="&#x2025;" horiz-adv-x="1225" 
d="M768 124q0 64 43 106.5t108 42.5q64 0 107 -42.5t43 -106.5q0 -63 -43 -106t-107 -43t-107.5 43t-43.5 106zM156 124q0 64 43 106.5t107 42.5q65 0 108 -42.5t43 -106.5q0 -63 -43.5 -106t-107.5 -43t-107 43t-43 106z" />
    <glyph glyph-name="ellipsis" unicode="&#x2026;" horiz-adv-x="1838" 
d="M1381 124q0 64 43 106.5t108 42.5q64 0 107 -42.5t43 -106.5q0 -63 -43 -106t-107 -43t-107.5 43t-43.5 106zM768 124q0 64 43 106.5t108 42.5q64 0 107 -42.5t43 -106.5q0 -63 -43 -106t-107 -43t-107.5 43t-43.5 106zM156 124q0 64 43 106.5t107 42.5q65 0 108 -42.5
t43 -106.5q0 -63 -43.5 -106t-107.5 -43t-107 43t-43 106z" />
    <glyph glyph-name="perthousand" unicode="&#x2030;" horiz-adv-x="2647" 
d="M474 55l717 1398l162 -78l-717 -1398zM303 1084q0 -73 45.5 -123.5t113.5 -50.5t113.5 50.5t45.5 123.5t-45.5 123.5t-113.5 50.5t-113.5 -50.5t-45.5 -123.5zM90 1084q0 153 107.5 258.5t264.5 105.5t265 -105.5t108 -258.5t-108 -258t-265 -105t-264.5 105t-107.5 258z
M1207 348q0 -73 45.5 -123.5t113.5 -50.5t113.5 50.5t45.5 123.5t-45.5 124t-113.5 51t-113.5 -51t-45.5 -124zM993 348q0 154 107.5 259t265.5 105q157 0 264.5 -105t107.5 -259q0 -153 -107.5 -257.5t-264.5 -104.5q-158 0 -265.5 104.5t-107.5 257.5zM2026 348
q0 -73 45.5 -123.5t113.5 -50.5t113.5 50.5t45.5 123.5t-45.5 124t-113.5 51t-113.5 -51t-45.5 -124zM1812 348q0 154 107.5 259t265.5 105q157 0 264.5 -105t107.5 -259q0 -153 -107.5 -257.5t-264.5 -104.5q-158 0 -265.5 104.5t-107.5 257.5z" />
    <glyph glyph-name="minute" unicode="&#x2032;" horiz-adv-x="586" 
d="M127 1162l251 343l150 -122l-292 -306z" />
    <glyph glyph-name="second" unicode="&#x2033;" horiz-adv-x="948" 
d="M488 1162l251 343l151 -122l-293 -306zM127 1162l251 343l150 -122l-292 -306z" />
    <glyph glyph-name="guilsinglleft" unicode="&#x2039;" horiz-adv-x="800" 
d="M101 557v161l523 340l70 -119l-372 -302l372 -301l-70 -120z" />
    <glyph glyph-name="guilsinglright" unicode="&#x203a;" horiz-adv-x="800" 
d="M698 718v-161l-522 -341l-71 120l373 301l-373 302l71 119z" />
    <glyph glyph-name="exclamdbl" unicode="&#x203c;" horiz-adv-x="1093" 
d="M690 416l-36 1018h242l-36 -1018h-170zM623 124q0 63 43.5 105.5t108.5 42.5t108.5 -42.5t43.5 -105.5q0 -64 -43.5 -106.5t-108.5 -42.5t-108.5 42.5t-43.5 106.5zM233 416l-35 1018h241l-36 -1018h-170zM166 124q0 63 43.5 105.5t108.5 42.5t108.5 -42.5t43.5 -105.5
q0 -64 -43.5 -106.5t-108.5 -42.5t-108.5 42.5t-43.5 106.5z" />
    <glyph glyph-name="uni203E" unicode="&#x203e;" horiz-adv-x="861" 
d="M123 1230v178h614v-178h-614z" />
    <glyph glyph-name="fraction" unicode="&#x2044;" horiz-adv-x="337" 
d="M-257 43l695 1425l156 -80l-696 -1426z" />
    <glyph glyph-name="zerosuperior" unicode="&#x2070;" 
d="M57 948q0 146 38.5 259.5t119 182t194.5 68.5q113 0 194 -68.5t119 -182t38 -259.5t-38 -259.5t-119 -182t-194 -68.5q-114 0 -194.5 68.5t-119 182t-38.5 259.5zM255 948q0 -156 39 -247.5t115 -91.5q77 0 115 91t38 248t-38 247.5t-115 90.5q-76 0 -115 -91t-39 -247z
" />
    <glyph glyph-name="uni2071" unicode="&#x2071;" 
d="M311 463v686h194v-686h-194zM292 1327q0 46 34 79t83 33t82 -33t33 -79q0 -45 -33 -77t-82 -32t-83 32t-34 77z" />
    <glyph glyph-name="foursuperior" unicode="&#x2074;" 
d="M37 644v153l432 637h186v-622h107v-168h-107v-181h-196v181h-422zM243 810h216v327z" />
    <glyph glyph-name="fivesuperior" unicode="&#x2075;" 
d="M383 438q-201 0 -323 189l112 99q45 -61 93 -92t111 -31q70 0 117.5 48t47.5 118q0 71 -47 118.5t-117 47.5q-37 0 -71 -19t-54 -49l-147 19l61 548h541v-166h-360l-24 -196q43 19 90 19q136 0 232 -89t96 -232q0 -147 -98 -239.5t-260 -92.5z" />
    <glyph glyph-name="sixsuperior" unicode="&#x2076;" 
d="M630 1434l-221 -343h13q88 0 166 -38.5t128.5 -113.5t50.5 -169q0 -143 -106.5 -237.5t-249.5 -94.5q-148 0 -254.5 94t-106.5 238q0 97 49 172l320 492h211zM569 770q0 70 -46.5 118.5t-114.5 48.5q-66 0 -113.5 -48.5t-47.5 -118.5q0 -71 47 -119.5t114 -48.5
q68 0 114.5 48.5t46.5 119.5z" />
    <glyph glyph-name="sevensuperior" unicode="&#x2077;" 
d="M92 1434h637v-146l-344 -825h-221l341 804h-413v167z" />
    <glyph glyph-name="eightsuperior" unicode="&#x2078;" 
d="M254 755q0 -65 44.5 -110t110.5 -45t110.5 45t44.5 110t-44.5 109.5t-110.5 44.5t-110.5 -44.5t-44.5 -109.5zM714 1186q0 -58 -29 -109t-79 -82q72 -35 114 -101t42 -142q0 -134 -101.5 -224t-251.5 -90t-251.5 90t-101.5 224q0 76 42 142t113 101q-49 32 -78.5 82.5
t-29.5 108.5q0 115 87 193.5t219 78.5t218.5 -78.5t86.5 -193.5zM294 1184q0 -48 33 -82t82 -34t81.5 34t32.5 82t-32.5 80t-81.5 32t-82 -32.5t-33 -79.5z" />
    <glyph glyph-name="ninesuperior" unicode="&#x2079;" 
d="M187 463l223 342q-6 -1 -18 -1q-137 0 -239 89.5t-102 232.5q0 95 50.5 172t132 118.5t174.5 41.5q147 0 253.5 -94.5t106.5 -237.5q0 -97 -50 -173l-319 -490h-212zM249 1125q0 -70 47 -118t115 -48q66 0 112.5 48t46.5 118q0 71 -46 119.5t-113 48.5q-68 0 -115 -48
t-47 -120z" />
    <glyph glyph-name="uni207A" unicode="&#x207a;" 
d="M508 862v-239h-197v239h-237v171h237v240h197v-240h235v-171h-235z" />
    <glyph glyph-name="uni207B" unicode="&#x207b;" 
d="M743 862h-669v171h669v-171z" />
    <glyph glyph-name="uni207C" unicode="&#x207c;" 
d="M743 1026h-669v170h669v-170zM743 700h-669v170h669v-170z" />
    <glyph glyph-name="uni207D" unicode="&#x207d;" 
d="M289 947q0 170 63.5 326.5t179.5 278.5l139 -93q-183 -220 -183 -512q0 -142 47 -273.5t136 -237.5l-139 -94q-116 122 -179.5 279t-63.5 326z" />
    <glyph glyph-name="uni207E" unicode="&#x207e;" 
d="M528 947q0 -169 -63.5 -326t-178.5 -279l-139 94q182 219 182 511q0 291 -182 512l139 93q115 -122 178.5 -279t63.5 -326z" />
    <glyph glyph-name="uni207F" unicode="&#x207f;" 
d="M293 838v-375h-193v686h193v-83q22 43 69.5 70t102.5 27q108 0 182.5 -80t74.5 -204v-416h-193v406q0 56 -31 91t-81 35t-87 -41.5t-37 -115.5z" />
    <glyph glyph-name="zeroinferior" unicode="&#x2080;" 
d="M57 217q0 146 38.5 259.5t119 182t194.5 68.5q113 0 194 -68.5t119 -182t38 -259.5t-38 -259.5t-119 -182t-194 -68.5q-114 0 -194.5 68.5t-119 182t-38.5 259.5zM255 217q0 -156 39 -247.5t115 -91.5q77 0 115 91t38 248t-38 247.5t-115 90.5q-76 0 -115 -91t-39 -247z
" />
    <glyph glyph-name="oneinferior" unicode="&#x2081;" 
d="M394 702h170v-970h-200v772l-158 -86l-76 143z" />
    <glyph glyph-name="twoinferior" unicode="&#x2082;" 
d="M584 143l-228 -246h356v-165h-618v146l334 366q51 55 72.5 98.5t21.5 90.5q0 56 -35.5 92t-92.5 36q-59 0 -99 -44.5t-48 -118.5h-185q10 153 101.5 241t231.5 88q142 0 234.5 -80t92.5 -209q0 -80 -32.5 -147.5t-105.5 -147.5z" />
    <glyph glyph-name="threeinferior" unicode="&#x2083;" 
d="M535 38q0 69 -47.5 117t-117.5 48q-27 0 -60 -12l-77 95l214 251h-341v165h583v-152l-196 -224q109 -25 175.5 -108t66.5 -196q0 -133 -99 -224t-259 -91q-96 0 -175 49.5t-136 138.5l102 90q95 -114 202 -114q70 0 117.5 48.5t47.5 118.5z" />
    <glyph glyph-name="fourinferior" unicode="&#x2084;" 
d="M37 -87v153l432 636h186v-621h107v-168h-107v-181h-196v181h-422zM243 79h216v327z" />
    <glyph glyph-name="fiveinferior" unicode="&#x2085;" 
d="M383 -293q-201 0 -323 189l112 99q45 -61 93 -92t111 -31q70 0 117.5 48t47.5 118q0 71 -47 118.5t-117 47.5q-37 0 -71 -19t-54 -49l-147 19l61 547h541v-165h-360l-24 -196q41 18 90 18q136 0 232 -88.5t96 -231.5q0 -147 -98 -239.5t-260 -92.5z" />
    <glyph glyph-name="sixinferior" unicode="&#x2086;" 
d="M630 702l-221 -343h13q136 0 240.5 -90t104.5 -230q0 -143 -106.5 -237.5t-249.5 -94.5q-148 0 -254.5 94t-106.5 238q0 97 49 172l320 491h211zM569 39q0 70 -46.5 118.5t-114.5 48.5q-66 0 -113.5 -48.5t-47.5 -118.5q0 -71 47 -119.5t114 -48.5q68 0 114.5 48.5
t46.5 119.5z" />
    <glyph glyph-name="seveninferior" unicode="&#x2087;" 
d="M92 702h637v-145l-344 -825h-221l341 804h-413v166z" />
    <glyph glyph-name="eightinferior" unicode="&#x2088;" 
d="M254 24q0 -65 44.5 -110t110.5 -45t110.5 45t44.5 110t-44.5 109.5t-110.5 44.5t-110.5 -44.5t-44.5 -109.5zM714 455q0 -58 -29 -109t-79 -82q72 -35 114 -101.5t42 -142.5q0 -134 -101.5 -223.5t-251.5 -89.5t-251.5 89.5t-101.5 223.5q0 76 42 142.5t113 101.5
q-49 32 -78.5 82.5t-29.5 108.5q0 115 87 193.5t219 78.5t218.5 -78.5t86.5 -193.5zM294 453q0 -48 33 -82t82 -34t81.5 34t32.5 82t-32.5 80t-81.5 32t-82 -32.5t-33 -79.5z" />
    <glyph glyph-name="nineinferior" unicode="&#x2089;" 
d="M187 -268l223 342q-6 -1 -18 -1q-137 0 -239 89.5t-102 232.5q0 95 50.5 172t132 118.5t174.5 41.5q147 0 253.5 -94.5t106.5 -237.5q0 -97 -50 -173l-319 -490h-212zM249 394q0 -70 47 -118t115 -48q66 0 112.5 48t46.5 118q0 71 -46 119.5t-113 48.5q-68 0 -115 -48
t-47 -120z" />
    <glyph glyph-name="uni208A" unicode="&#x208a;" 
d="M508 131v-240h-197v240h-237v171h237v240h197v-240h235v-171h-235z" />
    <glyph glyph-name="uni208B" unicode="&#x208b;" 
d="M743 131h-669v171h669v-171z" />
    <glyph glyph-name="uni208C" unicode="&#x208c;" 
d="M743 295h-669v170h669v-170zM743 -31h-669v170h669v-170z" />
    <glyph glyph-name="uni208D" unicode="&#x208d;" 
d="M289 216q0 170 63.5 326.5t179.5 278.5l139 -93q-183 -220 -183 -512q0 -142 47 -273.5t136 -237.5l-139 -94q-116 122 -179.5 279t-63.5 326z" />
    <glyph glyph-name="uni208E" unicode="&#x208e;" 
d="M528 216q0 -169 -63.5 -326t-178.5 -279l-139 94q182 219 182 511q0 291 -182 512l139 93q115 -122 178.5 -279t63.5 -326z" />
    <glyph glyph-name="uni2090" unicode="&#x2090;" 
d="M549 66q0 81 -45.5 136t-113.5 55q-69 0 -114 -55t-45 -136q0 -82 45 -137t114 -55q68 0 113.5 55.5t45.5 136.5zM39 66q0 152 92 253.5t224 101.5q121 0 194 -81v70h192v-689h-192v70q-73 -81 -194 -81q-132 0 -224 102t-92 254z" />
    <glyph glyph-name="uni2091" unicode="&#x2091;" 
d="M251 5q14 -63 61.5 -103t111.5 -40q115 0 208 91l93 -91q-119 -155 -301 -155q-162 0 -264.5 103.5t-102.5 255.5t103.5 255t255.5 103q150 0 248 -100t98 -246q0 -41 -7 -73h-504zM415 268q-56 0 -98.5 -33t-60.5 -88h309q-14 56 -53.5 88.5t-96.5 32.5z" />
    <glyph glyph-name="uni2092" unicode="&#x2092;" 
d="M45 66q0 151 104.5 254.5t259.5 103.5q156 0 259.5 -103t103.5 -255t-103.5 -255.5t-259.5 -103.5q-155 0 -259.5 104t-104.5 255zM238 66q0 -80 49.5 -136t121.5 -56t121.5 56t49.5 136t-49.5 135.5t-121.5 55.5t-121.5 -55.5t-49.5 -135.5z" />
    <glyph glyph-name="uni2093" unicode="&#x2093;" 
d="M291 410l117 -191l117 191h214l-216 -335l232 -354h-212l-134 214l-134 -214h-214l233 355l-216 334h213z" />
    <glyph glyph-name="uni2094" unicode="&#x2094;" 
d="M63 125h505q-14 64 -61.5 104t-111.5 40q-115 0 -208 -91l-93 91q119 155 300 155q162 0 265 -103.5t103 -254.5q0 -152 -103.5 -255.5t-256.5 -103.5q-150 0 -247.5 100t-97.5 245q0 40 6 73zM403 -138q57 0 99.5 33t60.5 88h-310q14 -55 54 -88t96 -33z" />
    <glyph glyph-name="uni20A0" unicode="&#x20a0;" horiz-adv-x="1606" 
d="M598 432q-148 0 -269.5 67.5t-191 185t-69.5 259.5t69.5 260t191 186t269.5 68q167 0 297 -92t180 -265h-221q-32 78 -100 120t-155 42q-129 0 -217.5 -92t-88.5 -227q0 -134 88.5 -225.5t217.5 -91.5q123 0 229 72v294h637v-187h-416v-214h384v-185h-384v-220h429v-187
h-650v484q-107 -52 -230 -52z" />
    <glyph glyph-name="colonmonetary" unicode="&#x20a1;" horiz-adv-x="1552" 
d="M669 -209l33 192q-54 7 -112 23l-38 -215h-148l49 272q-171 93 -271.5 266t-100.5 388q0 288 174.5 492.5t442.5 240.5l34 192h148l-33 -186q52 -1 114 -13l35 199h147l-43 -241q141 -60 236.5 -178t134.5 -280h-252q-45 146 -161 223l-173 -976q264 29 421 281
q24 -17 73 -52.5t73 -53.5q-205 -370 -604 -388l-33 -186h-146zM326 717q0 -129 45.5 -233.5t124.5 -174.5l161 912q-147 -48 -239 -181.5t-92 -322.5zM809 1246l-180 -1022q56 -23 110 -31l185 1039q-34 8 -86 12z" />
    <glyph glyph-name="uni20A2" unicode="&#x20a2;" horiz-adv-x="1487" 
d="M1306 471l146 -106q-216 -390 -648 -390q-151 0 -284.5 56.5t-230 154t-152.5 236t-56 295.5t56 295t152.5 235.5t230 154t284.5 56.5q256 0 433 -137.5t234 -377.5h-252q-43 145 -155 224t-257 79q-96 0 -183.5 -37.5t-153.5 -104.5t-105 -167.5t-39 -219.5
q0 -197 102 -333.5t261 -178.5v647h208v-92q28 50 75 78t101 28q52 0 101 -23l-18 -173q-57 23 -93 23q-79 0 -122.5 -57t-43.5 -171v-272q257 34 409 278z" />
    <glyph glyph-name="franc" unicode="&#x20a3;" horiz-adv-x="1132" 
d="M814 472h-336v-472h-241v472h-188v130h188v100h-188v131h188v601h849v-209h-608v-392h336v-131h-336v-100h336v-130z" />
    <glyph glyph-name="lira" unicode="&#x20a4;" horiz-adv-x="1184" 
d="M314 468h-233v128h230q-9 47 -24 98h-206v128h156q-50 130 -50 225q0 173 128.5 292t316.5 119q179 0 298.5 -107.5t143.5 -289.5h-230q-17 87 -75.5 136t-136.5 49q-87 0 -144 -58.5t-57 -145.5q0 -83 56 -220h355v-128h-310q18 -57 24 -98h286v-128h-285
q-12 -154 -133 -259h650v-209h-928v203q71 46 115.5 115t52.5 150z" />
    <glyph glyph-name="uni20A6" unicode="&#x20a6;" horiz-adv-x="1499" 
d="M194 0v544h-145v123h145v100h-145v123h145v544h235l328 -544h325v544h224v-544h144v-123h-144v-100h144v-123h-144v-544h-236l-329 544h-324v-544h-223zM1082 767h-253l61 -100h192v100zM417 767v-100h252l-62 100h-190zM964 544l118 -192v192h-118zM417 1080v-190h118z
" />
    <glyph glyph-name="peseta" unicode="&#x20a7;" horiz-adv-x="1213" 
d="M49 1040h115v394h482q209 0 340.5 -106.5t152.5 -287.5h74v-130h-74q-22 -180 -153 -285t-340 -105h-240v-520h-242v910h-115v130zM406 1230v-190h487q-18 89 -86 139.5t-176 50.5h-225zM631 723q107 0 175 49.5t87 137.5h-487v-187h225z" />
    <glyph glyph-name="uni20A9" unicode="&#x20a9;" horiz-adv-x="2043" 
d="M901 1434h241l148 -542h302l139 542h249l-151 -542h176v-123h-210l-30 -102h240v-123h-273l-153 -544h-245l-150 544h-324l-150 -544h-245l-154 544h-273v123h240l-29 102h-211v123h176l-152 542h251l139 -542h301zM1121 769h-199l-29 -102h257zM482 769l27 -102h182
l28 102h-237zM1324 769l28 -102h182l27 102h-237zM1022 1126l-67 -234h132zM658 544h-117l57 -218zM1503 544h-118l61 -218z" />
    <glyph glyph-name="afii57636" unicode="&#x20aa;" horiz-adv-x="1786" 
d="M164 0v1434h538q217 0 364 -140t147 -344v-413h-229v404q0 124 -80.5 206.5t-204.5 82.5h-305v-1230h-230zM1623 1434v-1434h-538q-218 0 -365 139.5t-147 343.5v414h230v-405q0 -124 80 -206.5t204 -82.5h306v1231h230z" />
    <glyph glyph-name="dong" unicode="&#x20ab;" horiz-adv-x="1364" 
d="M632 1190v150h330v155h232v-155h147v-150h-147v-1190h-232v143q-69 -79 -164.5 -123.5t-208.5 -44.5q-147 0 -266 74t-185.5 201t-66.5 280t66.5 280t185.5 201t266 74q228 0 373 -169v274h-330zM307 530q0 -146 94.5 -246.5t233.5 -100.5t233 100.5t94 246.5t-93.5 247
t-233.5 101t-234 -101t-94 -247zM340 -349v178h786v-178h-786z" />
    <glyph glyph-name="Euro" unicode="&#x20ac;" horiz-adv-x="1584" 
d="M10 651h106q-3 33 -3 66q0 32 3 65h-106v134h127q62 242 254 392t445 150q257 0 433.5 -137.5t233.5 -377.5h-252q-43 145 -155 224t-257 79q-152 0 -274.5 -88t-174.5 -242h615l-47 -134h-598q-3 -33 -3 -65q0 -36 3 -66h563l-46 -134h-486q52 -154 177.5 -242
t280.5 -88q157 0 280 74t208 210q24 -17 73.5 -52.5t74.5 -53.5q-217 -390 -649 -390q-254 0 -445.5 149.5t-253.5 392.5h-127v134z" />
    <glyph glyph-name="ruble" unicode="&#x20bd;" horiz-adv-x="1213" 
d="M49 723h115v711h482q227 0 362 -125.5t135 -331.5q0 -207 -135 -332t-362 -125h-240v-103h398v-146h-398v-271h-242v271h-115v146h115v103h-115v203zM900 977q0 117 -70.5 185t-198.5 68h-225v-507h225q128 0 198.5 68t70.5 186z" />
    <glyph glyph-name="afii61248" unicode="&#x2105;" horiz-adv-x="2141" 
d="M1610 160q103 0 173 72.5t70 176.5t-70 175.5t-173 71.5t-173.5 -71.5t-70.5 -175.5t70.5 -176.5t173.5 -72.5zM1610 843q196 0 328 -126t132 -308t-132 -308t-328 -126q-195 0 -327 125.5t-132 308.5t132 308.5t327 125.5zM759 -41l-147 79l700 1433l146 -79zM71 1025
q0 186 124 310t303 124q169 0 276 -87.5t134 -226.5h-206q-40 127 -190 127q-92 0 -158.5 -65t-66.5 -182q0 -118 70 -183t177 -65q145 0 235 113l125 -76q-60 -107 -155 -165.5t-220 -58.5q-189 0 -318.5 124.5t-129.5 310.5z" />
    <glyph glyph-name="uni2109" unicode="&#x2109;" horiz-adv-x="1653" 
d="M724 0v1434h850v-209h-608v-408h557v-208h-557v-609h-242zM207 1178q0 -53 35.5 -89t89.5 -36t89.5 36t35.5 89t-35.5 89t-89.5 36t-89.5 -35.5t-35.5 -89.5zM42 1178q0 118 83.5 198t206.5 80q122 0 205.5 -80t83.5 -198t-83.5 -198.5t-205.5 -80.5q-123 0 -206.5 80.5
t-83.5 198.5z" />
    <glyph glyph-name="afii61289" unicode="&#x2113;" horiz-adv-x="1157" 
d="M134 264l-64 192q119 46 224 89v551q0 153 112.5 257.5t275.5 104.5q164 0 276.5 -104.5t112.5 -257.5v-53q0 -176 -137 -327t-407 -287v-80q0 -67 46 -118t110 -51q66 0 120 40.5t86 113.5l186 -111q-53 -115 -156.5 -181.5t-234.5 -66.5q-165 0 -273.5 100t-114.5 251
q-117 -46 -162 -62zM527 1080v-418q159 91 234.5 184.5t75.5 210.5v22q0 76 -44 126t-111 50q-66 0 -110.5 -49.5t-44.5 -125.5z" />
    <glyph glyph-name="afii61352" unicode="&#x2116;" horiz-adv-x="2264" 
d="M164 0v1434h224l537 -992v992h227v-1434h-223l-538 991v-991h-227zM2116 0h-799v194h799v-194zM1296 728q0 165 121.5 278.5t298.5 113.5t298.5 -114t121.5 -278q0 -165 -121.5 -279t-298.5 -114t-298.5 114t-121.5 279zM1517 728q0 -85 56.5 -142.5t142.5 -57.5
q85 0 142.5 57.5t57.5 142.5t-57.5 142t-142.5 57q-86 0 -142.5 -57t-56.5 -142z" />
    <glyph glyph-name="uni2117" unicode="&#x2117;" horiz-adv-x="1643" 
d="M879 589h-134v-266h-172v785h306q124 0 206 -73.5t82 -185.5q0 -113 -82 -186.5t-206 -73.5zM994 849q0 46 -34.5 75.5t-89.5 29.5h-125v-212h125q55 0 89.5 30t34.5 77zM80 717q0 153 58 290t157 236t236 157t290 58t290.5 -58t236.5 -157t157 -236t58 -290t-58 -290.5
t-157 -236.5t-236.5 -157t-290.5 -58t-290 58t-236 157t-157 236.5t-58 290.5zM204 717q0 -172 82 -316t224 -227t311 -83t311.5 83t224.5 227t82 316q0 129 -48.5 244.5t-131 198.5t-197 132t-241.5 49q-169 0 -311 -82.5t-224 -226t-82 -315.5z" />
    <glyph glyph-name="uni2120" unicode="&#x2120;" horiz-adv-x="1613" 
d="M81 826l83 81q44 -49 96 -76.5t101 -27.5q50 0 82.5 24t32.5 63q0 37 -31.5 61.5t-106.5 41.5q-248 54 -248 235q0 97 74 157.5t192 60.5q115 0 189.5 -63.5t92.5 -173.5h-160q-10 46 -41.5 71.5t-76.5 25.5q-40 0 -67 -20t-27 -51q0 -78 130 -108q135 -32 195 -89
t60 -148q0 -101 -77.5 -163.5t-209.5 -62.5q-165 0 -283 162zM1152 784h-88l-171 319v-427h-170v758h162l223 -448l224 448h162v-758h-171v427z" />
    <glyph glyph-name="uni2121" unicode="&#x2121;" horiz-adv-x="2247" 
d="M1044 459q12 -126 84.5 -208.5t173.5 -82.5q84 0 150 36.5t131 112.5l126 -111q-160 -231 -404 -231q-143 0 -255.5 74t-173.5 200.5t-61 280.5q0 152 61.5 279.5t171 201.5t243.5 74q132 0 238 -72t164 -194t58 -268q0 -51 -9 -92h-698zM1290 893q-86 0 -152.5 -72
t-86.5 -184h467q-17 113 -79 184.5t-149 71.5zM427 0v1225h-368v209h967v-209h-367v-1225h-232zM1860 0v1495h223v-1495h-223z" />
    <glyph glyph-name="trademark" unicode="&#x2122;" horiz-adv-x="1589" 
d="M253 676v614h-195v144h567v-144h-195v-614h-177zM1116 774h-67l-182 344v-442h-170v758h167l218 -434l220 434h166v-758h-171v442z" />
    <glyph glyph-name="Omega" unicode="&#x2126;" horiz-adv-x="1638" 
d="M1303 751q0 207 -141 351t-343 144q-203 0 -343 -144t-140 -351q0 -171 97 -316t275 -233v-202h-599v212h314q-163 102 -247.5 245t-84.5 315q0 141 56.5 268t153.5 218.5t232 145.5t286 54t286 -54t232 -145.5t153.5 -218.5t56.5 -268q0 -172 -84.5 -315t-247.5 -245
h314v-212h-599v202q178 88 275.5 233t97.5 316z" />
    <glyph glyph-name="estimated" unicode="&#x212e;" horiz-adv-x="1646" 
d="M1565 653h-1161v-382q81 -80 189 -124.5t230 -44.5q151 0 280.5 68.5t214.5 189.5l110 -75q-105 -147 -264.5 -228.5t-340.5 -81.5q-153 0 -290 58t-236 157t-157 236.5t-58 290.5t58 290t157 236t236 157t290 58t290.5 -58t236.5 -157t157 -236t58 -290v-64zM823 1330
q-122 0 -229.5 -45t-189.5 -125v-382h838v382q-177 170 -419 170z" />
    <glyph glyph-name="onethird" unicode="&#x2153;" horiz-adv-x="1971" 
d="M560 43l695 1425l156 -80l-696 -1426zM394 1434h170v-971h-200v772l-158 -86l-76 143zM1689 306q0 69 -47.5 117t-117.5 48q-30 0 -60 -11l-76 94l214 251h-341v166h582v-153l-196 -224q109 -25 175.5 -108t66.5 -196q0 -133 -99 -224t-259 -91q-96 0 -175 49.5
t-136 138.5l102 90q95 -114 202 -114q70 0 117.5 48.5t47.5 118.5z" />
    <glyph glyph-name="twothirds" unicode="&#x2154;" horiz-adv-x="1971" 
d="M560 43l695 1425l156 -80l-696 -1426zM584 874l-228 -246h356v-165h-618v146l334 366q51 55 72.5 98.5t21.5 90.5q0 56 -35.5 92t-92.5 36q-59 0 -99 -44.5t-48 -118.5h-185q10 153 101.5 241t231.5 88q142 0 234.5 -80t92.5 -209q0 -80 -32.5 -147.5t-105.5 -147.5z
M1689 306q0 69 -47.5 117t-117.5 48q-30 0 -60 -11l-76 94l214 251h-341v166h582v-153l-196 -224q109 -25 175.5 -108t66.5 -196q0 -133 -99 -224t-259 -91q-96 0 -175 49.5t-136 138.5l102 90q95 -114 202 -114q70 0 117.5 48.5t47.5 118.5z" />
    <glyph glyph-name="onefifth" unicode="&#x2155;" horiz-adv-x="1971" 
d="M560 43l695 1425l156 -80l-696 -1426zM394 1434h170v-971h-200v772l-158 -86l-76 143zM1537 -27q-201 0 -323 189l112 99q45 -61 93 -92t111 -31q70 0 117.5 48t47.5 118q0 71 -47 118.5t-117 47.5q-37 0 -71 -19t-54 -49l-146 19l60 548h541v-166h-360l-24 -196
q43 19 90 19q136 0 232 -89t96 -232q0 -147 -98 -239.5t-260 -92.5z" />
    <glyph glyph-name="twofifths" unicode="&#x2156;" horiz-adv-x="1971" 
d="M560 43l695 1425l156 -80l-696 -1426zM584 874l-228 -246h356v-165h-618v146l334 366q51 55 72.5 98.5t21.5 90.5q0 56 -35.5 92t-92.5 36q-59 0 -99 -44.5t-48 -118.5h-185q10 153 101.5 241t231.5 88q142 0 234.5 -80t92.5 -209q0 -80 -32.5 -147.5t-105.5 -147.5z
M1537 -27q-201 0 -323 189l112 99q45 -61 93 -92t111 -31q70 0 117.5 48t47.5 118q0 71 -47 118.5t-117 47.5q-37 0 -71 -19t-54 -49l-146 19l60 548h541v-166h-360l-24 -196q43 19 90 19q136 0 232 -89t96 -232q0 -147 -98 -239.5t-260 -92.5z" />
    <glyph glyph-name="threefifths" unicode="&#x2157;" horiz-adv-x="1971" 
d="M560 43l695 1425l156 -80l-696 -1426zM1537 -27q-201 0 -323 189l112 99q45 -61 93 -92t111 -31q70 0 117.5 48t47.5 118q0 71 -47 118.5t-117 47.5q-37 0 -71 -19t-54 -49l-146 19l60 548h541v-166h-360l-24 -196q43 19 90 19q136 0 232 -89t96 -232q0 -147 -98 -239.5
t-260 -92.5zM535 769q0 69 -47.5 117t-117.5 48q-30 0 -60 -11l-77 94l214 251h-341v166h583v-153l-196 -224q109 -25 175.5 -108t66.5 -196q0 -133 -99 -224t-259 -91q-96 0 -175 49.5t-136 138.5l102 90q95 -114 202 -114q70 0 117.5 48.5t47.5 118.5z" />
    <glyph glyph-name="fourfifths" unicode="&#x2158;" horiz-adv-x="1971" 
d="M560 43l695 1425l156 -80l-696 -1426zM1537 -27q-201 0 -323 189l112 99q45 -61 93 -92t111 -31q70 0 117.5 48t47.5 118q0 71 -47 118.5t-117 47.5q-37 0 -71 -19t-54 -49l-146 19l60 548h541v-166h-360l-24 -196q43 19 90 19q136 0 232 -89t96 -232q0 -147 -98 -239.5
t-260 -92.5zM37 644v153l432 637h186v-622h107v-168h-107v-181h-196v181h-422zM243 810h216v327z" />
    <glyph glyph-name="onesixth" unicode="&#x2159;" horiz-adv-x="1971" 
d="M560 43l695 1425l156 -80l-696 -1426zM394 1434h170v-971h-200v772l-158 -86l-76 143zM1783 971l-221 -343h13q88 0 166 -38.5t128.5 -113.5t50.5 -169q0 -143 -106.5 -237.5t-249.5 -94.5q-148 0 -254.5 94t-106.5 238q0 97 49 172l320 492h211zM1722 307
q0 70 -46.5 118.5t-114.5 48.5q-66 0 -113.5 -48.5t-47.5 -118.5q0 -71 47 -119.5t114 -48.5q68 0 114.5 48.5t46.5 119.5z" />
    <glyph glyph-name="fivesixths" unicode="&#x215a;" horiz-adv-x="1971" 
d="M560 43l695 1425l156 -80l-696 -1426zM1783 971l-221 -343h13q88 0 166 -38.5t128.5 -113.5t50.5 -169q0 -143 -106.5 -237.5t-249.5 -94.5q-148 0 -254.5 94t-106.5 238q0 97 49 172l320 492h211zM1722 307q0 70 -46.5 118.5t-114.5 48.5q-66 0 -113.5 -48.5
t-47.5 -118.5q0 -71 47 -119.5t114 -48.5q68 0 114.5 48.5t46.5 119.5zM383 438q-201 0 -323 189l112 99q45 -61 93 -92t111 -31q70 0 117.5 48t47.5 118q0 71 -47 118.5t-117 47.5q-37 0 -71 -19t-54 -49l-147 19l61 548h541v-166h-360l-24 -196q43 19 90 19q136 0 232 -89
t96 -232q0 -147 -98 -239.5t-260 -92.5z" />
    <glyph glyph-name="oneeighth" unicode="&#x215b;" horiz-adv-x="1971" 
d="M560 43l695 1425l156 -80l-696 -1426zM394 1434h170v-971h-200v772l-158 -86l-76 143zM1408 290q0 -65 44.5 -110t110.5 -45t110.5 45t44.5 110t-44.5 109.5t-110.5 44.5t-110.5 -44.5t-44.5 -109.5zM1868 721q0 -58 -29 -109t-79 -82q72 -35 114 -101t42 -142
q0 -134 -101.5 -224t-251.5 -90t-251.5 90t-101.5 224q0 76 42 142t113 101q-49 32 -78.5 82.5t-29.5 108.5q0 115 87 193.5t219 78.5t218.5 -78.5t86.5 -193.5zM1448 719q0 -48 33 -82t82 -34t81.5 34t32.5 82t-32.5 80t-81.5 32t-82 -32.5t-33 -79.5z" />
    <glyph glyph-name="threeeighths" unicode="&#x215c;" horiz-adv-x="1971" 
d="M560 43l695 1425l156 -80l-696 -1426zM1408 290q0 -65 44.5 -110t110.5 -45t110.5 45t44.5 110t-44.5 109.5t-110.5 44.5t-110.5 -44.5t-44.5 -109.5zM1868 721q0 -58 -29 -109t-79 -82q72 -35 114 -101t42 -142q0 -134 -101.5 -224t-251.5 -90t-251.5 90t-101.5 224
q0 76 42 142t113 101q-49 32 -78.5 82.5t-29.5 108.5q0 115 87 193.5t219 78.5t218.5 -78.5t86.5 -193.5zM1448 719q0 -48 33 -82t82 -34t81.5 34t32.5 82t-32.5 80t-81.5 32t-82 -32.5t-33 -79.5zM535 769q0 69 -47.5 117t-117.5 48q-30 0 -60 -11l-77 94l214 251h-341v166
h583v-153l-196 -224q109 -25 175.5 -108t66.5 -196q0 -133 -99 -224t-259 -91q-96 0 -175 49.5t-136 138.5l102 90q95 -114 202 -114q70 0 117.5 48.5t47.5 118.5z" />
    <glyph glyph-name="fiveeighths" unicode="&#x215d;" horiz-adv-x="1971" 
d="M560 43l695 1425l156 -80l-696 -1426zM383 438q-201 0 -323 189l112 99q45 -61 93 -92t111 -31q70 0 117.5 48t47.5 118q0 71 -47 118.5t-117 47.5q-37 0 -71 -19t-54 -49l-147 19l61 548h541v-166h-360l-24 -196q43 19 90 19q136 0 232 -89t96 -232q0 -147 -98 -239.5
t-260 -92.5zM1408 290q0 -65 44.5 -110t110.5 -45t110.5 45t44.5 110t-44.5 109.5t-110.5 44.5t-110.5 -44.5t-44.5 -109.5zM1868 721q0 -58 -29 -109t-79 -82q72 -35 114 -101t42 -142q0 -134 -101.5 -224t-251.5 -90t-251.5 90t-101.5 224q0 76 42 142t113 101
q-49 32 -78.5 82.5t-29.5 108.5q0 115 87 193.5t219 78.5t218.5 -78.5t86.5 -193.5zM1448 719q0 -48 33 -82t82 -34t81.5 34t32.5 82t-32.5 80t-81.5 32t-82 -32.5t-33 -79.5z" />
    <glyph glyph-name="seveneighths" unicode="&#x215e;" horiz-adv-x="1971" 
d="M560 43l695 1425l156 -80l-696 -1426zM1408 290q0 -65 44.5 -110t110.5 -45t110.5 45t44.5 110t-44.5 109.5t-110.5 44.5t-110.5 -44.5t-44.5 -109.5zM1868 721q0 -58 -29 -109t-79 -82q72 -35 114 -101t42 -142q0 -134 -101.5 -224t-251.5 -90t-251.5 90t-101.5 224
q0 76 42 142t113 101q-49 32 -78.5 82.5t-29.5 108.5q0 115 87 193.5t219 78.5t218.5 -78.5t86.5 -193.5zM1448 719q0 -48 33 -82t82 -34t81.5 34t32.5 82t-32.5 80t-81.5 32t-82 -32.5t-33 -79.5zM92 1434h637v-146l-344 -825h-221l341 804h-413v167z" />
    <glyph glyph-name="uni215F" unicode="&#x215f;" horiz-adv-x="1971" 
d="M560 43l695 1425l156 -80l-696 -1426zM394 1434h170v-971h-200v772l-158 -86l-76 143z" />
    <glyph glyph-name="arrowleft" unicode="&#x2190;" horiz-adv-x="1761" 
d="M623 239l-514 439l514 440l87 -109l-322 -261h1293v-136h-1296l325 -263z" />
    <glyph glyph-name="arrowup" unicode="&#x2191;" horiz-adv-x="1761" 
d="M434 982l439 514l441 -514l-110 -87l-261 322v-1294h-134v1297l-264 -325z" />
    <glyph glyph-name="arrowright" unicode="&#x2192;" horiz-adv-x="1761" 
d="M1646 678l-514 -439l-89 110l326 263h-1297v136h1294l-323 261l89 109z" />
    <glyph glyph-name="arrowdown" unicode="&#x2193;" horiz-adv-x="1761" 
d="M1314 473l-440 -514l-440 514l111 88l261 -322v1294h134v-1297l264 325z" />
    <glyph glyph-name="arrowboth" unicode="&#x2194;" horiz-adv-x="1761" 
d="M1646 678l-514 -439l-89 110l326 263h-984l325 -263l-87 -110l-514 439l514 440l87 -109l-322 -261h978l-323 261l89 109z" />
    <glyph glyph-name="arrowupdn" unicode="&#x2195;" horiz-adv-x="1761" 
d="M872 -40l-439 514l111 88l264 -325v984l-264 -325l-111 87l439 514l441 -514l-110 -87l-261 322v-978l261 322l110 -88z" />
    <glyph glyph-name="arrowupdnbse" unicode="&#x21a8;" horiz-adv-x="1761" 
d="M535 -27h326l-428 501l111 88l264 -325v984l-264 -325l-111 87l439 514l441 -514l-110 -87l-261 322v-978l261 322l110 -88l-429 -501h330v-153h-679v153z" />
    <glyph glyph-name="partialdiff" unicode="&#x2202;" horiz-adv-x="1257" 
d="M582 939q101 0 191 -42.5t152 -108.5q-13 219 -101 340.5t-245 121.5q-162 0 -294 -130l-98 184q155 154 393 154q185 0 318 -94.5t200.5 -261.5t67.5 -389q0 -175 -43.5 -316t-120 -232.5t-180 -140.5t-224.5 -49q-145 0 -266.5 64t-191 175t-69.5 243t70.5 243.5
t188 175t252.5 63.5zM598 183q127 0 213 94.5t109 292.5q-64 76 -147 118.5t-175 42.5q-123 0 -206 -78.5t-83 -195.5q0 -116 83.5 -195t205.5 -79z" />
    <glyph glyph-name="Delta" unicode="&#x2206;" horiz-adv-x="1404" 
d="M837 1434l526 -1434h-1322l527 1434h269zM702 1171l-337 -965h675z" />
    <glyph glyph-name="product" unicode="&#x220f;" horiz-adv-x="1387" 
d="M1224 1516v-1743h-242v1534h-576v-1534h-242v1743h1060z" />
    <glyph glyph-name="summation" unicode="&#x2211;" horiz-adv-x="1339" 
d="M122 -15l524 670l-524 648v213h1096v-209h-810l476 -591v-121l-475 -614h809v-208h-1096v212z" />
    <glyph glyph-name="minus" unicode="&#x2212;" horiz-adv-x="1184" 
d="M1063 579h-942v202h942v-202z" />
    <glyph glyph-name="uni2215" unicode="&#x2215;" horiz-adv-x="337" 
d="M-257 43l695 1425l156 -80l-696 -1426z" />
    <glyph glyph-name="uni2219" unicode="&#x2219;" horiz-adv-x="612" 
d="M156 667q0 64 43 106.5t107 42.5q65 0 108 -42.5t43 -106.5q0 -63 -43.5 -106t-107.5 -43t-107 43t-43 106z" />
    <glyph glyph-name="radical" unicode="&#x221a;" horiz-adv-x="1153" 
d="M644 0h-262l-343 768h255l202 -480l370 1289h247z" />
    <glyph glyph-name="infinity" unicode="&#x221e;" horiz-adv-x="1564" 
d="M273 679q0 -62 43 -101t107 -39q63 0 117 30.5t123 109.5q-69 79 -123 109.5t-117 30.5q-65 0 -107.5 -39t-42.5 -101zM782 559q-179 -191 -370 -191q-140 0 -237.5 88.5t-97.5 222.5t97.5 222.5t237.5 88.5q192 0 370 -191q178 191 370 191q141 0 238 -88.5t97 -222.5
t-97 -222.5t-238 -88.5q-191 0 -370 191zM1291 679q0 62 -42.5 101t-107.5 39q-63 0 -116.5 -30.5t-123.5 -109.5q70 -79 124 -109.5t116 -30.5q65 0 107.5 39t42.5 101z" />
    <glyph glyph-name="orthogonal" unicode="&#x221f;" horiz-adv-x="1254" 
d="M1212 209v-209h-1049v1178h241v-969h808z" />
    <glyph glyph-name="intersection" unicode="&#x2229;" horiz-adv-x="1315" 
d="M657 1055q-117 0 -195.5 -90.5t-78.5 -224.5v-740h-242v757q0 139 68 255.5t186.5 184t261.5 67.5t262 -67.5t187 -184t68 -255.5v-757h-242v740q0 134 -79 224.5t-196 90.5z" />
    <glyph glyph-name="integral" unicode="&#x222b;" horiz-adv-x="879" 
d="M557 1202v-1305q0 -188 -98.5 -280t-299.5 -92q-60 0 -116 9v193q54 -6 94 -6q99 0 142.5 43.5t43.5 134.5v1306q0 187 99 279.5t299 92.5q46 0 116 -9v-193q-45 5 -95 5q-99 0 -142 -43.5t-43 -134.5z" />
    <glyph glyph-name="approxequal" unicode="&#x2248;" horiz-adv-x="1184" 
d="M564 797q-34 33 -55.5 51t-52.5 34.5t-56 16.5q-90 0 -117 -166l-222 51q26 157 104 241.5t203 84.5q139 0 252 -103q39 -36 57 -51.5t49.5 -33.5t56.5 -18q91 0 118 166l221 -51q-26 -157 -103.5 -241.5t-202.5 -84.5q-141 0 -252 104zM564 334q-34 33 -55.5 51
t-52.5 34.5t-56 16.5q-90 0 -117 -166l-222 52q26 157 104 241t203 84q139 0 252 -103q39 -36 57 -51.5t49.5 -33.5t56.5 -18q91 0 118 166l221 -51q-26 -157 -103.5 -241.5t-202.5 -84.5q-141 0 -252 104z" />
    <glyph glyph-name="notequal" unicode="&#x2260;" horiz-adv-x="1184" 
d="M1063 345h-549l-161 -309l-139 73l123 236h-216v201h320l140 266h-460v201h564l149 284l139 -72l-111 -212h201v-201h-305l-140 -266h445v-201z" />
    <glyph glyph-name="equivalence" unicode="&#x2261;" horiz-adv-x="1184" 
d="M1063 580h-942v200h942v-200zM1063 924h-942v200h942v-200zM1063 236h-942v200h942v-200z" />
    <glyph glyph-name="lessequal" unicode="&#x2264;" horiz-adv-x="1184" 
d="M1063 0h-942v201h942v-201zM133 706v189l850 355l69 -158l-636 -291l636 -292l-69 -159z" />
    <glyph glyph-name="greaterequal" unicode="&#x2265;" horiz-adv-x="1184" 
d="M1063 0h-942v201h942v-201zM1049 895v-189l-850 -356l-69 159l636 292l-636 291l69 158z" />
    <glyph glyph-name="house" unicode="&#x2302;" horiz-adv-x="1314" 
d="M375 203h565v435l-283 326l-282 -326v-435zM1177 0h-1039v713l519 590l520 -590v-713z" />
    <glyph glyph-name="revlogicalnot" unicode="&#x2310;" horiz-adv-x="1184" 
d="M353 579v-343h-232v545h942v-202h-710z" />
    <glyph glyph-name="uni2318" unicode="&#x2318;" horiz-adv-x="1656" 
d="M709 542h238v238h-238v-238zM404 937h127v126q0 55 -35.5 91t-91.5 36q-55 0 -90 -35.5t-35 -91.5q0 -55 35 -90.5t90 -35.5zM1124 937h127q56 0 91.5 35.5t35.5 90.5t-36 91t-91 36t-91 -36t-36 -91v-126zM531 386h-127q-55 0 -90 -35.5t-35 -91.5t35 -91.5t90 -35.5
q56 0 91.5 36t35.5 91v127zM531 543v236h-127q-129 0 -216.5 82t-87.5 202q0 121 87.5 203t216.5 82q130 0 218 -82t88 -203v-126h236v126q0 121 88 203t217 82t217 -82t88 -203q0 -120 -88 -202t-217 -82h-127v-236h127q129 0 217 -81.5t88 -202.5t-88 -202.5t-217 -81.5
t-217 81.5t-88 202.5v127h-236v-127q0 -121 -88 -202.5t-218 -81.5q-129 0 -216.5 81.5t-87.5 202.5t87.5 202.5t216.5 81.5h127zM1251 386h-127v-127q0 -55 36 -91t91 -36t91 36t36 91t-36 91t-91 36z" />
    <glyph glyph-name="lozenge" unicode="&#x25ca;" horiz-adv-x="1179" 
d="M1090 618l-500 -940l-500 940l500 941zM852 618l-262 507l-262 -507l262 -507z" />
    <glyph glyph-name="H18533" unicode="&#x25cf;" horiz-adv-x="2048" 
d="M332 668q0 187 93 346.5t252.5 252.5t346.5 93t346.5 -93t252.5 -252.5t93 -346.5t-93 -347t-252.5 -253t-346.5 -93t-346.5 93t-252.5 253t-93 347z" />
    <glyph glyph-name="commaaccent" horiz-adv-x="861" 
d="M224 -422l251 343l151 -121l-293 -307z" />
    <glyph glyph-name="zero.tnum" horiz-adv-x="1146" 
d="M79 717q0 214 53 378.5t166 263.5t274 99t274.5 -99t167 -263.5t53.5 -378.5t-53.5 -379t-167 -264t-274.5 -99t-274 99t-166 263.5t-53 379.5zM314 717q0 -245 64 -385.5t194 -140.5t194 140.5t64 385.5q0 244 -64 384t-194 140t-194 -140t-64 -384z" />
    <glyph glyph-name="one.tnum" horiz-adv-x="972" 
d="M454 1434h216v-1434h-239v1200l-252 -137l-96 171z" />
    <glyph glyph-name="two.tnum" horiz-adv-x="1065" 
d="M780 614l-371 -408h559v-206h-869v194l496 543q80 88 114.5 157t34.5 141q0 95 -62.5 155.5t-160.5 60.5q-94 0 -161.5 -63.5t-80.5 -168.5h-223q8 123 65.5 222t162.5 158t239 59q199 0 329 -114.5t130 -299.5q0 -116 -47.5 -214.5t-154.5 -215.5z" />
    <glyph glyph-name="three.tnum" horiz-adv-x="1122" 
d="M510 180q120 0 200.5 79.5t80.5 193.5q0 112 -81 191.5t-200 79.5q-35 0 -76 -12l-93 116l338 398h-534v208h817v-207l-312 -356q172 -23 276 -146.5t104 -296.5q0 -86 -36.5 -167.5t-101.5 -145t-162.5 -102t-210.5 -38.5q-265 0 -431 263l128 109q121 -167 294 -167z
" />
    <glyph glyph-name="four.tnum" horiz-adv-x="1188" 
d="M70 275v208l637 951h232v-946h161v-213h-161v-275h-237v275h-632zM313 486h389v581z" />
    <glyph glyph-name="five.tnum" horiz-adv-x="1133" 
d="M535 -25q-136 0 -246 68.5t-186 192.5l131 109q122 -164 289 -164q120 0 200 78t80 194t-80 193.5t-200 77.5q-65 0 -120 -27t-86 -71l-169 21l89 787h751v-208h-538l-43 -359q71 49 176 49q124 0 228 -55.5t167 -162t63 -243.5q0 -212 -138.5 -346t-367.5 -134z" />
    <glyph glyph-name="six.tnum" horiz-adv-x="1201" 
d="M887 1434l-343 -531q32 17 74 17q128 0 238.5 -55t181 -163.5t70.5 -248.5q0 -136 -71 -246.5t-187 -171t-249 -60.5q-135 0 -251.5 60.5t-187.5 171t-71 246.5q0 138 71 250l472 731h253zM872 454q0 116 -79 195.5t-193 79.5t-193.5 -79.5t-79.5 -195.5t79.5 -195.5
t193.5 -79.5t193 79.5t79 195.5z" />
    <glyph glyph-name="seven.tnum" horiz-adv-x="1005" 
d="M59 1434h896v-196l-516 -1238h-262l514 1225h-632v209z" />
    <glyph glyph-name="eight.tnum" horiz-adv-x="1181" 
d="M325 429q0 -105 76.5 -179t188.5 -74t188.5 74t76.5 179t-76.5 179t-188.5 74t-188.5 -74t-76.5 -179zM1019 1074q0 -92 -52 -172t-132 -116q119 -42 187 -140.5t68 -222.5q0 -190 -144 -319t-356 -129t-356 129t-144 319q0 124 68.5 222.5t186.5 140.5
q-80 36 -131.5 116t-51.5 172q0 162 121.5 273t306.5 111t307 -111t122 -273zM387 1068q0 -78 59 -135t144 -57t144 57t59 135t-59 133.5t-144 55.5t-144 -55.5t-59 -133.5z" />
    <glyph glyph-name="nine.tnum" horiz-adv-x="1201" 
d="M314 0l343 529q-30 -16 -75 -16q-95 0 -183 32.5t-156.5 91.5t-109.5 148.5t-41 194.5q0 136 71 246.5t187 171t249 60.5q135 0 252 -60.5t188 -171t71 -246.5q0 -139 -72 -250l-471 -730h-253zM328 980q0 -117 79 -196t194 -79q114 0 193.5 79t79.5 196q0 116 -79.5 195
t-193.5 79t-193.5 -79t-79.5 -195z" />
    <glyph glyph-name="parenleft.case" horiz-adv-x="863" 
d="M233 716q0 274 100.5 523.5t281.5 430.5l164 -121q-147 -166 -225.5 -383t-78.5 -450q0 -232 78.5 -449.5t225.5 -383.5l-164 -121q-181 181 -281.5 430.5t-100.5 523.5z" />
    <glyph glyph-name="parenright.case" horiz-adv-x="863" 
d="M630 716q0 -273 -100.5 -522.5t-281.5 -431.5l-165 121q147 166 226 383.5t79 449.5q0 233 -79 450t-226 383l165 121q181 -182 281.5 -431.5t100.5 -522.5z" />
    <glyph glyph-name="hyphen.case" horiz-adv-x="835" 
d="M715 620h-594v218h594v-218z" />
    <glyph glyph-name="at.case" horiz-adv-x="1977" 
d="M535 730q0 184 115 311.5t287 127.5q159 0 267 -116v96h197v-561q0 -56 28 -90t75 -34q90 0 152 85.5t62 235.5q0 142 -59 270t-158 219.5t-234 145.5t-282 54q-148 0 -282.5 -57t-232 -154t-155 -233t-57.5 -287q0 -203 97.5 -370t270.5 -263.5t385 -96.5q272 0 491 155
l74 -152q-268 -168 -565 -168q-264 0 -478.5 116.5t-336.5 321.5t-122 457q0 188 72 355t194.5 285t290.5 186.5t354 68.5q258 0 469 -112t330.5 -307.5t119.5 -434.5q0 -222 -118.5 -357t-305.5 -135q-79 0 -148.5 38t-104.5 102q-109 -140 -290 -140q-172 0 -287 127
t-115 311zM733 730q0 -114 67.5 -188.5t168.5 -74.5t167.5 74.5t66.5 188.5t-66.5 188.5t-167.5 74.5t-168.5 -74.5t-67.5 -188.5z" />
    <glyph glyph-name="bracketleft.case" horiz-adv-x="863" 
d="M228 -195v1823h590v-209h-348v-1405h348v-209h-590z" />
    <glyph glyph-name="bracketright.case" horiz-adv-x="863" 
d="M635 1628v-1823h-590v209h348v1405h-348v209h590z" />
    <glyph glyph-name="braceleft.case" horiz-adv-x="863" 
d="M143 612v208q93 0 146 49.5t53 137.5v291q0 140 101.5 235t254.5 95h122v-209h-89q-64 0 -105.5 -41.5t-41.5 -106.5v-307q0 -198 -187 -247q187 -51 187 -247v-308q0 -65 41.5 -106.5t105.5 -41.5h89v-209h-122q-153 0 -254.5 95t-101.5 234v293q0 87 -53 136t-146 49z
" />
    <glyph glyph-name="braceright.case" horiz-adv-x="863" 
d="M720 820v-208q-93 0 -146.5 -49t-53.5 -136v-293q0 -139 -101 -234t-254 -95h-122v209h88q65 0 106.5 42t41.5 106v308q0 196 187 247q-187 49 -187 247v307q0 65 -41.5 106.5t-106.5 41.5h-88v209h122q153 0 254 -95t101 -235v-291q0 -88 53.5 -137.5t146.5 -49.5z" />
    <glyph glyph-name="exclamdown.case" horiz-adv-x="636" 
d="M198 0l35 1018h170l36 -1018h-241zM166 1310q0 64 43.5 106t108.5 42t108.5 -42t43.5 -106q0 -63 -44 -106t-108 -43q-65 0 -108.5 43t-43.5 106z" />
    <glyph glyph-name="guillemotleft.case" horiz-adv-x="1310" 
d="M101 606v161l523 340l70 -119l-372 -302l372 -301l-70 -120zM612 606v161l523 340l70 -119l-372 -302l372 -301l-70 -120z" />
    <glyph glyph-name="periodcentered.case" horiz-adv-x="612" 
d="M156 717q0 64 43 106.5t107 42.5q65 0 108 -42.5t43 -106.5q0 -63 -43.5 -106t-107.5 -43t-107 43t-43 106z" />
    <glyph glyph-name="guillemotright.case" horiz-adv-x="1310" 
d="M1209 767v-161l-523 -341l-70 120l373 301l-373 302l70 119zM698 767v-161l-523 -341l-70 120l373 301l-373 302l70 119z" />
    <glyph glyph-name="questiondown.case" horiz-adv-x="1127" 
d="M737 1310q0 -63 -43.5 -106t-108.5 -43q-64 0 -108 43t-44 106t43.5 105.5t108.5 42.5t108.5 -42.5t43.5 -105.5zM469 1015h241q0 -125 -19 -198t-68.5 -128.5t-148.5 -114.5q-80 -47 -112 -92.5t-32 -115.5q0 -77 62 -128.5t161 -51.5q111 0 180.5 64.5t69.5 174.5h239
q0 -107 -40 -193.5t-109 -142t-158.5 -85t-190.5 -29.5q-203 0 -331.5 114t-128.5 284q0 120 57 206t198 165q84 47 107 102t23 169z" />
    <glyph glyph-name="endash.case" horiz-adv-x="1024" 
d="M1024 620h-1024v218h1024v-218z" />
    <glyph glyph-name="emdash.case" horiz-adv-x="2048" 
d="M2048 620h-2048v218h2048v-218z" />
    <glyph glyph-name="bullet.case" horiz-adv-x="819" 
d="M139 729q0 110 79.5 189t191.5 79q111 0 190.5 -79t79.5 -189q0 -112 -79 -190t-191 -78q-113 0 -192 78t-79 190z" />
    <glyph glyph-name="guilsinglleft.case" horiz-adv-x="800" 
d="M101 606v161l523 340l70 -119l-372 -302l372 -301l-70 -120z" />
    <glyph glyph-name="guilsinglright.case" horiz-adv-x="800" 
d="M698 767v-161l-522 -341l-71 120l373 301l-373 302l71 119z" />
    <glyph glyph-name="zero.numerator" 
d="M57 948q0 146 38.5 259.5t119 182t194.5 68.5q113 0 194 -68.5t119 -182t38 -259.5t-38 -259.5t-119 -182t-194 -68.5q-114 0 -194.5 68.5t-119 182t-38.5 259.5zM255 948q0 -156 39 -247.5t115 -91.5q77 0 115 91t38 248t-38 247.5t-115 90.5q-76 0 -115 -91t-39 -247z
" />
    <glyph glyph-name="one.numerator" 
d="M394 1434h170v-971h-200v772l-158 -86l-76 143z" />
    <glyph glyph-name="two.numerator" 
d="M584 874l-228 -246h356v-165h-618v146l334 366q51 55 72.5 98.5t21.5 90.5q0 56 -35.5 92t-92.5 36q-59 0 -99 -44.5t-48 -118.5h-185q10 153 101.5 241t231.5 88q142 0 234.5 -80t92.5 -209q0 -80 -32.5 -147.5t-105.5 -147.5z" />
    <glyph glyph-name="three.numerator" 
d="M535 769q0 69 -47.5 117t-117.5 48q-30 0 -60 -11l-77 94l214 251h-341v166h583v-153l-196 -224q109 -25 175.5 -108t66.5 -196q0 -133 -99 -224t-259 -91q-96 0 -175 49.5t-136 138.5l102 90q95 -114 202 -114q70 0 117.5 48.5t47.5 118.5z" />
    <glyph glyph-name="four.numerator" 
d="M37 644v153l432 637h186v-622h107v-168h-107v-181h-196v181h-422zM243 810h216v327z" />
    <glyph glyph-name="five.numerator" 
d="M383 438q-201 0 -323 189l112 99q45 -61 93 -92t111 -31q70 0 117.5 48t47.5 118q0 71 -47 118.5t-117 47.5q-37 0 -71 -19t-54 -49l-147 19l61 548h541v-166h-360l-24 -196q43 19 90 19q136 0 232 -89t96 -232q0 -147 -98 -239.5t-260 -92.5z" />
    <glyph glyph-name="six.numerator" 
d="M630 1434l-221 -343h13q88 0 166 -38.5t128.5 -113.5t50.5 -169q0 -143 -106.5 -237.5t-249.5 -94.5q-148 0 -254.5 94t-106.5 238q0 97 49 172l320 492h211zM569 770q0 70 -46.5 118.5t-114.5 48.5q-66 0 -113.5 -48.5t-47.5 -118.5q0 -71 47 -119.5t114 -48.5
q68 0 114.5 48.5t46.5 119.5z" />
    <glyph glyph-name="seven.numerator" 
d="M92 1434h637v-146l-344 -825h-221l341 804h-413v167z" />
    <glyph glyph-name="eight.numerator" 
d="M254 755q0 -65 44.5 -110t110.5 -45t110.5 45t44.5 110t-44.5 109.5t-110.5 44.5t-110.5 -44.5t-44.5 -109.5zM714 1186q0 -58 -29 -109t-79 -82q72 -35 114 -101t42 -142q0 -134 -101.5 -224t-251.5 -90t-251.5 90t-101.5 224q0 76 42 142t113 101q-49 32 -78.5 82.5
t-29.5 108.5q0 115 87 193.5t219 78.5t218.5 -78.5t86.5 -193.5zM294 1184q0 -48 33 -82t82 -34t81.5 34t32.5 82t-32.5 80t-81.5 32t-82 -32.5t-33 -79.5z" />
    <glyph glyph-name="nine.numerator" 
d="M187 463l223 342q-6 -1 -18 -1q-137 0 -239 89.5t-102 232.5q0 95 50.5 172t132 118.5t174.5 41.5q147 0 253.5 -94.5t106.5 -237.5q0 -97 -50 -173l-319 -490h-212zM249 1125q0 -70 47 -118t115 -48q66 0 112.5 48t46.5 118q0 71 -46 119.5t-113 48.5q-68 0 -115 -48
t-47 -120z" />
    <glyph glyph-name="zero.denominator" 
d="M57 485q0 146 38.5 259.5t119 182t194.5 68.5q113 0 194 -68.5t119 -182t38 -259.5t-38 -259.5t-119 -182t-194 -68.5q-114 0 -194.5 68.5t-119 182t-38.5 259.5zM255 485q0 -156 39 -247.5t115 -91.5q77 0 115 91t38 248t-38 247.5t-115 90.5q-76 0 -115 -91t-39 -247z
" />
    <glyph glyph-name="one.denominator" 
d="M394 971h170v-971h-200v772l-158 -86l-76 143z" />
    <glyph glyph-name="two.denominator" 
d="M584 412l-228 -247h356v-165h-618v146l334 366q51 55 72.5 98.5t21.5 90.5q0 56 -35.5 92t-92.5 36q-59 0 -99 -44t-48 -118h-185q10 153 101.5 240.5t231.5 87.5q142 0 234.5 -79.5t92.5 -208.5q0 -80 -32.5 -147.5t-105.5 -147.5z" />
    <glyph glyph-name="three.denominator" 
d="M535 306q0 69 -47.5 117t-117.5 48q-30 0 -60 -11l-77 94l214 251h-341v166h583v-153l-196 -224q109 -25 175.5 -108t66.5 -196q0 -133 -99 -224t-259 -91q-96 0 -175 49.5t-136 138.5l102 90q95 -114 202 -114q70 0 117.5 48.5t47.5 118.5z" />
    <glyph glyph-name="four.denominator" 
d="M37 181v153l432 637h186v-622h107v-168h-107v-181h-196v181h-422zM243 347h216v327z" />
    <glyph glyph-name="five.denominator" 
d="M383 -25q-201 0 -323 189l112 99q45 -61 93 -92t111 -31q70 0 117.5 48t47.5 118q0 71 -47 118.5t-117 47.5q-37 0 -71 -19t-54 -49l-147 19l61 548h541v-166h-360l-24 -196q43 19 90 19q136 0 232 -89t96 -232q0 -147 -98 -239.5t-260 -92.5z" />
    <glyph glyph-name="six.denominator" 
d="M630 971l-221 -343h13q88 0 166 -38.5t128.5 -113.5t50.5 -169q0 -143 -106.5 -237.5t-249.5 -94.5q-148 0 -254.5 94t-106.5 238q0 97 49 172l320 492h211zM569 307q0 70 -46.5 118.5t-114.5 48.5q-66 0 -113.5 -48.5t-47.5 -118.5q0 -71 47 -119.5t114 -48.5
q68 0 114.5 48.5t46.5 119.5z" />
    <glyph glyph-name="seven.denominator" 
d="M92 971h637v-146l-344 -825h-221l341 804h-413v167z" />
    </font>
</defs>
</svg>
